  0
SECTION
  2
HEADER
  9
$ACADVER
  1
AC1009
  9
$DWGCODEPAGE
  3
ansi_1252
  9
$INSBASE
 10
0.0
 20
0.0
 30
0.0
  9
$EXTMIN
 10
1.000000000000000E+20
 20
1.000000000000000E+20
 30
1.000000000000000E+20
  9
$EXTMAX
 10
-1.000000000000000E+20
 20
-1.000000000000000E+20
 30
-1.000000000000000E+20
  9
$LIMMIN
 10
0.0
 20
0.0
  9
$LIMMAX
 10
12.0
 20
9.0
  9
$ORTHOMODE
 70
     0
  9
$REGENMODE
 70
     1
  9
$FILLMODE
 70
     1
  9
$QTEXTMODE
 70
     0
  9
$MIRRTEXT
 70
     1
  9
$DRAGMODE
 70
     2
  9
$LTSCALE
 40
25.4
  9
$OSMODE
 70
    37
  9
$ATTMODE
 70
     1
  9
$TEXTSIZE
 40
0.2
  9
$TRACEWID
 40
0.05
  9
$TEXTSTYLE
  7
STANDARD
  9
$CLAYER
  8
0
  9
$CELTYPE
  6
BYLAYER
  9
$CECOLOR
 62
   256
  9
$DIMSCALE
 40
1.0
  9
$DIMASZ
 40
0.18
  9
$DIMEXO
 40
0.0625
  9
$DIMDLI
 40
0.38
  9
$DIMRND
 40
0.0
  9
$DIMDLE
 40
0.0
  9
$DIMEXE
 40
0.18
  9
$DIMTP
 40
0.0
  9
$DIMTM
 40
0.0
  9
$DIMTXT
 40
0.18
  9
$DIMCEN
 40
0.09
  9
$DIMTSZ
 40
0.0
  9
$DIMTOL
 70
     0
  9
$DIMLIM
 70
     0
  9
$DIMTIH
 70
     1
  9
$DIMTOH
 70
     1
  9
$DIMSE1
 70
     0
  9
$DIMSE2
 70
     0
  9
$DIMTAD
 70
     0
  9
$DIMZIN
 70
     0
  9
$DIMBLK
  1

  9
$DIMASO
 70
     1
  9
$DIMSHO
 70
     1
  9
$DIMPOST
  1

  9
$DIMAPOST
  1

  9
$DIMALT
 70
     0
  9
$DIMALTD
 70
     2
  9
$DIMALTF
 40
25.4
  9
$DIMLFAC
 40
1.0
  9
$DIMTOFL
 70
     0
  9
$DIMTVP
 40
0.0
  9
$DIMTIX
 70
     0
  9
$DIMSOXD
 70
     0
  9
$DIMSAH
 70
     0
  9
$DIMBLK1
  1

  9
$DIMBLK2
  1

  9
$DIMSTYLE
  2
STANDARD
  9
$DIMCLRD
 70
     0
  9
$DIMCLRE
 70
     0
  9
$DIMCLRT
 70
     0
  9
$DIMTFAC
 40
1.0
  9
$DIMGAP
 40
0.09
  9
$LUNITS
 70
     2
  9
$LUPREC
 70
     4
  9
$SKETCHINC
 40
0.1
  9
$FILLETRAD
 40
0.0
  9
$AUNITS
 70
     0
  9
$AUPREC
 70
     0
  9
$MENU
  1
.
  9
$ELEVATION
 40
0.0
  9
$PELEVATION
 40
0.0
  9
$THICKNESS
 40
0.0
  9
$LIMCHECK
 70
     0
  9
$CHAMFERA
 40
0.0
  9
$CHAMFERB
 40
0.0
  9
$SKPOLY
 70
     0
  9
$TDCREATE
 40
2460620.374695637
  9
$TDUPDATE
 40
2460620.374695857
  9
$TDINDWG
 40
0.0000000116
  9
$TDUSRTIMER
 40
0.0000000116
  9
$USRTIMER
 70
     1
  9
$ANGBASE
 50
0.0
  9
$ANGDIR
 70
     0
  9
$PDMODE
 70
     0
  9
$PDSIZE
 40
0.0
  9
$PLINEWID
 40
0.0
  9
$COORDS
 70
     1
  9
$SPLFRAME
 70
     0
  9
$SPLINETYPE
 70
     6
  9
$SPLINESEGS
 70
     8
  9
$ATTDIA
 70
     0
  9
$ATTREQ
 70
     1
  9
$HANDLING
 70
     1
  9
$HANDSEED
  5
44F
  9
$SURFTAB1
 70
     6
  9
$SURFTAB2
 70
     6
  9
$SURFTYPE
 70
     6
  9
$SURFU
 70
     6
  9
$SURFV
 70
     6
  9
$UCSNAME
  2

  9
$UCSORG
 10
0.0
 20
0.0
 30
0.0
  9
$UCSXDIR
 10
1.0
 20
0.0
 30
0.0
  9
$UCSYDIR
 10
0.0
 20
1.0
 30
0.0
  9
$PUCSNAME
  2

  9
$PUCSORG
 10
0.0
 20
0.0
 30
0.0
  9
$PUCSXDIR
 10
1.0
 20
0.0
 30
0.0
  9
$PUCSYDIR
 10
0.0
 20
1.0
 30
0.0
  9
$USERI1
 70
     0
  9
$USERI2
 70
     0
  9
$USERI3
 70
     0
  9
$USERI4
 70
     0
  9
$USERI5
 70
     0
  9
$USERR1
 40
0.0
  9
$USERR2
 40
0.0
  9
$USERR3
 40
0.0
  9
$USERR4
 40
0.0
  9
$USERR5
 40
0.0
  9
$WORLDVIEW
 70
     1
  9
$SHADEDGE
 70
     3
  9
$SHADEDIF
 70
    70
  9
$TILEMODE
 70
     1
  9
$MAXACTVP
 70
    64
  9
$PLIMCHECK
 70
     0
  9
$PEXTMIN
 10
1.000000000000000E+20
 20
1.000000000000000E+20
 30
1.000000000000000E+20
  9
$PEXTMAX
 10
-1.000000000000000E+20
 20
-1.000000000000000E+20
 30
-1.000000000000000E+20
  9
$PLIMMIN
 10
0.0
 20
0.0
  9
$PLIMMAX
 10
12.0
 20
9.0
  9
$UNITMODE
 70
     0
  9
$VISRETAIN
 70
     1
  9
$PLINEGEN
 70
     0
  9
$PSLTSCALE
 70
     1
  0
ENDSEC
  0
SECTION
  2
TABLES
  0
TABLE
  2
VPORT
 70
     1
  0
VPORT
  2
*ACTIVE
 70
     0
 10
0.0
 20
0.0
 11
1.0
 21
1.0
 12
0.0
 22
0.0
 13
0.0
 23
0.0
 14
0.5
 24
0.5
 15
0.5
 25
0.5
 16
0.4703952435071021
 26
-0.8809251773736068
 36
0.05195331322614313
 17
-536.607387301696
 27
134.6672916172229
 37
540.9080886892896
 40
2207.492217946473
 41
1.3333
 42
42.81760027191017
 43
-3475.235422348138
 44
21899.36457765186
 50
0.0
 51
0.0000000000000032
 71
     1
 72
   100
 73
     1
 74
     3
 75
     0
 76
     0
 77
     0
 78
     0
  0
ENDTAB
  0
TABLE
  2
LTYPE
 70
     1
  0
LTYPE
  2
CONTINUOUS
 70
     0
  3
Solid line
 72
    65
 73
     0
 40
0.0
  0
ENDTAB
  0
TABLE
  2
LAYER
 70
     5
  0
LAYER
  2
0
 70
     0
 62
    13
  6
CONTINUOUS
  0
LAYER
  2
ABF_CUTTINGLINES
 70
     0
 62
   230
  6
CONTINUOUS
  0
LAYER
  2
ABF_EDGEBANDING
 70
     0
 62
    13
  6
CONTINUOUS
  0
LAYER
  2
ABF_LABEL
 70
     0
 62
   144
  6
CONTINUOUS
  0
LAYER
  2
DEFPOINTS
 70
     0
 62
     7
  6
CONTINUOUS
  0
ENDTAB
  0
TABLE
  2
STYLE
 70
     3
  0
STYLE
  2
STANDARD
 70
     0
 40
0.0
 41
1.0
 50
0.0
 71
     0
 42
0.2
  3
txt
  4

  0
STYLE
  2
ARIAL
 70
     0
 40
0.0
 41
1.0
 50
0.0
 71
     0
 42
0.2
  3

  4

  0
STYLE
  2
TAHOMA
 70
     0
 40
0.0
 41
1.0
 50
0.0
 71
     0
 42
0.2
  3

  4

  0
ENDTAB
  0
TABLE
  2
VIEW
 70
     0
  0
ENDTAB
  0
TABLE
  2
UCS
 70
     0
  0
ENDTAB
  0
TABLE
  2
APPID
 70
     3
  0
APPID
  2
ACAD
 70
     0
  0
APPID
  2
ACAD_MATERIAL_MAPPER
 70
     0
  0
APPID
  2
ACADANNOTATIVE
 70
     0
  0
ENDTAB
  0
TABLE
  2
DIMSTYLE
 70
     3
  0
DIMSTYLE
  2
STANDARD
 70
     0
  3

  4

  5

  6

  7

 40
1.0
 41
0.18
 42
0.0625
 43
0.38
 44
0.18
 45
0.0
 46
0.0
 47
0.0
 48
0.0
140
0.18
141
0.09
142
0.0
143
25.4
144
1.0
145
0.0
146
1.0
147
0.09
 71
     0
 72
     0
 73
     1
 74
     1
 75
     0
 76
     0
 77
     0
 78
     0
170
     0
171
     2
172
     0
173
     0
174
     0
175
     0
176
     0
177
     0
178
     0
  0
DIMSTYLE
  2
DIMSTYLE1
 70
     0
  3
mm
  4

  5

  6

  7

 40
1.0
 41
12.7
 42
12.7
 43
0.38
 44
12.7
 45
0.0
 46
0.0
 47
0.0
 48
0.0
140
490.6646256027327
141
0.09
142
0.0
143
25.4
144
1.0
145
0.0
146
1.0
147
2.54
 71
     0
 72
     0
 73
     1
 74
     1
 75
     0
 76
     0
 77
     4
 78
     0
170
     0
171
     2
172
     0
173
     0
174
     0
175
     0
176
     0
177
     0
178
     0
  0
DIMSTYLE
  2
DIMENSIONS
 70
     0
  3
mm
  4

  5

  6

  7

 40
1.0
 41
12.7
 42
12.7
 43
0.38
 44
12.7
 45
0.0
 46
0.0
 47
0.0
 48
0.0
140
25.4
141
0.09
142
0.0
143
25.4
144
1.0
145
0.0
146
1.0
147
2.54
 71
     0
 72
     0
 73
     1
 74
     1
 75
     0
 76
     0
 77
     0
 78
     0
170
     0
171
     2
172
     0
173
     0
174
     0
175
     0
176
     0
177
     0
178
     0
  0
ENDTAB
  0
ENDSEC
  0
SECTION
  2
BLOCKS
  0
BLOCK
  8
0
  2
$MODEL_SPACE
 70
     0
 10
0.0
 20
0.0
 30
0.0
  3
$MODEL_SPACE
  1

  0
ENDBLK
  5
21
  8
0
  0
BLOCK
 67
     1
  8
0
  2
$PAPER_SPACE
 70
     0
 10
0.0
 20
0.0
 30
0.0
  3
$PAPER_SPACE
  1

  0
ENDBLK
  5
1D
 67
     1
  8
0
  0
BLOCK
  8
0
  2
___18__THICKNESS_18
 70
     0
 10
0.0
 20
0.0
 30
0.0
  3
___18__THICKNESS_18
  1

  0
INSERT
  5
77
  8
0
 62
     0
 66
     1
  2
_______2
 10
-520.0000000002257
 20
-118.0000032000009
 30
0.0
  0
ATTRIB
  5
78
  8
0
 10
0.0
 20
0.0
 30
0.0
 40
1.0
  1
__6. \U+0421\U+0442\U+043E\U+0439\U+043A\U+0430
  2
Skp_GroupInstanceName
 70
     0
  0
SEQEND
  5
79
  8
0
 62
     0
  0
ENDBLK
  5
67
  8
0
  0
BLOCK
  8
0
  2
GROUP46_1
 70
     0
 10
0.0
 20
0.0
 30
0.0
  3
GROUP46_1
  1

  0
LINE
  5
7A
  8
ABF_LABEL
 62
     0
 10
-56.70042145691018
 20
0.4101272360218877
 30
0.0
 11
-58.85603244683842
 21
-4.584951984511479
 31
0.0
  0
LINE
  5
7B
  8
ABF_LABEL
 62
     0
 10
-45.04748479454087
 20
-4.584951984511479
 30
0.0
 11
-47.05208324520158
 21
-10.14339044020573
 31
0.0
  0
LINE
  5
7C
  8
ABF_LABEL
 62
     0
 10
-58.85603244683842
 20
3.837396455711791
 30
0.0
 11
-56.62224909886751
 21
10.4986461643113
 31
0.0
  0
LINE
  5
7D
  8
ABF_LABEL
 62
     0
 10
-47.10768493316273
 20
0.953681213564346
 30
0.0
 11
-51.89614621727036
 21
2.883013462066652
 31
0.0
  0
LINE
  5
7E
  8
ABF_LABEL
 62
     0
 10
-56.62224909886751
 20
10.4986461643113
 30
0.0
 11
-51.89614621727036
 21
12.6531324432691
 31
0.0
  0
LINE
  5
7F
  8
ABF_LABEL
 62
     0
 10
-45.04748479454087
 20
-4.584951984511479
 30
0.0
 11
-47.10768493316273
 21
0.953681213564346
 31
0.0
  0
LINE
  5
80
  8
ABF_LABEL
 62
     0
 10
-51.89614621727036
 20
12.6531324432691
 30
0.0
 11
-47.60895818572939
 21
10.96862780634562
 31
0.0
  0
LINE
  5
81
  8
ABF_LABEL
 62
     0
 10
-47.05208324520158
 20
-10.14339044020573
 30
0.0
 11
-51.89614621727036
 21
-12.446
 31
0.0
  0
LINE
  5
82
  8
ABF_LABEL
 62
     0
 10
-51.89614621727036
 20
-12.446
 30
0.0
 11
-57.01860462203656
 21
-10.14339044020573
 31
0.0
  0
LINE
  5
83
  8
ABF_LABEL
 62
     0
 10
-51.89614621727036
 20
2.883013462066652
 30
0.0
 11
-56.70042145691018
 21
0.4101272360218877
 31
0.0
  0
LINE
  5
84
  8
ABF_LABEL
 62
     0
 10
-58.85603244683842
 20
-4.584951984511479
 30
0.0
 11
-58.85603244683842
 21
3.837396455711791
 31
0.0
  0
LINE
  5
85
  8
ABF_LABEL
 62
     0
 10
-57.01860462203656
 20
-10.14339044020573
 30
0.0
 11
-58.85603244683842
 21
-4.584951984511479
 31
0.0
  0
LINE
  5
86
  8
ABF_LABEL
 62
     0
 10
-47.60895818572939
 20
10.96862780634562
 30
0.0
 11
-45.8828816925986
 21
8.273815375539993
 31
0.0
  0
LINE
  5
87
  8
ABF_LABEL
 62
     0
 10
-4.891689655172415
 20
6.893034482758622
 30
0.0
 11
-7.24337931034483
 21
7.322206896551726
 31
0.0
  0
LINE
  5
88
  8
ABF_LABEL
 62
     0
 10
-7.24337931034483
 20
7.322206896551726
 30
0.0
 11
-9.095827586206896
 21
8.600965517241379
 31
0.0
  0
LINE
  5
89
  8
ABF_LABEL
 62
     0
 10
-9.095827586206896
 20
8.600965517241379
 30
0.0
 11
-10.30451724137931
 21
10.72055172413793
 31
0.0
  0
LINE
  5
8A
  8
ABF_LABEL
 62
     0
 10
-10.30451724137931
 20
10.72055172413793
 30
0.0
 11
-10.73368965517242
 21
13.6371724137931
 31
0.0
  0
LINE
  5
8B
  8
ABF_LABEL
 62
     0
 10
-10.73368965517242
 20
13.6371724137931
 30
0.0
 11
-10.3176551724138
 21
16.49248275862069
 31
0.0
  0
LINE
  5
8C
  8
ABF_LABEL
 62
     0
 10
-10.3176551724138
 20
16.49248275862069
 30
0.0
 11
-9.10458620689656
 21
18.61206896551724
 31
0.0
  0
LINE
  5
8D
  8
ABF_LABEL
 62
     0
 10
-9.10458620689656
 20
18.61206896551724
 30
0.0
 11
-7.25651724137932
 21
19.94775862068965
 31
0.0
  0
LINE
  5
8E
  8
ABF_LABEL
 62
     0
 10
-7.25651724137932
 20
19.94775862068965
 30
0.0
 11
-4.865413793103458
 21
20.40758620689655
 31
0.0
  0
LINE
  5
8F
  8
ABF_LABEL
 62
     0
 10
-4.865413793103458
 20
20.40758620689655
 30
0.0
 11
-3.634827586206899
 21
20.31124137931034
 31
0.0
  0
LINE
  5
90
  8
ABF_LABEL
 62
     0
 10
-3.634827586206899
 20
20.31124137931034
 30
0.0
 11
-2.570655172413798
 21
20.066
 31
0.0
  0
LINE
  5
91
  8
ABF_LABEL
 62
     0
 10
-2.570655172413798
 20
20.066
 30
0.0
 11
-1.707931034482763
 21
19.73755172413793
 31
0.0
  0
LINE
  5
92
  8
ABF_LABEL
 62
     0
 10
-1.707931034482763
 20
19.73755172413793
 30
0.0
 11
-0.8364482758620764
 21
19.304
 31
0.0
  0
LINE
  5
93
  8
ABF_LABEL
 62
     0
 10
-0.8364482758620764
 20
19.304
 30
0.0
 11
-0.8364482758620764
 21
17.21068965517241
 31
0.0
  0
LINE
  5
94
  8
ABF_LABEL
 62
     0
 10
-0.8364482758620764
 20
17.21068965517241
 30
0.0
 11
-0.9765862068965526
 21
17.21068965517241
 31
0.0
  0
LINE
  5
95
  8
ABF_LABEL
 62
     0
 10
-0.9765862068965526
 20
17.21068965517241
 30
0.0
 11
-1.56341379310345
 21
17.71868965517241
 31
0.0
  0
LINE
  5
96
  8
ABF_LABEL
 62
     0
 10
-1.56341379310345
 20
17.71868965517241
 30
0.0
 11
-2.439275862068974
 21
18.30551724137931
 31
0.0
  0
LINE
  5
97
  8
ABF_LABEL
 62
     0
 10
-2.439275862068974
 20
18.30551724137931
 30
0.0
 11
-3.525344827586208
 21
18.75220689655172
 31
0.0
  0
LINE
  5
98
  8
ABF_LABEL
 62
     0
 10
-3.525344827586208
 20
18.75220689655172
 30
0.0
 11
-4.882931034482763
 21
18.92737931034483
 31
0.0
  0
LINE
  5
99
  8
ABF_LABEL
 62
     0
 10
-4.882931034482763
 20
18.92737931034483
 30
0.0
 11
-6.459482758620692
 21
18.58579310344827
 31
0.0
  0
LINE
  5
9A
  8
ABF_LABEL
 62
     0
 10
-6.459482758620692
 20
18.58579310344827
 30
0.0
 11
-7.764517241379321
 21
17.57855172413793
 31
0.0
  0
LINE
  5
9B
  8
ABF_LABEL
 62
     0
 10
-7.764517241379321
 20
17.57855172413793
 30
0.0
 11
-8.622862068965517
 21
15.90565517241379
 31
0.0
  0
LINE
  5
9C
  8
ABF_LABEL
 62
     0
 10
-8.622862068965517
 20
15.90565517241379
 30
0.0
 11
-8.92941379310345
 21
13.6371724137931
 31
0.0
  0
LINE
  5
9D
  8
ABF_LABEL
 62
     0
 10
-8.92941379310345
 20
13.6371724137931
 30
0.0
 11
-8.605344827586212
 21
11.32927586206896
 31
0.0
  0
LINE
  5
9E
  8
ABF_LABEL
 62
     0
 10
-8.605344827586212
 20
11.32927586206896
 30
0.0
 11
-7.720724137931034
 21
9.695793103448278
 31
0.0
  0
LINE
  5
9F
  8
ABF_LABEL
 62
     0
 10
-7.720724137931034
 20
9.695793103448278
 30
0.0
 11
-6.441965517241386
 21
8.719206896551725
 31
0.0
  0
LINE
  5
A0
  8
ABF_LABEL
 62
     0
 10
-6.441965517241386
 20
8.719206896551725
 30
0.0
 11
-4.882931034482763
 21
8.390758620689654
 31
0.0
  0
LINE
  5
A1
  8
ABF_LABEL
 62
     0
 10
-4.882931034482763
 20
8.390758620689654
 30
0.0
 11
-3.490310344827586
 21
8.574689655172415
 31
0.0
  0
LINE
  5
A2
  8
ABF_LABEL
 62
     0
 10
-3.490310344827586
 20
8.574689655172415
 30
0.0
 11
-2.351689655172414
 21
9.038896551724136
 31
0.0
  0
LINE
  5
A3
  8
ABF_LABEL
 62
     0
 10
-2.351689655172414
 20
9.038896551724136
 30
0.0
 11
-1.519620689655175
 21
9.595068965517243
 31
0.0
  0
LINE
  5
A4
  8
ABF_LABEL
 62
     0
 10
-1.519620689655175
 20
9.595068965517243
 30
0.0
 11
-0.9678275862069
 21
10.0811724137931
 31
0.0
  0
LINE
  5
A5
  8
ABF_LABEL
 62
     0
 10
-0.9678275862069
 20
10.0811724137931
 30
0.0
 11
-0.8364482758620764
 21
10.0811724137931
 31
0.0
  0
LINE
  5
A6
  8
ABF_LABEL
 62
     0
 10
-0.8364482758620764
 20
10.0811724137931
 30
0.0
 11
-0.8364482758620764
 21
8.014137931034483
 31
0.0
  0
LINE
  5
A7
  8
ABF_LABEL
 62
     0
 10
-0.8364482758620764
 20
8.014137931034483
 30
0.0
 11
-1.646620689655172
 21
7.628758620689653
 31
0.0
  0
LINE
  5
A8
  8
ABF_LABEL
 62
     0
 10
-1.646620689655172
 20
7.628758620689653
 30
0.0
 11
-2.570655172413798
 21
7.269655172413793
 31
0.0
  0
LINE
  5
A9
  8
ABF_LABEL
 62
     0
 10
-2.570655172413798
 20
7.269655172413793
 30
0.0
 11
-3.626068965517247
 21
6.989379310344829
 31
0.0
  0
LINE
  5
AA
  8
ABF_LABEL
 62
     0
 10
-3.626068965517247
 20
6.989379310344829
 30
0.0
 11
-4.891689655172415
 21
6.893034482758622
 31
0.0
  0
LINE
  5
AB
  8
ABF_LABEL
 62
     0
 10
7.79955172413792
 20
15.46772413793103
 30
0.0
 11
4.471275862068964
 21
15.46772413793103
 31
0.0
  0
LINE
  5
AC
  8
ABF_LABEL
 62
     0
 10
4.471275862068964
 20
15.46772413793103
 30
0.0
 11
4.471275862068964
 21
7.129517241379311
 31
0.0
  0
LINE
  5
AD
  8
ABF_LABEL
 62
     0
 10
4.471275862068964
 20
7.129517241379311
 30
0.0
 11
2.824655172413781
 21
7.129517241379311
 31
0.0
  0
LINE
  5
AE
  8
ABF_LABEL
 62
     0
 10
2.824655172413781
 20
7.129517241379311
 30
0.0
 11
2.824655172413781
 21
15.46772413793103
 31
0.0
  0
LINE
  5
AF
  8
ABF_LABEL
 62
     0
 10
2.824655172413781
 20
15.46772413793103
 30
0.0
 11
-0.5036206896551741
 21
15.46772413793103
 31
0.0
  0
LINE
  5
B0
  8
ABF_LABEL
 62
     0
 10
-0.5036206896551741
 20
15.46772413793103
 30
0.0
 11
-0.5036206896551741
 21
16.91289655172414
 31
0.0
  0
LINE
  5
B1
  8
ABF_LABEL
 62
     0
 10
-0.5036206896551741
 20
16.91289655172414
 30
0.0
 11
7.79955172413792
 21
16.91289655172414
 31
0.0
  0
LINE
  5
B2
  8
ABF_LABEL
 62
     0
 10
7.79955172413792
 20
16.91289655172414
 30
0.0
 11
7.79955172413792
 21
15.46772413793103
 31
0.0
  0
LINE
  5
B3
  8
ABF_LABEL
 62
     0
 10
17.07493103448275
 20
12.0168275862069
 30
0.0
 11
15.88375862068965
 21
8.202448275862071
 31
0.0
  0
LINE
  5
B4
  8
ABF_LABEL
 62
     0
 10
15.88375862068965
 20
8.202448275862071
 30
0.0
 11
12.71313793103448
 21
6.858
 31
0.0
  0
LINE
  5
B5
  8
ABF_LABEL
 62
     0
 10
12.71313793103448
 20
6.858
 30
0.0
 11
9.503103448275857
 21
8.246241379310346
 31
0.0
  0
LINE
  5
B6
  8
ABF_LABEL
 62
     0
 10
9.503103448275857
 20
8.246241379310346
 30
0.0
 11
8.333827586206889
 21
12.0168275862069
 31
0.0
  0
LINE
  5
B7
  8
ABF_LABEL
 62
     0
 10
8.333827586206889
 20
12.0168275862069
 30
0.0
 11
9.538137931034479
 21
15.8268275862069
 31
0.0
  0
LINE
  5
B8
  8
ABF_LABEL
 62
     0
 10
9.538137931034479
 20
15.8268275862069
 30
0.0
 11
12.71313793103448
 21
17.18441379310345
 31
0.0
  0
LINE
  5
B9
  8
ABF_LABEL
 62
     0
 10
12.71313793103448
 20
17.18441379310345
 30
0.0
 11
15.88375862068965
 21
15.83120689655173
 31
0.0
  0
LINE
  5
BA
  8
ABF_LABEL
 62
     0
 10
15.88375862068965
 20
15.83120689655173
 30
0.0
 11
17.07493103448275
 21
12.0168275862069
 31
0.0
  0
LINE
  5
BB
  8
ABF_LABEL
 62
     0
 10
15.37575862068964
 20
12.0168275862069
 30
0.0
 11
14.68382758620689
 21
14.84148275862069
 31
0.0
  0
LINE
  5
BC
  8
ABF_LABEL
 62
     0
 10
14.68382758620689
 20
14.84148275862069
 30
0.0
 11
12.71313793103448
 21
15.76551724137931
 31
0.0
  0
LINE
  5
BD
  8
ABF_LABEL
 62
     0
 10
12.71313793103448
 20
15.76551724137931
 30
0.0
 11
10.72931034482758
 21
14.84148275862069
 31
0.0
  0
LINE
  5
BE
  8
ABF_LABEL
 62
     0
 10
10.72931034482758
 20
14.84148275862069
 30
0.0
 11
10.03299999999999
 21
12.0168275862069
 31
0.0
  0
LINE
  5
BF
  8
ABF_LABEL
 62
     0
 10
10.03299999999999
 20
12.0168275862069
 30
0.0
 11
10.72931034482758
 21
9.227206896551724
 31
0.0
  0
LINE
  5
C0
  8
ABF_LABEL
 62
     0
 10
10.72931034482758
 20
9.227206896551724
 30
0.0
 11
12.71313793103448
 21
8.276896551724136
 31
0.0
  0
LINE
  5
C1
  8
ABF_LABEL
 62
     0
 10
12.71313793103448
 20
8.276896551724136
 30
0.0
 11
14.67944827586206
 21
9.209689655172413
 31
0.0
  0
LINE
  5
C2
  8
ABF_LABEL
 62
     0
 10
14.67944827586206
 20
9.209689655172413
 30
0.0
 11
15.37575862068964
 21
12.0168275862069
 31
0.0
  0
LINE
  5
C3
  8
ABF_LABEL
 62
     0
 10
26.49044827586206
 20
7.129517241379311
 30
0.0
 11
24.86134482758619
 21
7.129517241379311
 31
0.0
  0
LINE
  5
C4
  8
ABF_LABEL
 62
     0
 10
24.86134482758619
 20
7.129517241379311
 30
0.0
 11
24.86134482758619
 21
14.42544827586207
 31
0.0
  0
LINE
  5
C5
  8
ABF_LABEL
 62
     0
 10
24.86134482758619
 20
14.42544827586207
 30
0.0
 11
20.25431034482759
 21
7.129517241379311
 31
0.0
  0
LINE
  5
C6
  8
ABF_LABEL
 62
     0
 10
20.25431034482759
 20
7.129517241379311
 30
0.0
 11
18.7653448275862
 21
7.129517241379311
 31
0.0
  0
LINE
  5
C7
  8
ABF_LABEL
 62
     0
 10
18.7653448275862
 20
7.129517241379311
 30
0.0
 11
18.7653448275862
 21
16.91289655172414
 31
0.0
  0
LINE
  5
C8
  8
ABF_LABEL
 62
     0
 10
18.7653448275862
 20
16.91289655172414
 30
0.0
 11
20.39444827586205
 21
16.91289655172414
 31
0.0
  0
LINE
  5
C9
  8
ABF_LABEL
 62
     0
 10
20.39444827586205
 20
16.91289655172414
 30
0.0
 11
20.39444827586205
 21
9.7308275862069
 31
0.0
  0
LINE
  5
CA
  8
ABF_LABEL
 62
     0
 10
20.39444827586205
 20
9.7308275862069
 30
0.0
 11
24.94893103448274
 21
16.91289655172414
 31
0.0
  0
LINE
  5
CB
  8
ABF_LABEL
 62
     0
 10
24.94893103448274
 20
16.91289655172414
 30
0.0
 11
26.49044827586206
 21
16.91289655172414
 31
0.0
  0
LINE
  5
CC
  8
ABF_LABEL
 62
     0
 10
26.49044827586206
 20
16.91289655172414
 30
0.0
 11
26.49044827586206
 21
7.129517241379311
 31
0.0
  0
LINE
  5
CD
  8
ABF_LABEL
 62
     0
 10
25.75472413793103
 20
21.45862068965517
 30
0.0
 11
25.57079310344826
 21
20.08789655172414
 31
0.0
  0
LINE
  5
CE
  8
ABF_LABEL
 62
     0
 10
25.57079310344826
 20
20.08789655172414
 30
0.0
 11
25.04527586206897
 21
19.05
 31
0.0
  0
LINE
  5
CF
  8
ABF_LABEL
 62
     0
 10
25.04527586206897
 20
19.05
 30
0.0
 11
24.15189655172412
 21
18.35368965517241
 31
0.0
  0
LINE
  5
D0
  8
ABF_LABEL
 62
     0
 10
24.15189655172412
 20
18.35368965517241
 30
0.0
 11
22.87313793103447
 21
18.12158620689655
 31
0.0
  0
LINE
  5
D1
  8
ABF_LABEL
 62
     0
 10
22.87313793103447
 20
18.12158620689655
 30
0.0
 11
21.61627586206895
 21
18.36244827586207
 31
0.0
  0
LINE
  5
D2
  8
ABF_LABEL
 62
     0
 10
21.61627586206895
 20
18.36244827586207
 30
0.0
 11
20.70975862068965
 21
19.05
 31
0.0
  0
LINE
  5
D3
  8
ABF_LABEL
 62
     0
 10
20.70975862068965
 20
19.05
 30
0.0
 11
20.16672413793102
 21
20.10103448275862
 31
0.0
  0
LINE
  5
D4
  8
ABF_LABEL
 62
     0
 10
20.16672413793102
 20
20.10103448275862
 30
0.0
 11
19.98279310344827
 21
21.45862068965517
 31
0.0
  0
LINE
  5
D5
  8
ABF_LABEL
 62
     0
 10
19.98279310344827
 20
21.45862068965517
 30
0.0
 11
21.4016896551724
 21
21.45862068965517
 31
0.0
  0
LINE
  5
D6
  8
ABF_LABEL
 62
     0
 10
21.4016896551724
 20
21.45862068965517
 30
0.0
 11
21.76955172413793
 21
19.75506896551724
 31
0.0
  0
LINE
  5
D7
  8
ABF_LABEL
 62
     0
 10
21.76955172413793
 20
19.75506896551724
 30
0.0
 11
22.87313793103447
 21
19.23393103448276
 31
0.0
  0
LINE
  5
D8
  8
ABF_LABEL
 62
     0
 10
22.87313793103447
 20
19.23393103448276
 30
0.0
 11
23.95044827586207
 21
19.74631034482759
 31
0.0
  0
LINE
  5
D9
  8
ABF_LABEL
 62
     0
 10
23.95044827586207
 20
19.74631034482759
 30
0.0
 11
24.3358275862069
 21
21.45862068965517
 31
0.0
  0
LINE
  5
DA
  8
ABF_LABEL
 62
     0
 10
24.3358275862069
 20
21.45862068965517
 30
0.0
 11
25.75472413793103
 21
21.45862068965517
 31
0.0
  0
LINE
  5
DB
  8
ABF_LABEL
 62
     0
 10
36.74679310344827
 20
7.129517241379311
 30
0.0
 11
34.69727586206896
 21
7.129517241379311
 31
0.0
  0
LINE
  5
DC
  8
ABF_LABEL
 62
     0
 10
34.69727586206896
 20
7.129517241379311
 30
0.0
 11
31.34272413793103
 21
11.64020689655172
 31
0.0
  0
LINE
  5
DD
  8
ABF_LABEL
 62
     0
 10
31.34272413793103
 20
11.64020689655172
 30
0.0
 11
30.51941379310345
 21
11.64020689655172
 31
0.0
  0
LINE
  5
DE
  8
ABF_LABEL
 62
     0
 10
30.51941379310345
 20
11.64020689655172
 30
0.0
 11
30.51941379310345
 21
7.129517241379311
 31
0.0
  0
LINE
  5
DF
  8
ABF_LABEL
 62
     0
 10
30.51941379310345
 20
7.129517241379311
 30
0.0
 11
28.87279310344826
 21
7.129517241379311
 31
0.0
  0
LINE
  5
E0
  8
ABF_LABEL
 62
     0
 10
28.87279310344826
 20
7.129517241379311
 30
0.0
 11
28.87279310344826
 21
16.91289655172414
 31
0.0
  0
LINE
  5
E1
  8
ABF_LABEL
 62
     0
 10
28.87279310344826
 20
16.91289655172414
 30
0.0
 11
30.51941379310345
 21
16.91289655172414
 31
0.0
  0
LINE
  5
E2
  8
ABF_LABEL
 62
     0
 10
30.51941379310345
 20
16.91289655172414
 30
0.0
 11
30.51941379310345
 21
12.65620689655172
 31
0.0
  0
LINE
  5
E3
  8
ABF_LABEL
 62
     0
 10
30.51941379310345
 20
12.65620689655172
 30
0.0
 11
31.60986206896551
 21
12.9233448275862
 31
0.0
  0
LINE
  5
E4
  8
ABF_LABEL
 62
     0
 10
31.60986206896551
 20
12.9233448275862
 30
0.0
 11
32.37624137931033
 21
13.92620689655172
 31
0.0
  0
LINE
  5
E5
  8
ABF_LABEL
 62
     0
 10
32.37624137931033
 20
13.92620689655172
 30
0.0
 11
32.59082758620688
 21
14.43420689655172
 31
0.0
  0
LINE
  5
E6
  8
ABF_LABEL
 62
     0
 10
32.59082758620688
 20
14.43420689655172
 30
0.0
 11
32.77913793103447
 21
14.94220689655172
 31
0.0
  0
LINE
  5
E7
  8
ABF_LABEL
 62
     0
 10
32.77913793103447
 20
14.94220689655172
 30
0.0
 11
33.84768965517241
 21
16.46620689655172
 31
0.0
  0
LINE
  5
E8
  8
ABF_LABEL
 62
     0
 10
33.84768965517241
 20
16.46620689655172
 30
0.0
 11
35.62568965517242
 21
16.91289655172414
 31
0.0
  0
LINE
  5
E9
  8
ABF_LABEL
 62
     0
 10
35.62568965517242
 20
16.91289655172414
 30
0.0
 11
36.07237931034481
 21
16.91289655172414
 31
0.0
  0
LINE
  5
EA
  8
ABF_LABEL
 62
     0
 10
36.07237931034481
 20
16.91289655172414
 30
0.0
 11
36.07237931034481
 21
15.494
 31
0.0
  0
LINE
  5
EB
  8
ABF_LABEL
 62
     0
 10
36.07237931034481
 20
15.494
 30
0.0
 11
35.69575862068963
 21
15.494
 31
0.0
  0
LINE
  5
EC
  8
ABF_LABEL
 62
     0
 10
35.69575862068963
 20
15.494
 30
0.0
 11
34.65786206896551
 21
15.20934482758621
 31
0.0
  0
LINE
  5
ED
  8
ABF_LABEL
 62
     0
 10
34.65786206896551
 20
15.20934482758621
 30
0.0
 11
34.07541379310344
 21
14.17144827586207
 31
0.0
  0
LINE
  5
EE
  8
ABF_LABEL
 62
     0
 10
34.07541379310344
 20
14.17144827586207
 30
0.0
 11
33.49734482758621
 21
12.9846551724138
 31
0.0
  0
LINE
  5
EF
  8
ABF_LABEL
 62
     0
 10
33.49734482758621
 20
12.9846551724138
 30
0.0
 11
32.76162068965516
 21
12.33213793103448
 31
0.0
  0
LINE
  5
F0
  8
ABF_LABEL
 62
     0
 10
32.76162068965516
 20
12.33213793103448
 30
0.0
 11
36.74679310344827
 21
7.129517241379311
 31
0.0
  0
LINE
  5
F1
  8
ABF_LABEL
 62
     0
 10
43.27196551724137
 20
9.538137931034484
 30
0.0
 11
43.27196551724137
 21
12.25331034482758
 31
0.0
  0
LINE
  5
F2
  8
ABF_LABEL
 62
     0
 10
43.27196551724137
 20
12.25331034482758
 30
0.0
 11
41.7873793103448
 21
12.10879310344828
 31
0.0
  0
LINE
  5
F3
  8
ABF_LABEL
 62
     0
 10
41.7873793103448
 20
12.10879310344828
 30
0.0
 11
40.33782758620689
 21
11.85041379310345
 31
0.0
  0
LINE
  5
F4
  8
ABF_LABEL
 62
     0
 10
40.33782758620689
 20
11.85041379310345
 30
0.0
 11
39.25175862068965
 21
11.23293103448276
 31
0.0
  0
LINE
  5
F5
  8
ABF_LABEL
 62
     0
 10
39.25175862068965
 20
11.23293103448276
 30
0.0
 11
38.82258620689655
 21
10.07241379310345
 31
0.0
  0
LINE
  5
F6
  8
ABF_LABEL
 62
     0
 10
38.82258620689655
 20
10.07241379310345
 30
0.0
 11
39.29555172413794
 21
8.802413793103447
 31
0.0
  0
LINE
  5
F7
  8
ABF_LABEL
 62
     0
 10
39.29555172413794
 20
8.802413793103447
 30
0.0
 11
40.67941379310344
 21
8.373241379310343
 31
0.0
  0
LINE
  5
F8
  8
ABF_LABEL
 62
     0
 10
40.67941379310344
 20
8.373241379310343
 30
0.0
 11
42.08955172413792
 21
8.710448275862065
 31
0.0
  0
LINE
  5
F9
  8
ABF_LABEL
 62
     0
 10
42.08955172413792
 20
8.710448275862065
 30
0.0
 11
43.27196551724137
 21
9.538137931034484
 31
0.0
  0
LINE
  5
FA
  8
ABF_LABEL
 62
     0
 10
43.27196551724137
 20
8.171793103448275
 30
0.0
 11
42.73331034482758
 21
7.755758620689656
 31
0.0
  0
LINE
  5
FB
  8
ABF_LABEL
 62
     0
 10
42.73331034482758
 20
7.755758620689656
 30
0.0
 11
42.08079310344826
 21
7.330965517241379
 31
0.0
  0
LINE
  5
FC
  8
ABF_LABEL
 62
     0
 10
42.08079310344826
 20
7.330965517241379
 30
0.0
 11
41.23558620689653
 21
6.980620689655171
 31
0.0
  0
LINE
  5
FD
  8
ABF_LABEL
 62
     0
 10
41.23558620689653
 20
6.980620689655171
 30
0.0
 11
40.09258620689653
 21
6.858
 31
0.0
  0
LINE
  5
FE
  8
ABF_LABEL
 62
     0
 10
40.09258620689653
 20
6.858
 30
0.0
 11
38.94520689655172
 21
7.085724137931036
 31
0.0
  0
LINE
  5
FF
  8
ABF_LABEL
 62
     0
 10
38.94520689655172
 20
7.085724137931036
 30
0.0
 11
37.99051724137931
 21
7.725103448275861
 31
0.0
  0
LINE
  5
100
  8
ABF_LABEL
 62
     0
 10
37.99051724137931
 20
7.725103448275861
 30
0.0
 11
37.35989655172413
 21
8.719206896551725
 31
0.0
  0
LINE
  5
101
  8
ABF_LABEL
 62
     0
 10
37.35989655172413
 20
8.719206896551725
 30
0.0
 11
37.12341379310345
 21
9.967310344827588
 31
0.0
  0
LINE
  5
102
  8
ABF_LABEL
 62
     0
 10
37.12341379310345
 20
9.967310344827588
 30
0.0
 11
37.55258620689654
 21
11.69713793103448
 31
0.0
  0
LINE
  5
103
  8
ABF_LABEL
 62
     0
 10
37.55258620689654
 20
11.69713793103448
 30
0.0
 11
38.91017241379308
 21
12.83137931034483
 31
0.0
  0
LINE
  5
104
  8
ABF_LABEL
 62
     0
 10
38.91017241379308
 20
12.83137931034483
 30
0.0
 11
40.85458620689656
 21
13.35251724137931
 31
0.0
  0
LINE
  5
105
  8
ABF_LABEL
 62
     0
 10
40.85458620689656
 20
13.35251724137931
 30
0.0
 11
43.27196551724137
 21
13.56710344827586
 31
0.0
  0
LINE
  5
106
  8
ABF_LABEL
 62
     0
 10
43.27196551724137
 20
13.56710344827586
 30
0.0
 11
43.27196551724137
 21
13.88241379310345
 31
0.0
  0
LINE
  5
107
  8
ABF_LABEL
 62
     0
 10
43.27196551724137
 20
13.88241379310345
 30
0.0
 11
43.09679310344827
 21
14.81520689655172
 31
0.0
  0
LINE
  5
108
  8
ABF_LABEL
 62
     0
 10
43.09679310344827
 20
14.81520689655172
 30
0.0
 11
42.60631034482758
 21
15.36262068965517
 31
0.0
  0
LINE
  5
109
  8
ABF_LABEL
 62
     0
 10
42.60631034482758
 20
15.36262068965517
 30
0.0
 11
41.83555172413792
 21
15.62975862068965
 31
0.0
  0
LINE
  5
10A
  8
ABF_LABEL
 62
     0
 10
41.83555172413792
 20
15.62975862068965
 30
0.0
 11
40.89837931034482
 21
15.69544827586207
 31
0.0
  0
LINE
  5
10B
  8
ABF_LABEL
 62
     0
 10
40.89837931034482
 20
15.69544827586207
 30
0.0
 11
39.55831034482758
 21
15.52465517241379
 31
0.0
  0
LINE
  5
10C
  8
ABF_LABEL
 62
     0
 10
39.55831034482758
 20
15.52465517241379
 30
0.0
 11
38.01679310344826
 21
15.02979310344828
 31
0.0
  0
LINE
  5
10D
  8
ABF_LABEL
 62
     0
 10
38.01679310344826
 20
15.02979310344828
 30
0.0
 11
37.92044827586206
 21
15.02979310344828
 31
0.0
  0
LINE
  5
10E
  8
ABF_LABEL
 62
     0
 10
37.92044827586206
 20
15.02979310344828
 30
0.0
 11
37.92044827586206
 21
16.70268965517241
 31
0.0
  0
LINE
  5
10F
  8
ABF_LABEL
 62
     0
 10
37.92044827586206
 20
16.70268965517241
 30
0.0
 11
39.22548275862067
 21
16.99172413793103
 31
0.0
  0
LINE
  5
110
  8
ABF_LABEL
 62
     0
 10
39.22548275862067
 20
16.99172413793103
 30
0.0
 11
40.90713793103448
 21
17.14937931034483
 31
0.0
  0
LINE
  5
111
  8
ABF_LABEL
 62
     0
 10
40.90713793103448
 20
17.14937931034483
 30
0.0
 11
42.60631034482758
 21
16.99172413793103
 31
0.0
  0
LINE
  5
112
  8
ABF_LABEL
 62
     0
 10
42.60631034482758
 20
16.99172413793103
 30
0.0
 11
43.85003448275862
 21
16.42241379310345
 31
0.0
  0
LINE
  5
113
  8
ABF_LABEL
 62
     0
 10
43.85003448275862
 20
16.42241379310345
 30
0.0
 11
44.64706896551724
 21
15.38013793103448
 31
0.0
  0
LINE
  5
114
  8
ABF_LABEL
 62
     0
 10
44.64706896551724
 20
15.38013793103448
 30
0.0
 11
44.90982758620689
 21
13.82110344827586
 31
0.0
  0
LINE
  5
115
  8
ABF_LABEL
 62
     0
 10
44.90982758620689
 20
13.82110344827586
 30
0.0
 11
44.90982758620689
 21
7.129517241379311
 31
0.0
  0
LINE
  5
116
  8
ABF_LABEL
 62
     0
 10
44.90982758620689
 20
7.129517241379311
 30
0.0
 11
43.27196551724137
 21
7.129517241379311
 31
0.0
  0
LINE
  5
117
  8
ABF_LABEL
 62
     0
 10
43.27196551724137
 20
7.129517241379311
 30
0.0
 11
43.27196551724137
 21
8.171793103448275
 31
0.0
  0
LINE
  5
118
  8
ABF_LABEL
 62
     0
 10
11.60898198938369
 20
-10.57317554330826
 30
0.0
 11
13.00575780248641
 21
-13.716
 31
0.0
  0
LINE
  5
119
  8
ABF_LABEL
 62
     0
 10
8.945599561691276
 20
-4.580415426254274
 30
0.0
 11
11.60898198938369
 21
-10.57317554330826
 31
0.0
  0
LINE
  5
11A
  8
ABF_LABEL
 62
     0
 10
5.207446859836574
 20
-13.716
 30
0.0
 11
6.493446519136422
 21
-10.57317554330826
 31
0.0
  0
LINE
  5
11B
  8
ABF_LABEL
 62
     0
 10
6.493446519136422
 20
-10.57317554330826
 30
0.0
 11
8.945599561691276
 21
-4.580415426254274
 31
0.0
  0
LINE
  5
11C
  8
ABF_LABEL
 62
     0
 10
6.493446519136422
 20
-10.57317554330826
 30
0.0
 11
11.60898198938369
 21
-10.57317554330826
 31
0.0
  0
LINE
  5
11D
  8
ABF_LABEL
 62
     0
 10
20.28646128892898
 20
-6.83563811397553
 30
0.0
 11
19.50937814950942
 21
-5.3839256105423
 31
0.0
  0
LINE
  5
11E
  8
ABF_LABEL
 62
     0
 10
20.03659463644027
 20
-9.902114881038669
 30
0.0
 11
20.7441531920433
 21
-11.59471429800987
 31
0.0
  0
LINE
  5
11F
  8
ABF_LABEL
 62
     0
 10
19.50937814950942
 20
-5.3839256105423
 30
0.0
 11
17.95535781621932
 21
-4.876400266647341
 31
0.0
  0
LINE
  5
120
  8
ABF_LABEL
 62
     0
 10
14.52975780248641
 20
-4.876400266647341
 30
0.0
 11
17.95535781621932
 21
-4.876400266647341
 31
0.0
  0
LINE
  5
121
  8
ABF_LABEL
 62
     0
 10
17.95535781621932
 20
-8.97890088415146
 30
0.0
 11
19.55097808122634
 21
-8.251021076202397
 31
0.0
  0
LINE
  5
122
  8
ABF_LABEL
 62
     0
 10
17.95535781621932
 20
-13.716
 30
0.0
 11
19.75897834539412
 21
-13.35673622018099
 31
0.0
  0
LINE
  5
123
  8
ABF_LABEL
 62
     0
 10
14.52975780248641
 20
-13.716
 30
0.0
 11
17.95535781621932
 21
-13.716
 31
0.0
  0
LINE
  5
124
  8
ABF_LABEL
 62
     0
 10
14.52975780248641
 20
-8.97890088415146
 30
0.0
 11
14.52975780248641
 21
-13.716
 31
0.0
  0
LINE
  5
125
  8
ABF_LABEL
 62
     0
 10
14.52975780248641
 20
-8.97890088415146
 30
0.0
 11
17.95535781621932
 21
-8.97890088415146
 31
0.0
  0
LINE
  5
126
  8
ABF_LABEL
 62
     0
 10
14.52975780248641
 20
-4.876400266647341
 30
0.0
 11
14.52975780248641
 21
-8.97890088415146
 31
0.0
  0
LINE
  5
127
  8
ABF_LABEL
 62
     0
 10
17.95535781621932
 20
-8.97890088415146
 30
0.0
 11
20.03659463644027
 21
-9.902114881038669
 31
0.0
  0
LINE
  5
128
  8
ABF_LABEL
 62
     0
 10
20.7441531920433
 20
-11.59471429800987
 30
0.0
 11
19.75897834539412
 21
-13.35673622018099
 31
0.0
  0
LINE
  5
129
  8
ABF_LABEL
 62
     0
 10
19.55097808122634
 20
-8.251021076202397
 30
0.0
 11
20.28646128892898
 21
-6.83563811397553
 31
0.0
  0
LINE
  5
12A
  8
ABF_LABEL
 62
     0
 10
22.26815319204331
 20
-8.97454341030121
 30
0.0
 11
27.08615307474136
 21
-8.97454341030121
 31
0.0
  0
LINE
  5
12B
  8
ABF_LABEL
 62
     0
 10
22.26815319204331
 20
-4.787599969863896
 30
0.0
 11
22.26815319204331
 21
-8.97454341030121
 31
0.0
  0
LINE
  5
12C
  8
ABF_LABEL
 62
     0
 10
22.26815319204331
 20
-4.787599969863896
 30
0.0
 11
27.81255314016342
 21
-4.787599969863896
 31
0.0
  0
LINE
  5
12D
  8
ABF_LABEL
 62
     0
 10
22.26815319204331
 20
-8.97454341030121
 30
0.0
 11
22.26815319204331
 21
-13.716
 31
0.0
  0
LINE
  5
12E
  8
ABF_LABEL
 62
     0
 10
-26.55175862068965
 20
0.0
 30
0.0
 11
59.57175862068964
 21
0.0
 31
0.0
  0
POLYLINE
  5
12F
  8
ABF_LABEL
 62
     0
 10
0.0
 20
0.0
 30
0.0
 66
     1
 70
     9
  0
VERTEX
  5
130
  8
ABF_LABEL
 62
     0
 10
59.57175862068964
 20
17.78
 30
0.0
 70
    32
  0
VERTEX
  5
131
  8
ABF_LABEL
 62
     0
 10
77.35175862068965
 20
0.0
 30
0.0
 70
    32
  0
VERTEX
  5
132
  8
ABF_LABEL
 62
     0
 10
59.57175862068964
 20
-17.78
 30
0.0
 70
    32
  0
VERTEX
  5
133
  8
ABF_LABEL
 62
     0
 10
59.57175862068964
 20
17.78
 30
0.0
 70
    32
  0
SEQEND
  5
134
  8
ABF_LABEL
 62
     0
  0
POLYLINE
  5
135
  8
ABF_LABEL
 62
     0
 10
0.0
 20
0.0
 30
0.0
 66
     1
 70
     9
  0
VERTEX
  5
136
  8
ABF_LABEL
 62
     0
 10
-26.55175862068965
 20
0.0
 30
0.0
 70
    32
  0
VERTEX
  5
137
  8
ABF_LABEL
 62
     0
 10
-51.95175862068965
 20
-25.4
 30
0.0
 70
    32
  0
VERTEX
  5
138
  8
ABF_LABEL
 62
     0
 10
-77.35175862068965
 20
0.0
 30
0.0
 70
    32
  0
VERTEX
  5
139
  8
ABF_LABEL
 62
     0
 10
-51.95175862068965
 20
25.4
 30
0.0
 70
    32
  0
VERTEX
  5
13A
  8
ABF_LABEL
 62
     0
 10
-26.55175862068965
 20
0.0
 30
0.0
 70
    32
  0
SEQEND
  5
13B
  8
ABF_LABEL
 62
     0
  0
ENDBLK
  5
6A
  8
0
  0
BLOCK
  8
0
  2
GROUP33_1
 70
     0
 10
0.0
 20
0.0
 30
0.0
  3
GROUP33_1
  1

  0
POLYLINE
  5
13C
  8
ABF_CUTTINGLINES
 62
     0
 10
0.0
 20
0.0
 30
0.0
 66
     1
 70
     9
  0
VERTEX
  5
13D
  8
ABF_CUTTINGLINES
 62
     0
 10
27.97351204011256
 20
773.2805337420559
 30
-0.0000000000000056
 70
    32
  0
VERTEX
  5
13E
  8
ABF_CUTTINGLINES
 62
     0
 10
27.9029539235911
 20
772.5641451627849
 30
-0.0000000000000056
 70
    32
  0
VERTEX
  5
13F
  8
ABF_CUTTINGLINES
 62
     0
 10
27.78569282258418
 20
771.8539051480662
 30
-0.0000000000000056
 70
    32
  0
VERTEX
  5
140
  8
ABF_CUTTINGLINES
 62
     0
 10
27.62223086712855
 20
771.1528550546805
 30
-0.0000000000000056
 70
    32
  0
VERTEX
  5
141
  8
ABF_CUTTINGLINES
 62
     0
 10
27.41326802641276
 20
770.4639968867559
 30
-0.0000000000000056
 70
    32
  0
VERTEX
  5
142
  8
ABF_CUTTINGLINES
 62
     0
 10
27.15969911140087
 20
769.7902804407211
 30
-0.0000000000000056
 70
    32
  0
VERTEX
  5
143
  8
ABF_CUTTINGLINES
 62
     0
 10
26.86260994311623
 20
769.1345906738309
 30
-0.0000000000000056
 70
    32
  0
VERTEX
  5
144
  8
ABF_CUTTINGLINES
 62
     0
 10
26.52327270298691
 20
768.4997353503292
 30
-0.0000000000000056
 70
    32
  0
VERTEX
  5
145
  8
ABF_CUTTINGLINES
 62
     0
 10
26.14314048517133
 20
767.8884330181763
 30
-0.0000000000000056
 70
    32
  0
VERTEX
  5
146
  8
ABF_CUTTINGLINES
 62
     0
 10
25.72384107418501
 20
767.3033013678072
 30
-0.0000000000000056
 70
    32
  0
VERTEX
  5
147
  8
ABF_CUTTINGLINES
 62
     0
 10
25.26716997447753
 20
766.7468460227796
 30
-0.0000000000000056
 70
    32
  0
VERTEX
  5
148
  8
ABF_CUTTINGLINES
 62
     0
 10
24.77508272180841
 20
766.2214498103106
 30
-0.0000000000000056
 70
    32
  0
VERTEX
  5
149
  8
ABF_CUTTINGLINES
 62
     0
 10
24.2496865093388
 20
765.7293625576409
 30
-0.0000000000000056
 70
    32
  0
VERTEX
  5
14A
  8
ABF_CUTTINGLINES
 62
     0
 10
23.69323116431147
 20
765.2726914579337
 30
-0.0000000000000056
 70
    32
  0
VERTEX
  5
14B
  8
ABF_CUTTINGLINES
 62
     0
 10
23.10809951394196
 20
764.853392046947
 30
-0.0000000000000056
 70
    32
  0
VERTEX
  5
14C
  8
ABF_CUTTINGLINES
 62
     0
 10
22.49679718178951
 20
764.4732598291318
 30
-0.0000000000000056
 70
    32
  0
VERTEX
  5
14D
  8
ABF_CUTTINGLINES
 62
     0
 10
21.86194185828753
 20
764.1339225890022
 30
-0.0000000000000056
 70
    32
  0
VERTEX
  5
14E
  8
ABF_CUTTINGLINES
 62
     0
 10
21.20625209139805
 20
763.8368334207179
 30
-0.0000000000000056
 70
    32
  0
VERTEX
  5
14F
  8
ABF_CUTTINGLINES
 62
     0
 10
20.53253564536209
 20
763.5832645057056
 30
-0.0000000000000056
 70
    32
  0
VERTEX
  5
150
  8
ABF_CUTTINGLINES
 62
     0
 10
19.84367747743857
 20
763.3743016649903
 30
-0.0000000000000056
 70
    32
  0
VERTEX
  5
151
  8
ABF_CUTTINGLINES
 62
     0
 10
19.1426273840519
 20
763.2108397095342
 30
-0.0000000000000056
 70
    32
  0
VERTEX
  5
152
  8
ABF_CUTTINGLINES
 62
     0
 10
18.43238736933404
 20
763.0935786085274
 30
-0.0000000000000056
 70
    32
  0
VERTEX
  5
153
  8
ABF_CUTTINGLINES
 62
     0
 10
17.71599879006195
 20
763.0230204920058
 30
-0.0000000000000056
 70
    32
  0
VERTEX
  5
154
  8
ABF_CUTTINGLINES
 62
     0
 10
17.01289325425273
 20
763.0000032000008
 30
-0.0000000000000056
 70
    32
  0
VERTEX
  5
155
  8
ABF_CUTTINGLINES
 62
     0
 10
1.000000000225519
 20
763.000003200001
 30
-0.0000000000000056
 70
    32
  0
VERTEX
  5
156
  8
ABF_CUTTINGLINES
 62
     0
 10
1.000000000225534
 20
118.0000032000009
 30
0.0
 70
    32
  0
VERTEX
  5
157
  8
ABF_CUTTINGLINES
 62
     0
 10
519.0000000002256
 20
118.0000032000009
 30
-0.0000000000000056
 70
    32
  0
VERTEX
  5
158
  8
ABF_CUTTINGLINES
 62
     0
 10
519.0000000002256
 20
819.0000032000008
 30
0.0
 70
    32
  0
VERTEX
  5
159
  8
ABF_CUTTINGLINES
 62
     0
 10
27.99652933211756
 20
819.0000032000008
 30
-0.0000000000000056
 70
    32
  0
VERTEX
  5
15A
  8
ABF_CUTTINGLINES
 62
     0
 10
27.99652933211751
 20
773.9836392778644
 30
-0.0000000000000056
 70
    32
  0
VERTEX
  5
15B
  8
ABF_CUTTINGLINES
 62
     0
 10
27.97351204011256
 20
773.2805337420559
 30
-0.0000000000000056
 70
    32
  0
SEQEND
  5
15C
  8
ABF_CUTTINGLINES
 62
     0
  0
ENDBLK
  5
6D
  8
0
  0
BLOCK
  8
0
  2
GROUP34_1
 70
     0
 10
0.0
 20
0.0
 30
0.0
  3
GROUP34_1
  1

  0
POLYLINE
  5
15D
  8
ABF_EDGEBANDING
 62
     0
 10
0.0
 20
0.0
 30
0.0
 66
     1
 70
     9
  0
VERTEX
  5
15E
  8
ABF_EDGEBANDING
 62
     0
 10
33.08464097160456
 20
765.4007283722755
 30
-0.0000000000000056
 70
    32
  0
VERTEX
  5
15F
  8
ABF_EDGEBANDING
 62
     0
 10
33.5274342092508
 20
765.5350482324392
 30
-0.0000000000000056
 70
    32
  0
VERTEX
  5
160
  8
ABF_EDGEBANDING
 62
     0
 10
33.2189608317683
 20
764.9579351346292
 30
-0.0000000000000056
 70
    32
  0
VERTEX
  5
161
  8
ABF_EDGEBANDING
 62
     0
 10
33.08464097160456
 20
765.4007283722755
 30
-0.0000000000000056
 70
    32
  0
SEQEND
  5
162
  8
ABF_EDGEBANDING
 62
     0
  0
POLYLINE
  5
163
  8
ABF_EDGEBANDING
 62
     0
 10
0.0
 20
0.0
 30
0.0
 66
     1
 70
     9
  0
VERTEX
  5
164
  8
ABF_EDGEBANDING
 62
     0
 10
34.06943554541191
 20
767.5742163128249
 30
-0.0000000000000056
 70
    32
  0
VERTEX
  5
165
  8
ABF_EDGEBANDING
 62
     0
 10
34.49090836564065
 20
767.7651831632154
 30
-0.0000000000000056
 70
    32
  0
VERTEX
  5
166
  8
ABF_EDGEBANDING
 62
     0
 10
34.26040239580245
 20
767.1527434925961
 30
-0.0000000000000056
 70
    32
  0
VERTEX
  5
167
  8
ABF_EDGEBANDING
 62
     0
 10
34.06943554541191
 20
767.5742163128249
 30
-0.0000000000000056
 70
    32
  0
SEQEND
  5
168
  8
ABF_EDGEBANDING
 62
     0
  0
POLYLINE
  5
169
  8
ABF_EDGEBANDING
 62
     0
 10
0.0
 20
0.0
 30
0.0
 66
     1
 70
     9
  0
VERTEX
  5
16A
  8
ABF_EDGEBANDING
 62
     0
 10
32.48777560679532
 20
764.3669272351478
 30
-0.0000000000000056
 70
    32
  0
VERTEX
  5
16B
  8
ABF_EDGEBANDING
 62
     0
 10
32.93840572930281
 20
764.4719994428364
 30
-0.0000000000000056
 70
    32
  0
VERTEX
  5
16C
  8
ABF_EDGEBANDING
 62
     0
 10
32.59284781448387
 20
763.9162971126403
 30
-0.0000000000000056
 70
    32
  0
VERTEX
  5
16D
  8
ABF_EDGEBANDING
 62
     0
 10
32.48777560679532
 20
764.3669272351478
 30
-0.0000000000000056
 70
    32
  0
SEQEND
  5
16E
  8
ABF_EDGEBANDING
 62
     0
  0
POLYLINE
  5
16F
  8
ABF_EDGEBANDING
 62
     0
 10
0.0
 20
0.0
 30
0.0
 66
     1
 70
     9
  0
VERTEX
  5
170
  8
ABF_EDGEBANDING
 62
     0
 10
31.82457434717869
 20
763.3743764081985
 30
-0.0000000000000056
 70
    32
  0
VERTEX
  5
171
  8
ABF_EDGEBANDING
 62
     0
 10
32.28111168718085
 20
763.4497510280876
 30
-0.0000000000000056
 70
    32
  0
VERTEX
  5
172
  8
ABF_EDGEBANDING
 62
     0
 10
31.89994896706776
 20
762.9178390681964
 30
-0.0000000000000056
 70
    32
  0
VERTEX
  5
173
  8
ABF_EDGEBANDING
 62
     0
 10
31.82457434717869
 20
763.3743764081985
 30
-0.0000000000000056
 70
    32
  0
SEQEND
  5
174
  8
ABF_EDGEBANDING
 62
     0
  0
POLYLINE
  5
175
  8
ABF_EDGEBANDING
 62
     0
 10
0.0
 20
0.0
 30
0.0
 66
     1
 70
     9
  0
VERTEX
  5
176
  8
ABF_EDGEBANDING
 62
     0
 10
29.4667006676094
 20
760.6857367706845
 30
-0.0000000000000056
 70
    32
  0
VERTEX
  5
177
  8
ABF_EDGEBANDING
 62
     0
 10
29.92917062950391
 20
760.6705970717142
 30
-0.0000000000000056
 70
    32
  0
VERTEX
  5
178
  8
ABF_EDGEBANDING
 62
     0
 10
29.45156096863913
 20
760.22326680879
 30
-0.0000000000000056
 70
    32
  0
VERTEX
  5
179
  8
ABF_EDGEBANDING
 62
     0
 10
29.4667006676094
 20
760.6857367706845
 30
-0.0000000000000056
 70
    32
  0
SEQEND
  5
17A
  8
ABF_EDGEBANDING
 62
     0
  0
POLYLINE
  5
17B
  8
ABF_EDGEBANDING
 62
     0
 10
0.0
 20
0.0
 30
0.0
 66
     1
 70
     9
  0
VERTEX
  5
17C
  8
ABF_EDGEBANDING
 62
     0
 10
31.09787712236433
 20
762.4273261464471
 30
-0.0000000000000056
 70
    32
  0
VERTEX
  5
17D
  8
ABF_EDGEBANDING
 62
     0
 10
31.55836671688232
 20
762.4726804128426
 30
-0.0000000000000056
 70
    32
  0
VERTEX
  5
17E
  8
ABF_EDGEBANDING
 62
     0
 10
31.14323138875978
 20
761.9668365519292
 30
-0.0000000000000056
 70
    32
  0
VERTEX
  5
17F
  8
ABF_EDGEBANDING
 62
     0
 10
31.09787712236433
 20
762.4273261464471
 30
-0.0000000000000056
 70
    32
  0
SEQEND
  5
180
  8
ABF_EDGEBANDING
 62
     0
  0
POLYLINE
  5
181
  8
ABF_EDGEBANDING
 62
     0
 10
0.0
 20
0.0
 30
0.0
 66
     1
 70
     9
  0
VERTEX
  5
182
  8
ABF_EDGEBANDING
 62
     0
 10
35.15080639952092
 20
772.2119629746976
 30
-0.0000000000000056
 70
    32
  0
VERTEX
  5
183
  8
ABF_EDGEBANDING
 62
     0
 10
35.50849202379437
 20
772.5055079803232
 30
-0.0000000000000056
 70
    32
  0
VERTEX
  5
184
  8
ABF_EDGEBANDING
 62
     0
 10
35.44435140514646
 20
771.8542773504241
 30
-0.0000000000000056
 70
    32
  0
VERTEX
  5
185
  8
ABF_EDGEBANDING
 62
     0
 10
35.15080639952092
 20
772.2119629746976
 30
-0.0000000000000056
 70
    32
  0
SEQEND
  5
186
  8
ABF_EDGEBANDING
 62
     0
  0
POLYLINE
  5
187
  8
ABF_EDGEBANDING
 62
     0
 10
0.0
 20
0.0
 30
0.0
 66
     1
 70
     9
  0
VERTEX
  5
188
  8
ABF_EDGEBANDING
 62
     0
 10
28.5692063856715
 20
759.8986554097543
 30
-0.0000000000000056
 70
    32
  0
VERTEX
  5
189
  8
ABF_EDGEBANDING
 62
     0
 10
29.02969598018956
 20
759.8533011433589
 30
-0.0000000000000056
 70
    32
  0
VERTEX
  5
18A
  8
ABF_EDGEBANDING
 62
     0
 10
28.52385211927603
 20
759.4381658152362
 30
-0.0000000000000056
 70
    32
  0
VERTEX
  5
18B
  8
ABF_EDGEBANDING
 62
     0
 10
28.5692063856715
 20
759.8986554097543
 30
-0.0000000000000056
 70
    32
  0
SEQEND
  5
18C
  8
ABF_EDGEBANDING
 62
     0
  0
POLYLINE
  5
18D
  8
ABF_EDGEBANDING
 62
     0
 10
0.0
 20
0.0
 30
0.0
 66
     1
 70
     9
  0
VERTEX
  5
18E
  8
ABF_EDGEBANDING
 62
     0
 10
33.61261457248168
 20
766.4713529244002
 30
-0.0000000000000056
 70
    32
  0
VERTEX
  5
18F
  8
ABF_EDGEBANDING
 62
     0
 10
34.04567481664426
 20
766.6343452587768
 30
-0.0000000000000056
 70
    32
  0
VERTEX
  5
190
  8
ABF_EDGEBANDING
 62
     0
 10
33.77560690685824
 20
766.0382926802376
 30
-0.0000000000000056
 70
    32
  0
VERTEX
  5
191
  8
ABF_EDGEBANDING
 62
     0
 10
33.61261457248168
 20
766.4713529244002
 30
-0.0000000000000056
 70
    32
  0
SEQEND
  5
192
  8
ABF_EDGEBANDING
 62
     0
  0
POLYLINE
  5
193
  8
ABF_EDGEBANDING
 62
     0
 10
0.0
 20
0.0
 30
0.0
 66
     1
 70
     9
  0
VERTEX
  5
194
  8
ABF_EDGEBANDING
 62
     0
 10
27.62215612392051
 20
759.1719581849402
 30
-0.0000000000000056
 70
    32
  0
VERTEX
  5
195
  8
ABF_EDGEBANDING
 62
     0
 10
28.0786934639227
 20
759.0965835650511
 30
-0.0000000000000056
 70
    32
  0
VERTEX
  5
196
  8
ABF_EDGEBANDING
 62
     0
 10
27.54678150403148
 20
758.715420844938
 30
-0.0000000000000056
 70
    32
  0
VERTEX
  5
197
  8
ABF_EDGEBANDING
 62
     0
 10
27.62215612392051
 20
759.1719581849402
 30
-0.0000000000000056
 70
    32
  0
SEQEND
  5
198
  8
ABF_EDGEBANDING
 62
     0
  0
POLYLINE
  5
199
  8
ABF_EDGEBANDING
 62
     0
 10
0.0
 20
0.0
 30
0.0
 66
     1
 70
     9
  0
VERTEX
  5
19A
  8
ABF_EDGEBANDING
 62
     0
 10
26.62960529697065
 20
758.5087569253232
 30
-0.0000000000000056
 70
    32
  0
VERTEX
  5
19B
  8
ABF_EDGEBANDING
 62
     0
 10
27.08023541947805
 20
758.4036847176346
 30
-0.0000000000000056
 70
    32
  0
VERTEX
  5
19C
  8
ABF_EDGEBANDING
 62
     0
 10
26.52453308928211
 20
758.0581268028157
 30
-0.0000000000000056
 70
    32
  0
VERTEX
  5
19D
  8
ABF_EDGEBANDING
 62
     0
 10
26.62960529697065
 20
758.5087569253232
 30
-0.0000000000000056
 70
    32
  0
SEQEND
  5
19E
  8
ABF_EDGEBANDING
 62
     0
  0
POLYLINE
  5
19F
  8
ABF_EDGEBANDING
 62
     0
 10
0.0
 20
0.0
 30
0.0
 66
     1
 70
     9
  0
VERTEX
  5
1A0
  8
ABF_EDGEBANDING
 62
     0
 10
35.22888012469616
 20
773.4031378351917
 30
-0.0000000000000056
 70
    32
  0
VERTEX
  5
1A1
  8
ABF_EDGEBANDING
 62
     0
 10
35.51926165688497
 20
773.6751098194
 30
-0.0000000000000056
 70
    32
  0
VERTEX
  5
1A2
  8
ABF_EDGEBANDING
 62
     0
 10
35.50085210890432
 20
773.1127563030029
 30
-0.0000000000000056
 70
    32
  0
VERTEX
  5
1A3
  8
ABF_EDGEBANDING
 62
     0
 10
35.22888012469616
 20
773.4031378351917
 30
-0.0000000000000056
 70
    32
  0
SEQEND
  5
1A4
  8
ABF_EDGEBANDING
 62
     0
  0
POLYLINE
  5
1A5
  8
ABF_EDGEBANDING
 62
     0
 10
0.0
 20
0.0
 30
0.0
 66
     1
 70
     9
  0
VERTEX
  5
1A6
  8
ABF_EDGEBANDING
 62
     0
 10
34.76210796040588
 20
769.8576512485783
 30
-0.0000000000000056
 70
    32
  0
VERTEX
  5
1A7
  8
ABF_EDGEBANDING
 62
     0
 10
35.1550488464087
 20
770.1019975934395
 30
-0.0000000000000056
 70
    32
  0
VERTEX
  5
1A8
  8
ABF_EDGEBANDING
 62
     0
 10
35.00645430526705
 20
769.4647103625755
 30
-0.0000000000000056
 70
    32
  0
VERTEX
  5
1A9
  8
ABF_EDGEBANDING
 62
     0
 10
34.76210796040588
 20
769.8576512485783
 30
-0.0000000000000056
 70
    32
  0
SEQEND
  5
1AA
  8
ABF_EDGEBANDING
 62
     0
  0
POLYLINE
  5
1AB
  8
ABF_EDGEBANDING
 62
     0
 10
0.0
 20
0.0
 30
0.0
 66
     1
 70
     9
  0
VERTEX
  5
1AC
  8
ABF_EDGEBANDING
 62
     0
 10
34.99499327284773
 20
771.0284447769533
 30
-0.0000000000000056
 70
    32
  0
VERTEX
  5
1AD
  8
ABF_EDGEBANDING
 62
     0
 10
35.37111182668099
 20
771.2979675210807
 30
-0.0000000000000056
 70
    32
  0
VERTEX
  5
1AE
  8
ABF_EDGEBANDING
 62
     0
 10
35.2645160169752
 20
770.65232622312
 30
-0.0000000000000056
 70
    32
  0
VERTEX
  5
1AF
  8
ABF_EDGEBANDING
 62
     0
 10
34.99499327284773
 20
771.0284447769533
 30
-0.0000000000000056
 70
    32
  0
SEQEND
  5
1B0
  8
ABF_EDGEBANDING
 62
     0
  0
POLYLINE
  5
1B1
  8
ABF_EDGEBANDING
 62
     0
 10
0.0
 20
0.0
 30
0.0
 66
     1
 70
     9
  0
VERTEX
  5
1B2
  8
ABF_EDGEBANDING
 62
     0
 10
34.45314771285657
 20
768.7045959072052
 30
-0.0000000000000056
 70
    32
  0
VERTEX
  5
1B3
  8
ABF_EDGEBANDING
 62
     0
 10
34.86122829782958
 20
768.9227195242387
 30
-0.0000000000000056
 70
    32
  0
VERTEX
  5
1B4
  8
ABF_EDGEBANDING
 62
     0
 10
34.67127132988997
 20
768.2965153222323
 30
-0.0000000000000056
 70
    32
  0
VERTEX
  5
1B5
  8
ABF_EDGEBANDING
 62
     0
 10
34.45314771285657
 20
768.7045959072052
 30
-0.0000000000000056
 70
    32
  0
SEQEND
  5
1B6
  8
ABF_EDGEBANDING
 62
     0
  0
POLYLINE
  5
1B7
  8
ABF_EDGEBANDING
 62
     0
 10
0.0
 20
0.0
 30
0.0
 66
     1
 70
     9
  0
VERTEX
  5
1B8
  8
ABF_EDGEBANDING
 62
     0
 10
30.31079576143383
 20
761.5298318645089
 30
-0.0000000000000056
 70
    32
  0
VERTEX
  5
1B9
  8
ABF_EDGEBANDING
 62
     0
 10
30.77326572332837
 20
761.5449715634791
 30
-0.0000000000000056
 70
    32
  0
VERTEX
  5
1BA
  8
ABF_EDGEBANDING
 62
     0
 10
30.32593546040407
 20
761.0673619026144
 30
-0.0000000000000056
 70
    32
  0
VERTEX
  5
1BB
  8
ABF_EDGEBANDING
 62
     0
 10
30.31079576143383
 20
761.5298318645089
 30
-0.0000000000000056
 70
    32
  0
SEQEND
  5
1BC
  8
ABF_EDGEBANDING
 62
     0
  0
POLYLINE
  5
1BD
  8
ABF_EDGEBANDING
 62
     0
 10
0.0
 20
0.0
 30
0.0
 66
     1
 70
     9
  0
VERTEX
  5
1BE
  8
ABF_EDGEBANDING
 62
     0
 10
24.52517960771799
 20
757.3839179596366
 30
-0.0000000000000056
 70
    32
  0
VERTEX
  5
1BF
  8
ABF_EDGEBANDING
 62
     0
 10
24.95823985188053
 20
757.2209256252601
 30
-0.0000000000000056
 70
    32
  0
VERTEX
  5
1C0
  8
ABF_EDGEBANDING
 62
     0
 10
24.36218727334142
 20
756.9508577154741
 30
-0.0000000000000056
 70
    32
  0
VERTEX
  5
1C1
  8
ABF_EDGEBANDING
 62
     0
 10
24.52517960771799
 20
757.3839179596366
 30
-0.0000000000000056
 70
    32
  0
SEQEND
  5
1C2
  8
ABF_EDGEBANDING
 62
     0
  0
POLYLINE
  5
1C3
  8
ABF_EDGEBANDING
 62
     0
 10
0.0
 20
0.0
 30
0.0
 66
     1
 70
     9
  0
VERTEX
  5
1C4
  8
ABF_EDGEBANDING
 62
     0
 10
22.29193662491407
 20
756.5433848192622
 30
-0.0000000000000056
 70
    32
  0
VERTEX
  5
1C5
  8
ABF_EDGEBANDING
 62
     0
 10
22.70001720988709
 20
756.3252612022288
 30
-0.0000000000000056
 70
    32
  0
VERTEX
  5
1C6
  8
ABF_EDGEBANDING
 62
     0
 10
22.0738130078807
 20
756.1353042342893
 30
-0.0000000000000056
 70
    32
  0
VERTEX
  5
1C7
  8
ABF_EDGEBANDING
 62
     0
 10
22.29193662491407
 20
756.5433848192622
 30
-0.0000000000000056
 70
    32
  0
SEQEND
  5
1C8
  8
ABF_EDGEBANDING
 62
     0
  0
POLYLINE
  5
1C9
  8
ABF_EDGEBANDING
 62
     0
 10
0.0
 20
0.0
 30
0.0
 66
     1
 70
     9
  0
VERTEX
  5
1CA
  8
ABF_EDGEBANDING
 62
     0
 10
273.4982646661716
 20
811.7525312238309
 30
-0.0000000000000028
 70
    32
  0
VERTEX
  5
1CB
  8
ABF_EDGEBANDING
 62
     0
 10
309.7356245470213
 20
775.5151713429811
 30
-0.0000000000000028
 70
    32
  0
VERTEX
  5
1CC
  8
ABF_EDGEBANDING
 62
     0
 10
237.2609047853219
 20
775.5151713429811
 30
-0.0000000000000028
 70
    32
  0
VERTEX
  5
1CD
  8
ABF_EDGEBANDING
 62
     0
 10
273.4982646661716
 20
811.7525312238309
 30
-0.0000000000000028
 70
    32
  0
SEQEND
  5
1CE
  8
ABF_EDGEBANDING
 62
     0
  0
POLYLINE
  5
1CF
  8
ABF_EDGEBANDING
 62
     0
 10
0.0
 20
0.0
 30
0.0
 66
     1
 70
     9
  0
VERTEX
  5
1D0
  8
ABF_EDGEBANDING
 62
     0
 10
35.24400130828751
 20
797.000003200001
 30
-0.0000000000000056
 70
    32
  0
VERTEX
  5
1D1
  8
ABF_EDGEBANDING
 62
     0
 10
55.02001360215969
 20
816.776015493873
 30
-0.0000000000000056
 70
    32
  0
VERTEX
  5
1D2
  8
ABF_EDGEBANDING
 62
     0
 10
55.02001360215969
 20
777.2239909061287
 30
-0.0000000000000056
 70
    32
  0
VERTEX
  5
1D3
  8
ABF_EDGEBANDING
 62
     0
 10
35.24400130828751
 20
797.000003200001
 30
-0.0000000000000056
 70
    32
  0
SEQEND
  5
1D4
  8
ABF_EDGEBANDING
 62
     0
  0
POLYLINE
  5
1D5
  8
ABF_EDGEBANDING
 62
     0
 10
0.0
 20
0.0
 30
0.0
 66
     1
 70
     9
  0
VERTEX
  5
1D6
  8
ABF_EDGEBANDING
 62
     0
 10
25.59580415984319
 20
757.911891560514
 30
-0.0000000000000056
 70
    32
  0
VERTEX
  5
1D7
  8
ABF_EDGEBANDING
 62
     0
 10
26.0385973974895
 20
757.7775717003503
 30
-0.0000000000000056
 70
    32
  0
VERTEX
  5
1D8
  8
ABF_EDGEBANDING
 62
     0
 10
25.46148429967944
 20
757.4690983228678
 30
-0.0000000000000056
 70
    32
  0
VERTEX
  5
1D9
  8
ABF_EDGEBANDING
 62
     0
 10
25.59580415984319
 20
757.911891560514
 30
-0.0000000000000056
 70
    32
  0
SEQEND
  5
1DA
  8
ABF_EDGEBANDING
 62
     0
  0
POLYLINE
  5
1DB
  8
ABF_EDGEBANDING
 62
     0
 10
0.0
 20
0.0
 30
0.0
 66
     1
 70
     9
  0
VERTEX
  5
1DC
  8
ABF_EDGEBANDING
 62
     0
 10
19.96808775516601
 20
756.0015392592709
 30
-0.0000000000000056
 70
    32
  0
VERTEX
  5
1DD
  8
ABF_EDGEBANDING
 62
     0
 10
20.34420630899932
 20
755.7320165151434
 30
-0.0000000000000056
 70
    32
  0
VERTEX
  5
1DE
  8
ABF_EDGEBANDING
 62
     0
 10
19.69856501103855
 20
755.6254207054376
 30
-0.0000000000000056
 70
    32
  0
VERTEX
  5
1DF
  8
ABF_EDGEBANDING
 62
     0
 10
19.96808775516601
 20
756.0015392592709
 30
-0.0000000000000056
 70
    32
  0
SEQEND
  5
1E0
  8
ABF_EDGEBANDING
 62
     0
  0
POLYLINE
  5
1E1
  8
ABF_EDGEBANDING
 62
     0
 10
0.0
 20
0.0
 30
0.0
 66
     1
 70
     9
  0
VERTEX
  5
1E2
  8
ABF_EDGEBANDING
 62
     0
 10
18.78456955742066
 20
755.8457261325975
 30
-0.0000000000000056
 70
    32
  0
VERTEX
  5
1E3
  8
ABF_EDGEBANDING
 62
     0
 10
19.13894245451641
 20
755.5548998119065
 30
-0.0000000000000056
 70
    32
  0
VERTEX
  5
1E4
  8
ABF_EDGEBANDING
 62
     0
 10
18.49374323672965
 20
755.4913532355018
 30
-0.0000000000000056
 70
    32
  0
VERTEX
  5
1E5
  8
ABF_EDGEBANDING
 62
     0
 10
18.78456955742066
 20
755.8457261325975
 30
-0.0000000000000056
 70
    32
  0
SEQEND
  5
1E6
  8
ABF_EDGEBANDING
 62
     0
  0
POLYLINE
  5
1E7
  8
ABF_EDGEBANDING
 62
     0
 10
0.0
 20
0.0
 30
0.0
 66
     1
 70
     9
  0
VERTEX
  5
1E8
  8
ABF_EDGEBANDING
 62
     0
 10
17.59339469692661
 20
755.7676524074222
 30
-0.0000000000000056
 70
    32
  0
VERTEX
  5
1E9
  8
ABF_EDGEBANDING
 62
     0
 10
17.89189165814291
 20
755.4880794944681
 30
-0.0000000000000056
 70
    32
  0
VERTEX
  5
1EA
  8
ABF_EDGEBANDING
 62
     0
 10
17.31382178397247
 20
755.469155446206
 30
-0.0000000000000056
 70
    32
  0
VERTEX
  5
1EB
  8
ABF_EDGEBANDING
 62
     0
 10
17.59339469692661
 20
755.7676524074222
 30
-0.0000000000000056
 70
    32
  0
SEQEND
  5
1EC
  8
ABF_EDGEBANDING
 62
     0
  0
POLYLINE
  5
1ED
  8
ABF_EDGEBANDING
 62
     0
 10
0.0
 20
0.0
 30
0.0
 66
     1
 70
     9
  0
VERTEX
  5
1EE
  8
ABF_EDGEBANDING
 62
     0
 10
8.49826466617154
 20
755.7525312238309
 30
-0.0000000000000056
 70
    32
  0
VERTEX
  5
1EF
  8
ABF_EDGEBANDING
 62
     0
 10
15.93994610383033
 20
748.3108497861722
 30
-0.0000000000000056
 70
    32
  0
VERTEX
  5
1F0
  8
ABF_EDGEBANDING
 62
     0
 10
1.05658322851275
 20
748.3108497861722
 30
-0.0000000000000056
 70
    32
  0
VERTEX
  5
1F1
  8
ABF_EDGEBANDING
 62
     0
 10
8.49826466617154
 20
755.7525312238309
 30
-0.0000000000000056
 70
    32
  0
SEQEND
  5
1F2
  8
ABF_EDGEBANDING
 62
     0
  0
POLYLINE
  5
1F3
  8
ABF_EDGEBANDING
 62
     0
 10
0.0
 20
0.0
 30
0.0
 66
     1
 70
     9
  0
VERTEX
  5
1F4
  8
ABF_EDGEBANDING
 62
     0
 10
23.42231621929342
 20
756.9270969867065
 30
-0.0000000000000056
 70
    32
  0
VERTEX
  5
1F5
  8
ABF_EDGEBANDING
 62
     0
 10
23.84378903952212
 20
756.7361301363159
 30
-0.0000000000000056
 70
    32
  0
VERTEX
  5
1F6
  8
ABF_EDGEBANDING
 62
     0
 10
23.23134936890287
 20
756.5056241664778
 30
-0.0000000000000056
 70
    32
  0
VERTEX
  5
1F7
  8
ABF_EDGEBANDING
 62
     0
 10
23.42231621929342
 20
756.9270969867065
 30
-0.0000000000000056
 70
    32
  0
SEQEND
  5
1F8
  8
ABF_EDGEBANDING
 62
     0
  0
POLYLINE
  5
1F9
  8
ABF_EDGEBANDING
 62
     0
 10
0.0
 20
0.0
 30
0.0
 66
     1
 70
     9
  0
VERTEX
  5
1FA
  8
ABF_EDGEBANDING
 62
     0
 10
21.13888128354009
 20
756.2344245717127
 30
-0.0000000000000056
 70
    32
  0
VERTEX
  5
1FB
  8
ABF_EDGEBANDING
 62
     0
 10
21.53182216954288
 20
755.9900782268514
 30
-0.0000000000000056
 70
    32
  0
VERTEX
  5
1FC
  8
ABF_EDGEBANDING
 62
     0
 10
20.89453493867891
 20
755.8414836857098
 30
-0.0000000000000056
 70
    32
  0
VERTEX
  5
1FD
  8
ABF_EDGEBANDING
 62
     0
 10
21.13888128354009
 20
756.2344245717127
 30
-0.0000000000000056
 70
    32
  0
SEQEND
  5
1FE
  8
ABF_EDGEBANDING
 62
     0
  0
POLYLINE
  5
1FF
  8
ABF_EDGEBANDING
 62
     0
 10
0.0
 20
0.0
 30
0.0
 66
     1
 70
     9
  0
VERTEX
  5
200
  8
ABF_EDGEBANDING
 62
     0
 10
8.247471976395463
 20
441.0000032000009
 30
-0.0000000000000028
 70
    32
  0
VERTEX
  5
201
  8
ABF_EDGEBANDING
 62
     0
 10
44.4848318572452
 20
477.2373630808506
 30
-0.0000000000000028
 70
    32
  0
VERTEX
  5
202
  8
ABF_EDGEBANDING
 62
     0
 10
44.4848318572452
 20
404.7626433191512
 30
-0.0000000000000028
 70
    32
  0
VERTEX
  5
203
  8
ABF_EDGEBANDING
 62
     0
 10
8.247471976395463
 20
441.0000032000009
 30
-0.0000000000000028
 70
    32
  0
SEQEND
  5
204
  8
ABF_EDGEBANDING
 62
     0
  0
POLYLINE
  5
205
  8
ABF_EDGEBANDING
 62
     0
 10
0.0
 20
0.0
 30
0.0
 66
     1
 70
     9
  0
VERTEX
  5
206
  8
ABF_EDGEBANDING
 62
     0
 10
511.7525280240557
 20
469.0000032000009
 30
-0.0000000000000028
 70
    32
  0
VERTEX
  5
207
  8
ABF_EDGEBANDING
 62
     0
 10
475.515168143206
 20
432.7626433191512
 30
-0.0000000000000028
 70
    32
  0
VERTEX
  5
208
  8
ABF_EDGEBANDING
 62
     0
 10
475.515168143206
 20
505.2373630808506
 30
-0.0000000000000028
 70
    32
  0
VERTEX
  5
209
  8
ABF_EDGEBANDING
 62
     0
 10
511.7525280240557
 20
469.0000032000009
 30
-0.0000000000000028
 70
    32
  0
SEQEND
  5
20A
  8
ABF_EDGEBANDING
 62
     0
  0
ENDBLK
  5
70
  8
0
  0
BLOCK
  8
0
  2
_______2
 70
     0
 10
0.0
 20
0.0
 30
0.0
  3
_______2
  1

  0
POLYLINE
  5
20C
  8
0
 62
     0
 66
     1
 10
0.0
 20
0.0
 30
0.0
 70
    64
 71
     4
 72
     2
1001
ACAD_MATERIAL_MAPPER
1070
     1
1070
     1
1070
     1
1011
0.0
1021
-0.0000000000000232
1031
-0.000000000000006
1021
-0.0000000000000232
1031
-0.000000000000006
1011
0.0
1021
25.39999999999997
1031
-0.000000000000006
1021
25.39999999999997
1031
-0.000000000000006
1011
0.0
1021
-0.0000000000000232
1031
25.39999999999999
1021
-0.0000000000000232
1031
25.39999999999999
1011
1.0
1021
-0.0000000000000232
1031
-0.000000000000006
1021
-0.0000000000000232
1031
-0.000000000000006
  0
VERTEX
  5
20D
  8
0
 62
     0
 10
520.0000000002257
 20
820.0000032000008
 30
0.0000000000000059
 70
   192
  0
VERTEX
  5
20E
  8
0
 62
     0
 10
520.0000000002257
 20
118.0000032000009
 30
18.00000000000001
 70
   192
  0
VERTEX
  5
20F
  8
0
 62
     0
 10
520.0000000002257
 20
118.0000032000009
 30
0.0
 70
   192
  0
VERTEX
  5
210
  8
0
 62
     0
 10
520.0000000002257
 20
820.0000032000008
 30
18.00000000000001
 70
   192
  0
VERTEX
  5
211
  8
0
 62
     0
 10
0.0
 20
0.0
 30
0.0
 70
   128
 71
    -1
 72
     2
 73
     3
  0
VERTEX
  5
212
  8
0
 62
     0
 10
0.0
 20
0.0
 30
0.0
 70
   128
 71
    -2
 72
     1
 73
     4
  0
SEQEND
  5
213
  8
0
 62
     0
  0
LINE
  5
214
  8
0
 62
     0
 10
520.0000000002257
 20
820.0000032000008
 30
18.00000000000001
 11
520.0000000002257
 21
118.0000032000009
 31
18.00000000000001
  0
LINE
  5
215
  8
0
 62
     0
 10
520.0000000002257
 20
118.0000032000009
 30
18.00000000000001
 11
520.0000000002257
 21
118.0000032000009
 31
0.0
  0
LINE
  5
216
  8
0
 62
     0
 10
520.0000000002257
 20
820.0000032000008
 30
0.0000000000000059
 11
520.0000000002257
 21
118.0000032000009
 31
0.0
  0
LINE
  5
217
  8
0
 62
     0
 10
520.0000000002257
 20
820.0000032000008
 30
18.00000000000001
 11
520.0000000002257
 21
820.0000032000008
 31
0.0000000000000059
  0
POLYLINE
  5
218
  8
0
 62
     0
 66
     1
 10
0.0
 20
0.0
 30
0.0
 70
    64
 71
     4
 72
     2
1001
ACAD_MATERIAL_MAPPER
1070
     1
1070
     1
1070
     1
1011
0.0
1021
-0.0000000000000063
1031
-0.0000000000000012
1021
-0.0000000000000063
1031
-0.0000000000000012
1011
0.0
1021
-25.4
1031
-0.0000000000000013
1021
-25.4
1031
-0.0000000000000013
1011
0.0
1021
-0.0000000000000063
1031
25.39999999999999
1021
-0.0000000000000063
1031
25.39999999999999
1011
1.0
1021
-0.0000000000000063
1031
-0.0000000000000012
1021
-0.0000000000000063
1031
-0.0000000000000012
  0
VERTEX
  5
219
  8
0
 62
     0
 10
0.0000000002255186
 20
764.000003200001
 30
18.00000000000001
 70
   192
  0
VERTEX
  5
21A
  8
0
 62
     0
 10
0.0000000002255184
 20
118.0000032000009
 30
0.000000000000006
 70
   192
  0
VERTEX
  5
21B
  8
0
 62
     0
 10
0.0000000002255186
 20
118.0000032000009
 30
18.00000000000001
 70
   192
  0
VERTEX
  5
21C
  8
0
 62
     0
 10
0.0000000002255184
 20
764.000003200001
 30
0.0000000000000114
 70
   192
  0
VERTEX
  5
21D
  8
0
 62
     0
 10
0.0
 20
0.0
 30
0.0
 70
   128
 71
    -1
 72
     2
 73
     3
  0
VERTEX
  5
21E
  8
0
 62
     0
 10
0.0
 20
0.0
 30
0.0
 70
   128
 71
    -2
 72
     1
 73
     4
  0
SEQEND
  5
21F
  8
0
 62
     0
  0
LINE
  5
220
  8
0
 62
     0
 10
0.0000000002255186
 20
118.0000032000009
 30
18.00000000000001
 11
0.0000000002255186
 21
764.000003200001
 31
18.00000000000001
  0
LINE
  5
221
  8
0
 62
     0
 10
0.0000000002255184
 20
764.000003200001
 30
0.0000000000000114
 11
0.0000000002255186
 21
764.000003200001
 31
18.00000000000001
  0
LINE
  5
222
  8
0
 62
     0
 10
0.0000000002255184
 20
118.0000032000009
 30
0.000000000000006
 11
0.0000000002255184
 21
764.000003200001
 31
0.0000000000000114
  0
LINE
  5
223
  8
0
 62
     0
 10
0.0000000002255186
 20
118.0000032000009
 30
18.00000000000001
 11
0.0000000002255184
 21
118.0000032000009
 31
0.000000000000006
  0
POLYLINE
  5
225
  8
0
 62
     7
 66
     1
 10
0.0
 20
0.0
 30
0.0
 70
    64
 71
    30
 72
    28
1001
ACAD_MATERIAL_MAPPER
1070
     1
1070
     1
1070
     1
1011
0.0
1021
0.0
1031
0.0
1021
0.0
1031
0.0
1011
25.4
1021
0.0
1031
0.0
1021
0.0
1031
0.0
1011
0.0
1021
25.4
1031
0.0
1021
25.4
1031
0.0
1011
0.0
1021
0.0
1031
1.0
1021
0.0
1031
1.0
  0
VERTEX
  5
226
  8
0
 62
     7
 10
520.0000000002257
 20
118.0000032000009
 30
18.00000000000001
 70
   192
  0
VERTEX
  5
227
  8
0
 62
     7
 10
0.0000000002255186
 20
764.000003200001
 30
18.00000000000001
 70
   192
  0
VERTEX
  5
228
  8
0
 62
     7
 10
0.0000000002255186
 20
118.0000032000009
 30
18.00000000000001
 70
   192
  0
VERTEX
  5
229
  8
0
 62
     7
 10
16.99652933211756
 20
764.000003200001
 30
18.00000000000001
 70
   192
  0
VERTEX
  5
22A
  8
0
 62
     7
 10
17.65056062441899
 20
764.0214139676149
 30
18.00000000000001
 70
   192
  0
VERTEX
  5
22B
  8
0
 62
     7
 10
18.30179125431808
 20
764.0855545862628
 30
18.00000000000001
 70
   192
  0
VERTEX
  5
22C
  8
0
 62
     7
 10
18.94743255227884
 20
764.1921503959686
 30
18.00000000000001
 70
   192
  0
VERTEX
  5
22D
  8
0
 62
     7
 10
19.58471978314277
 20
764.3407449371105
 30
18.00000000000001
 70
   192
  0
VERTEX
  5
22E
  8
0
 62
     7
 10
20.21092398514918
 20
764.53070190505
 30
18.00000000000001
 70
   192
  0
VERTEX
  5
22F
  8
0
 62
     7
 10
20.82336365576846
 20
764.7612078748881
 30
18.00000000000001
 70
   192
  0
VERTEX
  5
230
  8
0
 62
     7
 10
21.41941623430757
 20
765.031275784674
 30
18.00000000000001
 70
   192
  0
VERTEX
  5
231
  8
0
 62
     7
 10
21.99652933211756
 20
765.3397491621567
 30
18.00000000000001
 70
   192
  0
VERTEX
  5
232
  8
0
 62
     7
 10
22.55223166231358
 20
765.6853070769755
 30
18.00000000000001
 70
   192
  0
VERTEX
  5
233
  8
0
 62
     7
 10
23.08414362220477
 20
766.0664697970886
 30
18.00000000000001
 70
   192
  0
VERTEX
  5
234
  8
0
 62
     7
 10
23.58998748311825
 20
766.4816051252113
 30
18.00000000000001
 70
   192
  0
VERTEX
  5
235
  8
0
 62
     7
 10
24.06759714398304
 20
766.9289353881355
 30
18.00000000000001
 70
   192
  0
VERTEX
  5
236
  8
0
 62
     7
 10
24.51492740690734
 20
767.4065450490003
 30
18.00000000000001
 70
   192
  0
VERTEX
  5
237
  8
0
 62
     7
 10
24.93006273502991
 20
767.9123889099138
 30
18.00000000000001
 70
   192
  0
VERTEX
  5
238
  8
0
 62
     7
 10
25.31122545514301
 20
768.444300869805
 30
18.00000000000001
 70
   192
  0
VERTEX
  5
239
  8
0
 62
     7
 10
25.65678336996195
 20
769.0000032000011
 30
18.00000000000001
 70
   192
  0
VERTEX
  5
23A
  8
0
 62
     7
 10
25.96525674744445
 20
769.577116297811
 30
18.00000000000001
 70
   192
  0
VERTEX
  5
23B
  8
0
 62
     7
 10
26.23532465723043
 20
770.1731688763501
 30
18.00000000000001
 70
   192
  0
VERTEX
  5
23C
  8
0
 62
     7
 10
26.46583062706862
 20
770.7856085469695
 30
18.00000000000001
 70
   192
  0
VERTEX
  5
23D
  8
0
 62
     7
 10
26.65578759500824
 20
771.4118127489759
 30
18.00000000000001
 70
   192
  0
VERTEX
  5
23E
  8
0
 62
     7
 10
26.80438213614987
 20
772.0490999798399
 30
18.00000000000001
 70
   192
  0
VERTEX
  5
23F
  8
0
 62
     7
 10
26.91097794585566
 20
772.6947412778005
 30
18.00000000000001
 70
   192
  0
VERTEX
  5
240
  8
0
 62
     7
 10
26.9751185645036
 20
773.3459719076995
 30
18.00000000000001
 70
   192
  0
VERTEX
  5
241
  8
0
 62
     7
 10
26.99652933211756
 20
774.000003200001
 30
18.00000000000001
 70
   192
  0
VERTEX
  5
242
  8
0
 62
     7
 10
26.99652933211756
 20
820.0000032000008
 30
18.00000000000001
 70
   192
  0
VERTEX
  5
243
  8
0
 62
     7
 10
520.0000000002257
 20
820.0000032000008
 30
18.00000000000001
 70
   192
  0
VERTEX
  5
244
  8
0
 62
     7
 10
0.0
 20
0.0
 30
0.0
 70
   128
 71
    -1
 72
     2
 73
     3
  0
VERTEX
  5
245
  8
0
 62
     7
 10
0.0
 20
0.0
 30
0.0
 70
   128
 71
    -2
 72
    -1
 73
     4
  0
VERTEX
  5
246
  8
0
 62
     7
 10
0.0
 20
0.0
 30
0.0
 70
   128
 71
    -4
 72
    -1
 73
     5
  0
VERTEX
  5
247
  8
0
 62
     7
 10
0.0
 20
0.0
 30
0.0
 70
   128
 71
    -5
 72
    -1
 73
     6
  0
VERTEX
  5
248
  8
0
 62
     7
 10
0.0
 20
0.0
 30
0.0
 70
   128
 71
    -6
 72
    -1
 73
     7
  0
VERTEX
  5
249
  8
0
 62
     7
 10
0.0
 20
0.0
 30
0.0
 70
   128
 71
    -7
 72
    -1
 73
     8
  0
VERTEX
  5
24A
  8
0
 62
     7
 10
0.0
 20
0.0
 30
0.0
 70
   128
 71
    -8
 72
    -1
 73
     9
  0
VERTEX
  5
24B
  8
0
 62
     7
 10
0.0
 20
0.0
 30
0.0
 70
   128
 71
    -9
 72
    -1
 73
    10
  0
VERTEX
  5
24C
  8
0
 62
     7
 10
0.0
 20
0.0
 30
0.0
 70
   128
 71
   -10
 72
    -1
 73
    11
  0
VERTEX
  5
24D
  8
0
 62
     7
 10
0.0
 20
0.0
 30
0.0
 70
   128
 71
   -11
 72
    -1
 73
    12
  0
VERTEX
  5
24E
  8
0
 62
     7
 10
0.0
 20
0.0
 30
0.0
 70
   128
 71
   -12
 72
    -1
 73
    13
  0
VERTEX
  5
24F
  8
0
 62
     7
 10
0.0
 20
0.0
 30
0.0
 70
   128
 71
   -13
 72
    -1
 73
    14
  0
VERTEX
  5
250
  8
0
 62
     7
 10
0.0
 20
0.0
 30
0.0
 70
   128
 71
   -14
 72
    -1
 73
    15
  0
VERTEX
  5
251
  8
0
 62
     7
 10
0.0
 20
0.0
 30
0.0
 70
   128
 71
   -15
 72
    -1
 73
    16
  0
VERTEX
  5
252
  8
0
 62
     7
 10
0.0
 20
0.0
 30
0.0
 70
   128
 71
   -16
 72
    -1
 73
    17
  0
VERTEX
  5
253
  8
0
 62
     7
 10
0.0
 20
0.0
 30
0.0
 70
   128
 71
   -17
 72
    -1
 73
    18
  0
VERTEX
  5
254
  8
0
 62
     7
 10
0.0
 20
0.0
 30
0.0
 70
   128
 71
   -18
 72
    -1
 73
    19
  0
VERTEX
  5
255
  8
0
 62
     7
 10
0.0
 20
0.0
 30
0.0
 70
   128
 71
   -19
 72
    -1
 73
    20
  0
VERTEX
  5
256
  8
0
 62
     7
 10
0.0
 20
0.0
 30
0.0
 70
   128
 71
   -20
 72
    -1
 73
    21
  0
VERTEX
  5
257
  8
0
 62
     7
 10
0.0
 20
0.0
 30
0.0
 70
   128
 71
   -21
 72
    -1
 73
    22
  0
VERTEX
  5
258
  8
0
 62
     7
 10
0.0
 20
0.0
 30
0.0
 70
   128
 71
   -22
 72
    -1
 73
    23
  0
VERTEX
  5
259
  8
0
 62
     7
 10
0.0
 20
0.0
 30
0.0
 70
   128
 71
   -23
 72
    -1
 73
    24
  0
VERTEX
  5
25A
  8
0
 62
     7
 10
0.0
 20
0.0
 30
0.0
 70
   128
 71
   -24
 72
    -1
 73
    25
  0
VERTEX
  5
25B
  8
0
 62
     7
 10
0.0
 20
0.0
 30
0.0
 70
   128
 71
   -25
 72
    -1
 73
    26
  0
VERTEX
  5
25C
  8
0
 62
     7
 10
0.0
 20
0.0
 30
0.0
 70
   128
 71
   -26
 72
    -1
 73
    27
  0
VERTEX
  5
25D
  8
0
 62
     7
 10
0.0
 20
0.0
 30
0.0
 70
   128
 71
   -27
 72
    -1
 73
    28
  0
VERTEX
  5
25E
  8
0
 62
     7
 10
0.0
 20
0.0
 30
0.0
 70
   128
 71
   -28
 72
    -1
 73
    29
  0
VERTEX
  5
25F
  8
0
 62
     7
 10
0.0
 20
0.0
 30
0.0
 70
   128
 71
   -29
 72
     1
 73
    30
  0
SEQEND
  5
260
  8
0
 62
     7
  0
LINE
  5
261
  8
0
 62
     0
 10
26.99652933211756
 20
774.000003200001
 30
18.00000000000001
 11
26.9751185645036
 21
773.3459719076995
 31
18.00000000000001
  0
LINE
  5
262
  8
0
 62
     0
 10
26.9751185645036
 20
773.3459719076995
 30
18.00000000000001
 11
26.91097794585566
 21
772.6947412778005
 31
18.00000000000001
  0
LINE
  5
263
  8
0
 62
     0
 10
26.91097794585566
 20
772.6947412778005
 30
18.00000000000001
 11
26.80438213614987
 21
772.0490999798399
 31
18.00000000000001
  0
LINE
  5
264
  8
0
 62
     0
 10
26.80438213614987
 20
772.0490999798399
 30
18.00000000000001
 11
26.65578759500824
 21
771.4118127489759
 31
18.00000000000001
  0
LINE
  5
265
  8
0
 62
     0
 10
26.65578759500824
 20
771.4118127489759
 30
18.00000000000001
 11
26.46583062706862
 21
770.7856085469695
 31
18.00000000000001
  0
LINE
  5
266
  8
0
 62
     0
 10
26.46583062706862
 20
770.7856085469695
 30
18.00000000000001
 11
26.23532465723043
 21
770.1731688763501
 31
18.00000000000001
  0
LINE
  5
267
  8
0
 62
     0
 10
26.23532465723043
 20
770.1731688763501
 30
18.00000000000001
 11
25.96525674744445
 21
769.577116297811
 31
18.00000000000001
  0
LINE
  5
268
  8
0
 62
     0
 10
25.96525674744445
 20
769.577116297811
 30
18.00000000000001
 11
25.65678336996195
 21
769.0000032000011
 31
18.00000000000001
  0
LINE
  5
269
  8
0
 62
     0
 10
25.65678336996195
 20
769.0000032000011
 30
18.00000000000001
 11
25.31122545514301
 21
768.444300869805
 31
18.00000000000001
  0
LINE
  5
26A
  8
0
 62
     0
 10
25.31122545514301
 20
768.444300869805
 30
18.00000000000001
 11
24.93006273502991
 21
767.9123889099138
 31
18.00000000000001
  0
LINE
  5
26B
  8
0
 62
     0
 10
24.93006273502991
 20
767.9123889099138
 30
18.00000000000001
 11
24.51492740690734
 21
767.4065450490003
 31
18.00000000000001
  0
LINE
  5
26C
  8
0
 62
     0
 10
24.51492740690734
 20
767.4065450490003
 30
18.00000000000001
 11
24.06759714398304
 21
766.9289353881355
 31
18.00000000000001
  0
LINE
  5
26D
  8
0
 62
     0
 10
24.06759714398304
 20
766.9289353881355
 30
18.00000000000001
 11
23.58998748311825
 21
766.4816051252113
 31
18.00000000000001
  0
LINE
  5
26E
  8
0
 62
     0
 10
23.58998748311825
 20
766.4816051252113
 30
18.00000000000001
 11
23.08414362220477
 21
766.0664697970886
 31
18.00000000000001
  0
LINE
  5
26F
  8
0
 62
     0
 10
23.08414362220477
 20
766.0664697970886
 30
18.00000000000001
 11
22.55223166231358
 21
765.6853070769755
 31
18.00000000000001
  0
LINE
  5
270
  8
0
 62
     0
 10
22.55223166231358
 20
765.6853070769755
 30
18.00000000000001
 11
21.99652933211756
 21
765.3397491621567
 31
18.00000000000001
  0
LINE
  5
271
  8
0
 62
     0
 10
21.99652933211756
 20
765.3397491621567
 30
18.00000000000001
 11
21.41941623430757
 21
765.031275784674
 31
18.00000000000001
  0
LINE
  5
272
  8
0
 62
     0
 10
21.41941623430757
 20
765.031275784674
 30
18.00000000000001
 11
20.82336365576846
 21
764.7612078748881
 31
18.00000000000001
  0
LINE
  5
273
  8
0
 62
     0
 10
20.82336365576846
 20
764.7612078748881
 30
18.00000000000001
 11
20.21092398514918
 21
764.53070190505
 31
18.00000000000001
  0
LINE
  5
274
  8
0
 62
     0
 10
20.21092398514918
 20
764.53070190505
 30
18.00000000000001
 11
19.58471978314277
 21
764.3407449371105
 31
18.00000000000001
  0
LINE
  5
275
  8
0
 62
     0
 10
19.58471978314277
 20
764.3407449371105
 30
18.00000000000001
 11
18.94743255227884
 21
764.1921503959686
 31
18.00000000000001
  0
LINE
  5
276
  8
0
 62
     0
 10
18.94743255227884
 20
764.1921503959686
 30
18.00000000000001
 11
18.30179125431808
 21
764.0855545862628
 31
18.00000000000001
  0
LINE
  5
277
  8
0
 62
     0
 10
18.30179125431808
 20
764.0855545862628
 30
18.00000000000001
 11
17.65056062441899
 21
764.0214139676149
 31
18.00000000000001
  0
LINE
  5
278
  8
0
 62
     0
 10
17.65056062441899
 20
764.0214139676149
 30
18.00000000000001
 11
16.99652933211756
 21
764.000003200001
 31
18.00000000000001
  0
LINE
  5
279
  8
0
 62
     0
 10
16.99652933211756
 20
764.000003200001
 30
18.00000000000001
 11
0.0000000002255186
 21
764.000003200001
 31
18.00000000000001
  0
LINE
  5
27A
  8
0
 62
     0
 10
0.0000000002255186
 20
118.0000032000009
 30
18.00000000000001
 11
0.0000000002255186
 21
764.000003200001
 31
18.00000000000001
  0
LINE
  5
27B
  8
0
 62
     0
 10
520.0000000002257
 20
118.0000032000009
 30
18.00000000000001
 11
0.0000000002255186
 21
118.0000032000009
 31
18.00000000000001
  0
LINE
  5
27C
  8
0
 62
     0
 10
520.0000000002257
 20
820.0000032000008
 30
18.00000000000001
 11
520.0000000002257
 21
118.0000032000009
 31
18.00000000000001
  0
LINE
  5
27D
  8
0
 62
     0
 10
26.99652933211756
 20
820.0000032000008
 30
18.00000000000001
 11
520.0000000002257
 21
820.0000032000008
 31
18.00000000000001
  0
LINE
  5
27E
  8
0
 62
     0
 10
26.99652933211756
 20
820.0000032000008
 30
18.00000000000001
 11
26.99652933211756
 21
774.000003200001
 31
18.00000000000001
  0
POLYLINE
  5
27F
  8
0
 62
     0
 66
     1
 10
0.0
 20
0.0
 30
0.0
 70
    64
 71
     4
 72
     2
1001
ACAD_MATERIAL_MAPPER
1070
     1
1070
     1
1070
     1
1011
0.0
1021
0.0
1031
0.000000000000001
1021
0.0
1031
0.000000000000001
1011
25.4
1021
0.0
1031
0.000000000000001
1021
0.0
1031
0.000000000000001
1011
0.0
1021
0.0
1031
25.4
1021
0.0
1031
25.4
1011
0.0
1021
1.0
1031
0.000000000000001
1021
1.0
1031
0.000000000000001
  0
VERTEX
  5
280
  8
0
 62
     0
 10
520.0000000002257
 20
118.0000032000009
 30
18.00000000000001
 70
   192
  0
VERTEX
  5
281
  8
0
 62
     0
 10
0.0000000002255184
 20
118.0000032000009
 30
0.000000000000006
 70
   192
  0
VERTEX
  5
282
  8
0
 62
     0
 10
520.0000000002257
 20
118.0000032000009
 30
0.0
 70
   192
  0
VERTEX
  5
283
  8
0
 62
     0
 10
0.0000000002255186
 20
118.0000032000009
 30
18.00000000000001
 70
   192
  0
VERTEX
  5
284
  8
0
 62
     0
 10
0.0
 20
0.0
 30
0.0
 70
   128
 71
    -1
 72
     2
 73
     3
  0
VERTEX
  5
285
  8
0
 62
     0
 10
0.0
 20
0.0
 30
0.0
 70
   128
 71
    -2
 72
     1
 73
     4
  0
SEQEND
  5
286
  8
0
 62
     0
  0
LINE
  5
287
  8
0
 62
     0
 10
520.0000000002257
 20
118.0000032000009
 30
18.00000000000001
 11
0.0000000002255186
 21
118.0000032000009
 31
18.00000000000001
  0
LINE
  5
288
  8
0
 62
     0
 10
0.0000000002255186
 20
118.0000032000009
 30
18.00000000000001
 11
0.0000000002255184
 21
118.0000032000009
 31
0.000000000000006
  0
LINE
  5
289
  8
0
 62
     0
 10
520.0000000002257
 20
118.0000032000009
 30
0.0
 11
0.0000000002255184
 21
118.0000032000009
 31
0.000000000000006
  0
LINE
  5
28A
  8
0
 62
     0
 10
520.0000000002257
 20
118.0000032000009
 30
18.00000000000001
 11
520.0000000002257
 21
118.0000032000009
 31
0.0
  0
POLYLINE
  5
28B
  8
0
 62
     0
 66
     1
 10
0.0
 20
0.0
 30
0.0
 70
    64
 71
     4
 72
     2
1001
ACAD_MATERIAL_MAPPER
1070
     1
1070
     1
1070
     1
1011
-0.0000000000000041
1021
0.0
1031
0.0000000000000069
1021
0.0
1031
0.0000000000000069
1011
-25.40000000000001
1021
0.0
1031
0.0000000000000069
1021
0.0
1031
0.0000000000000069
1011
-0.0000000000000041
1021
0.0
1031
25.4
1021
0.0
1031
25.4
1011
-0.0000000000000041
1021
1.0
1031
0.0000000000000069
1021
1.0
1031
0.0000000000000069
  0
VERTEX
  5
28C
  8
0
 62
     0
 10
26.99652933211756
 20
820.0000032000008
 30
0.0000000000000116
 70
   192
  0
VERTEX
  5
28D
  8
0
 62
     0
 10
520.0000000002257
 20
820.0000032000008
 30
18.00000000000001
 70
   192
  0
VERTEX
  5
28E
  8
0
 62
     0
 10
520.0000000002257
 20
820.0000032000008
 30
0.0000000000000059
 70
   192
  0
VERTEX
  5
28F
  8
0
 62
     0
 10
26.99652933211756
 20
820.0000032000008
 30
18.00000000000001
 70
   192
  0
VERTEX
  5
290
  8
0
 62
     0
 10
0.0
 20
0.0
 30
0.0
 70
   128
 71
    -1
 72
     2
 73
     3
  0
VERTEX
  5
291
  8
0
 62
     0
 10
0.0
 20
0.0
 30
0.0
 70
   128
 71
    -2
 72
     1
 73
     4
  0
SEQEND
  5
292
  8
0
 62
     0
  0
LINE
  5
293
  8
0
 62
     0
 10
26.99652933211756
 20
820.0000032000008
 30
0.0000000000000116
 11
26.99652933211756
 21
820.0000032000008
 31
18.00000000000001
  0
LINE
  5
294
  8
0
 62
     0
 10
26.99652933211756
 20
820.0000032000008
 30
18.00000000000001
 11
520.0000000002257
 21
820.0000032000008
 31
18.00000000000001
  0
LINE
  5
295
  8
0
 62
     0
 10
520.0000000002257
 20
820.0000032000008
 30
18.00000000000001
 11
520.0000000002257
 21
820.0000032000008
 31
0.0000000000000059
  0
LINE
  5
296
  8
0
 62
     0
 10
26.99652933211756
 20
820.0000032000008
 30
0.0000000000000116
 11
520.0000000002257
 21
820.0000032000008
 31
0.0000000000000059
  0
POLYLINE
  5
297
  8
0
 62
     0
 66
     1
 10
0.0
 20
0.0
 30
0.0
 70
    64
 71
    30
 72
    28
1001
ACAD_MATERIAL_MAPPER
1070
     1
1070
     1
1070
     1
1011
-0.0000000000001552
1021
-0.0000000000016559
1031
0.0
1021
-0.0000000000016559
1031
0.0
1011
-25.40000000000016
1021
-0.0000000000016559
1031
0.0
1021
-0.0000000000016559
1031
0.0
1011
-0.0000000000001552
1021
25.39999999999838
1031
0.0
1021
25.39999999999838
1031
0.0
1011
-0.0000000000001552
1021
-0.0000000000016559
1031
1.0
1021
-0.0000000000016559
1031
1.0
  0
VERTEX
  5
298
  8
0
 62
     0
 10
520.0000000002257
 20
820.0000032000008
 30
0.0000000000000059
 70
   192
  0
VERTEX
  5
299
  8
0
 62
     0
 10
26.99652933211756
 20
774.000003200001
 30
0.0000000000000114
 70
   192
  0
VERTEX
  5
29A
  8
0
 62
     0
 10
26.99652933211756
 20
820.0000032000008
 30
0.0000000000000116
 70
   192
  0
VERTEX
  5
29B
  8
0
 62
     0
 10
16.99652933211756
 20
764.000003200001
 30
0.0000000000000115
 70
   192
  0
VERTEX
  5
29C
  8
0
 62
     0
 10
0.0000000002255184
 20
118.0000032000009
 30
0.000000000000006
 70
   192
  0
VERTEX
  5
29D
  8
0
 62
     0
 10
0.0000000002255184
 20
764.000003200001
 30
0.0000000000000114
 70
   192
  0
VERTEX
  5
29E
  8
0
 62
     0
 10
520.0000000002257
 20
118.0000032000009
 30
0.0
 70
   192
  0
VERTEX
  5
29F
  8
0
 62
     0
 10
17.65056062441899
 20
764.0214139676149
 30
0.0000000000000114
 70
   192
  0
VERTEX
  5
2A0
  8
0
 62
     0
 10
18.30179125431808
 20
764.0855545862628
 30
0.0000000000000114
 70
   192
  0
VERTEX
  5
2A1
  8
0
 62
     0
 10
18.94743255227884
 20
764.1921503959686
 30
0.0000000000000114
 70
   192
  0
VERTEX
  5
2A2
  8
0
 62
     0
 10
19.58471978314277
 20
764.3407449371105
 30
0.0000000000000114
 70
   192
  0
VERTEX
  5
2A3
  8
0
 62
     0
 10
20.21092398514918
 20
764.53070190505
 30
0.0000000000000114
 70
   192
  0
VERTEX
  5
2A4
  8
0
 62
     0
 10
20.82336365576846
 20
764.7612078748881
 30
0.0000000000000114
 70
   192
  0
VERTEX
  5
2A5
  8
0
 62
     0
 10
21.41941623430757
 20
765.031275784674
 30
0.0000000000000113
 70
   192
  0
VERTEX
  5
2A6
  8
0
 62
     0
 10
21.99652933211756
 20
765.3397491621567
 30
0.0000000000000113
 70
   192
  0
VERTEX
  5
2A7
  8
0
 62
     0
 10
22.55223166231358
 20
765.6853070769755
 30
0.0000000000000113
 70
   192
  0
VERTEX
  5
2A8
  8
0
 62
     0
 10
23.08414362220477
 20
766.0664697970886
 30
0.0000000000000113
 70
   192
  0
VERTEX
  5
2A9
  8
0
 62
     0
 10
23.58998748311825
 20
766.4816051252113
 30
0.0000000000000113
 70
   192
  0
VERTEX
  5
2AA
  8
0
 62
     0
 10
24.06759714398304
 20
766.9289353881355
 30
0.0000000000000113
 70
   192
  0
VERTEX
  5
2AB
  8
0
 62
     0
 10
24.51492740690734
 20
767.4065450490003
 30
0.0000000000000113
 70
   192
  0
VERTEX
  5
2AC
  8
0
 62
     0
 10
24.93006273502991
 20
767.9123889099138
 30
0.0000000000000113
 70
   192
  0
VERTEX
  5
2AD
  8
0
 62
     0
 10
25.31122545514301
 20
768.444300869805
 30
0.0000000000000113
 70
   192
  0
VERTEX
  5
2AE
  8
0
 62
     0
 10
25.65678336996195
 20
769.0000032000011
 30
0.0000000000000113
 70
   192
  0
VERTEX
  5
2AF
  8
0
 62
     0
 10
25.96525674744445
 20
769.577116297811
 30
0.0000000000000113
 70
   192
  0
VERTEX
  5
2B0
  8
0
 62
     0
 10
26.23532465723043
 20
770.1731688763501
 30
0.0000000000000113
 70
   192
  0
VERTEX
  5
2B1
  8
0
 62
     0
 10
26.46583062706862
 20
770.7856085469695
 30
0.0000000000000113
 70
   192
  0
VERTEX
  5
2B2
  8
0
 62
     0
 10
26.65578759500824
 20
771.4118127489759
 30
0.0000000000000114
 70
   192
  0
VERTEX
  5
2B3
  8
0
 62
     0
 10
26.80438213614987
 20
772.0490999798399
 30
0.0000000000000114
 70
   192
  0
VERTEX
  5
2B4
  8
0
 62
     0
 10
26.91097794585566
 20
772.6947412778005
 30
0.0000000000000114
 70
   192
  0
VERTEX
  5
2B5
  8
0
 62
     0
 10
26.9751185645036
 20
773.3459719076995
 30
0.0000000000000114
 70
   192
  0
VERTEX
  5
2B6
  8
0
 62
     0
 10
0.0
 20
0.0
 30
0.0
 70
   128
 71
    -1
 72
     2
 73
     3
  0
VERTEX
  5
2B7
  8
0
 62
     0
 10
0.0
 20
0.0
 30
0.0
 70
   128
 71
    -4
 72
     5
 73
     6
  0
VERTEX
  5
2B8
  8
0
 62
     0
 10
0.0
 20
0.0
 30
0.0
 70
   128
 71
    -5
 72
    -4
 73
     7
  0
VERTEX
  5
2B9
  8
0
 62
     0
 10
0.0
 20
0.0
 30
0.0
 70
   128
 71
    -7
 72
     4
 73
    -8
  0
VERTEX
  5
2BA
  8
0
 62
     0
 10
0.0
 20
0.0
 30
0.0
 70
   128
 71
    -7
 72
     8
 73
    -9
  0
VERTEX
  5
2BB
  8
0
 62
     0
 10
0.0
 20
0.0
 30
0.0
 70
   128
 71
    -7
 72
     9
 73
   -10
  0
VERTEX
  5
2BC
  8
0
 62
     0
 10
0.0
 20
0.0
 30
0.0
 70
   128
 71
    -7
 72
    10
 73
   -11
  0
VERTEX
  5
2BD
  8
0
 62
     0
 10
0.0
 20
0.0
 30
0.0
 70
   128
 71
    -7
 72
    11
 73
   -12
  0
VERTEX
  5
2BE
  8
0
 62
     0
 10
0.0
 20
0.0
 30
0.0
 70
   128
 71
    -7
 72
    12
 73
   -13
  0
VERTEX
  5
2BF
  8
0
 62
     0
 10
0.0
 20
0.0
 30
0.0
 70
   128
 71
    -7
 72
    13
 73
   -14
  0
VERTEX
  5
2C0
  8
0
 62
     0
 10
0.0
 20
0.0
 30
0.0
 70
   128
 71
    -7
 72
    14
 73
   -15
  0
VERTEX
  5
2C1
  8
0
 62
     0
 10
0.0
 20
0.0
 30
0.0
 70
   128
 71
    -7
 72
    15
 73
   -16
  0
VERTEX
  5
2C2
  8
0
 62
     0
 10
0.0
 20
0.0
 30
0.0
 70
   128
 71
    -7
 72
    16
 73
   -17
  0
VERTEX
  5
2C3
  8
0
 62
     0
 10
0.0
 20
0.0
 30
0.0
 70
   128
 71
    -7
 72
    17
 73
   -18
  0
VERTEX
  5
2C4
  8
0
 62
     0
 10
0.0
 20
0.0
 30
0.0
 70
   128
 71
    -7
 72
    18
 73
   -19
  0
VERTEX
  5
2C5
  8
0
 62
     0
 10
0.0
 20
0.0
 30
0.0
 70
   128
 71
    -7
 72
    19
 73
   -20
  0
VERTEX
  5
2C6
  8
0
 62
     0
 10
0.0
 20
0.0
 30
0.0
 70
   128
 71
    -7
 72
    20
 73
   -21
  0
VERTEX
  5
2C7
  8
0
 62
     0
 10
0.0
 20
0.0
 30
0.0
 70
   128
 71
    -7
 72
    21
 73
   -22
  0
VERTEX
  5
2C8
  8
0
 62
     0
 10
0.0
 20
0.0
 30
0.0
 70
   128
 71
    -7
 72
    22
 73
   -23
  0
VERTEX
  5
2C9
  8
0
 62
     0
 10
0.0
 20
0.0
 30
0.0
 70
   128
 71
    -7
 72
    23
 73
   -24
  0
VERTEX
  5
2CA
  8
0
 62
     0
 10
0.0
 20
0.0
 30
0.0
 70
   128
 71
    -7
 72
    24
 73
   -25
  0
VERTEX
  5
2CB
  8
0
 62
     0
 10
0.0
 20
0.0
 30
0.0
 70
   128
 71
    -7
 72
    25
 73
   -26
  0
VERTEX
  5
2CC
  8
0
 62
     0
 10
0.0
 20
0.0
 30
0.0
 70
   128
 71
    -7
 72
    26
 73
   -27
  0
VERTEX
  5
2CD
  8
0
 62
     0
 10
0.0
 20
0.0
 30
0.0
 70
   128
 71
    -7
 72
    27
 73
   -28
  0
VERTEX
  5
2CE
  8
0
 62
     0
 10
0.0
 20
0.0
 30
0.0
 70
   128
 71
    -7
 72
    28
 73
   -29
  0
VERTEX
  5
2CF
  8
0
 62
     0
 10
0.0
 20
0.0
 30
0.0
 70
   128
 71
    -7
 72
    29
 73
   -30
  0
VERTEX
  5
2D0
  8
0
 62
     0
 10
0.0
 20
0.0
 30
0.0
 70
   128
 71
    -7
 72
    30
 73
    -2
  0
VERTEX
  5
2D1
  8
0
 62
     0
 10
0.0
 20
0.0
 30
0.0
 70
   128
 71
    -7
 72
    -2
 73
     1
  0
SEQEND
  5
2D2
  8
0
 62
     0
  0
LINE
  5
2D3
  8
0
 62
     0
 10
17.65056062441899
 20
764.0214139676149
 30
0.0000000000000114
 11
16.99652933211756
 21
764.000003200001
 31
0.0000000000000115
  0
LINE
  5
2D4
  8
0
 62
     0
 10
17.65056062441899
 20
764.0214139676149
 30
0.0000000000000114
 11
18.30179125431808
 21
764.0855545862628
 31
0.0000000000000114
  0
LINE
  5
2D5
  8
0
 62
     0
 10
18.30179125431808
 20
764.0855545862628
 30
0.0000000000000114
 11
18.94743255227884
 21
764.1921503959686
 31
0.0000000000000114
  0
LINE
  5
2D6
  8
0
 62
     0
 10
18.94743255227884
 20
764.1921503959686
 30
0.0000000000000114
 11
19.58471978314277
 21
764.3407449371105
 31
0.0000000000000114
  0
LINE
  5
2D7
  8
0
 62
     0
 10
19.58471978314277
 20
764.3407449371105
 30
0.0000000000000114
 11
20.21092398514918
 21
764.53070190505
 31
0.0000000000000114
  0
LINE
  5
2D8
  8
0
 62
     0
 10
20.21092398514918
 20
764.53070190505
 30
0.0000000000000114
 11
20.82336365576846
 21
764.7612078748881
 31
0.0000000000000114
  0
LINE
  5
2D9
  8
0
 62
     0
 10
20.82336365576846
 20
764.7612078748881
 30
0.0000000000000114
 11
21.41941623430757
 21
765.031275784674
 31
0.0000000000000113
  0
LINE
  5
2DA
  8
0
 62
     0
 10
21.41941623430757
 20
765.031275784674
 30
0.0000000000000113
 11
21.99652933211756
 21
765.3397491621567
 31
0.0000000000000113
  0
LINE
  5
2DB
  8
0
 62
     0
 10
21.99652933211756
 20
765.3397491621567
 30
0.0000000000000113
 11
22.55223166231358
 21
765.6853070769755
 31
0.0000000000000113
  0
LINE
  5
2DC
  8
0
 62
     0
 10
22.55223166231358
 20
765.6853070769755
 30
0.0000000000000113
 11
23.08414362220477
 21
766.0664697970886
 31
0.0000000000000113
  0
LINE
  5
2DD
  8
0
 62
     0
 10
23.08414362220477
 20
766.0664697970886
 30
0.0000000000000113
 11
23.58998748311825
 21
766.4816051252113
 31
0.0000000000000113
  0
LINE
  5
2DE
  8
0
 62
     0
 10
23.58998748311825
 20
766.4816051252113
 30
0.0000000000000113
 11
24.06759714398304
 21
766.9289353881355
 31
0.0000000000000113
  0
LINE
  5
2DF
  8
0
 62
     0
 10
24.06759714398304
 20
766.9289353881355
 30
0.0000000000000113
 11
24.51492740690734
 21
767.4065450490003
 31
0.0000000000000113
  0
LINE
  5
2E0
  8
0
 62
     0
 10
24.51492740690734
 20
767.4065450490003
 30
0.0000000000000113
 11
24.93006273502991
 21
767.9123889099138
 31
0.0000000000000113
  0
LINE
  5
2E1
  8
0
 62
     0
 10
24.93006273502991
 20
767.9123889099138
 30
0.0000000000000113
 11
25.31122545514301
 21
768.444300869805
 31
0.0000000000000113
  0
LINE
  5
2E2
  8
0
 62
     0
 10
25.31122545514301
 20
768.444300869805
 30
0.0000000000000113
 11
25.65678336996195
 21
769.0000032000011
 31
0.0000000000000113
  0
LINE
  5
2E3
  8
0
 62
     0
 10
25.65678336996195
 20
769.0000032000011
 30
0.0000000000000113
 11
25.96525674744445
 21
769.577116297811
 31
0.0000000000000113
  0
LINE
  5
2E4
  8
0
 62
     0
 10
25.96525674744445
 20
769.577116297811
 30
0.0000000000000113
 11
26.23532465723043
 21
770.1731688763501
 31
0.0000000000000113
  0
LINE
  5
2E5
  8
0
 62
     0
 10
26.23532465723043
 20
770.1731688763501
 30
0.0000000000000113
 11
26.46583062706862
 21
770.7856085469695
 31
0.0000000000000113
  0
LINE
  5
2E6
  8
0
 62
     0
 10
26.46583062706862
 20
770.7856085469695
 30
0.0000000000000113
 11
26.65578759500824
 21
771.4118127489759
 31
0.0000000000000114
  0
LINE
  5
2E7
  8
0
 62
     0
 10
26.65578759500824
 20
771.4118127489759
 30
0.0000000000000114
 11
26.80438213614987
 21
772.0490999798399
 31
0.0000000000000114
  0
LINE
  5
2E8
  8
0
 62
     0
 10
26.80438213614987
 20
772.0490999798399
 30
0.0000000000000114
 11
26.91097794585566
 21
772.6947412778005
 31
0.0000000000000114
  0
LINE
  5
2E9
  8
0
 62
     0
 10
26.91097794585566
 20
772.6947412778005
 30
0.0000000000000114
 11
26.9751185645036
 21
773.3459719076995
 31
0.0000000000000114
  0
LINE
  5
2EA
  8
0
 62
     0
 10
26.99652933211756
 20
774.000003200001
 30
0.0000000000000114
 11
26.9751185645036
 21
773.3459719076995
 31
0.0000000000000114
  0
LINE
  5
2EB
  8
0
 62
     0
 10
26.99652933211756
 20
820.0000032000008
 30
0.0000000000000116
 11
26.99652933211756
 21
774.000003200001
 31
0.0000000000000114
  0
LINE
  5
2EC
  8
0
 62
     0
 10
26.99652933211756
 20
820.0000032000008
 30
0.0000000000000116
 11
520.0000000002257
 21
820.0000032000008
 31
0.0000000000000059
  0
LINE
  5
2ED
  8
0
 62
     0
 10
520.0000000002257
 20
820.0000032000008
 30
0.0000000000000059
 11
520.0000000002257
 21
118.0000032000009
 31
0.0
  0
LINE
  5
2EE
  8
0
 62
     0
 10
520.0000000002257
 20
118.0000032000009
 30
0.0
 11
0.0000000002255184
 21
118.0000032000009
 31
0.000000000000006
  0
LINE
  5
2EF
  8
0
 62
     0
 10
0.0000000002255184
 20
118.0000032000009
 30
0.000000000000006
 11
0.0000000002255184
 21
764.000003200001
 31
0.0000000000000114
  0
LINE
  5
2F0
  8
0
 62
     0
 10
16.99652933211756
 20
764.000003200001
 30
0.0000000000000115
 11
0.0000000002255184
 21
764.000003200001
 31
0.0000000000000114
  0
POLYLINE
  5
2F1
  8
0
 62
     0
 66
     1
 10
0.0
 20
0.0
 30
0.0
 70
    64
 71
     4
 72
     2
1001
ACAD_MATERIAL_MAPPER
1070
     1
1070
     1
1070
     1
1011
0.0
1021
0.0
1031
0.0
1021
0.0
1031
0.0
1011
0.0
1021
-25.40000000000013
1031
0.0
1021
-25.40000000000013
1031
0.0
1011
0.0
1021
0.0
1031
25.40000000000005
1021
0.0
1031
25.40000000000005
1011
1.0
1021
0.0
1031
0.0
1021
0.0
1031
0.0
  0
VERTEX
  5
2F2
  8
0
 62
     0
 10
26.99652933211756
 20
820.0000032000008
 30
18.00000000000001
 70
   192
  0
VERTEX
  5
2F3
  8
0
 62
     0
 10
26.99652933211756
 20
774.000003200001
 30
0.0000000000000114
 70
   192
  0
VERTEX
  5
2F4
  8
0
 62
     0
 10
26.99652933211756
 20
774.000003200001
 30
18.00000000000001
 70
   192
  0
VERTEX
  5
2F5
  8
0
 62
     0
 10
26.99652933211756
 20
820.0000032000008
 30
0.0000000000000116
 70
   192
  0
VERTEX
  5
2F6
  8
0
 62
     0
 10
0.0
 20
0.0
 30
0.0
 70
   128
 71
    -1
 72
     2
 73
     3
  0
VERTEX
  5
2F7
  8
0
 62
     0
 10
0.0
 20
0.0
 30
0.0
 70
   128
 71
    -2
 72
     1
 73
     4
  0
SEQEND
  5
2F8
  8
0
 62
     0
  0
LINE
  5
2F9
  8
0
 62
     0
 10
26.99652933211756
 20
820.0000032000008
 30
0.0000000000000116
 11
26.99652933211756
 21
774.000003200001
 31
0.0000000000000114
  0
LINE
  5
2FA
  8
0
 62
     0
 10
26.99652933211756
 20
774.000003200001
 30
0.0000000000000114
 11
26.99652933211756
 21
774.000003200001
 31
18.00000000000001
  0
LINE
  5
2FB
  8
0
 62
     0
 10
26.99652933211756
 20
820.0000032000008
 30
18.00000000000001
 11
26.99652933211756
 21
774.000003200001
 31
18.00000000000001
  0
LINE
  5
2FC
  8
0
 62
     0
 10
26.99652933211756
 20
820.0000032000008
 30
0.0000000000000116
 11
26.99652933211756
 21
820.0000032000008
 31
18.00000000000001
  0
POLYLINE
  5
2FD
  8
0
 62
     0
 66
     1
 10
0.0
 20
0.0
 30
0.0
 70
    64
 71
     4
 72
     2
1001
ACAD_MATERIAL_MAPPER
1070
     1
1070
     1
1070
     1
1011
0.0
1021
0.0
1031
0.0000000000000064
1021
0.0
1031
0.0000000000000064
1011
-25.4
1021
0.0
1031
0.0000000000000064
1021
0.0
1031
0.0000000000000064
1011
0.0
1021
0.0
1031
25.40000000000001
1021
0.0
1031
25.40000000000001
1011
0.0
1021
1.0
1031
0.0000000000000064
1021
1.0
1031
0.0000000000000064
  0
VERTEX
  5
2FE
  8
0
 62
     0
 10
0.0000000002255186
 20
764.000003200001
 30
18.00000000000001
 70
   192
  0
VERTEX
  5
2FF
  8
0
 62
     0
 10
16.99652933211756
 20
764.000003200001
 30
0.0000000000000115
 70
   192
  0
VERTEX
  5
300
  8
0
 62
     0
 10
0.0000000002255184
 20
764.000003200001
 30
0.0000000000000114
 70
   192
  0
VERTEX
  5
301
  8
0
 62
     0
 10
16.99652933211756
 20
764.000003200001
 30
18.00000000000001
 70
   192
  0
VERTEX
  5
302
  8
0
 62
     0
 10
0.0
 20
0.0
 30
0.0
 70
   128
 71
    -1
 72
     2
 73
     3
  0
VERTEX
  5
303
  8
0
 62
     0
 10
0.0
 20
0.0
 30
0.0
 70
   128
 71
    -2
 72
     1
 73
     4
  0
SEQEND
  5
304
  8
0
 62
     0
  0
LINE
  5
305
  8
0
 62
     0
 10
16.99652933211756
 20
764.000003200001
 30
18.00000000000001
 11
0.0000000002255186
 21
764.000003200001
 31
18.00000000000001
  0
LINE
  5
306
  8
0
 62
     0
 10
16.99652933211756
 20
764.000003200001
 30
0.0000000000000115
 11
16.99652933211756
 21
764.000003200001
 31
18.00000000000001
  0
LINE
  5
307
  8
0
 62
     0
 10
16.99652933211756
 20
764.000003200001
 30
0.0000000000000115
 11
0.0000000002255184
 21
764.000003200001
 31
0.0000000000000114
  0
LINE
  5
308
  8
0
 62
     0
 10
0.0000000002255184
 20
764.000003200001
 30
0.0000000000000114
 11
0.0000000002255186
 21
764.000003200001
 31
18.00000000000001
  0
POLYLINE
  5
309
  8
0
 62
     0
 66
     1
 10
0.0
 20
0.0
 30
0.0
 70
    64
 71
     4
 72
     2
1001
ACAD_MATERIAL_MAPPER
1070
     1
1070
     1
1070
     1
1011
-74.3570165524998
1021
0.0
1031
0.0000000000000072
1021
0.0
1031
0.0000000000000072
1011
-99.63470860997487
1021
0.0
1031
0.0000000000000072
1021
0.0
1031
0.0000000000000072
1011
-74.3570165524998
1021
0.0
1031
25.40000000000088
1021
0.0
1031
25.40000000000088
1011
-74.3570165524998
1021
1.0
1031
0.0000000000000072
1021
1.0
1031
0.0000000000000072
  0
VERTEX
  5
30A
  8
0
 62
     0
 10
17.65056062441899
 20
764.0214139676149
 30
0.0000000000000114
 70
   192
  0
VERTEX
  5
30B
  8
0
 62
     0
 10
18.30179125431808
 20
764.0855545862628
 30
18.00000000000001
 70
   192
  0
VERTEX
  5
30C
  8
0
 62
     0
 10
18.30179125431808
 20
764.0855545862628
 30
0.0000000000000114
 70
   192
  0
VERTEX
  5
30D
  8
0
 62
     0
 10
17.65056062441899
 20
764.0214139676149
 30
18.00000000000001
 70
   192
  0
VERTEX
  5
30E
  8
0
 62
     0
 10
0.0
 20
0.0
 30
0.0
 70
   128
 71
    -1
 72
     2
 73
     3
  0
VERTEX
  5
30F
  8
0
 62
     0
 10
0.0
 20
0.0
 30
0.0
 70
   128
 71
    -2
 72
     1
 73
     4
  0
SEQEND
  5
310
  8
0
 62
     0
  0
LINE
  5
311
  8
0
 62
     0
 10
18.30179125431808
 20
764.0855545862628
 30
18.00000000000001
 11
18.30179125431808
 21
764.0855545862628
 31
0.0000000000000114
  0
LINE
  5
312
  8
0
 62
     0
 10
17.65056062441899
 20
764.0214139676149
 30
0.0000000000000114
 11
18.30179125431808
 21
764.0855545862628
 31
0.0000000000000114
  0
LINE
  5
313
  8
0
 62
     0
 10
17.65056062441899
 20
764.0214139676149
 30
18.00000000000001
 11
17.65056062441899
 21
764.0214139676149
 31
0.0000000000000114
  0
LINE
  5
314
  8
0
 62
     0
 10
18.30179125431808
 20
764.0855545862628
 30
18.00000000000001
 11
17.65056062441899
 21
764.0214139676149
 31
18.00000000000001
  0
POLYLINE
  5
315
  8
0
 62
     0
 66
     1
 10
0.0
 20
0.0
 30
0.0
 70
    64
 71
     4
 72
     2
1001
ACAD_MATERIAL_MAPPER
1070
     1
1070
     1
1070
     1
1011
-122.3179892101625
1021
0.0
1031
0.0000000000000076
1021
0.0
1031
0.0000000000000076
1011
-147.3787298451172
1021
0.0
1031
0.0000000000000076
1021
0.0
1031
0.0000000000000076
1011
-122.3179892101625
1021
0.0
1031
25.39999999999972
1021
0.0
1031
25.39999999999972
1011
-122.3179892101625
1021
1.0
1031
0.0000000000000076
1021
1.0
1031
0.0000000000000076
  0
VERTEX
  5
316
  8
0
 62
     0
 10
18.30179125431808
 20
764.0855545862628
 30
0.0000000000000114
 70
   192
  0
VERTEX
  5
317
  8
0
 62
     0
 10
18.94743255227884
 20
764.1921503959686
 30
18.00000000000001
 70
   192
  0
VERTEX
  5
318
  8
0
 62
     0
 10
18.94743255227884
 20
764.1921503959686
 30
0.0000000000000114
 70
   192
  0
VERTEX
  5
319
  8
0
 62
     0
 10
18.30179125431808
 20
764.0855545862628
 30
18.00000000000001
 70
   192
  0
VERTEX
  5
31A
  8
0
 62
     0
 10
0.0
 20
0.0
 30
0.0
 70
   128
 71
    -1
 72
     2
 73
     3
  0
VERTEX
  5
31B
  8
0
 62
     0
 10
0.0
 20
0.0
 30
0.0
 70
   128
 71
    -2
 72
     1
 73
     4
  0
SEQEND
  5
31C
  8
0
 62
     0
  0
LINE
  5
31D
  8
0
 62
     0
 10
18.94743255227884
 20
764.1921503959686
 30
18.00000000000001
 11
18.94743255227884
 21
764.1921503959686
 31
0.0000000000000114
  0
LINE
  5
31E
  8
0
 62
     0
 10
18.30179125431808
 20
764.0855545862628
 30
0.0000000000000114
 11
18.94743255227884
 21
764.1921503959686
 31
0.0000000000000114
  0
LINE
  5
31F
  8
0
 62
     0
 10
18.30179125431808
 20
764.0855545862628
 30
18.00000000000001
 11
18.30179125431808
 21
764.0855545862628
 31
0.0000000000000114
  0
LINE
  5
320
  8
0
 62
     0
 10
18.94743255227884
 20
764.1921503959686
 30
18.00000000000001
 11
18.30179125431808
 21
764.0855545862628
 31
18.00000000000001
  0
POLYLINE
  5
321
  8
0
 62
     0
 66
     1
 10
0.0
 20
0.0
 30
0.0
 70
    64
 71
     4
 72
     2
1001
ACAD_MATERIAL_MAPPER
1070
     1
1070
     1
1070
     1
1011
-24.96580003354785
1021
0.0
1031
0.0000000000000067
1021
0.0
1031
0.0000000000000067
1011
-50.35220055544767
1021
0.0
1031
0.0000000000000067
1021
0.0
1031
0.0000000000000067
1011
-24.96580003354785
1021
0.0
1031
25.40000000000008
1021
0.0
1031
25.40000000000008
1011
-24.96580003354785
1021
1.0
1031
0.0000000000000067
1021
1.0
1031
0.0000000000000067
  0
VERTEX
  5
322
  8
0
 62
     0
 10
16.99652933211756
 20
764.000003200001
 30
0.0000000000000115
 70
   192
  0
VERTEX
  5
323
  8
0
 62
     0
 10
17.65056062441899
 20
764.0214139676149
 30
18.00000000000001
 70
   192
  0
VERTEX
  5
324
  8
0
 62
     0
 10
17.65056062441899
 20
764.0214139676149
 30
0.0000000000000114
 70
   192
  0
VERTEX
  5
325
  8
0
 62
     0
 10
16.99652933211756
 20
764.000003200001
 30
18.00000000000001
 70
   192
  0
VERTEX
  5
326
  8
0
 62
     0
 10
0.0
 20
0.0
 30
0.0
 70
   128
 71
    -1
 72
     2
 73
     3
  0
VERTEX
  5
327
  8
0
 62
     0
 10
0.0
 20
0.0
 30
0.0
 70
   128
 71
    -2
 72
     1
 73
     4
  0
SEQEND
  5
328
  8
0
 62
     0
  0
LINE
  5
329
  8
0
 62
     0
 10
17.65056062441899
 20
764.0214139676149
 30
18.00000000000001
 11
17.65056062441899
 21
764.0214139676149
 31
0.0000000000000114
  0
LINE
  5
32A
  8
0
 62
     0
 10
17.65056062441899
 20
764.0214139676149
 30
0.0000000000000114
 11
16.99652933211756
 21
764.000003200001
 31
0.0000000000000115
  0
LINE
  5
32B
  8
0
 62
     0
 10
16.99652933211756
 20
764.000003200001
 30
0.0000000000000115
 11
16.99652933211756
 21
764.000003200001
 31
18.00000000000001
  0
LINE
  5
32C
  8
0
 62
     0
 10
17.65056062441899
 20
764.0214139676149
 30
18.00000000000001
 11
16.99652933211756
 21
764.000003200001
 31
18.00000000000001
  0
POLYLINE
  5
32D
  8
0
 62
     0
 66
     1
 10
0.0
 20
0.0
 30
0.0
 70
    64
 71
     4
 72
     2
1001
ACAD_MATERIAL_MAPPER
1070
     1
1070
     1
1070
     1
1011
0.0
1021
16.17827974896955
1031
0.0
1021
16.17827974896955
1031
0.0
1011
0.0
1021
-8.882460885978023
1031
0.0
1021
-8.882460885978023
1031
0.0
1011
0.0
1021
16.17827974896955
1031
25.39999999999832
1021
16.17827974896955
1031
25.39999999999832
1011
1.0
1021
16.17827974896955
1031
0.0
1021
16.17827974896955
1031
0.0
  0
VERTEX
  5
32E
  8
0
 62
     0
 10
26.91097794585566
 20
772.6947412778005
 30
18.00000000000001
 70
   192
  0
VERTEX
  5
32F
  8
0
 62
     0
 10
26.80438213614987
 20
772.0490999798399
 30
0.0000000000000114
 70
   192
  0
VERTEX
  5
330
  8
0
 62
     0
 10
26.80438213614987
 20
772.0490999798399
 30
18.00000000000001
 70
   192
  0
VERTEX
  5
331
  8
0
 62
     0
 10
26.91097794585566
 20
772.6947412778005
 30
0.0000000000000114
 70
   192
  0
VERTEX
  5
332
  8
0
 62
     0
 10
0.0
 20
0.0
 30
0.0
 70
   128
 71
    -1
 72
     2
 73
     3
  0
VERTEX
  5
333
  8
0
 62
     0
 10
0.0
 20
0.0
 30
0.0
 70
   128
 71
    -2
 72
     1
 73
     4
  0
SEQEND
  5
334
  8
0
 62
     0
  0
LINE
  5
335
  8
0
 62
     0
 10
26.91097794585566
 20
772.6947412778005
 30
18.00000000000001
 11
26.91097794585566
 21
772.6947412778005
 31
0.0000000000000114
  0
LINE
  5
336
  8
0
 62
     0
 10
26.80438213614987
 20
772.0490999798399
 30
0.0000000000000114
 11
26.91097794585566
 21
772.6947412778005
 31
0.0000000000000114
  0
LINE
  5
337
  8
0
 62
     0
 10
26.80438213614987
 20
772.0490999798399
 30
18.00000000000001
 11
26.80438213614987
 21
772.0490999798399
 31
0.0000000000000114
  0
LINE
  5
338
  8
0
 62
     0
 10
26.91097794585566
 20
772.6947412778005
 30
18.00000000000001
 11
26.80438213614987
 21
772.0490999798399
 31
18.00000000000001
  0
POLYLINE
  5
339
  8
0
 62
     0
 66
     1
 10
0.0
 20
0.0
 30
0.0
 70
    64
 71
     4
 72
     2
1001
ACAD_MATERIAL_MAPPER
1070
     1
1070
     1
1070
     1
1011
0.0
1021
346.376658272965
1031
0.0
1021
346.376658272965
1031
0.0
1011
0.0
1021
327.8381108264369
1031
0.0
1021
327.8381108264369
1031
0.0
1011
0.0
1021
346.376658272965
1031
25.40000000000182
1021
346.376658272965
1031
25.40000000000182
1011
1.0
1021
346.376658272965
1031
0.0
1021
346.376658272965
1031
0.0
  0
VERTEX
  5
33A
  8
0
 62
     0
 10
24.51492740690734
 20
767.4065450490003
 30
18.00000000000001
 70
   192
  0
VERTEX
  5
33B
  8
0
 62
     0
 10
24.06759714398304
 20
766.9289353881355
 30
0.0000000000000113
 70
   192
  0
VERTEX
  5
33C
  8
0
 62
     0
 10
24.06759714398304
 20
766.9289353881355
 30
18.00000000000001
 70
   192
  0
VERTEX
  5
33D
  8
0
 62
     0
 10
24.51492740690734
 20
767.4065450490003
 30
0.0000000000000113
 70
   192
  0
VERTEX
  5
33E
  8
0
 62
     0
 10
0.0
 20
0.0
 30
0.0
 70
   128
 71
    -1
 72
     2
 73
     3
  0
VERTEX
  5
33F
  8
0
 62
     0
 10
0.0
 20
0.0
 30
0.0
 70
   128
 71
    -2
 72
     1
 73
     4
  0
SEQEND
  5
340
  8
0
 62
     0
  0
LINE
  5
341
  8
0
 62
     0
 10
24.51492740690734
 20
767.4065450490003
 30
18.00000000000001
 11
24.51492740690734
 21
767.4065450490003
 31
0.0000000000000113
  0
LINE
  5
342
  8
0
 62
     0
 10
24.06759714398304
 20
766.9289353881355
 30
0.0000000000000113
 11
24.51492740690734
 21
767.4065450490003
 31
0.0000000000000113
  0
LINE
  5
343
  8
0
 62
     0
 10
24.06759714398304
 20
766.9289353881355
 30
18.00000000000001
 11
24.06759714398304
 21
766.9289353881355
 31
0.0000000000000113
  0
LINE
  5
344
  8
0
 62
     0
 10
24.51492740690734
 20
767.4065450490003
 30
18.00000000000001
 11
24.06759714398304
 21
766.9289353881355
 31
18.00000000000001
  0
POLYLINE
  5
345
  8
0
 62
     0
 66
     1
 10
0.0
 20
0.0
 30
0.0
 70
    64
 71
     4
 72
     2
1001
ACAD_MATERIAL_MAPPER
1070
     1
1070
     1
1070
     1
1011
0.0
1021
4.798520717201439
1031
0.0
1021
4.798520717201439
1031
0.0
1011
0.0
1021
-20.47917134027532
1031
0.0
1021
-20.47917134027532
1031
0.0
1011
0.0
1021
4.798520717201439
1031
25.39999999999832
1021
4.798520717201439
1031
25.39999999999832
1011
1.0
1021
4.798520717201439
1031
0.0
1021
4.798520717201439
1031
0.0
  0
VERTEX
  5
346
  8
0
 62
     0
 10
26.9751185645036
 20
773.3459719076995
 30
18.00000000000001
 70
   192
  0
VERTEX
  5
347
  8
0
 62
     0
 10
26.91097794585566
 20
772.6947412778005
 30
0.0000000000000114
 70
   192
  0
VERTEX
  5
348
  8
0
 62
     0
 10
26.91097794585566
 20
772.6947412778005
 30
18.00000000000001
 70
   192
  0
VERTEX
  5
349
  8
0
 62
     0
 10
26.9751185645036
 20
773.3459719076995
 30
0.0000000000000114
 70
   192
  0
VERTEX
  5
34A
  8
0
 62
     0
 10
0.0
 20
0.0
 30
0.0
 70
   128
 71
    -1
 72
     2
 73
     3
  0
VERTEX
  5
34B
  8
0
 62
     0
 10
0.0
 20
0.0
 30
0.0
 70
   128
 71
    -2
 72
     1
 73
     4
  0
SEQEND
  5
34C
  8
0
 62
     0
  0
LINE
  5
34D
  8
0
 62
     0
 10
26.9751185645036
 20
773.3459719076995
 30
18.00000000000001
 11
26.9751185645036
 21
773.3459719076995
 31
0.0000000000000114
  0
LINE
  5
34E
  8
0
 62
     0
 10
26.91097794585566
 20
772.6947412778005
 30
0.0000000000000114
 11
26.9751185645036
 21
773.3459719076995
 31
0.0000000000000114
  0
LINE
  5
34F
  8
0
 62
     0
 10
26.91097794585566
 20
772.6947412778005
 30
18.00000000000001
 11
26.91097794585566
 21
772.6947412778005
 31
0.0000000000000114
  0
LINE
  5
350
  8
0
 62
     0
 10
26.9751185645036
 20
773.3459719076995
 30
18.00000000000001
 11
26.91097794585566
 21
772.6947412778005
 31
18.00000000000001
  0
POLYLINE
  5
351
  8
0
 62
     0
 66
     1
 10
0.0
 20
0.0
 30
0.0
 70
    64
 71
     4
 72
     2
1001
ACAD_MATERIAL_MAPPER
1070
     1
1070
     1
1070
     1
1011
0.0
1021
57.59858487571145
1031
0.0
1021
57.59858487571145
1031
0.0
1011
0.0
1021
33.29230034811449
1031
0.0
1021
33.29230034811449
1031
0.0
1011
0.0
1021
57.59858487571145
1031
25.39999999999832
1021
57.59858487571145
1031
25.39999999999832
1011
1.0
1021
57.59858487571145
1031
0.0
1021
57.59858487571145
1031
0.0
  0
VERTEX
  5
352
  8
0
 62
     0
 10
26.65578759500824
 20
771.4118127489759
 30
18.00000000000001
 70
   192
  0
VERTEX
  5
353
  8
0
 62
     0
 10
26.46583062706862
 20
770.7856085469695
 30
0.0000000000000113
 70
   192
  0
VERTEX
  5
354
  8
0
 62
     0
 10
26.46583062706862
 20
770.7856085469695
 30
18.00000000000001
 70
   192
  0
VERTEX
  5
355
  8
0
 62
     0
 10
26.65578759500824
 20
771.4118127489759
 30
0.0000000000000114
 70
   192
  0
VERTEX
  5
356
  8
0
 62
     0
 10
0.0
 20
0.0
 30
0.0
 70
   128
 71
    -1
 72
     2
 73
     3
  0
VERTEX
  5
357
  8
0
 62
     0
 10
0.0
 20
0.0
 30
0.0
 70
   128
 71
    -2
 72
     1
 73
     4
  0
SEQEND
  5
358
  8
0
 62
     0
  0
LINE
  5
359
  8
0
 62
     0
 10
26.65578759500824
 20
771.4118127489759
 30
18.00000000000001
 11
26.65578759500824
 21
771.4118127489759
 31
0.0000000000000114
  0
LINE
  5
35A
  8
0
 62
     0
 10
26.46583062706862
 20
770.7856085469695
 30
0.0000000000000113
 11
26.65578759500824
 21
771.4118127489759
 31
0.0000000000000114
  0
LINE
  5
35B
  8
0
 62
     0
 10
26.46583062706862
 20
770.7856085469695
 30
18.00000000000001
 11
26.46583062706862
 21
770.7856085469695
 31
0.0000000000000113
  0
LINE
  5
35C
  8
0
 62
     0
 10
26.65578759500824
 20
771.4118127489759
 30
18.00000000000001
 11
26.46583062706862
 21
770.7856085469695
 31
18.00000000000001
  0
POLYLINE
  5
35D
  8
0
 62
     0
 66
     1
 10
0.0
 20
0.0
 30
0.0
 70
    64
 71
     4
 72
     2
1001
ACAD_MATERIAL_MAPPER
1070
     1
1070
     1
1070
     1
1011
0.0
1021
160.2168282543416
1031
0.0
1021
160.2168282543416
1031
0.0
1011
0.0
1021
137.8160281398959
1031
0.0
1021
137.8160281398959
1031
0.0
1011
0.0
1021
160.2168282543416
1031
25.39999999999688
1021
160.2168282543416
1031
25.39999999999688
1011
1.0
1021
160.2168282543416
1031
0.0
1021
160.2168282543416
1031
0.0
  0
VERTEX
  5
35E
  8
0
 62
     0
 10
25.96525674744445
 20
769.577116297811
 30
18.00000000000001
 70
   192
  0
VERTEX
  5
35F
  8
0
 62
     0
 10
25.65678336996195
 20
769.0000032000011
 30
0.0000000000000113
 70
   192
  0
VERTEX
  5
360
  8
0
 62
     0
 10
25.65678336996195
 20
769.0000032000011
 30
18.00000000000001
 70
   192
  0
VERTEX
  5
361
  8
0
 62
     0
 10
25.96525674744445
 20
769.577116297811
 30
0.0000000000000113
 70
   192
  0
VERTEX
  5
362
  8
0
 62
     0
 10
0.0
 20
0.0
 30
0.0
 70
   128
 71
    -1
 72
     2
 73
     3
  0
VERTEX
  5
363
  8
0
 62
     0
 10
0.0
 20
0.0
 30
0.0
 70
   128
 71
    -2
 72
     1
 73
     4
  0
SEQEND
  5
364
  8
0
 62
     0
  0
LINE
  5
365
  8
0
 62
     0
 10
25.96525674744445
 20
769.577116297811
 30
18.00000000000001
 11
25.96525674744445
 21
769.577116297811
 31
0.0000000000000113
  0
LINE
  5
366
  8
0
 62
     0
 10
25.65678336996195
 20
769.0000032000011
 30
0.0000000000000113
 11
25.96525674744445
 21
769.577116297811
 31
0.0000000000000113
  0
LINE
  5
367
  8
0
 62
     0
 10
25.65678336996195
 20
769.0000032000011
 30
18.00000000000001
 11
25.65678336996195
 21
769.0000032000011
 31
0.0000000000000113
  0
LINE
  5
368
  8
0
 62
     0
 10
25.96525674744445
 20
769.577116297811
 30
18.00000000000001
 11
25.65678336996195
 21
769.0000032000011
 31
18.00000000000001
  0
POLYLINE
  5
369
  8
0
 62
     0
 66
     1
 10
0.0
 20
0.0
 30
0.0
 70
    64
 71
     4
 72
     2
1001
ACAD_MATERIAL_MAPPER
1070
     1
1070
     1
1070
     1
1011
0.0
1021
86.91408517132375
1031
0.0
1021
86.91408517132375
1031
0.0
1011
0.0
1021
63.14207463168399
1031
0.0
1021
63.14207463168399
1031
0.0
1011
0.0
1021
86.91408517132375
1031
25.40000000000182
1021
86.91408517132375
1031
25.40000000000182
1011
1.0
1021
86.91408517132375
1031
0.0
1021
86.91408517132375
1031
0.0
  0
VERTEX
  5
36A
  8
0
 62
     0
 10
26.46583062706862
 20
770.7856085469695
 30
18.00000000000001
 70
   192
  0
VERTEX
  5
36B
  8
0
 62
     0
 10
26.23532465723043
 20
770.1731688763501
 30
0.0000000000000113
 70
   192
  0
VERTEX
  5
36C
  8
0
 62
     0
 10
26.23532465723043
 20
770.1731688763501
 30
18.00000000000001
 70
   192
  0
VERTEX
  5
36D
  8
0
 62
     0
 10
26.46583062706862
 20
770.7856085469695
 30
0.0000000000000113
 70
   192
  0
VERTEX
  5
36E
  8
0
 62
     0
 10
0.0
 20
0.0
 30
0.0
 70
   128
 71
    -1
 72
     2
 73
     3
  0
VERTEX
  5
36F
  8
0
 62
     0
 10
0.0
 20
0.0
 30
0.0
 70
   128
 71
    -2
 72
     1
 73
     4
  0
SEQEND
  5
370
  8
0
 62
     0
  0
LINE
  5
371
  8
0
 62
     0
 10
26.46583062706862
 20
770.7856085469695
 30
18.00000000000001
 11
26.46583062706862
 21
770.7856085469695
 31
0.0000000000000113
  0
LINE
  5
372
  8
0
 62
     0
 10
26.23532465723043
 20
770.1731688763501
 30
0.0000000000000113
 11
26.46583062706862
 21
770.7856085469695
 31
0.0000000000000113
  0
LINE
  5
373
  8
0
 62
     0
 10
26.23532465723043
 20
770.1731688763501
 30
18.00000000000001
 11
26.23532465723043
 21
770.1731688763501
 31
0.0000000000000113
  0
LINE
  5
374
  8
0
 62
     0
 10
26.46583062706862
 20
770.7856085469695
 30
18.00000000000001
 11
26.23532465723043
 21
770.1731688763501
 31
18.00000000000001
  0
POLYLINE
  5
375
  8
0
 62
     0
 66
     1
 10
0.0
 20
0.0
 30
0.0
 70
    64
 71
     4
 72
     2
1001
ACAD_MATERIAL_MAPPER
1070
     1
1070
     1
1070
     1
1011
-371.3966903446623
1021
0.0
1031
0.0000000000000076
1021
0.0
1031
0.0000000000000076
1011
-389.935237791191
1021
0.0
1031
0.0000000000000076
1021
0.0
1031
0.0000000000000076
1011
-371.3966903446623
1021
0.0
1031
25.39999999999977
1021
0.0
1031
25.39999999999977
1011
-371.3966903446623
1021
1.0
1031
0.0000000000000076
1021
1.0
1031
0.0000000000000076
  0
VERTEX
  5
376
  8
0
 62
     0
 10
23.58998748311825
 20
766.4816051252113
 30
0.0000000000000113
 70
   192
  0
VERTEX
  5
377
  8
0
 62
     0
 10
24.06759714398304
 20
766.9289353881355
 30
18.00000000000001
 70
   192
  0
VERTEX
  5
378
  8
0
 62
     0
 10
24.06759714398304
 20
766.9289353881355
 30
0.0000000000000113
 70
   192
  0
VERTEX
  5
379
  8
0
 62
     0
 10
23.58998748311825
 20
766.4816051252113
 30
18.00000000000001
 70
   192
  0
VERTEX
  5
37A
  8
0
 62
     0
 10
0.0
 20
0.0
 30
0.0
 70
   128
 71
    -1
 72
     2
 73
     3
  0
VERTEX
  5
37B
  8
0
 62
     0
 10
0.0
 20
0.0
 30
0.0
 70
   128
 71
    -2
 72
     1
 73
     4
  0
SEQEND
  5
37C
  8
0
 62
     0
  0
LINE
  5
37D
  8
0
 62
     0
 10
24.06759714398304
 20
766.9289353881355
 30
18.00000000000001
 11
24.06759714398304
 21
766.9289353881355
 31
0.0000000000000113
  0
LINE
  5
37E
  8
0
 62
     0
 10
23.58998748311825
 20
766.4816051252113
 30
0.0000000000000113
 11
24.06759714398304
 21
766.9289353881355
 31
0.0000000000000113
  0
LINE
  5
37F
  8
0
 62
     0
 10
23.58998748311825
 20
766.4816051252113
 30
18.00000000000001
 11
23.58998748311825
 21
766.4816051252113
 31
0.0000000000000113
  0
LINE
  5
380
  8
0
 62
     0
 10
24.06759714398304
 20
766.9289353881355
 30
18.00000000000001
 11
23.58998748311825
 21
766.4816051252113
 31
18.00000000000001
  0
POLYLINE
  5
381
  8
0
 62
     0
 66
     1
 10
0.0
 20
0.0
 30
0.0
 70
    64
 71
     4
 72
     2
1001
ACAD_MATERIAL_MAPPER
1070
     1
1070
     1
1070
     1
1011
0.0
1021
-0.0542320382363848
1031
0.0
1021
-0.0542320382363848
1031
0.0
1011
0.0
1021
-25.44063256012464
1031
0.0
1021
-25.44063256012464
1031
0.0
1011
0.0
1021
-0.0542320382363848
1031
25.39999999999688
1021
-0.0542320382363848
1031
25.39999999999688
1011
1.0
1021
-0.0542320382363848
1031
0.0
1021
-0.0542320382363848
1031
0.0
  0
VERTEX
  5
382
  8
0
 62
     0
 10
26.99652933211756
 20
774.000003200001
 30
18.00000000000001
 70
   192
  0
VERTEX
  5
383
  8
0
 62
     0
 10
26.9751185645036
 20
773.3459719076995
 30
0.0000000000000114
 70
   192
  0
VERTEX
  5
384
  8
0
 62
     0
 10
26.9751185645036
 20
773.3459719076995
 30
18.00000000000001
 70
   192
  0
VERTEX
  5
385
  8
0
 62
     0
 10
26.99652933211756
 20
774.000003200001
 30
0.0000000000000114
 70
   192
  0
VERTEX
  5
386
  8
0
 62
     0
 10
0.0
 20
0.0
 30
0.0
 70
   128
 71
    -1
 72
     2
 73
     3
  0
VERTEX
  5
387
  8
0
 62
     0
 10
0.0
 20
0.0
 30
0.0
 70
   128
 71
    -2
 72
     1
 73
     4
  0
SEQEND
  5
388
  8
0
 62
     0
  0
LINE
  5
389
  8
0
 62
     0
 10
26.99652933211756
 20
774.000003200001
 30
0.0000000000000114
 11
26.99652933211756
 21
774.000003200001
 31
18.00000000000001
  0
LINE
  5
38A
  8
0
 62
     0
 10
26.99652933211756
 20
774.000003200001
 30
0.0000000000000114
 11
26.9751185645036
 21
773.3459719076995
 31
0.0000000000000114
  0
LINE
  5
38B
  8
0
 62
     0
 10
26.9751185645036
 20
773.3459719076995
 30
18.00000000000001
 11
26.9751185645036
 21
773.3459719076995
 31
0.0000000000000114
  0
LINE
  5
38C
  8
0
 62
     0
 10
26.99652933211756
 20
774.000003200001
 30
18.00000000000001
 11
26.9751185645036
 21
773.3459719076995
 31
18.00000000000001
  0
POLYLINE
  5
38D
  8
0
 62
     0
 66
     1
 10
0.0
 20
0.0
 30
0.0
 70
    64
 71
     4
 72
     2
1001
ACAD_MATERIAL_MAPPER
1070
     1
1070
     1
1070
     1
1011
0.0
1021
248.7340068424232
1031
0.0
1021
248.7340068424232
1031
0.0
1011
0.0
1021
228.0877010538014
1031
0.0
1021
228.0877010538014
1031
0.0
1011
0.0
1021
248.7340068424232
1031
25.39999999999688
1021
248.7340068424232
1031
25.39999999999688
1011
1.0
1021
248.7340068424232
1031
0.0
1021
248.7340068424232
1031
0.0
  0
VERTEX
  5
38E
  8
0
 62
     0
 10
25.31122545514301
 20
768.444300869805
 30
18.00000000000001
 70
   192
  0
VERTEX
  5
38F
  8
0
 62
     0
 10
24.93006273502991
 20
767.9123889099138
 30
0.0000000000000113
 70
   192
  0
VERTEX
  5
390
  8
0
 62
     0
 10
24.93006273502991
 20
767.9123889099138
 30
18.00000000000001
 70
   192
  0
VERTEX
  5
391
  8
0
 62
     0
 10
25.31122545514301
 20
768.444300869805
 30
0.0000000000000113
 70
   192
  0
VERTEX
  5
392
  8
0
 62
     0
 10
0.0
 20
0.0
 30
0.0
 70
   128
 71
    -1
 72
     2
 73
     3
  0
VERTEX
  5
393
  8
0
 62
     0
 10
0.0
 20
0.0
 30
0.0
 70
   128
 71
    -2
 72
     1
 73
     4
  0
SEQEND
  5
394
  8
0
 62
     0
  0
LINE
  5
395
  8
0
 62
     0
 10
25.31122545514301
 20
768.444300869805
 30
18.00000000000001
 11
25.31122545514301
 21
768.444300869805
 31
0.0000000000000113
  0
LINE
  5
396
  8
0
 62
     0
 10
24.93006273502991
 20
767.9123889099138
 30
0.0000000000000113
 11
25.31122545514301
 21
768.444300869805
 31
0.0000000000000113
  0
LINE
  5
397
  8
0
 62
     0
 10
24.93006273502991
 20
767.9123889099138
 30
18.00000000000001
 11
24.93006273502991
 21
767.9123889099138
 31
0.0000000000000113
  0
LINE
  5
398
  8
0
 62
     0
 10
25.31122545514301
 20
768.444300869805
 30
18.00000000000001
 11
24.93006273502991
 21
767.9123889099138
 31
18.00000000000001
  0
POLYLINE
  5
399
  8
0
 62
     0
 66
     1
 10
0.0
 20
0.0
 30
0.0
 70
    64
 71
     4
 72
     2
1001
ACAD_MATERIAL_MAPPER
1070
     1
1070
     1
1070
     1
1011
0.0
1021
296.8245375536551
1031
0.0
1021
296.8245375536551
1031
0.0
1011
0.0
1021
277.1900720382418
1031
0.0
1021
277.1900720382418
1031
0.0
1011
0.0
1021
296.8245375536551
1031
25.39999999999832
1021
296.8245375536551
1031
25.39999999999832
1011
1.0
1021
296.8245375536551
1031
0.0
1021
296.8245375536551
1031
0.0
  0
VERTEX
  5
39A
  8
0
 62
     0
 10
24.93006273502991
 20
767.9123889099138
 30
18.00000000000001
 70
   192
  0
VERTEX
  5
39B
  8
0
 62
     0
 10
24.51492740690734
 20
767.4065450490003
 30
0.0000000000000113
 70
   192
  0
VERTEX
  5
39C
  8
0
 62
     0
 10
24.51492740690734
 20
767.4065450490003
 30
18.00000000000001
 70
   192
  0
VERTEX
  5
39D
  8
0
 62
     0
 10
24.93006273502991
 20
767.9123889099138
 30
0.0000000000000113
 70
   192
  0
VERTEX
  5
39E
  8
0
 62
     0
 10
0.0
 20
0.0
 30
0.0
 70
   128
 71
    -1
 72
     2
 73
     3
  0
VERTEX
  5
39F
  8
0
 62
     0
 10
0.0
 20
0.0
 30
0.0
 70
   128
 71
    -2
 72
     1
 73
     4
  0
SEQEND
  5
3A0
  8
0
 62
     0
  0
LINE
  5
3A1
  8
0
 62
     0
 10
24.93006273502991
 20
767.9123889099138
 30
18.00000000000001
 11
24.93006273502991
 21
767.9123889099138
 31
0.0000000000000113
  0
LINE
  5
3A2
  8
0
 62
     0
 10
24.51492740690734
 20
767.4065450490003
 30
0.0000000000000113
 11
24.93006273502991
 21
767.9123889099138
 31
0.0000000000000113
  0
LINE
  5
3A3
  8
0
 62
     0
 10
24.51492740690734
 20
767.4065450490003
 30
18.00000000000001
 11
24.51492740690734
 21
767.4065450490003
 31
0.0000000000000113
  0
LINE
  5
3A4
  8
0
 62
     0
 10
24.93006273502991
 20
767.9123889099138
 30
18.00000000000001
 11
24.51492740690734
 21
767.4065450490003
 31
18.00000000000001
  0
POLYLINE
  5
3A5
  8
0
 62
     0
 66
     1
 10
0.0
 20
0.0
 30
0.0
 70
    64
 71
     4
 72
     2
1001
ACAD_MATERIAL_MAPPER
1070
     1
1070
     1
1070
     1
1011
0.0
1021
33.88201600802399
1031
0.0
1021
33.88201600802399
1031
0.0
1011
0.0
1021
9.145540734381072
1031
0.0
1021
9.145540734381072
1031
0.0
1011
0.0
1021
33.88201600802399
1031
25.39999999999688
1021
33.88201600802399
1031
25.39999999999688
1011
1.0
1021
33.88201600802399
1031
0.0
1021
33.88201600802399
1031
0.0
  0
VERTEX
  5
3A6
  8
0
 62
     0
 10
26.80438213614987
 20
772.0490999798399
 30
18.00000000000001
 70
   192
  0
VERTEX
  5
3A7
  8
0
 62
     0
 10
26.65578759500824
 20
771.4118127489759
 30
0.0000000000000114
 70
   192
  0
VERTEX
  5
3A8
  8
0
 62
     0
 10
26.65578759500824
 20
771.4118127489759
 30
18.00000000000001
 70
   192
  0
VERTEX
  5
3A9
  8
0
 62
     0
 10
26.80438213614987
 20
772.0490999798399
 30
0.0000000000000114
 70
   192
  0
VERTEX
  5
3AA
  8
0
 62
     0
 10
0.0
 20
0.0
 30
0.0
 70
   128
 71
    -1
 72
     2
 73
     3
  0
VERTEX
  5
3AB
  8
0
 62
     0
 10
0.0
 20
0.0
 30
0.0
 70
   128
 71
    -2
 72
     1
 73
     4
  0
SEQEND
  5
3AC
  8
0
 62
     0
  0
LINE
  5
3AD
  8
0
 62
     0
 10
26.80438213614987
 20
772.0490999798399
 30
18.00000000000001
 11
26.80438213614987
 21
772.0490999798399
 31
0.0000000000000114
  0
LINE
  5
3AE
  8
0
 62
     0
 10
26.65578759500824
 20
771.4118127489759
 30
0.0000000000000114
 11
26.80438213614987
 21
772.0490999798399
 31
0.0000000000000114
  0
LINE
  5
3AF
  8
0
 62
     0
 10
26.65578759500824
 20
771.4118127489759
 30
18.00000000000001
 11
26.65578759500824
 21
771.4118127489759
 31
0.0000000000000114
  0
LINE
  5
3B0
  8
0
 62
     0
 10
26.80438213614987
 20
772.0490999798399
 30
18.00000000000001
 11
26.65578759500824
 21
771.4118127489759
 31
18.00000000000001
  0
POLYLINE
  5
3B1
  8
0
 62
     0
 66
     1
 10
0.0
 20
0.0
 30
0.0
 70
    64
 71
     4
 72
     2
1001
ACAD_MATERIAL_MAPPER
1070
     1
1070
     1
1070
     1
1011
-283.9421766615008
1021
0.0
1031
0.0000000000000085
1021
0.0
1031
0.0000000000000085
1011
-307.0781178144987
1021
0.0
1031
0.0000000000000085
1021
0.0
1031
0.0000000000000085
1011
-283.9421766615008
1021
0.0
1031
25.40000000000008
1021
0.0
1031
25.40000000000008
1011
-283.9421766615008
1021
1.0
1031
0.0000000000000085
1021
1.0
1031
0.0000000000000085
  0
VERTEX
  5
3B2
  8
0
 62
     0
 10
20.82336365576846
 20
764.7612078748881
 30
0.0000000000000114
 70
   192
  0
VERTEX
  5
3B3
  8
0
 62
     0
 10
21.41941623430757
 20
765.031275784674
 30
18.00000000000001
 70
   192
  0
VERTEX
  5
3B4
  8
0
 62
     0
 10
21.41941623430757
 20
765.031275784674
 30
0.0000000000000113
 70
   192
  0
VERTEX
  5
3B5
  8
0
 62
     0
 10
20.82336365576846
 20
764.7612078748881
 30
18.00000000000001
 70
   192
  0
VERTEX
  5
3B6
  8
0
 62
     0
 10
0.0
 20
0.0
 30
0.0
 70
   128
 71
    -1
 72
     2
 73
     3
  0
VERTEX
  5
3B7
  8
0
 62
     0
 10
0.0
 20
0.0
 30
0.0
 70
   128
 71
    -2
 72
     1
 73
     4
  0
SEQEND
  5
3B8
  8
0
 62
     0
  0
LINE
  5
3B9
  8
0
 62
     0
 10
21.41941623430757
 20
765.031275784674
 30
18.00000000000001
 11
21.41941623430757
 21
765.031275784674
 31
0.0000000000000113
  0
LINE
  5
3BA
  8
0
 62
     0
 10
20.82336365576846
 20
764.7612078748881
 30
0.0000000000000114
 11
21.41941623430757
 21
765.031275784674
 31
0.0000000000000113
  0
LINE
  5
3BB
  8
0
 62
     0
 10
20.82336365576846
 20
764.7612078748881
 30
18.00000000000001
 11
20.82336365576846
 21
764.7612078748881
 31
0.0000000000000114
  0
LINE
  5
3BC
  8
0
 62
     0
 10
21.41941623430757
 20
765.031275784674
 30
18.00000000000001
 11
20.82336365576846
 21
764.7612078748881
 31
18.00000000000001
  0
POLYLINE
  5
3BD
  8
0
 62
     0
 66
     1
 10
0.0
 20
0.0
 30
0.0
 70
    64
 71
     4
 72
     2
1001
ACAD_MATERIAL_MAPPER
1070
     1
1070
     1
1070
     1
1011
-313.2904160550555
1021
0.0
1031
0.0000000000000085
1021
0.0
1031
0.0000000000000085
1011
-335.6912161695017
1021
0.0
1031
0.0000000000000085
1021
0.0
1031
0.0000000000000085
1011
-313.2904160550555
1021
0.0
1031
25.39999999999936
1021
0.0
1031
25.39999999999936
1011
-313.2904160550555
1021
1.0
1031
0.0000000000000085
1021
1.0
1031
0.0000000000000085
  0
VERTEX
  5
3BE
  8
0
 62
     0
 10
21.41941623430757
 20
765.031275784674
 30
0.0000000000000113
 70
   192
  0
VERTEX
  5
3BF
  8
0
 62
     0
 10
21.99652933211756
 20
765.3397491621567
 30
18.00000000000001
 70
   192
  0
VERTEX
  5
3C0
  8
0
 62
     0
 10
21.99652933211756
 20
765.3397491621567
 30
0.0000000000000113
 70
   192
  0
VERTEX
  5
3C1
  8
0
 62
     0
 10
21.41941623430757
 20
765.031275784674
 30
18.00000000000001
 70
   192
  0
VERTEX
  5
3C2
  8
0
 62
     0
 10
0.0
 20
0.0
 30
0.0
 70
   128
 71
    -1
 72
     2
 73
     3
  0
VERTEX
  5
3C3
  8
0
 62
     0
 10
0.0
 20
0.0
 30
0.0
 70
   128
 71
    -2
 72
     1
 73
     4
  0
SEQEND
  5
3C4
  8
0
 62
     0
  0
LINE
  5
3C5
  8
0
 62
     0
 10
21.99652933211756
 20
765.3397491621567
 30
18.00000000000001
 11
21.99652933211756
 21
765.3397491621567
 31
0.0000000000000113
  0
LINE
  5
3C6
  8
0
 62
     0
 10
21.41941623430757
 20
765.031275784674
 30
0.0000000000000113
 11
21.99652933211756
 21
765.3397491621567
 31
0.0000000000000113
  0
LINE
  5
3C7
  8
0
 62
     0
 10
21.41941623430757
 20
765.031275784674
 30
18.00000000000001
 11
21.41941623430757
 21
765.031275784674
 31
0.0000000000000113
  0
LINE
  5
3C8
  8
0
 62
     0
 10
21.99652933211756
 20
765.3397491621567
 30
18.00000000000001
 11
21.41941623430757
 21
765.031275784674
 31
18.00000000000001
  0
POLYLINE
  5
3C9
  8
0
 62
     0
 66
     1
 10
0.0
 20
0.0
 30
0.0
 70
    64
 71
     4
 72
     2
1001
ACAD_MATERIAL_MAPPER
1070
     1
1070
     1
1070
     1
1011
-249.5372860146893
1021
0.0
1031
0.0000000000000084
1021
0.0
1031
0.0000000000000084
1011
-273.3092965543254
1021
0.0
1031
0.0000000000000084
1021
0.0
1031
0.0000000000000084
1011
-249.5372860146893
1021
0.0
1031
25.40000000000008
1021
0.0
1031
25.40000000000008
1011
-249.5372860146893
1021
1.0
1031
0.0000000000000084
1021
1.0
1031
0.0000000000000084
  0
VERTEX
  5
3CA
  8
0
 62
     0
 10
20.21092398514918
 20
764.53070190505
 30
0.0000000000000114
 70
   192
  0
VERTEX
  5
3CB
  8
0
 62
     0
 10
20.82336365576846
 20
764.7612078748881
 30
18.00000000000001
 70
   192
  0
VERTEX
  5
3CC
  8
0
 62
     0
 10
20.82336365576846
 20
764.7612078748881
 30
0.0000000000000114
 70
   192
  0
VERTEX
  5
3CD
  8
0
 62
     0
 10
20.21092398514918
 20
764.53070190505
 30
18.00000000000001
 70
   192
  0
VERTEX
  5
3CE
  8
0
 62
     0
 10
0.0
 20
0.0
 30
0.0
 70
   128
 71
    -1
 72
     2
 73
     3
  0
VERTEX
  5
3CF
  8
0
 62
     0
 10
0.0
 20
0.0
 30
0.0
 70
   128
 71
    -2
 72
     1
 73
     4
  0
SEQEND
  5
3D0
  8
0
 62
     0
  0
LINE
  5
3D1
  8
0
 62
     0
 10
20.82336365576846
 20
764.7612078748881
 30
18.00000000000001
 11
20.82336365576846
 21
764.7612078748881
 31
0.0000000000000114
  0
LINE
  5
3D2
  8
0
 62
     0
 10
20.21092398514918
 20
764.53070190505
 30
0.0000000000000114
 11
20.82336365576846
 21
764.7612078748881
 31
0.0000000000000114
  0
LINE
  5
3D3
  8
0
 62
     0
 10
20.21092398514918
 20
764.53070190505
 30
18.00000000000001
 11
20.21092398514918
 21
764.53070190505
 31
0.0000000000000114
  0
LINE
  5
3D4
  8
0
 62
     0
 10
20.82336365576846
 20
764.7612078748881
 30
18.00000000000001
 11
20.21092398514918
 21
764.53070190505
 31
18.00000000000001
  0
POLYLINE
  5
3D5
  8
0
 62
     0
 66
     1
 10
0.0
 20
0.0
 30
0.0
 70
    64
 71
     4
 72
     2
1001
ACAD_MATERIAL_MAPPER
1070
     1
1070
     1
1070
     1
1011
0.0
1021
121.3189758177383
1031
0.0
1021
121.3189758177383
1031
0.0
1011
0.0
1021
98.18303466474231
1031
0.0
1021
98.18303466474231
1031
0.0
1011
0.0
1021
121.3189758177383
1031
25.39999999999832
1021
121.3189758177383
1031
25.39999999999832
1011
1.0
1021
121.3189758177383
1031
0.0
1021
121.3189758177383
1031
0.0
  0
VERTEX
  5
3D6
  8
0
 62
     0
 10
26.23532465723043
 20
770.1731688763501
 30
18.00000000000001
 70
   192
  0
VERTEX
  5
3D7
  8
0
 62
     0
 10
25.96525674744445
 20
769.577116297811
 30
0.0000000000000113
 70
   192
  0
VERTEX
  5
3D8
  8
0
 62
     0
 10
25.96525674744445
 20
769.577116297811
 30
18.00000000000001
 70
   192
  0
VERTEX
  5
3D9
  8
0
 62
     0
 10
26.23532465723043
 20
770.1731688763501
 30
0.0000000000000113
 70
   192
  0
VERTEX
  5
3DA
  8
0
 62
     0
 10
0.0
 20
0.0
 30
0.0
 70
   128
 71
    -1
 72
     2
 73
     3
  0
VERTEX
  5
3DB
  8
0
 62
     0
 10
0.0
 20
0.0
 30
0.0
 70
   128
 71
    -2
 72
     1
 73
     4
  0
SEQEND
  5
3DC
  8
0
 62
     0
  0
LINE
  5
3DD
  8
0
 62
     0
 10
26.23532465723043
 20
770.1731688763501
 30
18.00000000000001
 11
26.23532465723043
 21
770.1731688763501
 31
0.0000000000000113
  0
LINE
  5
3DE
  8
0
 62
     0
 10
25.96525674744445
 20
769.577116297811
 30
0.0000000000000113
 11
26.23532465723043
 21
770.1731688763501
 31
0.0000000000000113
  0
LINE
  5
3DF
  8
0
 62
     0
 10
25.96525674744445
 20
769.577116297811
 30
18.00000000000001
 11
25.96525674744445
 21
769.577116297811
 31
0.0000000000000113
  0
LINE
  5
3E0
  8
0
 62
     0
 10
26.23532465723043
 20
770.1731688763501
 30
18.00000000000001
 11
25.96525674744445
 21
769.577116297811
 31
18.00000000000001
  0
POLYLINE
  5
3E1
  8
0
 62
     0
 66
     1
 10
0.0
 20
0.0
 30
0.0
 70
    64
 71
     4
 72
     2
1001
ACAD_MATERIAL_MAPPER
1070
     1
1070
     1
1070
     1
1011
-337.0723229253369
1021
0.0
1031
0.0000000000000084
1021
0.0
1031
0.0000000000000084
1011
-358.6420583361163
1021
0.0
1031
0.0000000000000084
1021
0.0
1031
0.0000000000000084
1011
-337.0723229253369
1021
0.0
1031
25.39999999999977
1021
0.0
1031
25.39999999999977
1011
-337.0723229253369
1021
1.0
1031
0.0000000000000084
1021
1.0
1031
0.0000000000000084
  0
VERTEX
  5
3E2
  8
0
 62
     0
 10
21.99652933211756
 20
765.3397491621567
 30
0.0000000000000113
 70
   192
  0
VERTEX
  5
3E3
  8
0
 62
     0
 10
22.55223166231358
 20
765.6853070769755
 30
18.00000000000001
 70
   192
  0
VERTEX
  5
3E4
  8
0
 62
     0
 10
22.55223166231358
 20
765.6853070769755
 30
0.0000000000000113
 70
   192
  0
VERTEX
  5
3E5
  8
0
 62
     0
 10
21.99652933211756
 20
765.3397491621567
 30
18.00000000000001
 70
   192
  0
VERTEX
  5
3E6
  8
0
 62
     0
 10
0.0
 20
0.0
 30
0.0
 70
   128
 71
    -1
 72
     2
 73
     3
  0
VERTEX
  5
3E7
  8
0
 62
     0
 10
0.0
 20
0.0
 30
0.0
 70
   128
 71
    -2
 72
     1
 73
     4
  0
SEQEND
  5
3E8
  8
0
 62
     0
  0
LINE
  5
3E9
  8
0
 62
     0
 10
22.55223166231358
 20
765.6853070769755
 30
18.00000000000001
 11
22.55223166231358
 21
765.6853070769755
 31
0.0000000000000113
  0
LINE
  5
3EA
  8
0
 62
     0
 10
21.99652933211756
 20
765.3397491621567
 30
0.0000000000000113
 11
22.55223166231358
 21
765.6853070769755
 31
0.0000000000000113
  0
LINE
  5
3EB
  8
0
 62
     0
 10
21.99652933211756
 20
765.3397491621567
 30
18.00000000000001
 11
21.99652933211756
 21
765.3397491621567
 31
0.0000000000000113
  0
LINE
  5
3EC
  8
0
 62
     0
 10
22.55223166231358
 20
765.6853070769755
 30
18.00000000000001
 11
21.99652933211756
 21
765.3397491621567
 31
18.00000000000001
  0
POLYLINE
  5
3ED
  8
0
 62
     0
 66
     1
 10
0.0
 20
0.0
 30
0.0
 70
    64
 71
     4
 72
     2
1001
ACAD_MATERIAL_MAPPER
1070
     1
1070
     1
1070
     1
1011
-366.3830333890205
1021
0.0
1031
0.000000000000008
1021
0.0
1031
0.000000000000008
1011
-386.0174989044361
1021
0.0
1031
0.000000000000008
1021
0.0
1031
0.000000000000008
1011
-366.3830333890205
1021
0.0
1031
25.4000000000008
1021
0.0
1031
25.4000000000008
1011
-366.3830333890205
1021
1.0
1031
0.000000000000008
1021
1.0
1031
0.000000000000008
  0
VERTEX
  5
3EE
  8
0
 62
     0
 10
23.08414362220477
 20
766.0664697970886
 30
0.0000000000000113
 70
   192
  0
VERTEX
  5
3EF
  8
0
 62
     0
 10
23.58998748311825
 20
766.4816051252113
 30
18.00000000000001
 70
   192
  0
VERTEX
  5
3F0
  8
0
 62
     0
 10
23.58998748311825
 20
766.4816051252113
 30
0.0000000000000113
 70
   192
  0
VERTEX
  5
3F1
  8
0
 62
     0
 10
23.08414362220477
 20
766.0664697970886
 30
18.00000000000001
 70
   192
  0
VERTEX
  5
3F2
  8
0
 62
     0
 10
0.0
 20
0.0
 30
0.0
 70
   128
 71
    -1
 72
     2
 73
     3
  0
VERTEX
  5
3F3
  8
0
 62
     0
 10
0.0
 20
0.0
 30
0.0
 70
   128
 71
    -2
 72
     1
 73
     4
  0
SEQEND
  5
3F4
  8
0
 62
     0
  0
LINE
  5
3F5
  8
0
 62
     0
 10
23.58998748311825
 20
766.4816051252113
 30
18.00000000000001
 11
23.58998748311825
 21
766.4816051252113
 31
0.0000000000000113
  0
LINE
  5
3F6
  8
0
 62
     0
 10
23.08414362220477
 20
766.0664697970886
 30
0.0000000000000113
 11
23.58998748311825
 21
766.4816051252113
 31
0.0000000000000113
  0
LINE
  5
3F7
  8
0
 62
     0
 10
23.08414362220477
 20
766.0664697970886
 30
18.00000000000001
 11
23.08414362220477
 21
766.0664697970886
 31
0.0000000000000113
  0
LINE
  5
3F8
  8
0
 62
     0
 10
23.58998748311825
 20
766.4816051252113
 30
18.00000000000001
 11
23.08414362220477
 21
766.0664697970886
 31
18.00000000000001
  0
POLYLINE
  5
3F9
  8
0
 62
     0
 66
     1
 10
0.0
 20
0.0
 30
0.0
 70
    64
 71
     4
 72
     2
1001
ACAD_MATERIAL_MAPPER
1070
     1
1070
     1
1070
     1
1011
0.0
1021
202.9345646831029
1031
0.0
1021
202.9345646831029
1031
0.0
1011
0.0
1021
181.3648292723275
1031
0.0
1021
181.3648292723275
1031
0.0
1011
0.0
1021
202.9345646831029
1031
25.39999999999832
1021
202.9345646831029
1031
25.39999999999832
1011
1.0
1021
202.9345646831029
1031
0.0
1021
202.9345646831029
1031
0.0
  0
VERTEX
  5
3FA
  8
0
 62
     0
 10
25.65678336996195
 20
769.0000032000011
 30
18.00000000000001
 70
   192
  0
VERTEX
  5
3FB
  8
0
 62
     0
 10
25.31122545514301
 20
768.444300869805
 30
0.0000000000000113
 70
   192
  0
VERTEX
  5
3FC
  8
0
 62
     0
 10
25.31122545514301
 20
768.444300869805
 30
18.00000000000001
 70
   192
  0
VERTEX
  5
3FD
  8
0
 62
     0
 10
25.65678336996195
 20
769.0000032000011
 30
0.0000000000000113
 70
   192
  0
VERTEX
  5
3FE
  8
0
 62
     0
 10
0.0
 20
0.0
 30
0.0
 70
   128
 71
    -1
 72
     2
 73
     3
  0
VERTEX
  5
3FF
  8
0
 62
     0
 10
0.0
 20
0.0
 30
0.0
 70
   128
 71
    -2
 72
     1
 73
     4
  0
SEQEND
  5
400
  8
0
 62
     0
  0
LINE
  5
401
  8
0
 62
     0
 10
25.65678336996195
 20
769.0000032000011
 30
18.00000000000001
 11
25.65678336996195
 21
769.0000032000011
 31
0.0000000000000113
  0
LINE
  5
402
  8
0
 62
     0
 10
25.31122545514301
 20
768.444300869805
 30
0.0000000000000113
 11
25.65678336996195
 21
769.0000032000011
 31
0.0000000000000113
  0
LINE
  5
403
  8
0
 62
     0
 10
25.31122545514301
 20
768.444300869805
 30
18.00000000000001
 11
25.31122545514301
 21
768.444300869805
 31
0.0000000000000113
  0
LINE
  5
404
  8
0
 62
     0
 10
25.65678336996195
 20
769.0000032000011
 30
18.00000000000001
 11
25.31122545514301
 21
768.444300869805
 31
18.00000000000001
  0
POLYLINE
  5
405
  8
0
 62
     0
 66
     1
 10
0.0
 20
0.0
 30
0.0
 70
    64
 71
     4
 72
     2
1001
ACAD_MATERIAL_MAPPER
1070
     1
1070
     1
1070
     1
1011
-210.6721726765993
1021
0.0
1031
0.0000000000000083
1021
0.0
1031
0.0000000000000083
1011
-234.9784572041999
1021
0.0
1031
0.0000000000000083
1021
0.0
1031
0.0000000000000083
1011
-210.6721726765993
1021
0.0
1031
25.4000000000008
1021
0.0
1031
25.4000000000008
1011
-210.6721726765993
1021
1.0
1031
0.0000000000000083
1021
1.0
1031
0.0000000000000083
  0
VERTEX
  5
406
  8
0
 62
     0
 10
19.58471978314277
 20
764.3407449371105
 30
0.0000000000000114
 70
   192
  0
VERTEX
  5
407
  8
0
 62
     0
 10
20.21092398514918
 20
764.53070190505
 30
18.00000000000001
 70
   192
  0
VERTEX
  5
408
  8
0
 62
     0
 10
20.21092398514918
 20
764.53070190505
 30
0.0000000000000114
 70
   192
  0
VERTEX
  5
409
  8
0
 62
     0
 10
19.58471978314277
 20
764.3407449371105
 30
18.00000000000001
 70
   192
  0
VERTEX
  5
40A
  8
0
 62
     0
 10
0.0
 20
0.0
 30
0.0
 70
   128
 71
    -1
 72
     2
 73
     3
  0
VERTEX
  5
40B
  8
0
 62
     0
 10
0.0
 20
0.0
 30
0.0
 70
   128
 71
    -2
 72
     1
 73
     4
  0
SEQEND
  5
40C
  8
0
 62
     0
  0
LINE
  5
40D
  8
0
 62
     0
 10
20.21092398514918
 20
764.53070190505
 30
18.00000000000001
 11
20.21092398514918
 21
764.53070190505
 31
0.0000000000000114
  0
LINE
  5
40E
  8
0
 62
     0
 10
19.58471978314277
 20
764.3407449371105
 30
0.0000000000000114
 11
20.21092398514918
 21
764.53070190505
 31
0.0000000000000114
  0
LINE
  5
40F
  8
0
 62
     0
 10
19.58471978314277
 20
764.3407449371105
 30
18.00000000000001
 11
19.58471978314277
 21
764.3407449371105
 31
0.0000000000000114
  0
LINE
  5
410
  8
0
 62
     0
 10
20.21092398514918
 20
764.53070190505
 30
18.00000000000001
 11
19.58471978314277
 21
764.3407449371105
 31
18.00000000000001
  0
POLYLINE
  5
411
  8
0
 62
     0
 66
     1
 10
0.0
 20
0.0
 30
0.0
 70
    64
 71
     4
 72
     2
1001
ACAD_MATERIAL_MAPPER
1070
     1
1070
     1
1070
     1
1011
-168.019774250055
1021
0.0
1031
0.000000000000008
1021
0.0
1031
0.000000000000008
1011
-192.756249523697
1021
0.0
1031
0.000000000000008
1021
0.0
1031
0.000000000000008
1011
-168.019774250055
1021
0.0
1031
25.39999999999936
1021
0.0
1031
25.39999999999936
1011
-168.019774250055
1021
1.0
1031
0.000000000000008
1021
1.0
1031
0.000000000000008
  0
VERTEX
  5
412
  8
0
 62
     0
 10
18.94743255227884
 20
764.1921503959686
 30
0.0000000000000114
 70
   192
  0
VERTEX
  5
413
  8
0
 62
     0
 10
19.58471978314277
 20
764.3407449371105
 30
18.00000000000001
 70
   192
  0
VERTEX
  5
414
  8
0
 62
     0
 10
19.58471978314277
 20
764.3407449371105
 30
0.0000000000000114
 70
   192
  0
VERTEX
  5
415
  8
0
 62
     0
 10
18.94743255227884
 20
764.1921503959686
 30
18.00000000000001
 70
   192
  0
VERTEX
  5
416
  8
0
 62
     0
 10
0.0
 20
0.0
 30
0.0
 70
   128
 71
    -1
 72
     2
 73
     3
  0
VERTEX
  5
417
  8
0
 62
     0
 10
0.0
 20
0.0
 30
0.0
 70
   128
 71
    -2
 72
     1
 73
     4
  0
SEQEND
  5
418
  8
0
 62
     0
  0
LINE
  5
419
  8
0
 62
     0
 10
19.58471978314277
 20
764.3407449371105
 30
18.00000000000001
 11
19.58471978314277
 21
764.3407449371105
 31
0.0000000000000114
  0
LINE
  5
41A
  8
0
 62
     0
 10
18.94743255227884
 20
764.1921503959686
 30
0.0000000000000114
 11
19.58471978314277
 21
764.3407449371105
 31
0.0000000000000114
  0
LINE
  5
41B
  8
0
 62
     0
 10
18.94743255227884
 20
764.1921503959686
 30
18.00000000000001
 11
18.94743255227884
 21
764.1921503959686
 31
0.0000000000000114
  0
LINE
  5
41C
  8
0
 62
     0
 10
19.58471978314277
 20
764.3407449371105
 30
18.00000000000001
 11
18.94743255227884
 21
764.1921503959686
 31
18.00000000000001
  0
POLYLINE
  5
41D
  8
0
 62
     0
 66
     1
 10
0.0
 20
0.0
 30
0.0
 70
    64
 71
     4
 72
     2
1001
ACAD_MATERIAL_MAPPER
1070
     1
1070
     1
1070
     1
1011
-354.8737163036918
1021
0.0
1031
0.0000000000000083
1021
0.0
1031
0.0000000000000083
1011
-375.5200220923148
1021
0.0
1031
0.0000000000000083
1021
0.0
1031
0.0000000000000083
1011
-354.8737163036918
1021
0.0
1031
25.40000000000039
1021
0.0
1031
25.40000000000039
1011
-354.8737163036918
1021
1.0
1031
0.0000000000000083
1021
1.0
1031
0.0000000000000083
  0
VERTEX
  5
41E
  8
0
 62
     0
 10
22.55223166231358
 20
765.6853070769755
 30
0.0000000000000113
 70
   192
  0
VERTEX
  5
41F
  8
0
 62
     0
 10
23.08414362220477
 20
766.0664697970886
 30
18.00000000000001
 70
   192
  0
VERTEX
  5
420
  8
0
 62
     0
 10
23.08414362220477
 20
766.0664697970886
 30
0.0000000000000113
 70
   192
  0
VERTEX
  5
421
  8
0
 62
     0
 10
22.55223166231358
 20
765.6853070769755
 30
18.00000000000001
 70
   192
  0
VERTEX
  5
422
  8
0
 62
     0
 10
0.0
 20
0.0
 30
0.0
 70
   128
 71
    -1
 72
     2
 73
     3
  0
VERTEX
  5
423
  8
0
 62
     0
 10
0.0
 20
0.0
 30
0.0
 70
   128
 71
    -2
 72
     1
 73
     4
  0
SEQEND
  5
424
  8
0
 62
     0
  0
LINE
  5
425
  8
0
 62
     0
 10
23.08414362220477
 20
766.0664697970886
 30
18.00000000000001
 11
23.08414362220477
 21
766.0664697970886
 31
0.0000000000000113
  0
LINE
  5
426
  8
0
 62
     0
 10
22.55223166231358
 20
765.6853070769755
 30
0.0000000000000113
 11
23.08414362220477
 21
766.0664697970886
 31
0.0000000000000113
  0
LINE
  5
427
  8
0
 62
     0
 10
22.55223166231358
 20
765.6853070769755
 30
18.00000000000001
 11
22.55223166231358
 21
765.6853070769755
 31
0.0000000000000113
  0
LINE
  5
428
  8
0
 62
     0
 10
23.08414362220477
 20
766.0664697970886
 30
18.00000000000001
 11
22.55223166231358
 21
765.6853070769755
 31
18.00000000000001
  0
INSERT
  5
429
  8
ABF_LABEL
 62
     0
 66
     1
  2
GROUP46_1
 10
260.0000000002256
 20
469.0000032000009
 30
18.00000000000001
 41
1.574803149606299
 42
1.574803149606299
 50
90.0
  0
ATTRIB
  5
42A
  8
0
 10
0.0
 20
0.0
 30
0.0
 40
1.0
  1
_ABF_Label
  2
Skp_GroupInstanceName
 70
     0
  0
SEQEND
  5
42B
  8
ABF_LABEL
 62
     0
  0
INSERT
  5
42C
  8
ABF_CUTTINGLINES
 62
     0
 66
     1
  2
GROUP33_1
 10
0.0
 20
0.0
 30
18.00000000000001
  0
ATTRIB
  5
42D
  8
0
 10
0.0
 20
0.0
 30
0.0
 40
1.0
  1
_ABF_cuttingLines
  2
Skp_GroupInstanceName
 70
     0
  0
SEQEND
  5
42E
  8
ABF_CUTTINGLINES
 62
     0
  0
INSERT
  5
42F
  8
ABF_EDGEBANDING
 62
     0
 66
     1
  2
GROUP34_1
 10
0.0
 20
0.0
 30
18.00000000000001
  0
ATTRIB
  5
430
  8
0
 10
0.0
 20
0.0
 30
0.0
 40
1.0
  1
_ABF_edgeBanding
  2
Skp_GroupInstanceName
 70
     0
  0
SEQEND
  5
431
  8
ABF_EDGEBANDING
 62
     0
  0
ENDBLK
  5
73
  8
0
  0
BLOCK
  8
0
  2
GROUP31_1
 70
     0
 10
0.0
 20
0.0
 30
0.0
  3
GROUP31_1
  1

  0
DIMENSION
  5
432
  8
0
 62
   250
  2
*D7
 10
-520.0000000000001
 20
-200.0
 30
0.0
 11
-4384.013323227834
 21
-520.0000127649682
 31
0.0
 70
    32
  1
___18__THICKNESS_18
  3
DIMSTYLE1
 13
0.0
 23
-181.8181818181818
 33
0.0
 14
-520.0000000000001
 24
-181.8181818181818
 34
0.0
1001
ACAD
1000
DSTYLE
1002
{
1070
    73
1070
     0
1002
}
  0
ENDBLK
  5
76
  8
0
  0
BLOCK
  8
0
  2
*D7
 70
     1
 10
0.0
 20
0.0
 30
0.0
  3
*D7
  1

  0
LINE
  5
437
  8
0
 62
     0
 10
0.0
 20
-194.5181818181818
 30
0.0
 11
0.0
 21
-212.7
 31
0.0
  0
LINE
  5
438
  8
0
 62
     0
 10
-520.0000000000001
 20
-194.5181818181818
 30
0.0
 11
-520.0000000000001
 21
-212.7
 31
0.0
  0
LINE
  5
439
  8
0
 62
     0
 10
-520.0000000000001
 20
-200.0
 30
0.0
 11
-8235.32664645567
 21
-200.0
 31
0.0
  0
LINE
  5
43A
  8
0
 62
     0
 10
-12.7
 20
-200.0
 30
0.0
 11
-507.3000000000001
 21
-200.0
 31
0.0
  0
SOLID
  5
43B
  8
0
 62
     0
 10
-12.7
 20
-202.1166666666667
 30
0.0
 11
-12.7
 21
-197.8833333333333
 31
0.0
 12
0.0
 22
-200.0
 32
0.0
 13
0.0
 23
-200.0
 33
0.0
  0
SOLID
  5
43C
  8
0
 62
     0
 10
-507.3000000000001
 20
-197.8833333333333
 30
0.0
 11
-507.3000000000001
 21
-202.1166666666667
 31
0.0
 12
-520.0000000000001
 22
-200.0
 32
0.0
 13
-520.0000000000001
 23
-200.0
 33
0.0
  0
TEXT
  5
43D
  8
0
 62
     0
 10
-8232.786646455668
 20
-697.3752749203561
 30
0.0
 40
490.6646256027327
  1
___18__THICKNESS_18
  7
ARIAL
1001
ACADANNOTATIVE
1000
AnnotativeData
1002
{
1070
     1
1070
     0
1002
}
  0
POINT
  5
43E
  8
DEFPOINTS
 62
     0
 10
0.0
 20
-181.8181818181818
 30
0.0
  0
POINT
  5
43F
  8
DEFPOINTS
 62
     0
 10
-520.0000000000001
 20
-181.8181818181818
 30
0.0
  0
POINT
  5
440
  8
DEFPOINTS
 62
     0
 10
-520.0000000000001
 20
-200.0
 30
0.0
  0
ENDBLK
  5
436
  8
0
  0
ENDSEC
  0
SECTION
  2
ENTITIES
  0
INSERT
  5
441
  8
0
 62
     0
 66
     1
  2
___18__THICKNESS_18
 10
0.0
 20
0.0
 30
0.0
  0
ATTRIB
  5
442
  8
0
 10
0.0
 20
0.0
 30
0.0
 40
0.2
  1
ABF_Flatten
  2
Skp_ComponentInstanceName
 70
     0
  0
SEQEND
  5
443
  8
0
 62
     0
  0
INSERT
  5
444
  8
0
 62
     0
 66
     1
  2
GROUP31_1
 10
0.0
 20
0.0
 30
0.0
  0
ATTRIB
  5
445
  8
0
 10
0.0
 20
0.0
 30
0.0
 40
1.0
  1
ABF_Flatten
  2
Skp_GroupInstanceName
 70
     0
  0
SEQEND
  5
446
  8
0
 62
     0
  0
ENDSEC
  0
EOF
