  0
SECTION
  2
HEADER
  9
$ACADVER
  1
AC1009
  9
$DWGCODEPAGE
  3
ansi_1252
  9
$INSBASE
 10
0.0
 20
0.0
 30
0.0
  9
$EXTMIN
 10
1.000000000000000E+20
 20
1.000000000000000E+20
 30
1.000000000000000E+20
  9
$EXTMAX
 10
-1.000000000000000E+20
 20
-1.000000000000000E+20
 30
-1.000000000000000E+20
  9
$LIMMIN
 10
0.0
 20
0.0
  9
$LIMMAX
 10
12.0
 20
9.0
  9
$ORTHOMODE
 70
     0
  9
$REGENMODE
 70
     1
  9
$FILLMODE
 70
     1
  9
$QTEXTMODE
 70
     0
  9
$MIRRTEXT
 70
     1
  9
$DRAGMODE
 70
     2
  9
$LTSCALE
 40
25.4
  9
$OSMODE
 70
    37
  9
$ATTMODE
 70
     1
  9
$TEXTSIZE
 40
0.2
  9
$TRACEWID
 40
0.05
  9
$TEXTSTYLE
  7
STANDARD
  9
$CLAYER
  8
0
  9
$CELTYPE
  6
BYLAYER
  9
$CECOLOR
 62
   256
  9
$DIMSCALE
 40
1.0
  9
$DIMASZ
 40
0.18
  9
$DIMEXO
 40
0.0625
  9
$DIMDLI
 40
0.38
  9
$DIMRND
 40
0.0
  9
$DIMDLE
 40
0.0
  9
$DIMEXE
 40
0.18
  9
$DIMTP
 40
0.0
  9
$DIMTM
 40
0.0
  9
$DIMTXT
 40
0.18
  9
$DIMCEN
 40
0.09
  9
$DIMTSZ
 40
0.0
  9
$DIMTOL
 70
     0
  9
$DIMLIM
 70
     0
  9
$DIMTIH
 70
     1
  9
$DIMTOH
 70
     1
  9
$DIMSE1
 70
     0
  9
$DIMSE2
 70
     0
  9
$DIMTAD
 70
     0
  9
$DIMZIN
 70
     0
  9
$DIMBLK
  1

  9
$DIMASO
 70
     1
  9
$DIMSHO
 70
     1
  9
$DIMPOST
  1

  9
$DIMAPOST
  1

  9
$DIMALT
 70
     0
  9
$DIMALTD
 70
     2
  9
$DIMALTF
 40
25.4
  9
$DIMLFAC
 40
1.0
  9
$DIMTOFL
 70
     0
  9
$DIMTVP
 40
0.0
  9
$DIMTIX
 70
     0
  9
$DIMSOXD
 70
     0
  9
$DIMSAH
 70
     0
  9
$DIMBLK1
  1

  9
$DIMBLK2
  1

  9
$DIMSTYLE
  2
STANDARD
  9
$DIMCLRD
 70
     0
  9
$DIMCLRE
 70
     0
  9
$DIMCLRT
 70
     0
  9
$DIMTFAC
 40
1.0
  9
$DIMGAP
 40
0.09
  9
$LUNITS
 70
     2
  9
$LUPREC
 70
     4
  9
$SKETCHINC
 40
0.1
  9
$FILLETRAD
 40
0.0
  9
$AUNITS
 70
     0
  9
$AUPREC
 70
     0
  9
$MENU
  1
.
  9
$ELEVATION
 40
0.0
  9
$PELEVATION
 40
0.0
  9
$THICKNESS
 40
0.0
  9
$LIMCHECK
 70
     0
  9
$CHAMFERA
 40
0.0
  9
$CHAMFERB
 40
0.0
  9
$SKPOLY
 70
     0
  9
$TDCREATE
 40
2460620.213682512
  9
$TDUPDATE
 40
2460620.21368272
  9
$TDINDWG
 40
0.0000000116
  9
$TDUSRTIMER
 40
0.0000000116
  9
$USRTIMER
 70
     1
  9
$ANGBASE
 50
0.0
  9
$ANGDIR
 70
     0
  9
$PDMODE
 70
     0
  9
$PDSIZE
 40
0.0
  9
$PLINEWID
 40
0.0
  9
$COORDS
 70
     1
  9
$SPLFRAME
 70
     0
  9
$SPLINETYPE
 70
     6
  9
$SPLINESEGS
 70
     8
  9
$ATTDIA
 70
     0
  9
$ATTREQ
 70
     1
  9
$HANDLING
 70
     1
  9
$HANDSEED
  5
30C
  9
$SURFTAB1
 70
     6
  9
$SURFTAB2
 70
     6
  9
$SURFTYPE
 70
     6
  9
$SURFU
 70
     6
  9
$SURFV
 70
     6
  9
$UCSNAME
  2

  9
$UCSORG
 10
0.0
 20
0.0
 30
0.0
  9
$UCSXDIR
 10
1.0
 20
0.0
 30
0.0
  9
$UCSYDIR
 10
0.0
 20
1.0
 30
0.0
  9
$PUCSNAME
  2

  9
$PUCSORG
 10
0.0
 20
0.0
 30
0.0
  9
$PUCSXDIR
 10
1.0
 20
0.0
 30
0.0
  9
$PUCSYDIR
 10
0.0
 20
1.0
 30
0.0
  9
$USERI1
 70
     0
  9
$USERI2
 70
     0
  9
$USERI3
 70
     0
  9
$USERI4
 70
     0
  9
$USERI5
 70
     0
  9
$USERR1
 40
0.0
  9
$USERR2
 40
0.0
  9
$USERR3
 40
0.0
  9
$USERR4
 40
0.0
  9
$USERR5
 40
0.0
  9
$WORLDVIEW
 70
     1
  9
$SHADEDGE
 70
     3
  9
$SHADEDIF
 70
    70
  9
$TILEMODE
 70
     1
  9
$MAXACTVP
 70
    64
  9
$PLIMCHECK
 70
     0
  9
$PEXTMIN
 10
1.000000000000000E+20
 20
1.000000000000000E+20
 30
1.000000000000000E+20
  9
$PEXTMAX
 10
-1.000000000000000E+20
 20
-1.000000000000000E+20
 30
-1.000000000000000E+20
  9
$PLIMMIN
 10
0.0
 20
0.0
  9
$PLIMMAX
 10
12.0
 20
9.0
  9
$UNITMODE
 70
     0
  9
$VISRETAIN
 70
     1
  9
$PLINEGEN
 70
     0
  9
$PSLTSCALE
 70
     1
  0
ENDSEC
  0
SECTION
  2
TABLES
  0
TABLE
  2
VPORT
 70
     1
  0
VPORT
  2
*ACTIVE
 70
     0
 10
0.0
 20
0.0
 11
1.0
 21
1.0
 12
0.0
 22
0.0
 13
0.0
 23
0.0
 14
0.5
 24
0.5
 15
0.5
 25
0.5
 16
-0.000246074210564913
 26
0.01927192236069645
 36
0.9998142489762817
 17
-68.4796791349727
 27
255.9177851655167
 37
6.065493835197913
 40
1175.609537218839
 41
1.3333
 42
42.81760027191017
 43
-1838.878548925945
 44
23535.72145107406
 50
0.0
 51
180.0
 71
     1
 72
   100
 73
     1
 74
     3
 75
     0
 76
     0
 77
     0
 78
     0
  0
ENDTAB
  0
TABLE
  2
LTYPE
 70
     1
  0
LTYPE
  2
CONTINUOUS
 70
     0
  3
Solid line
 72
    65
 73
     0
 40
0.0
  0
ENDTAB
  0
TABLE
  2
LAYER
 70
     7
  0
LAYER
  2
0
 70
     0
 62
     7
  6
CONTINUOUS
  0
LAYER
  2
ABF_CUTTINGLINES
 70
     0
 62
    22
  6
CONTINUOUS
  0
LAYER
  2
D5_0_DEPTH8_0
 70
     0
 62
    36
  6
CONTINUOUS
  0
LAYER
  2
PAZ_DEPTH8_0
 70
     0
 62
    36
  6
CONTINUOUS
  0
LAYER
  2
D8_0_DEPTHF
 70
     0
 62
     8
  6
CONTINUOUS
  0
LAYER
  2
ABF_LABEL
 70
     0
 62
   163
  6
CONTINUOUS
  0
LAYER
  2
DEFPOINTS
 70
     0
 62
     7
  6
CONTINUOUS
  0
ENDTAB
  0
TABLE
  2
STYLE
 70
     2
  0
STYLE
  2
STANDARD
 70
     0
 40
0.0
 41
1.0
 50
0.0
 71
     0
 42
0.2
  3
txt
  4

  0
STYLE
  2
TAHOMA
 70
     0
 40
0.0
 41
1.0
 50
0.0
 71
     0
 42
0.2
  3

  4

  0
ENDTAB
  0
TABLE
  2
VIEW
 70
     0
  0
ENDTAB
  0
TABLE
  2
UCS
 70
     0
  0
ENDTAB
  0
TABLE
  2
APPID
 70
     3
  0
APPID
  2
ACAD
 70
     0
  0
APPID
  2
ACAD_MATERIAL_MAPPER
 70
     0
  0
APPID
  2
ACADANNOTATIVE
 70
     0
  0
ENDTAB
  0
TABLE
  2
DIMSTYLE
 70
     3
  0
DIMSTYLE
  2
STANDARD
 70
     0
  3

  4

  5

  6

  7

 40
1.0
 41
0.18
 42
0.0625
 43
0.38
 44
0.18
 45
0.0
 46
0.0
 47
0.0
 48
0.0
140
0.18
141
0.09
142
0.0
143
25.4
144
1.0
145
0.0
146
1.0
147
0.09
 71
     0
 72
     0
 73
     1
 74
     1
 75
     0
 76
     0
 77
     0
 78
     0
170
     0
171
     2
172
     0
173
     0
174
     0
175
     0
176
     0
177
     0
178
     0
  0
DIMSTYLE
  2
DIMSTYLE1
 70
     0
  3
mm
  4

  5

  6

  7

 40
1.0
 41
12.7
 42
12.7
 43
0.38
 44
12.7
 45
0.0
 46
0.0
 47
0.0
 48
0.0
140
289.1745618319401
141
0.09
142
0.0
143
25.4
144
1.0
145
0.0
146
1.0
147
2.54
 71
     0
 72
     0
 73
     1
 74
     1
 75
     0
 76
     0
 77
     4
 78
     0
170
     0
171
     2
172
     0
173
     0
174
     0
175
     0
176
     0
177
     0
178
     0
  0
DIMSTYLE
  2
DIMENSIONS
 70
     0
  3
mm
  4

  5
ARCHTICK
  6

  7

 40
1.0
 41
12.7
 42
12.7
 43
0.38
 44
12.7
 45
0.0
 46
0.0
 47
0.0
 48
0.0
140
25.4
141
0.09
142
0.0
143
25.4
144
1.0
145
0.0
146
1.0
147
2.54
 71
     0
 72
     0
 73
     1
 74
     1
 75
     0
 76
     0
 77
     0
 78
     0
170
     0
171
     2
172
     0
173
     0
174
     0
175
     0
176
     0
177
     0
178
     0
  0
ENDTAB
  0
ENDSEC
  0
SECTION
  2
BLOCKS
  0
BLOCK
  8
0
  2
$MODEL_SPACE
 70
     0
 10
0.0
 20
0.0
 30
0.0
  3
$MODEL_SPACE
  1

  0
ENDBLK
  5
21
  8
0
  0
BLOCK
 67
     1
  8
0
  2
$PAPER_SPACE
 70
     0
 10
0.0
 20
0.0
 30
0.0
  3
$PAPER_SPACE
  1

  0
ENDBLK
  5
1D
 67
     1
  8
0
  0
BLOCK
  8
0
  2
_ARCHTICK
 70
     0
 10
0.0
 20
0.0
 30
0.0
  3
_ARCHTICK
  1

  0
POLYLINE
  5
69
  8
0
  6
BYBLOCK
 62
     0
 66
     1
 10
0.0
 20
0.0
 30
0.0
 40
0.15
 41
0.15
  0
VERTEX
  5
308
  8
0
  6
BYBLOCK
 62
     0
 10
-0.5
 20
-0.5
 30
0.0
  0
VERTEX
  5
309
  8
0
  6
BYBLOCK
 62
     0
 10
0.5
 20
0.5
 30
0.0
  0
SEQEND
  5
30B
  8
0
  6
BYBLOCK
 62
     0
  0
ENDBLK
  5
68
  8
0
  0
BLOCK
  8
0
  2
THICKNESS_18
 70
     0
 10
0.0
 20
0.0
 30
0.0
  3
THICKNESS_18
  1

  0
INSERT
  5
97
  8
0
 62
     0
 66
     1
  2
_______4
 10
-0.3862699358937874
 20
-428.2623308456083
 30
0.0
  0
ATTRIB
  5
98
  8
0
 10
0.0
 20
0.0
 30
0.0
 40
1.0
  1
__2. \U+043F\U+0430\U+043D\U+0435\U+043B\U+044C
  2
Skp_GroupInstanceName
 70
     0
  0
SEQEND
  5
99
  8
0
 62
     0
  0
INSERT
  5
9A
  8
0
 62
     0
 66
     1
  2
_______7
 10
-412.9999999999999
 20
-0.0000000000002182
 30
0.0
  0
ATTRIB
  5
9B
  8
0
 10
0.0
 20
0.0
 30
0.0
 40
1.0
  1
__1. \U+043F\U+0430\U+043D\U+0435\U+043B\U+044C
  2
Skp_GroupInstanceName
 70
     0
  0
SEQEND
  5
9C
  8
0
 62
     0
  0
ENDBLK
  5
6C
  8
0
  0
BLOCK
  8
0
  2
GROUP6_1
 70
     0
 10
0.0
 20
0.0
 30
0.0
  3
GROUP6_1
  1

  0
POLYLINE
  5
9E
  8
PAZ_DEPTH8_0
 62
     0
 66
     1
 10
0.0
 20
0.0
 30
0.0
 70
    64
 71
     4
 72
     2
1001
ACAD_MATERIAL_MAPPER
1070
     1
1070
     1
1070
     1
1011
0.0
1021
0.0
1031
0.0
1021
0.0
1031
0.0
1011
-25.4
1021
0.0
1031
0.0
1021
0.0
1031
0.0
1011
0.0
1021
25.4
1031
0.0
1021
25.4
1031
0.0
1011
0.0
1021
0.0
1031
1.0
1021
0.0
1031
1.0
  0
VERTEX
  5
9F
  8
PAZ_DEPTH8_0
 62
     0
 10
299.9999999999999
 20
4.000000000000001
 30
0.0
 70
   192
  0
VERTEX
  5
A0
  8
PAZ_DEPTH8_0
 62
     0
 10
0.0
 20
0.0
 30
0.0
 70
   192
  0
VERTEX
  5
A1
  8
PAZ_DEPTH8_0
 62
     0
 10
0.0
 20
4.000000000000001
 30
0.0
 70
   192
  0
VERTEX
  5
A2
  8
PAZ_DEPTH8_0
 62
     0
 10
299.9999999999999
 20
0.0
 30
0.0
 70
   192
  0
VERTEX
  5
A3
  8
PAZ_DEPTH8_0
 62
     0
 10
0.0
 20
0.0
 30
0.0
 70
   128
 71
    -1
 72
     2
 73
     3
  0
VERTEX
  5
A4
  8
PAZ_DEPTH8_0
 62
     0
 10
0.0
 20
0.0
 30
0.0
 70
   128
 71
    -2
 72
     1
 73
     4
  0
SEQEND
  5
A5
  8
PAZ_DEPTH8_0
 62
     0
  0
LINE
  5
A6
  8
PAZ_DEPTH8_0
 62
     0
 10
0.0
 20
0.0
 30
0.0
 11
299.9999999999999
 21
0.0
 31
0.0
  0
LINE
  5
A7
  8
PAZ_DEPTH8_0
 62
     0
 10
0.0
 20
4.000000000000001
 30
0.0
 11
0.0
 21
0.0
 31
0.0
  0
LINE
  5
A8
  8
PAZ_DEPTH8_0
 62
     0
 10
299.9999999999999
 20
4.000000000000001
 30
0.0
 11
0.0
 21
4.000000000000001
 31
0.0
  0
LINE
  5
A9
  8
PAZ_DEPTH8_0
 62
     0
 10
299.9999999999999
 20
0.0
 30
0.0
 11
299.9999999999999
 21
4.000000000000001
 31
0.0
  0
ENDBLK
  5
6F
  8
0
  0
BLOCK
  8
0
  2
GROUP7_1
 70
     0
 10
0.0
 20
0.0
 30
0.0
  3
GROUP7_1
  1

  0
POLYLINE
  5
AA
  8
PAZ_DEPTH8_0
 62
     0
 66
     1
 10
0.0
 20
0.0
 30
0.0
 70
    64
 71
     4
 72
     2
1001
ACAD_MATERIAL_MAPPER
1070
     1
1070
     1
1070
     1
1011
0.0
1021
0.0
1031
0.0
1021
0.0
1031
0.0
1011
-25.4
1021
0.0
1031
0.0
1021
0.0
1031
0.0
1011
0.0
1021
25.4
1031
0.0
1021
25.4
1031
0.0
1011
0.0
1021
0.0
1031
1.0
1021
0.0
1031
1.0
  0
VERTEX
  5
AB
  8
PAZ_DEPTH8_0
 62
     0
 10
0.0
 20
400.0
 30
0.0
 70
   192
  0
VERTEX
  5
AC
  8
PAZ_DEPTH8_0
 62
     0
 10
-3.999999999999992
 20
0.0
 30
0.0
 70
   192
  0
VERTEX
  5
AD
  8
PAZ_DEPTH8_0
 62
     0
 10
-3.999999999999992
 20
400.0
 30
0.0
 70
   192
  0
VERTEX
  5
AE
  8
PAZ_DEPTH8_0
 62
     0
 10
0.0
 20
0.0
 30
0.0
 70
   192
  0
VERTEX
  5
AF
  8
PAZ_DEPTH8_0
 62
     0
 10
0.0
 20
0.0
 30
0.0
 70
   128
 71
    -1
 72
     2
 73
     3
  0
VERTEX
  5
B0
  8
PAZ_DEPTH8_0
 62
     0
 10
0.0
 20
0.0
 30
0.0
 70
   128
 71
    -2
 72
     1
 73
     4
  0
SEQEND
  5
B1
  8
PAZ_DEPTH8_0
 62
     0
  0
LINE
  5
B2
  8
PAZ_DEPTH8_0
 62
     0
 10
0.0
 20
0.0
 30
0.0
 11
0.0
 21
400.0
 31
0.0
  0
LINE
  5
B3
  8
PAZ_DEPTH8_0
 62
     0
 10
-3.999999999999992
 20
0.0
 30
0.0
 11
0.0
 21
0.0
 31
0.0
  0
LINE
  5
B4
  8
PAZ_DEPTH8_0
 62
     0
 10
-3.999999999999992
 20
400.0
 30
0.0
 11
-3.999999999999992
 21
0.0
 31
0.0
  0
LINE
  5
B5
  8
PAZ_DEPTH8_0
 62
     0
 10
0.0
 20
400.0
 30
0.0
 11
-3.999999999999992
 21
400.0
 31
0.0
  0
ENDBLK
  5
72
  8
0
  0
BLOCK
  8
0
  2
GROUP9_1
 70
     0
 10
0.0
 20
0.0
 30
0.0
  3
GROUP9_1
  1

  0
CIRCLE
  5
B6
  8
D8_0_DEPTHF
 62
     0
 10
0.0
 20
0.0
 30
0.0
 40
4.0
  0
POINT
  5
B7
  8
0
 62
     0
 10
0.0
 20
0.0
 30
0.0
  0
ENDBLK
  5
75
  8
0
  0
BLOCK
  8
0
  2
GROUP10_3
 70
     0
 10
0.0
 20
0.0
 30
0.0
  3
GROUP10_3
  1

  0
CIRCLE
  5
B8
  8
D8_0_DEPTHF
 62
     0
 10
0.0
 20
0.0
 30
0.0
 40
4.0
  0
POINT
  5
B9
  8
0
 62
     0
 10
0.0
 20
0.0
 30
0.0
  0
ENDBLK
  5
78
  8
0
  0
BLOCK
  8
0
  2
GROUP11_1
 70
     0
 10
0.0
 20
0.0
 30
0.0
  3
GROUP11_1
  1

  0
CIRCLE
  5
BA
  8
D8_0_DEPTHF
 62
     0
 10
0.0
 20
0.0
 30
0.0
 40
4.0
  0
POINT
  5
BB
  8
0
 62
     0
 10
0.0
 20
0.0
 30
0.0
  0
ENDBLK
  5
7B
  8
0
  0
BLOCK
  8
0
  2
GROUP12_1
 70
     0
 10
0.0
 20
0.0
 30
0.0
  3
GROUP12_1
  1

  0
CIRCLE
  5
BC
  8
D8_0_DEPTHF
 62
     0
 10
0.0
 20
0.0
 30
0.0
 40
4.0
  0
POINT
  5
BD
  8
0
 62
     0
 10
0.0
 20
0.0
 30
0.0
  0
ENDBLK
  5
7E
  8
0
  0
BLOCK
  8
0
  2
GROUP13_1
 70
     0
 10
0.0
 20
0.0
 30
0.0
  3
GROUP13_1
  1

  0
CIRCLE
  5
BE
  8
D5_0_DEPTH8_0
 62
     0
 10
0.0
 20
0.0
 30
0.0
 40
2.5
  0
POINT
  5
BF
  8
0
 62
     0
 10
0.0
 20
0.0
 30
0.0
  0
ENDBLK
  5
81
  8
0
  0
BLOCK
  8
0
  2
GROUP14_1
 70
     0
 10
0.0
 20
0.0
 30
0.0
  3
GROUP14_1
  1

  0
LINE
  5
C0
  8
ABF_LABEL
 62
     0
 10
-52.35600122873903
 20
12.6578802154859
 30
0.0
 11
-52.35600122873903
 21
-12.446
 31
0.0
  0
LINE
  5
C1
  8
ABF_LABEL
 62
     0
 10
-55.27706355166025
 20
8.258894512229494
 30
0.0
 11
-59.25017037787292
 21
4.403792492919504
 31
0.0
  0
LINE
  5
C2
  8
ABF_LABEL
 62
     0
 10
-52.35600122873903
 20
12.6578802154859
 30
0.0
 11
-55.27706355166025
 21
8.258894512229494
 31
0.0
  0
LINE
  5
C3
  8
ABF_LABEL
 62
     0
 10
-59.25017037787292
 20
-12.446
 30
0.0
 11
-52.35600122873903
 21
-12.446
 31
0.0
  0
LINE
  5
C4
  8
ABF_LABEL
 62
     0
 10
-52.35600122873903
 20
-12.446
 30
0.0
 11
-45.44162272557536
 21
-12.446
 31
0.0
  0
LINE
  5
C5
  8
ABF_LABEL
 62
     0
 10
-2.789620689655182
 20
7.129517241379311
 30
0.0
 11
-4.436241379310354
 21
7.129517241379311
 31
0.0
  0
LINE
  5
C6
  8
ABF_LABEL
 62
     0
 10
-4.436241379310354
 20
7.129517241379311
 30
0.0
 11
-4.436241379310354
 21
15.494
 31
0.0
  0
LINE
  5
C7
  8
ABF_LABEL
 62
     0
 10
-4.436241379310354
 20
15.494
 30
0.0
 11
-8.86810344827587
 21
15.494
 31
0.0
  0
LINE
  5
C8
  8
ABF_LABEL
 62
     0
 10
-8.86810344827587
 20
15.494
 30
0.0
 11
-8.86810344827587
 21
7.129517241379311
 31
0.0
  0
LINE
  5
C9
  8
ABF_LABEL
 62
     0
 10
-8.86810344827587
 20
7.129517241379311
 30
0.0
 11
-10.51472413793104
 21
7.129517241379311
 31
0.0
  0
LINE
  5
CA
  8
ABF_LABEL
 62
     0
 10
-10.51472413793104
 20
7.129517241379311
 30
0.0
 11
-10.51472413793104
 21
16.91289655172414
 31
0.0
  0
LINE
  5
CB
  8
ABF_LABEL
 62
     0
 10
-10.51472413793104
 20
16.91289655172414
 30
0.0
 11
-2.789620689655182
 21
16.91289655172414
 31
0.0
  0
LINE
  5
CC
  8
ABF_LABEL
 62
     0
 10
-2.789620689655182
 20
16.91289655172414
 30
0.0
 11
-2.789620689655182
 21
7.129517241379311
 31
0.0
  0
LINE
  5
CD
  8
ABF_LABEL
 62
     0
 10
5.058103448275861
 20
9.538137931034484
 30
0.0
 11
5.058103448275861
 21
12.25331034482758
 31
0.0
  0
LINE
  5
CE
  8
ABF_LABEL
 62
     0
 10
5.058103448275861
 20
12.25331034482758
 30
0.0
 11
3.573517241379308
 21
12.10879310344828
 31
0.0
  0
LINE
  5
CF
  8
ABF_LABEL
 62
     0
 10
3.573517241379308
 20
12.10879310344828
 30
0.0
 11
2.123965517241377
 21
11.85041379310345
 31
0.0
  0
LINE
  5
D0
  8
ABF_LABEL
 62
     0
 10
2.123965517241377
 20
11.85041379310345
 30
0.0
 11
1.037896551724133
 21
11.23293103448276
 31
0.0
  0
LINE
  5
D1
  8
ABF_LABEL
 62
     0
 10
1.037896551724133
 20
11.23293103448276
 30
0.0
 11
0.6087241379310284
 21
10.07241379310345
 31
0.0
  0
LINE
  5
D2
  8
ABF_LABEL
 62
     0
 10
0.6087241379310284
 20
10.07241379310345
 30
0.0
 11
1.081689655172407
 21
8.802413793103447
 31
0.0
  0
LINE
  5
D3
  8
ABF_LABEL
 62
     0
 10
1.081689655172407
 20
8.802413793103447
 30
0.0
 11
2.465551724137921
 21
8.373241379310343
 31
0.0
  0
LINE
  5
D4
  8
ABF_LABEL
 62
     0
 10
2.465551724137921
 20
8.373241379310343
 30
0.0
 11
3.875689655172404
 21
8.710448275862065
 31
0.0
  0
LINE
  5
D5
  8
ABF_LABEL
 62
     0
 10
3.875689655172404
 20
8.710448275862065
 30
0.0
 11
5.058103448275861
 21
9.538137931034484
 31
0.0
  0
LINE
  5
D6
  8
ABF_LABEL
 62
     0
 10
5.058103448275861
 20
8.171793103448275
 30
0.0
 11
4.519448275862065
 21
7.755758620689656
 31
0.0
  0
LINE
  5
D7
  8
ABF_LABEL
 62
     0
 10
4.519448275862065
 20
7.755758620689656
 30
0.0
 11
3.866931034482751
 21
7.330965517241379
 31
0.0
  0
LINE
  5
D8
  8
ABF_LABEL
 62
     0
 10
3.866931034482751
 20
7.330965517241379
 30
0.0
 11
3.021724137931033
 21
6.980620689655171
 31
0.0
  0
LINE
  5
D9
  8
ABF_LABEL
 62
     0
 10
3.021724137931033
 20
6.980620689655171
 30
0.0
 11
1.878724137931035
 21
6.858
 31
0.0
  0
LINE
  5
DA
  8
ABF_LABEL
 62
     0
 10
1.878724137931035
 20
6.858
 30
0.0
 11
0.7313448275861995
 21
7.085724137931036
 31
0.0
  0
LINE
  5
DB
  8
ABF_LABEL
 62
     0
 10
0.7313448275861995
 20
7.085724137931036
 30
0.0
 11
-0.2233448275862103
 21
7.725103448275861
 31
0.0
  0
LINE
  5
DC
  8
ABF_LABEL
 62
     0
 10
-0.2233448275862103
 20
7.725103448275861
 30
0.0
 11
-0.8539655172413817
 21
8.719206896551725
 31
0.0
  0
LINE
  5
DD
  8
ABF_LABEL
 62
     0
 10
-0.8539655172413817
 20
8.719206896551725
 30
0.0
 11
-1.090448275862071
 21
9.967310344827588
 31
0.0
  0
LINE
  5
DE
  8
ABF_LABEL
 62
     0
 10
-1.090448275862071
 20
9.967310344827588
 30
0.0
 11
-0.6612758620689669
 21
11.69713793103448
 31
0.0
  0
LINE
  5
DF
  8
ABF_LABEL
 62
     0
 10
-0.6612758620689669
 20
11.69713793103448
 30
0.0
 11
0.6963103448275776
 21
12.83137931034483
 31
0.0
  0
LINE
  5
E0
  8
ABF_LABEL
 62
     0
 10
0.6963103448275776
 20
12.83137931034483
 30
0.0
 11
2.64072413793103
 21
13.35251724137931
 31
0.0
  0
LINE
  5
E1
  8
ABF_LABEL
 62
     0
 10
2.64072413793103
 20
13.35251724137931
 30
0.0
 11
5.058103448275861
 21
13.56710344827586
 31
0.0
  0
LINE
  5
E2
  8
ABF_LABEL
 62
     0
 10
5.058103448275861
 20
13.56710344827586
 30
0.0
 11
5.058103448275861
 21
13.88241379310345
 31
0.0
  0
LINE
  5
E3
  8
ABF_LABEL
 62
     0
 10
5.058103448275861
 20
13.88241379310345
 30
0.0
 11
4.882931034482752
 21
14.81520689655172
 31
0.0
  0
LINE
  5
E4
  8
ABF_LABEL
 62
     0
 10
4.882931034482752
 20
14.81520689655172
 30
0.0
 11
4.392448275862068
 21
15.36262068965517
 31
0.0
  0
LINE
  5
E5
  8
ABF_LABEL
 62
     0
 10
4.392448275862068
 20
15.36262068965517
 30
0.0
 11
3.621689655172409
 21
15.62975862068965
 31
0.0
  0
LINE
  5
E6
  8
ABF_LABEL
 62
     0
 10
3.621689655172409
 20
15.62975862068965
 30
0.0
 11
2.684517241379305
 21
15.69544827586207
 31
0.0
  0
LINE
  5
E7
  8
ABF_LABEL
 62
     0
 10
2.684517241379305
 20
15.69544827586207
 30
0.0
 11
1.344448275862066
 21
15.52465517241379
 31
0.0
  0
LINE
  5
E8
  8
ABF_LABEL
 62
     0
 10
1.344448275862066
 20
15.52465517241379
 30
0.0
 11
-0.1970689655172523
 21
15.02979310344828
 31
0.0
  0
LINE
  5
E9
  8
ABF_LABEL
 62
     0
 10
-0.1970689655172523
 20
15.02979310344828
 30
0.0
 11
-0.2934137931034541
 21
15.02979310344828
 31
0.0
  0
LINE
  5
EA
  8
ABF_LABEL
 62
     0
 10
-0.2934137931034541
 20
15.02979310344828
 30
0.0
 11
-0.2934137931034541
 21
16.70268965517241
 31
0.0
  0
LINE
  5
EB
  8
ABF_LABEL
 62
     0
 10
-0.2934137931034541
 20
16.70268965517241
 30
0.0
 11
1.011620689655174
 21
16.99172413793103
 31
0.0
  0
LINE
  5
EC
  8
ABF_LABEL
 62
     0
 10
1.011620689655174
 20
16.99172413793103
 30
0.0
 11
2.693275862068957
 21
17.14937931034483
 31
0.0
  0
LINE
  5
ED
  8
ABF_LABEL
 62
     0
 10
2.693275862068957
 20
17.14937931034483
 30
0.0
 11
4.392448275862068
 21
16.99172413793103
 31
0.0
  0
LINE
  5
EE
  8
ABF_LABEL
 62
     0
 10
4.392448275862068
 20
16.99172413793103
 30
0.0
 11
5.636172413793106
 21
16.42241379310345
 31
0.0
  0
LINE
  5
EF
  8
ABF_LABEL
 62
     0
 10
5.636172413793106
 20
16.42241379310345
 30
0.0
 11
6.433206896551722
 21
15.38013793103448
 31
0.0
  0
LINE
  5
F0
  8
ABF_LABEL
 62
     0
 10
6.433206896551722
 20
15.38013793103448
 30
0.0
 11
6.69596551724137
 21
13.82110344827586
 31
0.0
  0
LINE
  5
F1
  8
ABF_LABEL
 62
     0
 10
6.69596551724137
 20
13.82110344827586
 30
0.0
 11
6.69596551724137
 21
7.129517241379311
 31
0.0
  0
LINE
  5
F2
  8
ABF_LABEL
 62
     0
 10
6.69596551724137
 20
7.129517241379311
 30
0.0
 11
5.058103448275861
 21
7.129517241379311
 31
0.0
  0
LINE
  5
F3
  8
ABF_LABEL
 62
     0
 10
5.058103448275861
 20
7.129517241379311
 30
0.0
 11
5.058103448275861
 21
8.171793103448275
 31
0.0
  0
LINE
  5
F4
  8
ABF_LABEL
 62
     0
 10
16.7333448275862
 20
7.129517241379311
 30
0.0
 11
15.08672413793102
 21
7.129517241379311
 31
0.0
  0
LINE
  5
F5
  8
ABF_LABEL
 62
     0
 10
15.08672413793102
 20
7.129517241379311
 30
0.0
 11
15.08672413793102
 21
11.53510344827586
 31
0.0
  0
LINE
  5
F6
  8
ABF_LABEL
 62
     0
 10
15.08672413793102
 20
11.53510344827586
 30
0.0
 11
10.65486206896551
 21
11.53510344827586
 31
0.0
  0
LINE
  5
F7
  8
ABF_LABEL
 62
     0
 10
10.65486206896551
 20
11.53510344827586
 30
0.0
 11
10.65486206896551
 21
7.129517241379311
 31
0.0
  0
LINE
  5
F8
  8
ABF_LABEL
 62
     0
 10
10.65486206896551
 20
7.129517241379311
 30
0.0
 11
9.008241379310347
 21
7.129517241379311
 31
0.0
  0
LINE
  5
F9
  8
ABF_LABEL
 62
     0
 10
9.008241379310347
 20
7.129517241379311
 30
0.0
 11
9.008241379310347
 21
16.91289655172414
 31
0.0
  0
LINE
  5
FA
  8
ABF_LABEL
 62
     0
 10
9.008241379310347
 20
16.91289655172414
 30
0.0
 11
10.65486206896551
 21
16.91289655172414
 31
0.0
  0
LINE
  5
FB
  8
ABF_LABEL
 62
     0
 10
10.65486206896551
 20
16.91289655172414
 30
0.0
 11
10.65486206896551
 21
12.954
 31
0.0
  0
LINE
  5
FC
  8
ABF_LABEL
 62
     0
 10
10.65486206896551
 20
12.954
 30
0.0
 11
15.08672413793102
 21
12.954
 31
0.0
  0
LINE
  5
FD
  8
ABF_LABEL
 62
     0
 10
15.08672413793102
 20
12.954
 30
0.0
 11
15.08672413793102
 21
16.91289655172414
 31
0.0
  0
LINE
  5
FE
  8
ABF_LABEL
 62
     0
 10
15.08672413793102
 20
16.91289655172414
 30
0.0
 11
16.7333448275862
 21
16.91289655172414
 31
0.0
  0
LINE
  5
FF
  8
ABF_LABEL
 62
     0
 10
16.7333448275862
 20
16.91289655172414
 30
0.0
 11
16.7333448275862
 21
7.129517241379311
 31
0.0
  0
LINE
  5
100
  8
ABF_LABEL
 62
     0
 10
23.35486206896551
 20
6.901793103448274
 30
0.0
 11
19.72441379310344
 21
8.219965517241377
 31
0.0
  0
LINE
  5
101
  8
ABF_LABEL
 62
     0
 10
19.72441379310344
 20
8.219965517241377
 30
0.0
 11
18.4325172413793
 21
11.96427586206896
 31
0.0
  0
LINE
  5
102
  8
ABF_LABEL
 62
     0
 10
18.4325172413793
 20
11.96427586206896
 30
0.0
 11
19.685
 21
15.76989655172414
 31
0.0
  0
LINE
  5
103
  8
ABF_LABEL
 62
     0
 10
19.685
 20
15.76989655172414
 30
0.0
 11
22.96072413793103
 21
17.18441379310345
 31
0.0
  0
LINE
  5
104
  8
ABF_LABEL
 62
     0
 10
22.96072413793103
 20
17.18441379310345
 30
0.0
 11
24.57231034482757
 21
16.9216551724138
 31
0.0
  0
LINE
  5
105
  8
ABF_LABEL
 62
     0
 10
24.57231034482757
 20
16.9216551724138
 30
0.0
 11
25.79851724137931
 21
16.09834482758621
 31
0.0
  0
LINE
  5
106
  8
ABF_LABEL
 62
     0
 10
25.79851724137931
 20
16.09834482758621
 30
0.0
 11
26.60431034482758
 21
14.72762068965517
 31
0.0
  0
LINE
  5
107
  8
ABF_LABEL
 62
     0
 10
26.60431034482758
 20
14.72762068965517
 30
0.0
 11
26.88458620689655
 21
12.74379310344827
 31
0.0
  0
LINE
  5
108
  8
ABF_LABEL
 62
     0
 10
26.88458620689655
 20
12.74379310344827
 30
0.0
 11
26.88458620689655
 21
11.85041379310345
 31
0.0
  0
LINE
  5
109
  8
ABF_LABEL
 62
     0
 10
26.88458620689655
 20
11.85041379310345
 30
0.0
 11
20.10541379310344
 21
11.85041379310345
 31
0.0
  0
LINE
  5
10A
  8
ABF_LABEL
 62
     0
 10
20.10541379310344
 20
11.85041379310345
 30
0.0
 11
20.96375862068965
 21
9.24034482758621
 31
0.0
  0
LINE
  5
10B
  8
ABF_LABEL
 62
     0
 10
20.96375862068965
 20
9.24034482758621
 30
0.0
 11
23.33734482758619
 21
8.338206896551727
 31
0.0
  0
LINE
  5
10C
  8
ABF_LABEL
 62
     0
 10
23.33734482758619
 20
8.338206896551727
 30
0.0
 11
24.40151724137931
 21
8.460827586206898
 31
0.0
  0
LINE
  5
10D
  8
ABF_LABEL
 62
     0
 10
24.40151724137931
 20
8.460827586206898
 30
0.0
 11
25.34306896551723
 21
8.776137931034484
 31
0.0
  0
LINE
  5
10E
  8
ABF_LABEL
 62
     0
 10
25.34306896551723
 20
8.776137931034484
 30
0.0
 11
26.09631034482759
 21
9.165896551724138
 31
0.0
  0
LINE
  5
10F
  8
ABF_LABEL
 62
     0
 10
26.09631034482759
 20
9.165896551724138
 30
0.0
 11
26.60431034482758
 21
9.520620689655173
 31
0.0
  0
LINE
  5
110
  8
ABF_LABEL
 62
     0
 10
26.60431034482758
 20
9.520620689655173
 30
0.0
 11
26.70065517241378
 21
9.520620689655173
 31
0.0
  0
LINE
  5
111
  8
ABF_LABEL
 62
     0
 10
26.70065517241378
 20
9.520620689655173
 30
0.0
 11
26.70065517241378
 21
7.725103448275861
 31
0.0
  0
LINE
  5
112
  8
ABF_LABEL
 62
     0
 10
26.70065517241378
 20
7.725103448275861
 30
0.0
 11
25.98244827586206
 21
7.440448275862071
 31
0.0
  0
LINE
  5
113
  8
ABF_LABEL
 62
     0
 10
25.98244827586206
 20
7.440448275862071
 30
0.0
 11
25.2116896551724
 21
7.173310344827586
 31
0.0
  0
LINE
  5
114
  8
ABF_LABEL
 62
     0
 10
25.2116896551724
 20
7.173310344827586
 30
0.0
 11
24.34020689655172
 21
6.971862068965518
 31
0.0
  0
LINE
  5
115
  8
ABF_LABEL
 62
     0
 10
24.34020689655172
 20
6.971862068965518
 30
0.0
 11
23.35486206896551
 21
6.901793103448274
 31
0.0
  0
LINE
  5
116
  8
ABF_LABEL
 62
     0
 10
25.28175862068964
 20
13.11165517241379
 30
0.0
 11
25.12410344827585
 21
14.25903448275862
 31
0.0
  0
LINE
  5
117
  8
ABF_LABEL
 62
     0
 10
25.12410344827585
 20
14.25903448275862
 30
0.0
 11
24.72120689655171
 21
15.07358620689655
 31
0.0
  0
LINE
  5
118
  8
ABF_LABEL
 62
     0
 10
24.72120689655171
 20
15.07358620689655
 30
0.0
 11
23.98110344827585
 21
15.63413793103448
 31
0.0
  0
LINE
  5
119
  8
ABF_LABEL
 62
     0
 10
23.98110344827585
 20
15.63413793103448
 30
0.0
 11
22.86437931034481
 21
15.8268275862069
 31
0.0
  0
LINE
  5
11A
  8
ABF_LABEL
 62
     0
 10
22.86437931034481
 20
15.8268275862069
 30
0.0
 11
21.74765517241379
 21
15.62975862068965
 31
0.0
  0
LINE
  5
11B
  8
ABF_LABEL
 62
     0
 10
21.74765517241379
 20
15.62975862068965
 30
0.0
 11
20.91120689655171
 21
15.05606896551724
 31
0.0
  0
LINE
  5
11C
  8
ABF_LABEL
 62
     0
 10
20.91120689655171
 20
15.05606896551724
 30
0.0
 11
20.35065517241378
 21
14.20210344827586
 31
0.0
  0
LINE
  5
11D
  8
ABF_LABEL
 62
     0
 10
20.35065517241378
 20
14.20210344827586
 30
0.0
 11
20.10541379310344
 21
13.11165517241379
 31
0.0
  0
LINE
  5
11E
  8
ABF_LABEL
 62
     0
 10
20.10541379310344
 20
13.11165517241379
 30
0.0
 11
25.28175862068964
 21
13.11165517241379
 31
0.0
  0
LINE
  5
11F
  8
ABF_LABEL
 62
     0
 10
36.12493103448276
 20
7.129517241379311
 30
0.0
 11
34.47831034482757
 21
7.129517241379311
 31
0.0
  0
LINE
  5
120
  8
ABF_LABEL
 62
     0
 10
34.47831034482757
 20
7.129517241379311
 30
0.0
 11
34.47831034482757
 21
15.52903448275862
 31
0.0
  0
LINE
  5
121
  8
ABF_LABEL
 62
     0
 10
34.47831034482757
 20
15.52903448275862
 30
0.0
 11
31.115
 21
15.52903448275862
 31
0.0
  0
LINE
  5
122
  8
ABF_LABEL
 62
     0
 10
31.115
 20
15.52903448275862
 30
0.0
 11
31.06244827586206
 21
14.13203448275862
 31
0.0
  0
LINE
  5
123
  8
ABF_LABEL
 62
     0
 10
31.06244827586206
 20
14.13203448275862
 30
0.0
 11
31.00989655172412
 21
12.91896551724138
 31
0.0
  0
LINE
  5
124
  8
ABF_LABEL
 62
     0
 10
31.00989655172412
 20
12.91896551724138
 30
0.0
 11
30.83034482758619
 21
10.61544827586207
 31
0.0
  0
LINE
  5
125
  8
ABF_LABEL
 62
     0
 10
30.83034482758619
 20
10.61544827586207
 30
0.0
 11
30.51065517241379
 21
9.126482758620691
 31
0.0
  0
LINE
  5
126
  8
ABF_LABEL
 62
     0
 10
30.51065517241379
 20
9.126482758620691
 30
0.0
 11
30.08586206896551
 21
8.224344827586208
 31
0.0
  0
LINE
  5
127
  8
ABF_LABEL
 62
     0
 10
30.08586206896551
 20
8.224344827586208
 30
0.0
 11
29.56472413793103
 21
7.637517241379312
 31
0.0
  0
LINE
  5
128
  8
ABF_LABEL
 62
     0
 10
29.56472413793103
 20
7.637517241379312
 30
0.0
 11
28.9253448275862
 21
7.24337931034483
 31
0.0
  0
LINE
  5
129
  8
ABF_LABEL
 62
     0
 10
28.9253448275862
 20
7.24337931034483
 30
0.0
 11
28.15458620689655
 21
7.112
 31
0.0
  0
LINE
  5
12A
  8
ABF_LABEL
 62
     0
 10
28.15458620689655
 20
7.112
 30
0.0
 11
27.79548275862068
 21
7.120758620689653
 31
0.0
  0
LINE
  5
12B
  8
ABF_LABEL
 62
     0
 10
27.79548275862068
 20
7.120758620689653
 30
0.0
 11
27.48893103448276
 21
7.129517241379311
 31
0.0
  0
LINE
  5
12C
  8
ABF_LABEL
 62
     0
 10
27.48893103448276
 20
7.129517241379311
 30
0.0
 11
27.48893103448276
 21
8.565931034482757
 31
0.0
  0
LINE
  5
12D
  8
ABF_LABEL
 62
     0
 10
27.48893103448276
 20
8.565931034482757
 30
0.0
 11
27.57651724137929
 21
8.565931034482757
 31
0.0
  0
LINE
  5
12E
  8
ABF_LABEL
 62
     0
 10
27.57651724137929
 20
8.565931034482757
 30
0.0
 11
27.70351724137931
 21
8.557172413793106
 31
0.0
  0
LINE
  5
12F
  8
ABF_LABEL
 62
     0
 10
27.70351724137931
 20
8.557172413793106
 30
0.0
 11
27.85679310344827
 21
8.548413793103446
 31
0.0
  0
LINE
  5
130
  8
ABF_LABEL
 62
     0
 10
27.85679310344827
 20
8.548413793103446
 30
0.0
 11
28.26844827586205
 21
8.609724137931032
 31
0.0
  0
LINE
  5
131
  8
ABF_LABEL
 62
     0
 10
28.26844827586205
 20
8.609724137931032
 30
0.0
 11
28.62755172413793
 21
8.83744827586207
 31
0.0
  0
LINE
  5
132
  8
ABF_LABEL
 62
     0
 10
28.62755172413793
 20
8.83744827586207
 30
0.0
 11
29.26693103448275
 21
10.33955172413793
 31
0.0
  0
LINE
  5
133
  8
ABF_LABEL
 62
     0
 10
29.26693103448275
 20
10.33955172413793
 30
0.0
 11
29.55596551724138
 21
13.33937931034482
 31
0.0
  0
LINE
  5
134
  8
ABF_LABEL
 62
     0
 10
29.55596551724138
 20
13.33937931034482
 30
0.0
 11
29.62165517241379
 21
15.03855172413793
 31
0.0
  0
LINE
  5
135
  8
ABF_LABEL
 62
     0
 10
29.62165517241379
 20
15.03855172413793
 30
0.0
 11
29.67858620689656
 21
16.91289655172414
 31
0.0
  0
LINE
  5
136
  8
ABF_LABEL
 62
     0
 10
29.67858620689656
 20
16.91289655172414
 30
0.0
 11
36.12493103448276
 21
16.91289655172414
 31
0.0
  0
LINE
  5
137
  8
ABF_LABEL
 62
     0
 10
36.12493103448276
 20
16.91289655172414
 30
0.0
 11
36.12493103448276
 21
7.129517241379311
 31
0.0
  0
LINE
  5
138
  8
ABF_LABEL
 62
     0
 10
45.91706896551722
 20
10.16
 30
0.0
 11
45.63241379310343
 21
8.872482758620691
 31
0.0
  0
LINE
  5
139
  8
ABF_LABEL
 62
     0
 10
45.63241379310343
 20
8.872482758620691
 30
0.0
 11
44.85727586206896
 21
7.935310344827586
 31
0.0
  0
LINE
  5
13A
  8
ABF_LABEL
 62
     0
 10
44.85727586206896
 20
7.935310344827586
 30
0.0
 11
43.62231034482758
 21
7.313448275862068
 31
0.0
  0
LINE
  5
13B
  8
ABF_LABEL
 62
     0
 10
43.62231034482758
 20
7.313448275862068
 30
0.0
 11
41.93189655172412
 21
7.129517241379311
 31
0.0
  0
LINE
  5
13C
  8
ABF_LABEL
 62
     0
 10
41.93189655172412
 20
7.129517241379311
 30
0.0
 11
38.50727586206896
 21
7.129517241379311
 31
0.0
  0
LINE
  5
13D
  8
ABF_LABEL
 62
     0
 10
38.50727586206896
 20
7.129517241379311
 30
0.0
 11
38.50727586206896
 21
16.91289655172414
 31
0.0
  0
LINE
  5
13E
  8
ABF_LABEL
 62
     0
 10
38.50727586206896
 20
16.91289655172414
 30
0.0
 11
40.15389655172413
 21
16.91289655172414
 31
0.0
  0
LINE
  5
13F
  8
ABF_LABEL
 62
     0
 10
40.15389655172413
 20
16.91289655172414
 30
0.0
 11
40.15389655172413
 21
13.10289655172414
 31
0.0
  0
LINE
  5
140
  8
ABF_LABEL
 62
     0
 10
40.15389655172413
 20
13.10289655172414
 30
0.0
 11
41.9756896551724
 21
13.10289655172414
 31
0.0
  0
LINE
  5
141
  8
ABF_LABEL
 62
     0
 10
41.9756896551724
 20
13.10289655172414
 30
0.0
 11
43.68799999999998
 21
12.98903448275862
 31
0.0
  0
LINE
  5
142
  8
ABF_LABEL
 62
     0
 10
43.68799999999998
 20
12.98903448275862
 30
0.0
 11
44.90106896551725
 21
12.42848275862069
 31
0.0
  0
LINE
  5
143
  8
ABF_LABEL
 62
     0
 10
44.90106896551725
 20
12.42848275862069
 30
0.0
 11
45.66306896551723
 21
11.46503448275862
 31
0.0
  0
LINE
  5
144
  8
ABF_LABEL
 62
     0
 10
45.66306896551723
 20
11.46503448275862
 30
0.0
 11
45.91706896551722
 21
10.16
 31
0.0
  0
LINE
  5
145
  8
ABF_LABEL
 62
     0
 10
44.21789655172411
 20
10.13372413793103
 30
0.0
 11
44.06462068965516
 21
10.91762068965517
 31
0.0
  0
LINE
  5
146
  8
ABF_LABEL
 62
     0
 10
44.06462068965516
 20
10.91762068965517
 30
0.0
 11
43.56099999999999
 21
11.46503448275862
 31
0.0
  0
LINE
  5
147
  8
ABF_LABEL
 62
     0
 10
43.56099999999999
 20
11.46503448275862
 30
0.0
 11
42.72455172413792
 21
11.72779310344827
 31
0.0
  0
LINE
  5
148
  8
ABF_LABEL
 62
     0
 10
42.72455172413792
 20
11.72779310344827
 30
0.0
 11
41.38010344827584
 21
11.77158620689655
 31
0.0
  0
LINE
  5
149
  8
ABF_LABEL
 62
     0
 10
41.38010344827584
 20
11.77158620689655
 30
0.0
 11
40.15389655172413
 21
11.77158620689655
 31
0.0
  0
LINE
  5
14A
  8
ABF_LABEL
 62
     0
 10
40.15389655172413
 20
11.77158620689655
 30
0.0
 11
40.15389655172413
 21
8.443310344827587
 31
0.0
  0
LINE
  5
14B
  8
ABF_LABEL
 62
     0
 10
40.15389655172413
 20
8.443310344827587
 30
0.0
 11
41.34506896551723
 21
8.443310344827587
 31
0.0
  0
LINE
  5
14C
  8
ABF_LABEL
 62
     0
 10
41.34506896551723
 20
8.443310344827587
 30
0.0
 11
42.70265517241378
 21
8.517758620689657
 31
0.0
  0
LINE
  5
14D
  8
ABF_LABEL
 62
     0
 10
42.70265517241378
 20
8.517758620689657
 30
0.0
 11
43.53472413793102
 21
8.802413793103447
 31
0.0
  0
LINE
  5
14E
  8
ABF_LABEL
 62
     0
 10
43.53472413793102
 20
8.802413793103447
 30
0.0
 11
44.0558620689655
 21
9.341068965517243
 31
0.0
  0
LINE
  5
14F
  8
ABF_LABEL
 62
     0
 10
44.0558620689655
 20
9.341068965517243
 30
0.0
 11
44.21789655172411
 21
10.13372413793103
 31
0.0
  0
LINE
  5
150
  8
ABF_LABEL
 62
     0
 10
11.60898198938369
 20
-10.57317554330826
 30
0.0
 11
13.00575780248642
 21
-13.716
 31
0.0
  0
LINE
  5
151
  8
ABF_LABEL
 62
     0
 10
8.945599561691276
 20
-4.580415426254274
 30
0.0
 11
11.60898198938369
 21
-10.57317554330826
 31
0.0
  0
LINE
  5
152
  8
ABF_LABEL
 62
     0
 10
5.207446859836574
 20
-13.716
 30
0.0
 11
6.493446519136422
 21
-10.57317554330826
 31
0.0
  0
LINE
  5
153
  8
ABF_LABEL
 62
     0
 10
6.493446519136422
 20
-10.57317554330826
 30
0.0
 11
8.945599561691276
 21
-4.580415426254274
 31
0.0
  0
LINE
  5
154
  8
ABF_LABEL
 62
     0
 10
6.493446519136422
 20
-10.57317554330826
 30
0.0
 11
11.60898198938369
 21
-10.57317554330826
 31
0.0
  0
LINE
  5
155
  8
ABF_LABEL
 62
     0
 10
20.28646128892898
 20
-6.83563811397553
 30
0.0
 11
19.50937814950942
 21
-5.3839256105423
 31
0.0
  0
LINE
  5
156
  8
ABF_LABEL
 62
     0
 10
20.03659463644027
 20
-9.902114881038669
 30
0.0
 11
20.7441531920433
 21
-11.59471429800987
 31
0.0
  0
LINE
  5
157
  8
ABF_LABEL
 62
     0
 10
19.50937814950942
 20
-5.3839256105423
 30
0.0
 11
17.95535781621932
 21
-4.876400266647341
 31
0.0
  0
LINE
  5
158
  8
ABF_LABEL
 62
     0
 10
14.52975780248641
 20
-4.876400266647341
 30
0.0
 11
17.95535781621932
 21
-4.876400266647341
 31
0.0
  0
LINE
  5
159
  8
ABF_LABEL
 62
     0
 10
17.95535781621932
 20
-8.97890088415146
 30
0.0
 11
19.55097808122634
 21
-8.251021076202397
 31
0.0
  0
LINE
  5
15A
  8
ABF_LABEL
 62
     0
 10
17.95535781621932
 20
-13.716
 30
0.0
 11
19.75897834539412
 21
-13.35673622018099
 31
0.0
  0
LINE
  5
15B
  8
ABF_LABEL
 62
     0
 10
14.52975780248641
 20
-13.716
 30
0.0
 11
17.95535781621932
 21
-13.716
 31
0.0
  0
LINE
  5
15C
  8
ABF_LABEL
 62
     0
 10
14.52975780248641
 20
-8.97890088415146
 30
0.0
 11
14.52975780248641
 21
-13.716
 31
0.0
  0
LINE
  5
15D
  8
ABF_LABEL
 62
     0
 10
14.52975780248641
 20
-8.97890088415146
 30
0.0
 11
17.95535781621932
 21
-8.97890088415146
 31
0.0
  0
LINE
  5
15E
  8
ABF_LABEL
 62
     0
 10
14.52975780248641
 20
-4.876400266647341
 30
0.0
 11
14.52975780248641
 21
-8.97890088415146
 31
0.0
  0
LINE
  5
15F
  8
ABF_LABEL
 62
     0
 10
17.95535781621932
 20
-8.97890088415146
 30
0.0
 11
20.03659463644027
 21
-9.902114881038669
 31
0.0
  0
LINE
  5
160
  8
ABF_LABEL
 62
     0
 10
20.7441531920433
 20
-11.59471429800987
 30
0.0
 11
19.75897834539412
 21
-13.35673622018099
 31
0.0
  0
LINE
  5
161
  8
ABF_LABEL
 62
     0
 10
19.55097808122634
 20
-8.251021076202397
 30
0.0
 11
20.28646128892898
 21
-6.83563811397553
 31
0.0
  0
LINE
  5
162
  8
ABF_LABEL
 62
     0
 10
22.2681531920433
 20
-8.97454341030121
 30
0.0
 11
27.08615307474135
 21
-8.97454341030121
 31
0.0
  0
LINE
  5
163
  8
ABF_LABEL
 62
     0
 10
22.2681531920433
 20
-4.787599969863896
 30
0.0
 11
22.2681531920433
 21
-8.97454341030121
 31
0.0
  0
LINE
  5
164
  8
ABF_LABEL
 62
     0
 10
22.2681531920433
 20
-4.787599969863896
 30
0.0
 11
27.81255314016341
 21
-4.787599969863896
 31
0.0
  0
LINE
  5
165
  8
ABF_LABEL
 62
     0
 10
22.2681531920433
 20
-8.97454341030121
 30
0.0
 11
22.2681531920433
 21
-13.716
 31
0.0
  0
LINE
  5
166
  8
ABF_LABEL
 62
     0
 10
-26.94589655172414
 20
0.0
 30
0.0
 11
59.96589655172414
 21
0.0
 31
0.0
  0
POLYLINE
  5
167
  8
ABF_LABEL
 62
     0
 10
0.0
 20
0.0
 30
0.0
 66
     1
 70
     9
  0
VERTEX
  5
168
  8
ABF_LABEL
 62
     0
 10
59.96589655172414
 20
17.78
 30
0.0
 70
    32
  0
VERTEX
  5
169
  8
ABF_LABEL
 62
     0
 10
77.74589655172414
 20
0.0
 30
0.0
 70
    32
  0
VERTEX
  5
16A
  8
ABF_LABEL
 62
     0
 10
59.96589655172414
 20
-17.78
 30
0.0
 70
    32
  0
VERTEX
  5
16B
  8
ABF_LABEL
 62
     0
 10
59.96589655172414
 20
17.78
 30
0.0
 70
    32
  0
SEQEND
  5
16C
  8
ABF_LABEL
 62
     0
  0
POLYLINE
  5
16D
  8
ABF_LABEL
 62
     0
 10
0.0
 20
0.0
 30
0.0
 66
     1
 70
     9
  0
VERTEX
  5
16E
  8
ABF_LABEL
 62
     0
 10
-26.94589655172414
 20
0.0
 30
0.0
 70
    32
  0
VERTEX
  5
16F
  8
ABF_LABEL
 62
     0
 10
-52.34589655172414
 20
-25.4
 30
0.0
 70
    32
  0
VERTEX
  5
170
  8
ABF_LABEL
 62
     0
 10
-77.74589655172414
 20
0.0
 30
0.0
 70
    32
  0
VERTEX
  5
171
  8
ABF_LABEL
 62
     0
 10
-52.34589655172414
 20
25.4
 30
0.0
 70
    32
  0
VERTEX
  5
172
  8
ABF_LABEL
 62
     0
 10
-26.94589655172414
 20
0.0
 30
0.0
 70
    32
  0
SEQEND
  5
173
  8
ABF_LABEL
 62
     0
  0
ENDBLK
  5
84
  8
0
  0
BLOCK
  8
0
  2
GROUP16_1
 70
     0
 10
0.0
 20
0.0
 30
0.0
  3
GROUP16_1
  1

  0
LINE
  5
174
  8
ABF_LABEL
 62
     0
 10
-59.19970098222216
 20
-12.446
 30
0.0
 11
-45.91525627816637
 21
-12.446
 31
0.0
  0
LINE
  5
175
  8
ABF_LABEL
 62
     0
 10
-47.09128687466104
 20
1.530918821599748
 30
0.0
 11
-57.21740139992621
 21
-8.204102500769826
 31
0.0
  0
LINE
  5
176
  8
ABF_LABEL
 62
     0
 10
-56.91538827324828
 20
10.52973582967123
 30
0.0
 11
-58.72661499984483
 21
5.577520914448636
 31
0.0
  0
LINE
  5
177
  8
ABF_LABEL
 62
     0
 10
-57.21740139992621
 20
-8.204102500769826
 30
0.0
 11
-59.19970098222216
 21
-12.446
 31
0.0
  0
LINE
  5
178
  8
ABF_LABEL
 62
     0
 10
-47.09128687466104
 20
1.530918821599748
 30
0.0
 11
-45.49209212122612
 21
6.494597628487486
 31
0.0
  0
LINE
  5
179
  8
ABF_LABEL
 62
     0
 10
-52.14658861840686
 20
12.31803533962038
 30
0.0
 11
-56.91538827324828
 21
10.52973582967123
 31
0.0
  0
LINE
  5
17A
  8
ABF_LABEL
 62
     0
 10
-45.49209212122612
 20
6.494597628487486
 30
0.0
 11
-47.57266811561173
 21
10.63290590906143
 31
0.0
  0
LINE
  5
17B
  8
ABF_LABEL
 62
     0
 10
-47.57266811561173
 20
10.63290590906143
 30
0.0
 11
-52.14658861840686
 21
12.31803533962038
 31
0.0
  0
LINE
  5
17C
  8
ABF_LABEL
 62
     0
 10
-2.789620689655182
 20
7.129517241379311
 30
0.0
 11
-4.436241379310354
 21
7.129517241379311
 31
0.0
  0
LINE
  5
17D
  8
ABF_LABEL
 62
     0
 10
-4.436241379310354
 20
7.129517241379311
 30
0.0
 11
-4.436241379310354
 21
15.494
 31
0.0
  0
LINE
  5
17E
  8
ABF_LABEL
 62
     0
 10
-4.436241379310354
 20
15.494
 30
0.0
 11
-8.86810344827587
 21
15.494
 31
0.0
  0
LINE
  5
17F
  8
ABF_LABEL
 62
     0
 10
-8.86810344827587
 20
15.494
 30
0.0
 11
-8.86810344827587
 21
7.129517241379311
 31
0.0
  0
LINE
  5
180
  8
ABF_LABEL
 62
     0
 10
-8.86810344827587
 20
7.129517241379311
 30
0.0
 11
-10.51472413793104
 21
7.129517241379311
 31
0.0
  0
LINE
  5
181
  8
ABF_LABEL
 62
     0
 10
-10.51472413793104
 20
7.129517241379311
 30
0.0
 11
-10.51472413793104
 21
16.91289655172414
 31
0.0
  0
LINE
  5
182
  8
ABF_LABEL
 62
     0
 10
-10.51472413793104
 20
16.91289655172414
 30
0.0
 11
-2.789620689655182
 21
16.91289655172414
 31
0.0
  0
LINE
  5
183
  8
ABF_LABEL
 62
     0
 10
-2.789620689655182
 20
16.91289655172414
 30
0.0
 11
-2.789620689655182
 21
7.129517241379311
 31
0.0
  0
LINE
  5
184
  8
ABF_LABEL
 62
     0
 10
5.058103448275861
 20
9.538137931034484
 30
0.0
 11
5.058103448275861
 21
12.25331034482758
 31
0.0
  0
LINE
  5
185
  8
ABF_LABEL
 62
     0
 10
5.058103448275861
 20
12.25331034482758
 30
0.0
 11
3.573517241379308
 21
12.10879310344828
 31
0.0
  0
LINE
  5
186
  8
ABF_LABEL
 62
     0
 10
3.573517241379308
 20
12.10879310344828
 30
0.0
 11
2.123965517241377
 21
11.85041379310345
 31
0.0
  0
LINE
  5
187
  8
ABF_LABEL
 62
     0
 10
2.123965517241377
 20
11.85041379310345
 30
0.0
 11
1.037896551724133
 21
11.23293103448276
 31
0.0
  0
LINE
  5
188
  8
ABF_LABEL
 62
     0
 10
1.037896551724133
 20
11.23293103448276
 30
0.0
 11
0.6087241379310284
 21
10.07241379310345
 31
0.0
  0
LINE
  5
189
  8
ABF_LABEL
 62
     0
 10
0.6087241379310284
 20
10.07241379310345
 30
0.0
 11
1.081689655172407
 21
8.802413793103447
 31
0.0
  0
LINE
  5
18A
  8
ABF_LABEL
 62
     0
 10
1.081689655172407
 20
8.802413793103447
 30
0.0
 11
2.465551724137921
 21
8.373241379310343
 31
0.0
  0
LINE
  5
18B
  8
ABF_LABEL
 62
     0
 10
2.465551724137921
 20
8.373241379310343
 30
0.0
 11
3.875689655172404
 21
8.710448275862065
 31
0.0
  0
LINE
  5
18C
  8
ABF_LABEL
 62
     0
 10
3.875689655172404
 20
8.710448275862065
 30
0.0
 11
5.058103448275861
 21
9.538137931034484
 31
0.0
  0
LINE
  5
18D
  8
ABF_LABEL
 62
     0
 10
5.058103448275861
 20
8.171793103448275
 30
0.0
 11
4.519448275862065
 21
7.755758620689656
 31
0.0
  0
LINE
  5
18E
  8
ABF_LABEL
 62
     0
 10
4.519448275862065
 20
7.755758620689656
 30
0.0
 11
3.866931034482751
 21
7.330965517241379
 31
0.0
  0
LINE
  5
18F
  8
ABF_LABEL
 62
     0
 10
3.866931034482751
 20
7.330965517241379
 30
0.0
 11
3.021724137931033
 21
6.980620689655171
 31
0.0
  0
LINE
  5
190
  8
ABF_LABEL
 62
     0
 10
3.021724137931033
 20
6.980620689655171
 30
0.0
 11
1.878724137931035
 21
6.858
 31
0.0
  0
LINE
  5
191
  8
ABF_LABEL
 62
     0
 10
1.878724137931035
 20
6.858
 30
0.0
 11
0.7313448275861995
 21
7.085724137931036
 31
0.0
  0
LINE
  5
192
  8
ABF_LABEL
 62
     0
 10
0.7313448275861995
 20
7.085724137931036
 30
0.0
 11
-0.2233448275862103
 21
7.725103448275861
 31
0.0
  0
LINE
  5
193
  8
ABF_LABEL
 62
     0
 10
-0.2233448275862103
 20
7.725103448275861
 30
0.0
 11
-0.8539655172413817
 21
8.719206896551725
 31
0.0
  0
LINE
  5
194
  8
ABF_LABEL
 62
     0
 10
-0.8539655172413817
 20
8.719206896551725
 30
0.0
 11
-1.090448275862071
 21
9.967310344827588
 31
0.0
  0
LINE
  5
195
  8
ABF_LABEL
 62
     0
 10
-1.090448275862071
 20
9.967310344827588
 30
0.0
 11
-0.6612758620689669
 21
11.69713793103448
 31
0.0
  0
LINE
  5
196
  8
ABF_LABEL
 62
     0
 10
-0.6612758620689669
 20
11.69713793103448
 30
0.0
 11
0.6963103448275776
 21
12.83137931034483
 31
0.0
  0
LINE
  5
197
  8
ABF_LABEL
 62
     0
 10
0.6963103448275776
 20
12.83137931034483
 30
0.0
 11
2.64072413793103
 21
13.35251724137931
 31
0.0
  0
LINE
  5
198
  8
ABF_LABEL
 62
     0
 10
2.64072413793103
 20
13.35251724137931
 30
0.0
 11
5.058103448275861
 21
13.56710344827586
 31
0.0
  0
LINE
  5
199
  8
ABF_LABEL
 62
     0
 10
5.058103448275861
 20
13.56710344827586
 30
0.0
 11
5.058103448275861
 21
13.88241379310345
 31
0.0
  0
LINE
  5
19A
  8
ABF_LABEL
 62
     0
 10
5.058103448275861
 20
13.88241379310345
 30
0.0
 11
4.882931034482752
 21
14.81520689655172
 31
0.0
  0
LINE
  5
19B
  8
ABF_LABEL
 62
     0
 10
4.882931034482752
 20
14.81520689655172
 30
0.0
 11
4.392448275862068
 21
15.36262068965517
 31
0.0
  0
LINE
  5
19C
  8
ABF_LABEL
 62
     0
 10
4.392448275862068
 20
15.36262068965517
 30
0.0
 11
3.621689655172409
 21
15.62975862068965
 31
0.0
  0
LINE
  5
19D
  8
ABF_LABEL
 62
     0
 10
3.621689655172409
 20
15.62975862068965
 30
0.0
 11
2.684517241379305
 21
15.69544827586207
 31
0.0
  0
LINE
  5
19E
  8
ABF_LABEL
 62
     0
 10
2.684517241379305
 20
15.69544827586207
 30
0.0
 11
1.344448275862066
 21
15.52465517241379
 31
0.0
  0
LINE
  5
19F
  8
ABF_LABEL
 62
     0
 10
1.344448275862066
 20
15.52465517241379
 30
0.0
 11
-0.1970689655172523
 21
15.02979310344828
 31
0.0
  0
LINE
  5
1A0
  8
ABF_LABEL
 62
     0
 10
-0.1970689655172523
 20
15.02979310344828
 30
0.0
 11
-0.2934137931034541
 21
15.02979310344828
 31
0.0
  0
LINE
  5
1A1
  8
ABF_LABEL
 62
     0
 10
-0.2934137931034541
 20
15.02979310344828
 30
0.0
 11
-0.2934137931034541
 21
16.70268965517241
 31
0.0
  0
LINE
  5
1A2
  8
ABF_LABEL
 62
     0
 10
-0.2934137931034541
 20
16.70268965517241
 30
0.0
 11
1.011620689655174
 21
16.99172413793103
 31
0.0
  0
LINE
  5
1A3
  8
ABF_LABEL
 62
     0
 10
1.011620689655174
 20
16.99172413793103
 30
0.0
 11
2.693275862068957
 21
17.14937931034483
 31
0.0
  0
LINE
  5
1A4
  8
ABF_LABEL
 62
     0
 10
2.693275862068957
 20
17.14937931034483
 30
0.0
 11
4.392448275862068
 21
16.99172413793103
 31
0.0
  0
LINE
  5
1A5
  8
ABF_LABEL
 62
     0
 10
4.392448275862068
 20
16.99172413793103
 30
0.0
 11
5.636172413793106
 21
16.42241379310345
 31
0.0
  0
LINE
  5
1A6
  8
ABF_LABEL
 62
     0
 10
5.636172413793106
 20
16.42241379310345
 30
0.0
 11
6.433206896551722
 21
15.38013793103448
 31
0.0
  0
LINE
  5
1A7
  8
ABF_LABEL
 62
     0
 10
6.433206896551722
 20
15.38013793103448
 30
0.0
 11
6.69596551724137
 21
13.82110344827586
 31
0.0
  0
LINE
  5
1A8
  8
ABF_LABEL
 62
     0
 10
6.69596551724137
 20
13.82110344827586
 30
0.0
 11
6.69596551724137
 21
7.129517241379311
 31
0.0
  0
LINE
  5
1A9
  8
ABF_LABEL
 62
     0
 10
6.69596551724137
 20
7.129517241379311
 30
0.0
 11
5.058103448275861
 21
7.129517241379311
 31
0.0
  0
LINE
  5
1AA
  8
ABF_LABEL
 62
     0
 10
5.058103448275861
 20
7.129517241379311
 30
0.0
 11
5.058103448275861
 21
8.171793103448275
 31
0.0
  0
LINE
  5
1AB
  8
ABF_LABEL
 62
     0
 10
16.7333448275862
 20
7.129517241379311
 30
0.0
 11
15.08672413793102
 21
7.129517241379311
 31
0.0
  0
LINE
  5
1AC
  8
ABF_LABEL
 62
     0
 10
15.08672413793102
 20
7.129517241379311
 30
0.0
 11
15.08672413793102
 21
11.53510344827586
 31
0.0
  0
LINE
  5
1AD
  8
ABF_LABEL
 62
     0
 10
15.08672413793102
 20
11.53510344827586
 30
0.0
 11
10.65486206896551
 21
11.53510344827586
 31
0.0
  0
LINE
  5
1AE
  8
ABF_LABEL
 62
     0
 10
10.65486206896551
 20
11.53510344827586
 30
0.0
 11
10.65486206896551
 21
7.129517241379311
 31
0.0
  0
LINE
  5
1AF
  8
ABF_LABEL
 62
     0
 10
10.65486206896551
 20
7.129517241379311
 30
0.0
 11
9.008241379310347
 21
7.129517241379311
 31
0.0
  0
LINE
  5
1B0
  8
ABF_LABEL
 62
     0
 10
9.008241379310347
 20
7.129517241379311
 30
0.0
 11
9.008241379310347
 21
16.91289655172414
 31
0.0
  0
LINE
  5
1B1
  8
ABF_LABEL
 62
     0
 10
9.008241379310347
 20
16.91289655172414
 30
0.0
 11
10.65486206896551
 21
16.91289655172414
 31
0.0
  0
LINE
  5
1B2
  8
ABF_LABEL
 62
     0
 10
10.65486206896551
 20
16.91289655172414
 30
0.0
 11
10.65486206896551
 21
12.954
 31
0.0
  0
LINE
  5
1B3
  8
ABF_LABEL
 62
     0
 10
10.65486206896551
 20
12.954
 30
0.0
 11
15.08672413793102
 21
12.954
 31
0.0
  0
LINE
  5
1B4
  8
ABF_LABEL
 62
     0
 10
15.08672413793102
 20
12.954
 30
0.0
 11
15.08672413793102
 21
16.91289655172414
 31
0.0
  0
LINE
  5
1B5
  8
ABF_LABEL
 62
     0
 10
15.08672413793102
 20
16.91289655172414
 30
0.0
 11
16.7333448275862
 21
16.91289655172414
 31
0.0
  0
LINE
  5
1B6
  8
ABF_LABEL
 62
     0
 10
16.7333448275862
 20
16.91289655172414
 30
0.0
 11
16.7333448275862
 21
7.129517241379311
 31
0.0
  0
LINE
  5
1B7
  8
ABF_LABEL
 62
     0
 10
23.35486206896551
 20
6.901793103448274
 30
0.0
 11
19.72441379310344
 21
8.219965517241377
 31
0.0
  0
LINE
  5
1B8
  8
ABF_LABEL
 62
     0
 10
19.72441379310344
 20
8.219965517241377
 30
0.0
 11
18.4325172413793
 21
11.96427586206896
 31
0.0
  0
LINE
  5
1B9
  8
ABF_LABEL
 62
     0
 10
18.4325172413793
 20
11.96427586206896
 30
0.0
 11
19.685
 21
15.76989655172414
 31
0.0
  0
LINE
  5
1BA
  8
ABF_LABEL
 62
     0
 10
19.685
 20
15.76989655172414
 30
0.0
 11
22.96072413793103
 21
17.18441379310345
 31
0.0
  0
LINE
  5
1BB
  8
ABF_LABEL
 62
     0
 10
22.96072413793103
 20
17.18441379310345
 30
0.0
 11
24.57231034482757
 21
16.9216551724138
 31
0.0
  0
LINE
  5
1BC
  8
ABF_LABEL
 62
     0
 10
24.57231034482757
 20
16.9216551724138
 30
0.0
 11
25.79851724137931
 21
16.09834482758621
 31
0.0
  0
LINE
  5
1BD
  8
ABF_LABEL
 62
     0
 10
25.79851724137931
 20
16.09834482758621
 30
0.0
 11
26.60431034482758
 21
14.72762068965517
 31
0.0
  0
LINE
  5
1BE
  8
ABF_LABEL
 62
     0
 10
26.60431034482758
 20
14.72762068965517
 30
0.0
 11
26.88458620689655
 21
12.74379310344827
 31
0.0
  0
LINE
  5
1BF
  8
ABF_LABEL
 62
     0
 10
26.88458620689655
 20
12.74379310344827
 30
0.0
 11
26.88458620689655
 21
11.85041379310345
 31
0.0
  0
LINE
  5
1C0
  8
ABF_LABEL
 62
     0
 10
26.88458620689655
 20
11.85041379310345
 30
0.0
 11
20.10541379310344
 21
11.85041379310345
 31
0.0
  0
LINE
  5
1C1
  8
ABF_LABEL
 62
     0
 10
20.10541379310344
 20
11.85041379310345
 30
0.0
 11
20.96375862068965
 21
9.24034482758621
 31
0.0
  0
LINE
  5
1C2
  8
ABF_LABEL
 62
     0
 10
20.96375862068965
 20
9.24034482758621
 30
0.0
 11
23.33734482758619
 21
8.338206896551727
 31
0.0
  0
LINE
  5
1C3
  8
ABF_LABEL
 62
     0
 10
23.33734482758619
 20
8.338206896551727
 30
0.0
 11
24.40151724137931
 21
8.460827586206898
 31
0.0
  0
LINE
  5
1C4
  8
ABF_LABEL
 62
     0
 10
24.40151724137931
 20
8.460827586206898
 30
0.0
 11
25.34306896551723
 21
8.776137931034484
 31
0.0
  0
LINE
  5
1C5
  8
ABF_LABEL
 62
     0
 10
25.34306896551723
 20
8.776137931034484
 30
0.0
 11
26.09631034482759
 21
9.165896551724138
 31
0.0
  0
LINE
  5
1C6
  8
ABF_LABEL
 62
     0
 10
26.09631034482759
 20
9.165896551724138
 30
0.0
 11
26.60431034482758
 21
9.520620689655173
 31
0.0
  0
LINE
  5
1C7
  8
ABF_LABEL
 62
     0
 10
26.60431034482758
 20
9.520620689655173
 30
0.0
 11
26.70065517241378
 21
9.520620689655173
 31
0.0
  0
LINE
  5
1C8
  8
ABF_LABEL
 62
     0
 10
26.70065517241378
 20
9.520620689655173
 30
0.0
 11
26.70065517241378
 21
7.725103448275861
 31
0.0
  0
LINE
  5
1C9
  8
ABF_LABEL
 62
     0
 10
26.70065517241378
 20
7.725103448275861
 30
0.0
 11
25.98244827586206
 21
7.440448275862071
 31
0.0
  0
LINE
  5
1CA
  8
ABF_LABEL
 62
     0
 10
25.98244827586206
 20
7.440448275862071
 30
0.0
 11
25.2116896551724
 21
7.173310344827586
 31
0.0
  0
LINE
  5
1CB
  8
ABF_LABEL
 62
     0
 10
25.2116896551724
 20
7.173310344827586
 30
0.0
 11
24.34020689655172
 21
6.971862068965518
 31
0.0
  0
LINE
  5
1CC
  8
ABF_LABEL
 62
     0
 10
24.34020689655172
 20
6.971862068965518
 30
0.0
 11
23.35486206896551
 21
6.901793103448274
 31
0.0
  0
LINE
  5
1CD
  8
ABF_LABEL
 62
     0
 10
25.28175862068964
 20
13.11165517241379
 30
0.0
 11
25.12410344827585
 21
14.25903448275862
 31
0.0
  0
LINE
  5
1CE
  8
ABF_LABEL
 62
     0
 10
25.12410344827585
 20
14.25903448275862
 30
0.0
 11
24.72120689655171
 21
15.07358620689655
 31
0.0
  0
LINE
  5
1CF
  8
ABF_LABEL
 62
     0
 10
24.72120689655171
 20
15.07358620689655
 30
0.0
 11
23.98110344827585
 21
15.63413793103448
 31
0.0
  0
LINE
  5
1D0
  8
ABF_LABEL
 62
     0
 10
23.98110344827585
 20
15.63413793103448
 30
0.0
 11
22.86437931034481
 21
15.8268275862069
 31
0.0
  0
LINE
  5
1D1
  8
ABF_LABEL
 62
     0
 10
22.86437931034481
 20
15.8268275862069
 30
0.0
 11
21.74765517241379
 21
15.62975862068965
 31
0.0
  0
LINE
  5
1D2
  8
ABF_LABEL
 62
     0
 10
21.74765517241379
 20
15.62975862068965
 30
0.0
 11
20.91120689655171
 21
15.05606896551724
 31
0.0
  0
LINE
  5
1D3
  8
ABF_LABEL
 62
     0
 10
20.91120689655171
 20
15.05606896551724
 30
0.0
 11
20.35065517241378
 21
14.20210344827586
 31
0.0
  0
LINE
  5
1D4
  8
ABF_LABEL
 62
     0
 10
20.35065517241378
 20
14.20210344827586
 30
0.0
 11
20.10541379310344
 21
13.11165517241379
 31
0.0
  0
LINE
  5
1D5
  8
ABF_LABEL
 62
     0
 10
20.10541379310344
 20
13.11165517241379
 30
0.0
 11
25.28175862068964
 21
13.11165517241379
 31
0.0
  0
LINE
  5
1D6
  8
ABF_LABEL
 62
     0
 10
36.12493103448276
 20
7.129517241379311
 30
0.0
 11
34.47831034482757
 21
7.129517241379311
 31
0.0
  0
LINE
  5
1D7
  8
ABF_LABEL
 62
     0
 10
34.47831034482757
 20
7.129517241379311
 30
0.0
 11
34.47831034482757
 21
15.52903448275862
 31
0.0
  0
LINE
  5
1D8
  8
ABF_LABEL
 62
     0
 10
34.47831034482757
 20
15.52903448275862
 30
0.0
 11
31.115
 21
15.52903448275862
 31
0.0
  0
LINE
  5
1D9
  8
ABF_LABEL
 62
     0
 10
31.115
 20
15.52903448275862
 30
0.0
 11
31.06244827586206
 21
14.13203448275862
 31
0.0
  0
LINE
  5
1DA
  8
ABF_LABEL
 62
     0
 10
31.06244827586206
 20
14.13203448275862
 30
0.0
 11
31.00989655172412
 21
12.91896551724138
 31
0.0
  0
LINE
  5
1DB
  8
ABF_LABEL
 62
     0
 10
31.00989655172412
 20
12.91896551724138
 30
0.0
 11
30.83034482758619
 21
10.61544827586207
 31
0.0
  0
LINE
  5
1DC
  8
ABF_LABEL
 62
     0
 10
30.83034482758619
 20
10.61544827586207
 30
0.0
 11
30.51065517241379
 21
9.126482758620691
 31
0.0
  0
LINE
  5
1DD
  8
ABF_LABEL
 62
     0
 10
30.51065517241379
 20
9.126482758620691
 30
0.0
 11
30.08586206896551
 21
8.224344827586208
 31
0.0
  0
LINE
  5
1DE
  8
ABF_LABEL
 62
     0
 10
30.08586206896551
 20
8.224344827586208
 30
0.0
 11
29.56472413793103
 21
7.637517241379312
 31
0.0
  0
LINE
  5
1DF
  8
ABF_LABEL
 62
     0
 10
29.56472413793103
 20
7.637517241379312
 30
0.0
 11
28.9253448275862
 21
7.24337931034483
 31
0.0
  0
LINE
  5
1E0
  8
ABF_LABEL
 62
     0
 10
28.9253448275862
 20
7.24337931034483
 30
0.0
 11
28.15458620689655
 21
7.112
 31
0.0
  0
LINE
  5
1E1
  8
ABF_LABEL
 62
     0
 10
28.15458620689655
 20
7.112
 30
0.0
 11
27.79548275862068
 21
7.120758620689653
 31
0.0
  0
LINE
  5
1E2
  8
ABF_LABEL
 62
     0
 10
27.79548275862068
 20
7.120758620689653
 30
0.0
 11
27.48893103448276
 21
7.129517241379311
 31
0.0
  0
LINE
  5
1E3
  8
ABF_LABEL
 62
     0
 10
27.48893103448276
 20
7.129517241379311
 30
0.0
 11
27.48893103448276
 21
8.565931034482757
 31
0.0
  0
LINE
  5
1E4
  8
ABF_LABEL
 62
     0
 10
27.48893103448276
 20
8.565931034482757
 30
0.0
 11
27.57651724137929
 21
8.565931034482757
 31
0.0
  0
LINE
  5
1E5
  8
ABF_LABEL
 62
     0
 10
27.57651724137929
 20
8.565931034482757
 30
0.0
 11
27.70351724137931
 21
8.557172413793106
 31
0.0
  0
LINE
  5
1E6
  8
ABF_LABEL
 62
     0
 10
27.70351724137931
 20
8.557172413793106
 30
0.0
 11
27.85679310344827
 21
8.548413793103446
 31
0.0
  0
LINE
  5
1E7
  8
ABF_LABEL
 62
     0
 10
27.85679310344827
 20
8.548413793103446
 30
0.0
 11
28.26844827586205
 21
8.609724137931032
 31
0.0
  0
LINE
  5
1E8
  8
ABF_LABEL
 62
     0
 10
28.26844827586205
 20
8.609724137931032
 30
0.0
 11
28.62755172413793
 21
8.83744827586207
 31
0.0
  0
LINE
  5
1E9
  8
ABF_LABEL
 62
     0
 10
28.62755172413793
 20
8.83744827586207
 30
0.0
 11
29.26693103448275
 21
10.33955172413793
 31
0.0
  0
LINE
  5
1EA
  8
ABF_LABEL
 62
     0
 10
29.26693103448275
 20
10.33955172413793
 30
0.0
 11
29.55596551724138
 21
13.33937931034482
 31
0.0
  0
LINE
  5
1EB
  8
ABF_LABEL
 62
     0
 10
29.55596551724138
 20
13.33937931034482
 30
0.0
 11
29.62165517241379
 21
15.03855172413793
 31
0.0
  0
LINE
  5
1EC
  8
ABF_LABEL
 62
     0
 10
29.62165517241379
 20
15.03855172413793
 30
0.0
 11
29.67858620689656
 21
16.91289655172414
 31
0.0
  0
LINE
  5
1ED
  8
ABF_LABEL
 62
     0
 10
29.67858620689656
 20
16.91289655172414
 30
0.0
 11
36.12493103448276
 21
16.91289655172414
 31
0.0
  0
LINE
  5
1EE
  8
ABF_LABEL
 62
     0
 10
36.12493103448276
 20
16.91289655172414
 30
0.0
 11
36.12493103448276
 21
7.129517241379311
 31
0.0
  0
LINE
  5
1EF
  8
ABF_LABEL
 62
     0
 10
45.91706896551722
 20
10.16
 30
0.0
 11
45.63241379310343
 21
8.872482758620691
 31
0.0
  0
LINE
  5
1F0
  8
ABF_LABEL
 62
     0
 10
45.63241379310343
 20
8.872482758620691
 30
0.0
 11
44.85727586206896
 21
7.935310344827586
 31
0.0
  0
LINE
  5
1F1
  8
ABF_LABEL
 62
     0
 10
44.85727586206896
 20
7.935310344827586
 30
0.0
 11
43.62231034482758
 21
7.313448275862068
 31
0.0
  0
LINE
  5
1F2
  8
ABF_LABEL
 62
     0
 10
43.62231034482758
 20
7.313448275862068
 30
0.0
 11
41.93189655172412
 21
7.129517241379311
 31
0.0
  0
LINE
  5
1F3
  8
ABF_LABEL
 62
     0
 10
41.93189655172412
 20
7.129517241379311
 30
0.0
 11
38.50727586206896
 21
7.129517241379311
 31
0.0
  0
LINE
  5
1F4
  8
ABF_LABEL
 62
     0
 10
38.50727586206896
 20
7.129517241379311
 30
0.0
 11
38.50727586206896
 21
16.91289655172414
 31
0.0
  0
LINE
  5
1F5
  8
ABF_LABEL
 62
     0
 10
38.50727586206896
 20
16.91289655172414
 30
0.0
 11
40.15389655172413
 21
16.91289655172414
 31
0.0
  0
LINE
  5
1F6
  8
ABF_LABEL
 62
     0
 10
40.15389655172413
 20
16.91289655172414
 30
0.0
 11
40.15389655172413
 21
13.10289655172414
 31
0.0
  0
LINE
  5
1F7
  8
ABF_LABEL
 62
     0
 10
40.15389655172413
 20
13.10289655172414
 30
0.0
 11
41.9756896551724
 21
13.10289655172414
 31
0.0
  0
LINE
  5
1F8
  8
ABF_LABEL
 62
     0
 10
41.9756896551724
 20
13.10289655172414
 30
0.0
 11
43.68799999999998
 21
12.98903448275862
 31
0.0
  0
LINE
  5
1F9
  8
ABF_LABEL
 62
     0
 10
43.68799999999998
 20
12.98903448275862
 30
0.0
 11
44.90106896551725
 21
12.42848275862069
 31
0.0
  0
LINE
  5
1FA
  8
ABF_LABEL
 62
     0
 10
44.90106896551725
 20
12.42848275862069
 30
0.0
 11
45.66306896551723
 21
11.46503448275862
 31
0.0
  0
LINE
  5
1FB
  8
ABF_LABEL
 62
     0
 10
45.66306896551723
 20
11.46503448275862
 30
0.0
 11
45.91706896551722
 21
10.16
 31
0.0
  0
LINE
  5
1FC
  8
ABF_LABEL
 62
     0
 10
44.21789655172411
 20
10.13372413793103
 30
0.0
 11
44.06462068965516
 21
10.91762068965517
 31
0.0
  0
LINE
  5
1FD
  8
ABF_LABEL
 62
     0
 10
44.06462068965516
 20
10.91762068965517
 30
0.0
 11
43.56099999999999
 21
11.46503448275862
 31
0.0
  0
LINE
  5
1FE
  8
ABF_LABEL
 62
     0
 10
43.56099999999999
 20
11.46503448275862
 30
0.0
 11
42.72455172413792
 21
11.72779310344827
 31
0.0
  0
LINE
  5
1FF
  8
ABF_LABEL
 62
     0
 10
42.72455172413792
 20
11.72779310344827
 30
0.0
 11
41.38010344827584
 21
11.77158620689655
 31
0.0
  0
LINE
  5
200
  8
ABF_LABEL
 62
     0
 10
41.38010344827584
 20
11.77158620689655
 30
0.0
 11
40.15389655172413
 21
11.77158620689655
 31
0.0
  0
LINE
  5
201
  8
ABF_LABEL
 62
     0
 10
40.15389655172413
 20
11.77158620689655
 30
0.0
 11
40.15389655172413
 21
8.443310344827587
 31
0.0
  0
LINE
  5
202
  8
ABF_LABEL
 62
     0
 10
40.15389655172413
 20
8.443310344827587
 30
0.0
 11
41.34506896551723
 21
8.443310344827587
 31
0.0
  0
LINE
  5
203
  8
ABF_LABEL
 62
     0
 10
41.34506896551723
 20
8.443310344827587
 30
0.0
 11
42.70265517241378
 21
8.517758620689657
 31
0.0
  0
LINE
  5
204
  8
ABF_LABEL
 62
     0
 10
42.70265517241378
 20
8.517758620689657
 30
0.0
 11
43.53472413793102
 21
8.802413793103447
 31
0.0
  0
LINE
  5
205
  8
ABF_LABEL
 62
     0
 10
43.53472413793102
 20
8.802413793103447
 30
0.0
 11
44.0558620689655
 21
9.341068965517243
 31
0.0
  0
LINE
  5
206
  8
ABF_LABEL
 62
     0
 10
44.0558620689655
 20
9.341068965517243
 30
0.0
 11
44.21789655172411
 21
10.13372413793103
 31
0.0
  0
LINE
  5
207
  8
ABF_LABEL
 62
     0
 10
11.60898198938369
 20
-10.57317554330826
 30
0.0
 11
13.00575780248642
 21
-13.716
 31
0.0
  0
LINE
  5
208
  8
ABF_LABEL
 62
     0
 10
8.945599561691276
 20
-4.580415426254274
 30
0.0
 11
11.60898198938369
 21
-10.57317554330826
 31
0.0
  0
LINE
  5
209
  8
ABF_LABEL
 62
     0
 10
5.207446859836574
 20
-13.716
 30
0.0
 11
6.493446519136422
 21
-10.57317554330826
 31
0.0
  0
LINE
  5
20A
  8
ABF_LABEL
 62
     0
 10
6.493446519136422
 20
-10.57317554330826
 30
0.0
 11
8.945599561691276
 21
-4.580415426254274
 31
0.0
  0
LINE
  5
20B
  8
ABF_LABEL
 62
     0
 10
6.493446519136422
 20
-10.57317554330826
 30
0.0
 11
11.60898198938369
 21
-10.57317554330826
 31
0.0
  0
LINE
  5
20C
  8
ABF_LABEL
 62
     0
 10
20.28646128892898
 20
-6.83563811397553
 30
0.0
 11
19.50937814950942
 21
-5.3839256105423
 31
0.0
  0
LINE
  5
20D
  8
ABF_LABEL
 62
     0
 10
20.03659463644027
 20
-9.902114881038669
 30
0.0
 11
20.7441531920433
 21
-11.59471429800987
 31
0.0
  0
LINE
  5
20E
  8
ABF_LABEL
 62
     0
 10
19.50937814950942
 20
-5.3839256105423
 30
0.0
 11
17.95535781621932
 21
-4.876400266647341
 31
0.0
  0
LINE
  5
20F
  8
ABF_LABEL
 62
     0
 10
14.52975780248641
 20
-4.876400266647341
 30
0.0
 11
17.95535781621932
 21
-4.876400266647341
 31
0.0
  0
LINE
  5
210
  8
ABF_LABEL
 62
     0
 10
17.95535781621932
 20
-8.97890088415146
 30
0.0
 11
19.55097808122634
 21
-8.251021076202397
 31
0.0
  0
LINE
  5
211
  8
ABF_LABEL
 62
     0
 10
17.95535781621932
 20
-13.716
 30
0.0
 11
19.75897834539412
 21
-13.35673622018099
 31
0.0
  0
LINE
  5
212
  8
ABF_LABEL
 62
     0
 10
14.52975780248641
 20
-13.716
 30
0.0
 11
17.95535781621932
 21
-13.716
 31
0.0
  0
LINE
  5
213
  8
ABF_LABEL
 62
     0
 10
14.52975780248641
 20
-8.97890088415146
 30
0.0
 11
14.52975780248641
 21
-13.716
 31
0.0
  0
LINE
  5
214
  8
ABF_LABEL
 62
     0
 10
14.52975780248641
 20
-8.97890088415146
 30
0.0
 11
17.95535781621932
 21
-8.97890088415146
 31
0.0
  0
LINE
  5
215
  8
ABF_LABEL
 62
     0
 10
14.52975780248641
 20
-4.876400266647341
 30
0.0
 11
14.52975780248641
 21
-8.97890088415146
 31
0.0
  0
LINE
  5
216
  8
ABF_LABEL
 62
     0
 10
17.95535781621932
 20
-8.97890088415146
 30
0.0
 11
20.03659463644027
 21
-9.902114881038669
 31
0.0
  0
LINE
  5
217
  8
ABF_LABEL
 62
     0
 10
20.7441531920433
 20
-11.59471429800987
 30
0.0
 11
19.75897834539412
 21
-13.35673622018099
 31
0.0
  0
LINE
  5
218
  8
ABF_LABEL
 62
     0
 10
19.55097808122634
 20
-8.251021076202397
 30
0.0
 11
20.28646128892898
 21
-6.83563811397553
 31
0.0
  0
LINE
  5
219
  8
ABF_LABEL
 62
     0
 10
22.2681531920433
 20
-8.97454341030121
 30
0.0
 11
27.08615307474135
 21
-8.97454341030121
 31
0.0
  0
LINE
  5
21A
  8
ABF_LABEL
 62
     0
 10
22.2681531920433
 20
-4.787599969863896
 30
0.0
 11
22.2681531920433
 21
-8.97454341030121
 31
0.0
  0
LINE
  5
21B
  8
ABF_LABEL
 62
     0
 10
22.2681531920433
 20
-4.787599969863896
 30
0.0
 11
27.81255314016341
 21
-4.787599969863896
 31
0.0
  0
LINE
  5
21C
  8
ABF_LABEL
 62
     0
 10
22.2681531920433
 20
-8.97454341030121
 30
0.0
 11
22.2681531920433
 21
-13.716
 31
0.0
  0
LINE
  5
21D
  8
ABF_LABEL
 62
     0
 10
-26.94589655172414
 20
0.0
 30
0.0
 11
59.96589655172414
 21
0.0
 31
0.0
  0
POLYLINE
  5
21E
  8
ABF_LABEL
 62
     0
 10
0.0
 20
0.0
 30
0.0
 66
     1
 70
     9
  0
VERTEX
  5
21F
  8
ABF_LABEL
 62
     0
 10
-26.94589655172414
 20
0.0
 30
0.0
 70
    32
  0
VERTEX
  5
220
  8
ABF_LABEL
 62
     0
 10
-52.34589655172414
 20
-25.4
 30
0.0
 70
    32
  0
VERTEX
  5
221
  8
ABF_LABEL
 62
     0
 10
-77.74589655172414
 20
0.0
 30
0.0
 70
    32
  0
VERTEX
  5
222
  8
ABF_LABEL
 62
     0
 10
-52.34589655172414
 20
25.4
 30
0.0
 70
    32
  0
VERTEX
  5
223
  8
ABF_LABEL
 62
     0
 10
-26.94589655172414
 20
0.0
 30
0.0
 70
    32
  0
SEQEND
  5
224
  8
ABF_LABEL
 62
     0
  0
POLYLINE
  5
225
  8
ABF_LABEL
 62
     0
 10
0.0
 20
0.0
 30
0.0
 66
     1
 70
     9
  0
VERTEX
  5
226
  8
ABF_LABEL
 62
     0
 10
59.96589655172414
 20
17.78
 30
0.0
 70
    32
  0
VERTEX
  5
227
  8
ABF_LABEL
 62
     0
 10
77.74589655172414
 20
0.0
 30
0.0
 70
    32
  0
VERTEX
  5
228
  8
ABF_LABEL
 62
     0
 10
59.96589655172414
 20
-17.78
 30
0.0
 70
    32
  0
VERTEX
  5
229
  8
ABF_LABEL
 62
     0
 10
59.96589655172414
 20
17.78
 30
0.0
 70
    32
  0
SEQEND
  5
22A
  8
ABF_LABEL
 62
     0
  0
ENDBLK
  5
87
  8
0
  0
BLOCK
  8
0
  2
GROUP20_1
 70
     0
 10
0.0
 20
0.0
 30
0.0
  3
GROUP20_1
  1

  0
POLYLINE
  5
22B
  8
ABF_CUTTINGLINES
 62
     0
 10
0.0
 20
0.0
 30
0.0
 66
     1
 70
     9
  0
VERTEX
  5
22C
  8
ABF_CUTTINGLINES
 62
     0
 10
-302.6137300641062
 20
428.2623308456085
 30
0.0
 70
    32
  0
VERTEX
  5
22D
  8
ABF_CUTTINGLINES
 62
     0
 10
0.3862699358937831
 20
428.2623308456083
 30
0.0
 70
    32
  0
VERTEX
  5
22E
  8
ABF_CUTTINGLINES
 62
     0
 10
0.3862699358939782
 20
696.5109865604034
 30
0.0
 70
    32
  0
VERTEX
  5
22F
  8
ABF_CUTTINGLINES
 62
     0
 10
-302.613730064106
 20
696.5109865604036
 30
0.0
 70
    32
  0
VERTEX
  5
230
  8
ABF_CUTTINGLINES
 62
     0
 10
-302.6137300641062
 20
428.2623308456085
 30
0.0
 70
    32
  0
SEQEND
  5
231
  8
ABF_CUTTINGLINES
 62
     0
  0
ENDBLK
  5
8A
  8
0
  0
BLOCK
  8
0
  2
GROUP21_1
 70
     0
 10
0.0
 20
0.0
 30
0.0
  3
GROUP21_1
  1

  0
POLYLINE
  5
232
  8
ABF_CUTTINGLINES
 62
     0
 10
0.0
 20
0.0
 30
0.0
 66
     1
 70
     9
  0
VERTEX
  5
233
  8
ABF_CUTTINGLINES
 62
     0
 10
-299.9999999999999
 20
0.0000000000002182
 30
0.0
 70
    32
  0
VERTEX
  5
234
  8
ABF_CUTTINGLINES
 62
     0
 10
0.0
 20
0.0
 30
0.0
 70
    32
  0
VERTEX
  5
235
  8
ABF_CUTTINGLINES
 62
     0
 10
0.0000000000002909
 20
400.0
 30
0.0
 70
    32
  0
VERTEX
  5
236
  8
ABF_CUTTINGLINES
 62
     0
 10
-299.9999999999997
 20
400.0000000000002
 30
0.0
 70
    32
  0
VERTEX
  5
237
  8
ABF_CUTTINGLINES
 62
     0
 10
-299.9999999999999
 20
0.0000000000002182
 30
0.0
 70
    32
  0
SEQEND
  5
238
  8
ABF_CUTTINGLINES
 62
     0
  0
ENDBLK
  5
8D
  8
0
  0
BLOCK
  8
0
  2
_______4
 70
     0
 10
0.0
 20
0.0
 30
0.0
  3
_______4
  1

  0
POLYLINE
  5
239
  8
0
 62
     0
 66
     1
 10
0.0
 20
0.0
 30
0.0
 70
    64
 71
     4
 72
     2
1001
ACAD_MATERIAL_MAPPER
1070
     1
1070
     1
1070
     1
1011
-0.0000000000001155
1021
-0.0000000000003465
1031
0.0
1021
-0.0000000000003465
1031
0.0
1011
-25.40000000000012
1021
-0.0000000000003465
1031
0.0
1021
-0.0000000000003465
1031
0.0
1011
-0.0000000000001119
1021
25.39999999999965
1031
0.0
1021
25.39999999999965
1031
0.0
1011
-0.0000000000001155
1021
-0.0000000000003465
1031
1.0
1021
-0.0000000000003465
1031
1.0
  0
VERTEX
  5
23A
  8
0
 62
     0
 10
-302.613730064106
 20
696.5109865604036
 30
0.0
 70
   192
  0
VERTEX
  5
23B
  8
0
 62
     0
 10
0.3862699358937831
 20
428.2623308456083
 30
0.0
 70
   192
  0
VERTEX
  5
23C
  8
0
 62
     0
 10
-302.6137300641062
 20
428.2623308456085
 30
0.0
 70
   192
  0
VERTEX
  5
23D
  8
0
 62
     0
 10
0.3862699358939782
 20
696.5109865604034
 30
0.0
 70
   192
  0
VERTEX
  5
23E
  8
0
 62
     0
 10
0.0
 20
0.0
 30
0.0
 70
   128
 71
    -1
 72
     2
 73
     3
  0
VERTEX
  5
23F
  8
0
 62
     0
 10
0.0
 20
0.0
 30
0.0
 70
   128
 71
    -2
 72
     1
 73
     4
  0
SEQEND
  5
240
  8
0
 62
     0
  0
LINE
  5
241
  8
ABF_CUTTINGLINES
 62
     0
 10
-302.6137300641062
 20
428.2623308456085
 30
0.0
 11
0.3862699358937831
 21
428.2623308456083
 31
0.0
  0
LINE
  5
242
  8
ABF_CUTTINGLINES
 62
     0
 10
-302.613730064106
 20
696.5109865604036
 30
0.0
 11
-302.6137300641062
 21
428.2623308456085
 31
0.0
  0
LINE
  5
243
  8
ABF_CUTTINGLINES
 62
     0
 10
0.3862699358939782
 20
696.5109865604034
 30
0.0
 11
-302.613730064106
 21
696.5109865604036
 31
0.0
  0
LINE
  5
244
  8
ABF_CUTTINGLINES
 62
     0
 10
0.3862699358937831
 20
428.2623308456083
 30
0.0
 11
0.3862699358939782
 21
696.5109865604034
 31
0.0
  0
POLYLINE
  5
246
  8
0
 62
     7
 66
     1
 10
0.0
 20
0.0
 30
0.0
 70
    64
 71
     4
 72
     2
1001
ACAD_MATERIAL_MAPPER
1070
     1
1070
     1
1070
     1
1011
-0.0000000000001155
1021
-0.0000000000003465
1031
0.0
1021
-0.0000000000003465
1031
0.0
1011
25.39999999999988
1021
-0.0000000000003465
1031
0.0
1021
-0.0000000000003465
1031
0.0
1011
-0.0000000000001119
1021
25.39999999999965
1031
0.0
1021
25.39999999999965
1031
0.0
1011
-0.0000000000001155
1021
-0.0000000000003465
1031
1.0
1021
-0.0000000000003465
1031
1.0
  0
VERTEX
  5
247
  8
0
 62
     7
 10
0.3862699358937831
 20
428.2623308456083
 30
18.0
 70
   192
  0
VERTEX
  5
248
  8
0
 62
     7
 10
-302.613730064106
 20
696.5109865604036
 30
18.0
 70
   192
  0
VERTEX
  5
249
  8
0
 62
     7
 10
-302.6137300641062
 20
428.2623308456085
 30
18.0
 70
   192
  0
VERTEX
  5
24A
  8
0
 62
     7
 10
0.3862699358939782
 20
696.5109865604034
 30
18.0
 70
   192
  0
VERTEX
  5
24B
  8
0
 62
     7
 10
0.0
 20
0.0
 30
0.0
 70
   128
 71
    -1
 72
     2
 73
     3
  0
VERTEX
  5
24C
  8
0
 62
     7
 10
0.0
 20
0.0
 30
0.0
 70
   128
 71
    -2
 72
     1
 73
     4
  0
SEQEND
  5
24D
  8
0
 62
     7
  0
LINE
  5
24E
  8
ABF_CUTTINGLINES
 62
     0
 10
-302.6137300641062
 20
428.2623308456085
 30
18.0
 11
0.3862699358937831
 21
428.2623308456083
 31
18.0
  0
LINE
  5
24F
  8
ABF_CUTTINGLINES
 62
     0
 10
0.3862699358937831
 20
428.2623308456083
 30
18.0
 11
0.3862699358939782
 21
696.5109865604034
 31
18.0
  0
LINE
  5
250
  8
ABF_CUTTINGLINES
 62
     0
 10
0.3862699358939782
 20
696.5109865604034
 30
18.0
 11
-302.613730064106
 21
696.5109865604036
 31
18.0
  0
LINE
  5
251
  8
ABF_CUTTINGLINES
 62
     0
 10
-302.613730064106
 20
696.5109865604036
 30
18.0
 11
-302.6137300641062
 21
428.2623308456085
 31
18.0
  0
POLYLINE
  5
252
  8
0
 62
     0
 66
     1
 10
0.0
 20
0.0
 30
0.0
 70
    64
 71
     4
 72
     2
1001
ACAD_MATERIAL_MAPPER
1070
     1
1070
     1
1070
     1
1011
0.0000000000003115
1021
0.0
1031
0.0
1021
0.0
1031
0.0
1011
25.40000000000031
1021
0.0
1031
0.0
1021
0.0
1031
0.0
1011
0.0000000000003115
1021
0.0
1031
25.4
1021
0.0
1031
25.4
1011
0.0000000000003115
1021
1.0
1031
0.0
1021
1.0
1031
0.0
  0
VERTEX
  5
253
  8
0
 62
     0
 10
0.3862699358937831
 20
428.2623308456083
 30
18.0
 70
   192
  0
VERTEX
  5
254
  8
0
 62
     0
 10
-302.6137300641062
 20
428.2623308456085
 30
0.0
 70
   192
  0
VERTEX
  5
255
  8
0
 62
     0
 10
0.3862699358937831
 20
428.2623308456083
 30
0.0
 70
   192
  0
VERTEX
  5
256
  8
0
 62
     0
 10
-302.6137300641062
 20
428.2623308456085
 30
18.0
 70
   192
  0
VERTEX
  5
257
  8
0
 62
     0
 10
0.0
 20
0.0
 30
0.0
 70
   128
 71
    -1
 72
     2
 73
     3
  0
VERTEX
  5
258
  8
0
 62
     0
 10
0.0
 20
0.0
 30
0.0
 70
   128
 71
    -2
 72
     1
 73
     4
  0
SEQEND
  5
259
  8
0
 62
     0
  0
LINE
  5
25A
  8
ABF_CUTTINGLINES
 62
     0
 10
-302.6137300641062
 20
428.2623308456085
 30
0.0
 11
0.3862699358937831
 21
428.2623308456083
 31
0.0
  0
LINE
  5
25B
  8
ABF_CUTTINGLINES
 62
     0
 10
0.3862699358937831
 20
428.2623308456083
 30
0.0
 11
0.3862699358937831
 21
428.2623308456083
 31
18.0
  0
LINE
  5
25C
  8
ABF_CUTTINGLINES
 62
     0
 10
-302.6137300641062
 20
428.2623308456085
 30
18.0
 11
0.3862699358937831
 21
428.2623308456083
 31
18.0
  0
LINE
  5
25D
  8
ABF_CUTTINGLINES
 62
     0
 10
-302.6137300641062
 20
428.2623308456085
 30
0.0
 11
-302.6137300641062
 21
428.2623308456085
 31
18.0
  0
POLYLINE
  5
25E
  8
0
 62
     0
 66
     1
 10
0.0
 20
0.0
 30
0.0
 70
    64
 71
     4
 72
     2
1001
ACAD_MATERIAL_MAPPER
1070
     1
1070
     1
1070
     1
1011
0.0
1021
0.0
1031
0.0
1021
0.0
1031
0.0
1011
0.0
1021
25.4
1031
0.0
1021
25.4
1031
0.0
1011
0.0
1021
0.0
1031
25.4
1021
0.0
1031
25.4
1011
1.0
1021
0.0
1031
0.0
1021
0.0
1031
0.0
  0
VERTEX
  5
25F
  8
0
 62
     0
 10
0.3862699358939782
 20
696.5109865604034
 30
0.0
 70
   192
  0
VERTEX
  5
260
  8
0
 62
     0
 10
0.3862699358937831
 20
428.2623308456083
 30
18.0
 70
   192
  0
VERTEX
  5
261
  8
0
 62
     0
 10
0.3862699358937831
 20
428.2623308456083
 30
0.0
 70
   192
  0
VERTEX
  5
262
  8
0
 62
     0
 10
0.3862699358939782
 20
696.5109865604034
 30
18.0
 70
   192
  0
VERTEX
  5
263
  8
0
 62
     0
 10
0.0
 20
0.0
 30
0.0
 70
   128
 71
    -1
 72
     2
 73
     3
  0
VERTEX
  5
264
  8
0
 62
     0
 10
0.0
 20
0.0
 30
0.0
 70
   128
 71
    -2
 72
     1
 73
     4
  0
SEQEND
  5
265
  8
0
 62
     0
  0
LINE
  5
266
  8
ABF_CUTTINGLINES
 62
     0
 10
0.3862699358937831
 20
428.2623308456083
 30
0.0
 11
0.3862699358939782
 21
696.5109865604034
 31
0.0
  0
LINE
  5
267
  8
ABF_CUTTINGLINES
 62
     0
 10
0.3862699358939782
 20
696.5109865604034
 30
0.0
 11
0.3862699358939782
 21
696.5109865604034
 31
18.0
  0
LINE
  5
268
  8
ABF_CUTTINGLINES
 62
     0
 10
0.3862699358937831
 20
428.2623308456083
 30
18.0
 11
0.3862699358939782
 21
696.5109865604034
 31
18.0
  0
LINE
  5
269
  8
ABF_CUTTINGLINES
 62
     0
 10
0.3862699358937831
 20
428.2623308456083
 30
0.0
 11
0.3862699358937831
 21
428.2623308456083
 31
18.0
  0
POLYLINE
  5
26A
  8
0
 62
     0
 66
     1
 10
0.0
 20
0.0
 30
0.0
 70
    64
 71
     4
 72
     2
1001
ACAD_MATERIAL_MAPPER
1070
     1
1070
     1
1070
     1
1011
0.0000000000005066
1021
0.0
1031
0.0
1021
0.0
1031
0.0
1011
-25.39999999999949
1021
0.0
1031
0.0
1021
0.0
1031
0.0
1011
0.0000000000005066
1021
0.0
1031
25.4
1021
0.0
1031
25.4
1011
0.0000000000005066
1021
1.0
1031
0.0
1021
1.0
1031
0.0
  0
VERTEX
  5
26B
  8
0
 62
     0
 10
-302.613730064106
 20
696.5109865604036
 30
18.0
 70
   192
  0
VERTEX
  5
26C
  8
0
 62
     0
 10
0.3862699358939782
 20
696.5109865604034
 30
0.0
 70
   192
  0
VERTEX
  5
26D
  8
0
 62
     0
 10
-302.613730064106
 20
696.5109865604036
 30
0.0
 70
   192
  0
VERTEX
  5
26E
  8
0
 62
     0
 10
0.3862699358939782
 20
696.5109865604034
 30
18.0
 70
   192
  0
VERTEX
  5
26F
  8
0
 62
     0
 10
0.0
 20
0.0
 30
0.0
 70
   128
 71
    -1
 72
     2
 73
     3
  0
VERTEX
  5
270
  8
0
 62
     0
 10
0.0
 20
0.0
 30
0.0
 70
   128
 71
    -2
 72
     1
 73
     4
  0
SEQEND
  5
271
  8
0
 62
     0
  0
LINE
  5
272
  8
ABF_CUTTINGLINES
 62
     0
 10
0.3862699358939782
 20
696.5109865604034
 30
0.0
 11
-302.613730064106
 21
696.5109865604036
 31
0.0
  0
LINE
  5
273
  8
ABF_CUTTINGLINES
 62
     0
 10
-302.613730064106
 20
696.5109865604036
 30
0.0
 11
-302.613730064106
 21
696.5109865604036
 31
18.0
  0
LINE
  5
274
  8
ABF_CUTTINGLINES
 62
     0
 10
0.3862699358939782
 20
696.5109865604034
 30
18.0
 11
-302.613730064106
 21
696.5109865604036
 31
18.0
  0
LINE
  5
275
  8
ABF_CUTTINGLINES
 62
     0
 10
0.3862699358939782
 20
696.5109865604034
 30
0.0
 11
0.3862699358939782
 21
696.5109865604034
 31
18.0
  0
POLYLINE
  5
276
  8
0
 62
     0
 66
     1
 10
0.0
 20
0.0
 30
0.0
 70
    64
 71
     4
 72
     2
1001
ACAD_MATERIAL_MAPPER
1070
     1
1070
     1
1070
     1
1011
0.0
1021
0.0000000000001215
1031
0.0
1021
0.0000000000001215
1031
0.0
1011
0.0
1021
-25.39999999999989
1031
0.0
1021
-25.39999999999989
1031
0.0
1011
0.0
1021
0.0000000000001215
1031
25.4
1021
0.0000000000001215
1031
25.4
1011
1.0
1021
0.0000000000001215
1031
0.0
1021
0.0000000000001215
1031
0.0
  0
VERTEX
  5
277
  8
0
 62
     0
 10
-302.613730064106
 20
696.5109865604036
 30
18.0
 70
   192
  0
VERTEX
  5
278
  8
0
 62
     0
 10
-302.6137300641062
 20
428.2623308456085
 30
0.0
 70
   192
  0
VERTEX
  5
279
  8
0
 62
     0
 10
-302.6137300641062
 20
428.2623308456085
 30
18.0
 70
   192
  0
VERTEX
  5
27A
  8
0
 62
     0
 10
-302.613730064106
 20
696.5109865604036
 30
0.0
 70
   192
  0
VERTEX
  5
27B
  8
0
 62
     0
 10
0.0
 20
0.0
 30
0.0
 70
   128
 71
    -1
 72
     2
 73
     3
  0
VERTEX
  5
27C
  8
0
 62
     0
 10
0.0
 20
0.0
 30
0.0
 70
   128
 71
    -2
 72
     1
 73
     4
  0
SEQEND
  5
27D
  8
0
 62
     0
  0
LINE
  5
27E
  8
ABF_CUTTINGLINES
 62
     0
 10
-302.613730064106
 20
696.5109865604036
 30
0.0
 11
-302.6137300641062
 21
428.2623308456085
 31
0.0
  0
LINE
  5
27F
  8
ABF_CUTTINGLINES
 62
     0
 10
-302.6137300641062
 20
428.2623308456085
 30
0.0
 11
-302.6137300641062
 21
428.2623308456085
 31
18.0
  0
LINE
  5
280
  8
ABF_CUTTINGLINES
 62
     0
 10
-302.613730064106
 20
696.5109865604036
 30
18.0
 11
-302.6137300641062
 21
428.2623308456085
 31
18.0
  0
LINE
  5
281
  8
ABF_CUTTINGLINES
 62
     0
 10
-302.613730064106
 20
696.5109865604036
 30
0.0
 11
-302.613730064106
 21
696.5109865604036
 31
18.0
  0
INSERT
  5
282
  8
ABF_LABEL
 62
     0
 66
     1
  2
GROUP16_1
 10
-151.1137300641061
 20
562.3866587030059
 30
18.0
 41
1.308479287430734
 42
1.308479287430734
 50
90.0
  0
ATTRIB
  5
283
  8
0
 10
0.0
 20
0.0
 30
0.0
 40
1.0
  1
_ABF_Label
  2
Skp_GroupInstanceName
 70
     0
  0
SEQEND
  5
284
  8
ABF_LABEL
 62
     0
  0
INSERT
  5
285
  8
ABF_CUTTINGLINES
 62
     0
 66
     1
  2
GROUP20_1
 10
0.0
 20
0.0
 30
18.0
  0
ATTRIB
  5
286
  8
0
 10
0.0
 20
0.0
 30
0.0
 40
1.0
  1
_ABF_cuttingLines
  2
Skp_GroupInstanceName
 70
     0
  0
SEQEND
  5
287
  8
ABF_CUTTINGLINES
 62
     0
  0
ENDBLK
  5
90
  8
0
  0
BLOCK
  8
0
  2
_______7
 70
     0
 10
0.0
 20
0.0
 30
0.0
  3
_______7
  1

  0
POLYLINE
  5
288
  8
0
 62
     7
 66
     1
 10
0.0
 20
0.0
 30
0.0
 70
    64
 71
     4
 72
     2
1001
ACAD_MATERIAL_MAPPER
1070
     1
1070
     1
1070
     1
1011
0.0
1021
0.0
1031
0.0
1021
0.0
1031
0.0
1011
25.4
1021
0.0
1031
0.0
1021
0.0
1031
0.0
1011
0.0
1021
25.4
1031
0.0
1021
25.4
1031
0.0
1011
0.0
1021
0.0
1031
1.0
1021
0.0
1031
1.0
  0
VERTEX
  5
289
  8
0
 62
     7
 10
0.0
 20
0.0
 30
18.0
 70
   192
  0
VERTEX
  5
28A
  8
0
 62
     7
 10
-299.9999999999997
 20
400.0000000000002
 30
18.0
 70
   192
  0
VERTEX
  5
28B
  8
0
 62
     7
 10
-299.9999999999999
 20
0.0000000000002182
 30
18.0
 70
   192
  0
VERTEX
  5
28C
  8
0
 62
     7
 10
0.0000000000002909
 20
400.0
 30
18.0
 70
   192
  0
VERTEX
  5
28D
  8
0
 62
     7
 10
0.0
 20
0.0
 30
0.0
 70
   128
 71
    -1
 72
     2
 73
     3
  0
VERTEX
  5
28E
  8
0
 62
     7
 10
0.0
 20
0.0
 30
0.0
 70
   128
 71
    -2
 72
     1
 73
     4
  0
SEQEND
  5
28F
  8
0
 62
     7
  0
LINE
  5
290
  8
ABF_CUTTINGLINES
 62
     0
 10
0.0
 20
0.0
 30
18.0
 11
-299.9999999999999
 21
0.0000000000002182
 31
18.0
  0
LINE
  5
291
  8
ABF_CUTTINGLINES
 62
     0
 10
0.0000000000002909
 20
400.0
 30
18.0
 11
0.0
 21
0.0
 31
18.0
  0
LINE
  5
292
  8
ABF_CUTTINGLINES
 62
     0
 10
-299.9999999999997
 20
400.0000000000002
 30
18.0
 11
0.0000000000002909
 21
400.0
 31
18.0
  0
LINE
  5
293
  8
ABF_CUTTINGLINES
 62
     0
 10
-299.9999999999999
 20
0.0000000000002182
 30
18.0
 11
-299.9999999999997
 21
400.0000000000002
 31
18.0
  0
POLYLINE
  5
294
  8
0
 62
     0
 66
     1
 10
0.0
 20
0.0
 30
0.0
 70
    64
 71
     4
 72
     2
1001
ACAD_MATERIAL_MAPPER
1070
     1
1070
     1
1070
     1
1011
0.0
1021
0.0
1031
0.0
1021
0.0
1031
0.0
1011
-25.4
1021
0.0
1031
0.0
1021
0.0
1031
0.0
1011
0.0
1021
25.4
1031
0.0
1021
25.4
1031
0.0
1011
0.0
1021
0.0
1031
1.0
1021
0.0
1031
1.0
  0
VERTEX
  5
295
  8
0
 62
     0
 10
-299.9999999999997
 20
400.0000000000002
 30
0.0
 70
   192
  0
VERTEX
  5
296
  8
0
 62
     0
 10
0.0
 20
0.0
 30
0.0
 70
   192
  0
VERTEX
  5
297
  8
0
 62
     0
 10
-299.9999999999999
 20
0.0000000000002182
 30
0.0
 70
   192
  0
VERTEX
  5
298
  8
0
 62
     0
 10
0.0000000000002909
 20
400.0
 30
0.0
 70
   192
  0
VERTEX
  5
299
  8
0
 62
     0
 10
0.0
 20
0.0
 30
0.0
 70
   128
 71
    -1
 72
     2
 73
     3
  0
VERTEX
  5
29A
  8
0
 62
     0
 10
0.0
 20
0.0
 30
0.0
 70
   128
 71
    -2
 72
     1
 73
     4
  0
SEQEND
  5
29B
  8
0
 62
     0
  0
LINE
  5
29C
  8
ABF_CUTTINGLINES
 62
     0
 10
0.0
 20
0.0
 30
0.0
 11
-299.9999999999999
 21
0.0000000000002182
 31
0.0
  0
LINE
  5
29D
  8
ABF_CUTTINGLINES
 62
     0
 10
-299.9999999999999
 20
0.0000000000002182
 30
0.0
 11
-299.9999999999997
 21
400.0000000000002
 31
0.0
  0
LINE
  5
29E
  8
ABF_CUTTINGLINES
 62
     0
 10
-299.9999999999997
 20
400.0000000000002
 30
0.0
 11
0.0000000000002909
 21
400.0
 31
0.0
  0
LINE
  5
29F
  8
ABF_CUTTINGLINES
 62
     0
 10
0.0000000000002909
 20
400.0
 30
0.0
 11
0.0
 21
0.0
 31
0.0
  0
POLYLINE
  5
2A0
  8
0
 62
     0
 66
     1
 10
0.0
 20
0.0
 30
0.0
 70
    64
 71
     4
 72
     2
1001
ACAD_MATERIAL_MAPPER
1070
     1
1070
     1
1070
     1
1011
0.0
1021
0.0
1031
0.0
1021
0.0
1031
0.0
1011
25.4
1021
0.0
1031
0.0
1021
0.0
1031
0.0
1011
0.0
1021
0.0
1031
25.4
1021
0.0
1031
25.4
1011
0.0
1021
1.0
1031
0.0
1021
1.0
1031
0.0
  0
VERTEX
  5
2A1
  8
0
 62
     0
 10
0.0
 20
0.0
 30
18.0
 70
   192
  0
VERTEX
  5
2A2
  8
0
 62
     0
 10
-299.9999999999999
 20
0.0000000000002182
 30
0.0
 70
   192
  0
VERTEX
  5
2A3
  8
0
 62
     0
 10
0.0
 20
0.0
 30
0.0
 70
   192
  0
VERTEX
  5
2A4
  8
0
 62
     0
 10
-299.9999999999999
 20
0.0000000000002182
 30
18.0
 70
   192
  0
VERTEX
  5
2A5
  8
0
 62
     0
 10
0.0
 20
0.0
 30
0.0
 70
   128
 71
    -1
 72
     2
 73
     3
  0
VERTEX
  5
2A6
  8
0
 62
     0
 10
0.0
 20
0.0
 30
0.0
 70
   128
 71
    -2
 72
     1
 73
     4
  0
SEQEND
  5
2A7
  8
0
 62
     0
  0
LINE
  5
2A8
  8
ABF_CUTTINGLINES
 62
     0
 10
0.0
 20
0.0
 30
18.0
 11
-299.9999999999999
 21
0.0000000000002182
 31
18.0
  0
LINE
  5
2A9
  8
ABF_CUTTINGLINES
 62
     0
 10
-299.9999999999999
 20
0.0000000000002182
 30
18.0
 11
-299.9999999999999
 21
0.0000000000002182
 31
0.0
  0
LINE
  5
2AA
  8
ABF_CUTTINGLINES
 62
     0
 10
0.0
 20
0.0
 30
0.0
 11
-299.9999999999999
 21
0.0000000000002182
 31
0.0
  0
LINE
  5
2AB
  8
ABF_CUTTINGLINES
 62
     0
 10
0.0
 20
0.0
 30
18.0
 11
0.0
 21
0.0
 31
0.0
  0
POLYLINE
  5
2AC
  8
0
 62
     0
 66
     1
 10
0.0
 20
0.0
 30
0.0
 70
    64
 71
     4
 72
     2
1001
ACAD_MATERIAL_MAPPER
1070
     1
1070
     1
1070
     1
1011
0.0
1021
0.0000000000002182
1031
0.0
1021
0.0000000000002182
1031
0.0
1011
0.0
1021
-25.39999999999978
1031
0.0
1021
-25.39999999999978
1031
0.0
1011
0.0
1021
0.0000000000002182
1031
25.4
1021
0.0000000000002182
1031
25.4
1011
1.0
1021
0.0000000000002182
1031
0.0
1021
0.0000000000002182
1031
0.0
  0
VERTEX
  5
2AD
  8
0
 62
     0
 10
-299.9999999999997
 20
400.0000000000002
 30
18.0
 70
   192
  0
VERTEX
  5
2AE
  8
0
 62
     0
 10
-299.9999999999999
 20
0.0000000000002182
 30
0.0
 70
   192
  0
VERTEX
  5
2AF
  8
0
 62
     0
 10
-299.9999999999999
 20
0.0000000000002182
 30
18.0
 70
   192
  0
VERTEX
  5
2B0
  8
0
 62
     0
 10
-299.9999999999997
 20
400.0000000000002
 30
0.0
 70
   192
  0
VERTEX
  5
2B1
  8
0
 62
     0
 10
0.0
 20
0.0
 30
0.0
 70
   128
 71
    -1
 72
     2
 73
     3
  0
VERTEX
  5
2B2
  8
0
 62
     0
 10
0.0
 20
0.0
 30
0.0
 70
   128
 71
    -2
 72
     1
 73
     4
  0
SEQEND
  5
2B3
  8
0
 62
     0
  0
LINE
  5
2B4
  8
ABF_CUTTINGLINES
 62
     0
 10
-299.9999999999999
 20
0.0000000000002182
 30
18.0
 11
-299.9999999999997
 21
400.0000000000002
 31
18.0
  0
LINE
  5
2B5
  8
ABF_CUTTINGLINES
 62
     0
 10
-299.9999999999997
 20
400.0000000000002
 30
18.0
 11
-299.9999999999997
 21
400.0000000000002
 31
0.0
  0
LINE
  5
2B6
  8
ABF_CUTTINGLINES
 62
     0
 10
-299.9999999999999
 20
0.0000000000002182
 30
0.0
 11
-299.9999999999997
 21
400.0000000000002
 31
0.0
  0
LINE
  5
2B7
  8
ABF_CUTTINGLINES
 62
     0
 10
-299.9999999999999
 20
0.0000000000002182
 30
18.0
 11
-299.9999999999999
 21
0.0000000000002182
 31
0.0
  0
POLYLINE
  5
2B8
  8
0
 62
     0
 66
     1
 10
0.0
 20
0.0
 30
0.0
 70
    64
 71
     4
 72
     2
1001
ACAD_MATERIAL_MAPPER
1070
     1
1070
     1
1070
     1
1011
0.0000000000002909
1021
0.0
1031
0.0
1021
0.0
1031
0.0
1011
-25.39999999999971
1021
0.0
1031
0.0
1021
0.0
1031
0.0
1011
0.0000000000002909
1021
0.0
1031
25.4
1021
0.0
1031
25.4
1011
0.0000000000002909
1021
1.0
1031
0.0
1021
1.0
1031
0.0
  0
VERTEX
  5
2B9
  8
0
 62
     0
 10
-299.9999999999997
 20
400.0000000000002
 30
18.0
 70
   192
  0
VERTEX
  5
2BA
  8
0
 62
     0
 10
0.0000000000002909
 20
400.0
 30
0.0
 70
   192
  0
VERTEX
  5
2BB
  8
0
 62
     0
 10
-299.9999999999997
 20
400.0000000000002
 30
0.0
 70
   192
  0
VERTEX
  5
2BC
  8
0
 62
     0
 10
0.0000000000002909
 20
400.0
 30
18.0
 70
   192
  0
VERTEX
  5
2BD
  8
0
 62
     0
 10
0.0
 20
0.0
 30
0.0
 70
   128
 71
    -1
 72
     2
 73
     3
  0
VERTEX
  5
2BE
  8
0
 62
     0
 10
0.0
 20
0.0
 30
0.0
 70
   128
 71
    -2
 72
     1
 73
     4
  0
SEQEND
  5
2BF
  8
0
 62
     0
  0
LINE
  5
2C0
  8
ABF_CUTTINGLINES
 62
     0
 10
-299.9999999999997
 20
400.0000000000002
 30
18.0
 11
0.0000000000002909
 21
400.0
 31
18.0
  0
LINE
  5
2C1
  8
ABF_CUTTINGLINES
 62
     0
 10
0.0000000000002909
 20
400.0
 30
18.0
 11
0.0000000000002909
 21
400.0
 31
0.0
  0
LINE
  5
2C2
  8
ABF_CUTTINGLINES
 62
     0
 10
-299.9999999999997
 20
400.0000000000002
 30
0.0
 11
0.0000000000002909
 21
400.0
 31
0.0
  0
LINE
  5
2C3
  8
ABF_CUTTINGLINES
 62
     0
 10
-299.9999999999997
 20
400.0000000000002
 30
18.0
 11
-299.9999999999997
 21
400.0000000000002
 31
0.0
  0
POLYLINE
  5
2C4
  8
0
 62
     0
 66
     1
 10
0.0
 20
0.0
 30
0.0
 70
    64
 71
     4
 72
     2
1001
ACAD_MATERIAL_MAPPER
1070
     1
1070
     1
1070
     1
1011
0.0
1021
0.0
1031
0.0
1021
0.0
1031
0.0
1011
0.0
1021
25.4
1031
0.0
1021
25.4
1031
0.0
1011
0.0
1021
0.0
1031
25.4
1021
0.0
1031
25.4
1011
1.0
1021
0.0
1031
0.0
1021
0.0
1031
0.0
  0
VERTEX
  5
2C5
  8
0
 62
     0
 10
0.0000000000002909
 20
400.0
 30
0.0
 70
   192
  0
VERTEX
  5
2C6
  8
0
 62
     0
 10
0.0
 20
0.0
 30
18.0
 70
   192
  0
VERTEX
  5
2C7
  8
0
 62
     0
 10
0.0
 20
0.0
 30
0.0
 70
   192
  0
VERTEX
  5
2C8
  8
0
 62
     0
 10
0.0000000000002909
 20
400.0
 30
18.0
 70
   192
  0
VERTEX
  5
2C9
  8
0
 62
     0
 10
0.0
 20
0.0
 30
0.0
 70
   128
 71
    -1
 72
     2
 73
     3
  0
VERTEX
  5
2CA
  8
0
 62
     0
 10
0.0
 20
0.0
 30
0.0
 70
   128
 71
    -2
 72
     1
 73
     4
  0
SEQEND
  5
2CB
  8
0
 62
     0
  0
LINE
  5
2CC
  8
ABF_CUTTINGLINES
 62
     0
 10
0.0000000000002909
 20
400.0
 30
18.0
 11
0.0
 21
0.0
 31
18.0
  0
LINE
  5
2CD
  8
ABF_CUTTINGLINES
 62
     0
 10
0.0
 20
0.0
 30
18.0
 11
0.0
 21
0.0
 31
0.0
  0
LINE
  5
2CE
  8
ABF_CUTTINGLINES
 62
     0
 10
0.0000000000002909
 20
400.0
 30
0.0
 11
0.0
 21
0.0
 31
0.0
  0
LINE
  5
2CF
  8
ABF_CUTTINGLINES
 62
     0
 10
0.0000000000002909
 20
400.0
 30
18.0
 11
0.0000000000002909
 21
400.0
 31
0.0
  0
INSERT
  5
2D1
  8
PAZ_DEPTH8_0
 62
     7
 66
     1
  2
GROUP6_1
 10
-0.0000000000000116
 20
16.0
 30
-18.0
 50
0.0000000000000417
210
0.0
220
0.0
230
-1.0
  0
ATTRIB
  5
2D2
  8
0
 10
0.0
 20
0.0
 30
0.0
 40
1.0
  1
ABF_Intersect
  2
Skp_GroupInstanceName
 70
     0
  0
SEQEND
  5
2D3
  8
PAZ_DEPTH8_0
 62
     7
  0
INSERT
  5
2D4
  8
PAZ_DEPTH8_0
 62
     7
 66
     1
  2
GROUP7_1
 10
283.9999999999999
 20
0.0000000000002066
 30
-18.0
 50
0.0000000000000417
210
0.0
220
0.0
230
-1.0
  0
ATTRIB
  5
2D5
  8
0
 10
0.0
 20
0.0
 30
0.0
 40
1.0
  1
ABF_Intersect
  2
Skp_GroupInstanceName
 70
     0
  0
SEQEND
  5
2D6
  8
PAZ_DEPTH8_0
 62
     7
  0
INSERT
  5
2D7
  8
0
 62
     0
 66
     1
  2
GROUP9_1
 10
-292.1756861783589
 20
9.587050003503018
 30
18.0
 50
89.99999999999996
  0
ATTRIB
  5
2D8
  8
0
 10
0.0
 20
0.0
 30
0.0
 40
1.0
  1
ABF_Hole
  2
Skp_GroupInstanceName
 70
     0
  0
SEQEND
  5
2D9
  8
0
 62
     0
  0
INSERT
  5
2DA
  8
0
 62
     0
 66
     1
  2
GROUP10_3
 10
-240.366131568335
 20
74.63682412497741
 30
18.0
 50
89.99999999999996
  0
ATTRIB
  5
2DB
  8
0
 10
0.0
 20
0.0
 30
0.0
 40
1.0
  1
ABF_Hole
  2
Skp_GroupInstanceName
 70
     0
  0
SEQEND
  5
2DC
  8
0
 62
     0
  0
INSERT
  5
2DD
  8
0
 62
     0
 66
     1
  2
GROUP11_1
 10
-241.2296241451685
 20
233.8072891213285
 30
18.0
 50
89.99999999999996
  0
ATTRIB
  5
2DE
  8
0
 10
0.0
 20
0.0
 30
0.0
 40
1.0
  1
ABF_Hole
  2
Skp_GroupInstanceName
 70
     0
  0
SEQEND
  5
2DF
  8
0
 62
     0
  0
INSERT
  5
2E0
  8
0
 62
     0
 66
     1
  2
GROUP12_1
 10
-66.22846190686572
 20
238.4125828644416
 30
18.0
 50
89.99999999999996
  0
ATTRIB
  5
2E1
  8
0
 10
0.0
 20
0.0
 30
0.0
 40
1.0
  1
ABF_Hole
  2
Skp_GroupInstanceName
 70
     0
  0
SEQEND
  5
2E2
  8
0
 62
     0
  0
INSERT
  5
2E3
  8
0
 62
     0
 66
     1
  2
GROUP13_1
 10
-253.0306893618962
 20
373.693086568393
 30
18.0
 50
89.99999999999996
  0
ATTRIB
  5
2E4
  8
0
 10
0.0
 20
0.0
 30
0.0
 40
1.0
  1
ABF_Hole
  2
Skp_GroupInstanceName
 70
     0
  0
SEQEND
  5
2E5
  8
0
 62
     0
  0
INSERT
  5
2E6
  8
ABF_LABEL
 62
     0
 66
     1
  2
GROUP14_1
 10
-149.9999999999998
 20
200.0000000000001
 30
18.0
 41
1.574803149606299
 42
1.574803149606299
 50
90.0
  0
ATTRIB
  5
2E7
  8
0
 10
0.0
 20
0.0
 30
0.0
 40
1.0
  1
_ABF_Label
  2
Skp_GroupInstanceName
 70
     0
  0
SEQEND
  5
2E8
  8
ABF_LABEL
 62
     0
  0
INSERT
  5
2E9
  8
ABF_CUTTINGLINES
 62
     0
 66
     1
  2
GROUP21_1
 10
0.0
 20
0.0
 30
18.0
  0
ATTRIB
  5
2EA
  8
0
 10
0.0
 20
0.0
 30
0.0
 40
1.0
  1
_ABF_cuttingLines
  2
Skp_GroupInstanceName
 70
     0
  0
SEQEND
  5
2EB
  8
ABF_CUTTINGLINES
 62
     0
  0
ENDBLK
  5
93
  8
0
  0
BLOCK
  8
0
  2
GROUP17_1
 70
     0
 10
0.0
 20
0.0
 30
0.0
  3
GROUP17_1
  1

  0
DIMENSION
  5
2EC
  8
0
 62
   250
  2
*D17
 10
-712.9999999999999
 20
-200.0
 30
0.0
 11
-2073.335474361269
 21
-379.5148318411475
 31
0.0
 70
    32
  1
THICKNESS_18
  3
DIMSTYLE1
 13
0.0
 23
-181.8181818181818
 33
0.0
 14
-712.9999999999999
 24
-181.8181818181818
 34
0.0
1001
ACAD
1000
DSTYLE
1002
{
1070
    73
1070
     0
1002
}
  0
ENDBLK
  5
96
  8
0
  0
BLOCK
  8
0
  2
*D17
 70
     1
 10
0.0
 20
0.0
 30
0.0
  3
*D17
  1

  0
LINE
  5
2F1
  8
0
 62
     0
 10
0.0
 20
-194.5181818181818
 30
0.0
 11
0.0
 21
-212.7
 31
0.0
  0
LINE
  5
2F2
  8
0
 62
     0
 10
-712.9999999999999
 20
-194.5181818181818
 30
0.0
 11
-712.9999999999999
 21
-212.7
 31
0.0
  0
LINE
  5
2F3
  8
0
 62
     0
 10
-712.9999999999999
 20
-200.0
 30
0.0
 11
-3420.970948722538
 21
-200.0
 31
0.0
  0
LINE
  5
2F4
  8
0
 62
     0
 10
-12.7
 20
-200.0
 30
0.0
 11
-700.2999999999998
 21
-200.0
 31
0.0
  0
SOLID
  5
2F5
  8
0
 62
     0
 10
-12.7
 20
-202.1166666666667
 30
0.0
 11
-12.7
 21
-197.8833333333333
 31
0.0
 12
0.0
 22
-200.0
 32
0.0
 13
0.0
 23
-200.0
 33
0.0
  0
SOLID
  5
2F6
  8
0
 62
     0
 10
-700.2999999999998
 20
-197.8833333333333
 30
0.0
 11
-700.2999999999998
 21
-202.1166666666667
 31
0.0
 12
-712.9999999999999
 22
-200.0
 32
0.0
 13
-712.9999999999999
 23
-200.0
 33
0.0
  0
TEXT
  5
2F7
  8
0
 62
     0
 10
-3418.430948722538
 20
-495.0400692930076
 30
0.0
 40
289.1745618319401
  1
THICKNESS_18
  7
TAHOMA
1001
ACADANNOTATIVE
1000
AnnotativeData
1002
{
1070
     1
1070
     0
1002
}
  0
POINT
  5
2F8
  8
DEFPOINTS
 62
     0
 10
0.0
 20
-181.8181818181818
 30
0.0
  0
POINT
  5
2F9
  8
DEFPOINTS
 62
     0
 10
-712.9999999999999
 20
-181.8181818181818
 30
0.0
  0
POINT
  5
2FA
  8
DEFPOINTS
 62
     0
 10
-712.9999999999999
 20
-200.0
 30
0.0
  0
ENDBLK
  5
2F0
  8
0
  0
ENDSEC
  0
SECTION
  2
ENTITIES
  0
INSERT
  5
2FB
  8
0
 62
     0
 66
     1
  2
THICKNESS_18
 10
0.0
 20
0.0
 30
0.0
  0
ATTRIB
  5
2FC
  8
0
 10
0.0
 20
0.0
 30
0.0
 40
0.2
  1
ABF_Flatten
  2
Skp_ComponentInstanceName
 70
     0
  0
SEQEND
  5
2FD
  8
0
 62
     0
  0
INSERT
  5
2FE
  8
0
 62
     0
 66
     1
  2
GROUP17_1
 10
0.0
 20
0.0
 30
0.0
  0
ATTRIB
  5
2FF
  8
0
 10
0.0
 20
0.0
 30
0.0
 40
1.0
  1
ABF_Flatten
  2
Skp_GroupInstanceName
 70
     0
  0
SEQEND
  5
300
  8
0
 62
     0
  0
ENDSEC
  0
EOF
