  0
SECTION
  2
HEADER
  9
$ACADVER
  1
AC1009
  9
$DWGCODEPAGE
  3
ansi_1252
  9
$INSBASE
 10
0.0
 20
0.0
 30
0.0
  9
$EXTMIN
 10
1.000000000000000E+20
 20
1.000000000000000E+20
 30
1.000000000000000E+20
  9
$EXTMAX
 10
-1.000000000000000E+20
 20
-1.000000000000000E+20
 30
-1.000000000000000E+20
  9
$LIMMIN
 10
0.0
 20
0.0
  9
$LIMMAX
 10
12.0
 20
9.0
  9
$ORTHOMODE
 70
     0
  9
$REGENMODE
 70
     1
  9
$FILLMODE
 70
     1
  9
$QTEXTMODE
 70
     0
  9
$MIRRTEXT
 70
     1
  9
$DRAGMODE
 70
     2
  9
$LTSCALE
 40
25.4
  9
$OSMODE
 70
    37
  9
$ATTMODE
 70
     1
  9
$TEXTSIZE
 40
0.2
  9
$TRACEWID
 40
0.05
  9
$TEXTSTYLE
  7
STANDARD
  9
$CLAYER
  8
0
  9
$CELTYPE
  6
BYLAYER
  9
$CECOLOR
 62
   256
  9
$DIMSCALE
 40
1.0
  9
$DIMASZ
 40
0.18
  9
$DIMEXO
 40
0.0625
  9
$DIMDLI
 40
0.38
  9
$DIMRND
 40
0.0
  9
$DIMDLE
 40
0.0
  9
$DIMEXE
 40
0.18
  9
$DIMTP
 40
0.0
  9
$DIMTM
 40
0.0
  9
$DIMTXT
 40
0.18
  9
$DIMCEN
 40
0.09
  9
$DIMTSZ
 40
0.0
  9
$DIMTOL
 70
     0
  9
$DIMLIM
 70
     0
  9
$DIMTIH
 70
     1
  9
$DIMTOH
 70
     1
  9
$DIMSE1
 70
     0
  9
$DIMSE2
 70
     0
  9
$DIMTAD
 70
     0
  9
$DIMZIN
 70
     0
  9
$DIMBLK
  1

  9
$DIMASO
 70
     1
  9
$DIMSHO
 70
     1
  9
$DIMPOST
  1

  9
$DIMAPOST
  1

  9
$DIMALT
 70
     0
  9
$DIMALTD
 70
     2
  9
$DIMALTF
 40
25.4
  9
$DIMLFAC
 40
1.0
  9
$DIMTOFL
 70
     0
  9
$DIMTVP
 40
0.0
  9
$DIMTIX
 70
     0
  9
$DIMSOXD
 70
     0
  9
$DIMSAH
 70
     0
  9
$DIMBLK1
  1

  9
$DIMBLK2
  1

  9
$DIMSTYLE
  2
STANDARD
  9
$DIMCLRD
 70
     0
  9
$DIMCLRE
 70
     0
  9
$DIMCLRT
 70
     0
  9
$DIMTFAC
 40
1.0
  9
$DIMGAP
 40
0.09
  9
$LUNITS
 70
     2
  9
$LUPREC
 70
     4
  9
$SKETCHINC
 40
0.1
  9
$FILLETRAD
 40
0.0
  9
$AUNITS
 70
     0
  9
$AUPREC
 70
     0
  9
$MENU
  1
.
  9
$ELEVATION
 40
0.0
  9
$PELEVATION
 40
0.0
  9
$THICKNESS
 40
0.0
  9
$LIMCHECK
 70
     0
  9
$CHAMFERA
 40
0.0
  9
$CHAMFERB
 40
0.0
  9
$SKPOLY
 70
     0
  9
$TDCREATE
 40
2460620.196770556
  9
$TDUPDATE
 40
2460620.196770706
  9
$TDINDWG
 40
0.0000000116
  9
$TDUSRTIMER
 40
0.0000000116
  9
$USRTIMER
 70
     1
  9
$ANGBASE
 50
0.0
  9
$ANGDIR
 70
     0
  9
$PDMODE
 70
     0
  9
$PDSIZE
 40
0.0
  9
$PLINEWID
 40
0.0
  9
$COORDS
 70
     1
  9
$SPLFRAME
 70
     0
  9
$SPLINETYPE
 70
     6
  9
$SPLINESEGS
 70
     8
  9
$ATTDIA
 70
     0
  9
$ATTREQ
 70
     1
  9
$HANDLING
 70
     1
  9
$HANDSEED
  5
1F4
  9
$SURFTAB1
 70
     6
  9
$SURFTAB2
 70
     6
  9
$SURFTYPE
 70
     6
  9
$SURFU
 70
     6
  9
$SURFV
 70
     6
  9
$UCSNAME
  2

  9
$UCSORG
 10
0.0
 20
0.0
 30
0.0
  9
$UCSXDIR
 10
1.0
 20
0.0
 30
0.0
  9
$UCSYDIR
 10
0.0
 20
1.0
 30
0.0
  9
$PUCSNAME
  2

  9
$PUCSORG
 10
0.0
 20
0.0
 30
0.0
  9
$PUCSXDIR
 10
1.0
 20
0.0
 30
0.0
  9
$PUCSYDIR
 10
0.0
 20
1.0
 30
0.0
  9
$USERI1
 70
     0
  9
$USERI2
 70
     0
  9
$USERI3
 70
     0
  9
$USERI4
 70
     0
  9
$USERI5
 70
     0
  9
$USERR1
 40
0.0
  9
$USERR2
 40
0.0
  9
$USERR3
 40
0.0
  9
$USERR4
 40
0.0
  9
$USERR5
 40
0.0
  9
$WORLDVIEW
 70
     1
  9
$SHADEDGE
 70
     3
  9
$SHADEDIF
 70
    70
  9
$TILEMODE
 70
     1
  9
$MAXACTVP
 70
    64
  9
$PLIMCHECK
 70
     0
  9
$PEXTMIN
 10
1.000000000000000E+20
 20
1.000000000000000E+20
 30
1.000000000000000E+20
  9
$PEXTMAX
 10
-1.000000000000000E+20
 20
-1.000000000000000E+20
 30
-1.000000000000000E+20
  9
$PLIMMIN
 10
0.0
 20
0.0
  9
$PLIMMAX
 10
12.0
 20
9.0
  9
$UNITMODE
 70
     0
  9
$VISRETAIN
 70
     1
  9
$PLINEGEN
 70
     0
  9
$PSLTSCALE
 70
     1
  0
ENDSEC
  0
SECTION
  2
TABLES
  0
TABLE
  2
VPORT
 70
     1
  0
VPORT
  2
*ACTIVE
 70
     0
 10
0.0
 20
0.0
 11
1.0
 21
1.0
 12
0.0
 22
0.0
 13
0.0
 23
0.0
 14
0.5
 24
0.5
 15
0.5
 25
0.5
 16
0.0
 26
0.0
 36
0.9999999999999999
 17
118.5310301140253
 27
121.4919868242247
 37
9.000000000000227
 40
533.1439897444263
 41
1.3333
 42
42.81760027191017
 43
-820.0583533923044
 44
24554.5416466077
 50
0.0
 51
0.0
 71
     1
 72
   100
 73
     1
 74
     3
 75
     0
 76
     0
 77
     0
 78
     0
  0
ENDTAB
  0
TABLE
  2
LTYPE
 70
     1
  0
LTYPE
  2
CONTINUOUS
 70
     0
  3
Solid line
 72
    65
 73
     0
 40
0.0
  0
ENDTAB
  0
TABLE
  2
LAYER
 70
     7
  0
LAYER
  2
0
 70
     0
 62
     7
  6
CONTINUOUS
  0
LAYER
  2
ABF_CUTTINGLINES
 70
     0
 62
    22
  6
CONTINUOUS
  0
LAYER
  2
ABF_LABEL
 70
     0
 62
   254
  6
CONTINUOUS
  0
LAYER
  2
D5_0_DEPTH8_0
 70
     0
 62
    36
  6
CONTINUOUS
  0
LAYER
  2
PAZ_DEPTH8_0
 70
     0
 62
    36
  6
CONTINUOUS
  0
LAYER
  2
D8_0_DEPTHF
 70
     0
 62
     8
  6
CONTINUOUS
  0
LAYER
  2
DEFPOINTS
 70
     0
 62
     7
  6
CONTINUOUS
  0
ENDTAB
  0
TABLE
  2
STYLE
 70
     2
  0
STYLE
  2
STANDARD
 70
     0
 40
0.0
 41
1.0
 50
0.0
 71
     0
 42
0.2
  3
txt
  4

  0
STYLE
  2
TAHOMA
 70
     0
 40
0.0
 41
1.0
 50
0.0
 71
     0
 42
0.2
  3

  4

  0
ENDTAB
  0
TABLE
  2
VIEW
 70
     0
  0
ENDTAB
  0
TABLE
  2
UCS
 70
     0
  0
ENDTAB
  0
TABLE
  2
APPID
 70
     3
  0
APPID
  2
ACAD
 70
     0
  0
APPID
  2
ACAD_MATERIAL_MAPPER
 70
     0
  0
APPID
  2
ACADANNOTATIVE
 70
     0
  0
ENDTAB
  0
TABLE
  2
DIMSTYLE
 70
     3
  0
DIMSTYLE
  2
STANDARD
 70
     0
  3

  4

  5

  6

  7

 40
1.0
 41
0.18
 42
0.0625
 43
0.38
 44
0.18
 45
0.0
 46
0.0
 47
0.0
 48
0.0
140
0.18
141
0.09
142
0.0
143
25.4
144
1.0
145
0.0
146
1.0
147
0.09
 71
     0
 72
     0
 73
     1
 74
     1
 75
     0
 76
     0
 77
     0
 78
     0
170
     0
171
     2
172
     0
173
     0
174
     0
175
     0
176
     0
177
     0
178
     0
  0
DIMSTYLE
  2
DIMSTYLE1
 70
     0
  3
mm
  4

  5

  6

  7

 40
1.0
 41
12.7
 42
12.7
 43
0.38
 44
12.7
 45
0.0
 46
0.0
 47
0.0
 48
0.0
140
131.4954409408193
141
0.09
142
0.0
143
25.4
144
1.0
145
0.0
146
1.0
147
2.54
 71
     0
 72
     0
 73
     1
 74
     1
 75
     0
 76
     0
 77
     4
 78
     0
170
     0
171
     2
172
     0
173
     0
174
     0
175
     0
176
     0
177
     0
178
     0
  0
DIMSTYLE
  2
DIMENSIONS
 70
     0
  3
mm
  4

  5
ARCHTICK
  6

  7

 40
1.0
 41
12.7
 42
12.7
 43
0.38
 44
12.7
 45
0.0
 46
0.0
 47
0.0
 48
0.0
140
25.4
141
0.09
142
0.0
143
25.4
144
1.0
145
0.0
146
1.0
147
2.54
 71
     0
 72
     0
 73
     1
 74
     1
 75
     0
 76
     0
 77
     0
 78
     0
170
     0
171
     2
172
     0
173
     0
174
     0
175
     0
176
     0
177
     0
178
     0
  0
ENDTAB
  0
ENDSEC
  0
SECTION
  2
BLOCKS
  0
BLOCK
  8
0
  2
$MODEL_SPACE
 70
     0
 10
0.0
 20
0.0
 30
0.0
  3
$MODEL_SPACE
  1

  0
ENDBLK
  5
21
  8
0
  0
BLOCK
 67
     1
  8
0
  2
$PAPER_SPACE
 70
     0
 10
0.0
 20
0.0
 30
0.0
  3
$PAPER_SPACE
  1

  0
ENDBLK
  5
1D
 67
     1
  8
0
  0
BLOCK
  8
0
  2
_ARCHTICK
 70
     0
 10
0.0
 20
0.0
 30
0.0
  3
_ARCHTICK
  1

  0
POLYLINE
  5
69
  8
0
  6
BYBLOCK
 62
     0
 66
     1
 10
0.0
 20
0.0
 30
0.0
 40
0.15
 41
0.15
  0
VERTEX
  5
1F0
  8
0
  6
BYBLOCK
 62
     0
 10
-0.5
 20
-0.5
 30
0.0
  0
VERTEX
  5
1F1
  8
0
  6
BYBLOCK
 62
     0
 10
0.5
 20
0.5
 30
0.0
  0
SEQEND
  5
1F3
  8
0
  6
BYBLOCK
 62
     0
  0
ENDBLK
  5
68
  8
0
  0
BLOCK
  8
0
  2
THICKNESS_18
 70
     0
 10
0.0
 20
0.0
 30
0.0
  3
THICKNESS_18
  1

  0
INSERT
  5
8E
  8
0
 62
     0
 66
     1
  2
_______2
 10
0.0
 20
0.0
 30
0.0
  0
ATTRIB
  5
8F
  8
0
 10
0.0
 20
0.0
 30
0.0
 40
1.0
  1
__1. \U+043F\U+0430\U+043D\U+0435\U+043B\U+044C
  2
Skp_GroupInstanceName
 70
     0
  0
SEQEND
  5
90
  8
0
 62
     0
  0
ENDBLK
  5
6C
  8
0
  0
BLOCK
  8
0
  2
GROUP10_1
 70
     0
 10
0.0
 20
0.0
 30
0.0
  3
GROUP10_1
  1

  0
LINE
  5
91
  8
ABF_LABEL
 62
     0
 10
-52.35600122873903
 20
12.6578802154859
 30
0.0
 11
-52.35600122873903
 21
-12.44600000000001
 31
0.0
  0
LINE
  5
92
  8
ABF_LABEL
 62
     0
 10
-55.27706355166026
 20
8.258894512229494
 30
0.0
 11
-59.25017037787292
 21
4.403792492919504
 31
0.0
  0
LINE
  5
93
  8
ABF_LABEL
 62
     0
 10
-52.35600122873903
 20
12.6578802154859
 30
0.0
 11
-55.27706355166026
 21
8.258894512229494
 31
0.0
  0
LINE
  5
94
  8
ABF_LABEL
 62
     0
 10
-59.25017037787291
 20
-12.44600000000002
 30
0.0
 11
-52.35600122873903
 21
-12.44600000000001
 31
0.0
  0
LINE
  5
95
  8
ABF_LABEL
 62
     0
 10
-52.35600122873903
 20
-12.44600000000001
 30
0.0
 11
-45.44162272557536
 21
-12.44600000000003
 31
0.0
  0
LINE
  5
96
  8
ABF_LABEL
 62
     0
 10
-2.789620689655171
 20
7.129517241379289
 30
0.0
 11
-4.436241379310365
 21
7.129517241379311
 31
0.0
  0
LINE
  5
97
  8
ABF_LABEL
 62
     0
 10
-4.436241379310365
 20
7.129517241379311
 30
0.0
 11
-4.436241379310365
 21
15.49400000000001
 31
0.0
  0
LINE
  5
98
  8
ABF_LABEL
 62
     0
 10
-4.436241379310365
 20
15.49400000000001
 30
0.0
 11
-8.86810344827587
 21
15.49400000000001
 31
0.0
  0
LINE
  5
99
  8
ABF_LABEL
 62
     0
 10
-8.86810344827587
 20
15.49400000000001
 30
0.0
 11
-8.86810344827587
 21
7.129517241379311
 31
0.0
  0
LINE
  5
9A
  8
ABF_LABEL
 62
     0
 10
-8.86810344827587
 20
7.129517241379311
 30
0.0
 11
-10.51472413793104
 21
7.129517241379311
 31
0.0
  0
LINE
  5
9B
  8
ABF_LABEL
 62
     0
 10
-10.51472413793104
 20
7.129517241379311
 30
0.0
 11
-10.51472413793104
 21
16.91289655172414
 31
0.0
  0
LINE
  5
9C
  8
ABF_LABEL
 62
     0
 10
-10.51472413793104
 20
16.91289655172414
 30
0.0
 11
-2.789620689655193
 21
16.91289655172412
 31
0.0
  0
LINE
  5
9D
  8
ABF_LABEL
 62
     0
 10
-2.789620689655193
 20
16.91289655172412
 30
0.0
 11
-2.789620689655171
 21
7.129517241379289
 31
0.0
  0
LINE
  5
9E
  8
ABF_LABEL
 62
     0
 10
5.058103448275861
 20
9.538137931034466
 30
0.0
 11
5.058103448275861
 21
12.25331034482758
 31
0.0
  0
LINE
  5
9F
  8
ABF_LABEL
 62
     0
 10
5.058103448275861
 20
12.25331034482758
 30
0.0
 11
3.573517241379319
 21
12.10879310344828
 31
0.0
  0
LINE
  5
A0
  8
ABF_LABEL
 62
     0
 10
3.573517241379319
 20
12.10879310344828
 30
0.0
 11
2.123965517241366
 21
11.85041379310344
 31
0.0
  0
LINE
  5
A1
  8
ABF_LABEL
 62
     0
 10
2.123965517241366
 20
11.85041379310344
 30
0.0
 11
1.037896551724121
 21
11.23293103448274
 31
0.0
  0
LINE
  5
A2
  8
ABF_LABEL
 62
     0
 10
1.037896551724121
 20
11.23293103448274
 30
0.0
 11
0.6087241379310284
 21
10.07241379310344
 31
0.0
  0
LINE
  5
A3
  8
ABF_LABEL
 62
     0
 10
0.6087241379310284
 20
10.07241379310344
 30
0.0
 11
1.081689655172407
 21
8.802413793103419
 31
0.0
  0
LINE
  5
A4
  8
ABF_LABEL
 62
     0
 10
1.081689655172407
 20
8.802413793103419
 30
0.0
 11
2.465551724137932
 21
8.373241379310304
 31
0.0
  0
LINE
  5
A5
  8
ABF_LABEL
 62
     0
 10
2.465551724137932
 20
8.373241379310304
 30
0.0
 11
3.875689655172415
 21
8.710448275862031
 31
0.0
  0
LINE
  5
A6
  8
ABF_LABEL
 62
     0
 10
3.875689655172415
 20
8.710448275862031
 30
0.0
 11
5.058103448275861
 21
9.538137931034466
 31
0.0
  0
LINE
  5
A7
  8
ABF_LABEL
 62
     0
 10
5.058103448275861
 20
8.17179310344827
 30
0.0
 11
4.519448275862054
 21
7.755758620689645
 31
0.0
  0
LINE
  5
A8
  8
ABF_LABEL
 62
     0
 10
4.519448275862054
 20
7.755758620689645
 30
0.0
 11
3.86693103448274
 21
7.33096551724139
 31
0.0
  0
LINE
  5
A9
  8
ABF_LABEL
 62
     0
 10
3.86693103448274
 20
7.33096551724139
 30
0.0
 11
3.021724137931045
 21
6.980620689655171
 31
0.0
  0
LINE
  5
AA
  8
ABF_LABEL
 62
     0
 10
3.021724137931045
 20
6.980620689655171
 30
0.0
 11
1.878724137931046
 21
6.857999999999966
 31
0.0
  0
LINE
  5
AB
  8
ABF_LABEL
 62
     0
 10
1.878724137931046
 20
6.857999999999966
 30
0.0
 11
0.7313448275861881
 21
7.085724137931003
 31
0.0
  0
LINE
  5
AC
  8
ABF_LABEL
 62
     0
 10
0.7313448275861881
 20
7.085724137931003
 30
0.0
 11
-0.2233448275862216
 21
7.725103448275849
 31
0.0
  0
LINE
  5
AD
  8
ABF_LABEL
 62
     0
 10
-0.2233448275862216
 20
7.725103448275849
 30
0.0
 11
-0.8539655172413704
 21
8.719206896551707
 31
0.0
  0
LINE
  5
AE
  8
ABF_LABEL
 62
     0
 10
-0.8539655172413704
 20
8.719206896551707
 30
0.0
 11
-1.090448275862082
 21
9.967310344827583
 31
0.0
  0
LINE
  5
AF
  8
ABF_LABEL
 62
     0
 10
-1.090448275862082
 20
9.967310344827583
 30
0.0
 11
-0.6612758620689669
 21
11.69713793103447
 31
0.0
  0
LINE
  5
B0
  8
ABF_LABEL
 62
     0
 10
-0.6612758620689669
 20
11.69713793103447
 30
0.0
 11
0.6963103448275776
 21
12.83137931034483
 31
0.0
  0
LINE
  5
B1
  8
ABF_LABEL
 62
     0
 10
0.6963103448275776
 20
12.83137931034483
 30
0.0
 11
2.64072413793103
 21
13.35251724137929
 31
0.0
  0
LINE
  5
B2
  8
ABF_LABEL
 62
     0
 10
2.64072413793103
 20
13.35251724137929
 30
0.0
 11
5.058103448275861
 21
13.56710344827586
 31
0.0
  0
LINE
  5
B3
  8
ABF_LABEL
 62
     0
 10
5.058103448275861
 20
13.56710344827586
 30
0.0
 11
5.058103448275861
 21
13.88241379310345
 31
0.0
  0
LINE
  5
B4
  8
ABF_LABEL
 62
     0
 10
5.058103448275861
 20
13.88241379310345
 30
0.0
 11
4.88293103448274
 21
14.81520689655171
 31
0.0
  0
LINE
  5
B5
  8
ABF_LABEL
 62
     0
 10
4.88293103448274
 20
14.81520689655171
 30
0.0
 11
4.392448275862057
 21
15.36262068965515
 31
0.0
  0
LINE
  5
B6
  8
ABF_LABEL
 62
     0
 10
4.392448275862057
 20
15.36262068965515
 30
0.0
 11
3.621689655172398
 21
15.62975862068966
 31
0.0
  0
LINE
  5
B7
  8
ABF_LABEL
 62
     0
 10
3.621689655172398
 20
15.62975862068966
 30
0.0
 11
2.684517241379293
 21
15.69544827586206
 31
0.0
  0
LINE
  5
B8
  8
ABF_LABEL
 62
     0
 10
2.684517241379293
 20
15.69544827586206
 30
0.0
 11
1.344448275862054
 21
15.52465517241378
 31
0.0
  0
LINE
  5
B9
  8
ABF_LABEL
 62
     0
 10
1.344448275862054
 20
15.52465517241378
 30
0.0
 11
-0.1970689655172636
 21
15.02979310344826
 31
0.0
  0
LINE
  5
BA
  8
ABF_LABEL
 62
     0
 10
-0.1970689655172636
 20
15.02979310344826
 30
0.0
 11
-0.2934137931034653
 21
15.02979310344826
 31
0.0
  0
LINE
  5
BB
  8
ABF_LABEL
 62
     0
 10
-0.2934137931034653
 20
15.02979310344826
 30
0.0
 11
-0.2934137931034653
 21
16.70268965517241
 31
0.0
  0
LINE
  5
BC
  8
ABF_LABEL
 62
     0
 10
-0.2934137931034653
 20
16.70268965517241
 30
0.0
 11
1.011620689655163
 21
16.99172413793102
 31
0.0
  0
LINE
  5
BD
  8
ABF_LABEL
 62
     0
 10
1.011620689655163
 20
16.99172413793102
 30
0.0
 11
2.693275862068946
 21
17.14937931034481
 31
0.0
  0
LINE
  5
BE
  8
ABF_LABEL
 62
     0
 10
2.693275862068946
 20
17.14937931034481
 30
0.0
 11
4.392448275862057
 21
16.99172413793102
 31
0.0
  0
LINE
  5
BF
  8
ABF_LABEL
 62
     0
 10
4.392448275862057
 20
16.99172413793102
 30
0.0
 11
5.636172413793116
 21
16.42241379310344
 31
0.0
  0
LINE
  5
C0
  8
ABF_LABEL
 62
     0
 10
5.636172413793116
 20
16.42241379310344
 30
0.0
 11
6.433206896551688
 21
15.38013793103445
 31
0.0
  0
LINE
  5
C1
  8
ABF_LABEL
 62
     0
 10
6.433206896551688
 20
15.38013793103445
 30
0.0
 11
6.695965517241358
 21
13.82110344827583
 31
0.0
  0
LINE
  5
C2
  8
ABF_LABEL
 62
     0
 10
6.695965517241358
 20
13.82110344827583
 30
0.0
 11
6.695965517241381
 21
7.129517241379311
 31
0.0
  0
LINE
  5
C3
  8
ABF_LABEL
 62
     0
 10
6.695965517241381
 20
7.129517241379311
 30
0.0
 11
5.058103448275861
 21
7.129517241379311
 31
0.0
  0
LINE
  5
C4
  8
ABF_LABEL
 62
     0
 10
5.058103448275861
 20
7.129517241379311
 30
0.0
 11
5.058103448275861
 21
8.17179310344827
 31
0.0
  0
LINE
  5
C5
  8
ABF_LABEL
 62
     0
 10
16.73334482758621
 20
7.129517241379311
 30
0.0
 11
15.08672413793104
 21
7.129517241379311
 31
0.0
  0
LINE
  5
C6
  8
ABF_LABEL
 62
     0
 10
15.08672413793104
 20
7.129517241379311
 30
0.0
 11
15.08672413793104
 21
11.53510344827586
 31
0.0
  0
LINE
  5
C7
  8
ABF_LABEL
 62
     0
 10
15.08672413793104
 20
11.53510344827586
 30
0.0
 11
10.65486206896551
 21
11.53510344827586
 31
0.0
  0
LINE
  5
C8
  8
ABF_LABEL
 62
     0
 10
10.65486206896551
 20
11.53510344827586
 30
0.0
 11
10.65486206896551
 21
7.129517241379311
 31
0.0
  0
LINE
  5
C9
  8
ABF_LABEL
 62
     0
 10
10.65486206896551
 20
7.129517241379311
 30
0.0
 11
9.008241379310357
 21
7.129517241379311
 31
0.0
  0
LINE
  5
CA
  8
ABF_LABEL
 62
     0
 10
9.008241379310357
 20
7.129517241379311
 30
0.0
 11
9.008241379310336
 21
16.91289655172414
 31
0.0
  0
LINE
  5
CB
  8
ABF_LABEL
 62
     0
 10
9.008241379310336
 20
16.91289655172414
 30
0.0
 11
10.65486206896551
 21
16.91289655172414
 31
0.0
  0
LINE
  5
CC
  8
ABF_LABEL
 62
     0
 10
10.65486206896551
 20
16.91289655172414
 30
0.0
 11
10.65486206896551
 21
12.95399999999999
 31
0.0
  0
LINE
  5
CD
  8
ABF_LABEL
 62
     0
 10
10.65486206896551
 20
12.95399999999999
 30
0.0
 11
15.08672413793104
 21
12.95399999999999
 31
0.0
  0
LINE
  5
CE
  8
ABF_LABEL
 62
     0
 10
15.08672413793104
 20
12.95399999999999
 30
0.0
 11
15.08672413793104
 21
16.91289655172414
 31
0.0
  0
LINE
  5
CF
  8
ABF_LABEL
 62
     0
 10
15.08672413793104
 20
16.91289655172414
 30
0.0
 11
16.73334482758618
 21
16.91289655172414
 31
0.0
  0
LINE
  5
D0
  8
ABF_LABEL
 62
     0
 10
16.73334482758618
 20
16.91289655172414
 30
0.0
 11
16.73334482758621
 21
7.129517241379311
 31
0.0
  0
LINE
  5
D1
  8
ABF_LABEL
 62
     0
 10
23.35486206896551
 20
6.901793103448274
 30
0.0
 11
19.72441379310346
 21
8.219965517241372
 31
0.0
  0
LINE
  5
D2
  8
ABF_LABEL
 62
     0
 10
19.72441379310346
 20
8.219965517241372
 30
0.0
 11
18.43251724137932
 21
11.96427586206897
 31
0.0
  0
LINE
  5
D3
  8
ABF_LABEL
 62
     0
 10
18.43251724137932
 20
11.96427586206897
 30
0.0
 11
19.68500000000001
 21
15.76989655172414
 31
0.0
  0
LINE
  5
D4
  8
ABF_LABEL
 62
     0
 10
19.68500000000001
 20
15.76989655172414
 30
0.0
 11
22.96072413793105
 21
17.18441379310347
 31
0.0
  0
LINE
  5
D5
  8
ABF_LABEL
 62
     0
 10
22.96072413793105
 20
17.18441379310347
 30
0.0
 11
24.57231034482759
 21
16.9216551724138
 31
0.0
  0
LINE
  5
D6
  8
ABF_LABEL
 62
     0
 10
24.57231034482759
 20
16.9216551724138
 30
0.0
 11
25.79851724137932
 21
16.09834482758622
 31
0.0
  0
LINE
  5
D7
  8
ABF_LABEL
 62
     0
 10
25.79851724137932
 20
16.09834482758622
 30
0.0
 11
26.60431034482759
 21
14.72762068965519
 31
0.0
  0
LINE
  5
D8
  8
ABF_LABEL
 62
     0
 10
26.60431034482759
 20
14.72762068965519
 30
0.0
 11
26.88458620689656
 21
12.74379310344828
 31
0.0
  0
LINE
  5
D9
  8
ABF_LABEL
 62
     0
 10
26.88458620689656
 20
12.74379310344828
 30
0.0
 11
26.88458620689656
 21
11.85041379310344
 31
0.0
  0
LINE
  5
DA
  8
ABF_LABEL
 62
     0
 10
26.88458620689656
 20
11.85041379310344
 30
0.0
 11
20.10541379310343
 21
11.85041379310344
 31
0.0
  0
LINE
  5
DB
  8
ABF_LABEL
 62
     0
 10
20.10541379310343
 20
11.85041379310344
 30
0.0
 11
20.96375862068966
 21
9.24034482758621
 31
0.0
  0
LINE
  5
DC
  8
ABF_LABEL
 62
     0
 10
20.96375862068966
 20
9.24034482758621
 30
0.0
 11
23.3373448275862
 21
8.338206896551737
 31
0.0
  0
LINE
  5
DD
  8
ABF_LABEL
 62
     0
 10
23.3373448275862
 20
8.338206896551737
 30
0.0
 11
24.4015172413793
 21
8.460827586206898
 31
0.0
  0
LINE
  5
DE
  8
ABF_LABEL
 62
     0
 10
24.4015172413793
 20
8.460827586206898
 30
0.0
 11
25.34306896551724
 21
8.776137931034484
 31
0.0
  0
LINE
  5
DF
  8
ABF_LABEL
 62
     0
 10
25.34306896551724
 20
8.776137931034484
 30
0.0
 11
26.09631034482758
 21
9.16589655172415
 31
0.0
  0
LINE
  5
E0
  8
ABF_LABEL
 62
     0
 10
26.09631034482758
 20
9.16589655172415
 30
0.0
 11
26.60431034482759
 21
9.520620689655207
 31
0.0
  0
LINE
  5
E1
  8
ABF_LABEL
 62
     0
 10
26.60431034482759
 20
9.520620689655207
 30
0.0
 11
26.70065517241379
 21
9.520620689655207
 31
0.0
  0
LINE
  5
E2
  8
ABF_LABEL
 62
     0
 10
26.70065517241379
 20
9.520620689655207
 30
0.0
 11
26.70065517241379
 21
7.725103448275872
 31
0.0
  0
LINE
  5
E3
  8
ABF_LABEL
 62
     0
 10
26.70065517241379
 20
7.725103448275872
 30
0.0
 11
25.98244827586205
 21
7.440448275862082
 31
0.0
  0
LINE
  5
E4
  8
ABF_LABEL
 62
     0
 10
25.98244827586205
 20
7.440448275862082
 30
0.0
 11
25.21168965517239
 21
7.173310344827597
 31
0.0
  0
LINE
  5
E5
  8
ABF_LABEL
 62
     0
 10
25.21168965517239
 20
7.173310344827597
 30
0.0
 11
24.34020689655171
 21
6.971862068965541
 31
0.0
  0
LINE
  5
E6
  8
ABF_LABEL
 62
     0
 10
24.34020689655171
 20
6.971862068965541
 30
0.0
 11
23.35486206896551
 21
6.901793103448274
 31
0.0
  0
LINE
  5
E7
  8
ABF_LABEL
 62
     0
 10
25.28175862068965
 20
13.11165517241381
 30
0.0
 11
25.12410344827586
 21
14.25903448275862
 31
0.0
  0
LINE
  5
E8
  8
ABF_LABEL
 62
     0
 10
25.12410344827586
 20
14.25903448275862
 30
0.0
 11
24.72120689655173
 21
15.07358620689657
 31
0.0
  0
LINE
  5
E9
  8
ABF_LABEL
 62
     0
 10
24.72120689655173
 20
15.07358620689657
 30
0.0
 11
23.98110344827586
 21
15.63413793103452
 31
0.0
  0
LINE
  5
EA
  8
ABF_LABEL
 62
     0
 10
23.98110344827586
 20
15.63413793103452
 30
0.0
 11
22.8643793103448
 21
15.8268275862069
 31
0.0
  0
LINE
  5
EB
  8
ABF_LABEL
 62
     0
 10
22.8643793103448
 20
15.8268275862069
 30
0.0
 11
21.74765517241378
 21
15.62975862068966
 31
0.0
  0
LINE
  5
EC
  8
ABF_LABEL
 62
     0
 10
21.74765517241378
 20
15.62975862068966
 30
0.0
 11
20.91120689655169
 21
15.05606896551724
 31
0.0
  0
LINE
  5
ED
  8
ABF_LABEL
 62
     0
 10
20.91120689655169
 20
15.05606896551724
 30
0.0
 11
20.35065517241377
 21
14.20210344827587
 31
0.0
  0
LINE
  5
EE
  8
ABF_LABEL
 62
     0
 10
20.35065517241377
 20
14.20210344827587
 30
0.0
 11
20.10541379310343
 21
13.11165517241379
 31
0.0
  0
LINE
  5
EF
  8
ABF_LABEL
 62
     0
 10
20.10541379310343
 20
13.11165517241379
 30
0.0
 11
25.28175862068965
 21
13.11165517241381
 31
0.0
  0
LINE
  5
F0
  8
ABF_LABEL
 62
     0
 10
36.12493103448275
 20
7.129517241379311
 30
0.0
 11
34.47831034482756
 21
7.129517241379311
 31
0.0
  0
LINE
  5
F1
  8
ABF_LABEL
 62
     0
 10
34.47831034482756
 20
7.129517241379311
 30
0.0
 11
34.47831034482756
 21
15.52903448275862
 31
0.0
  0
LINE
  5
F2
  8
ABF_LABEL
 62
     0
 10
34.47831034482756
 20
15.52903448275862
 30
0.0
 11
31.11500000000001
 21
15.52903448275862
 31
0.0
  0
LINE
  5
F3
  8
ABF_LABEL
 62
     0
 10
31.11500000000001
 20
15.52903448275862
 30
0.0
 11
31.06244827586207
 21
14.1320344827586
 31
0.0
  0
LINE
  5
F4
  8
ABF_LABEL
 62
     0
 10
31.06244827586207
 20
14.1320344827586
 30
0.0
 11
31.00989655172411
 21
12.91896551724134
 31
0.0
  0
LINE
  5
F5
  8
ABF_LABEL
 62
     0
 10
31.00989655172411
 20
12.91896551724134
 30
0.0
 11
30.83034482758618
 21
10.61544827586204
 31
0.0
  0
LINE
  5
F6
  8
ABF_LABEL
 62
     0
 10
30.83034482758618
 20
10.61544827586204
 30
0.0
 11
30.5106551724138
 21
9.126482758620702
 31
0.0
  0
LINE
  5
F7
  8
ABF_LABEL
 62
     0
 10
30.5106551724138
 20
9.126482758620702
 30
0.0
 11
30.0858620689655
 21
8.224344827586231
 31
0.0
  0
LINE
  5
F8
  8
ABF_LABEL
 62
     0
 10
30.0858620689655
 20
8.224344827586231
 30
0.0
 11
29.56472413793102
 21
7.637517241379346
 31
0.0
  0
LINE
  5
F9
  8
ABF_LABEL
 62
     0
 10
29.56472413793102
 20
7.637517241379346
 30
0.0
 11
28.92534482758622
 21
7.243379310344841
 31
0.0
  0
LINE
  5
FA
  8
ABF_LABEL
 62
     0
 10
28.92534482758622
 20
7.243379310344841
 30
0.0
 11
28.15458620689656
 21
7.112000000000029
 31
0.0
  0
LINE
  5
FB
  8
ABF_LABEL
 62
     0
 10
28.15458620689656
 20
7.112000000000029
 30
0.0
 11
27.79548275862066
 21
7.120758620689658
 31
0.0
  0
LINE
  5
FC
  8
ABF_LABEL
 62
     0
 10
27.79548275862066
 20
7.120758620689658
 30
0.0
 11
27.48893103448275
 21
7.129517241379334
 31
0.0
  0
LINE
  5
FD
  8
ABF_LABEL
 62
     0
 10
27.48893103448275
 20
7.129517241379334
 30
0.0
 11
27.48893103448275
 21
8.565931034482775
 31
0.0
  0
LINE
  5
FE
  8
ABF_LABEL
 62
     0
 10
27.48893103448275
 20
8.565931034482775
 30
0.0
 11
27.5765172413793
 21
8.565931034482775
 31
0.0
  0
LINE
  5
FF
  8
ABF_LABEL
 62
     0
 10
27.5765172413793
 20
8.565931034482775
 30
0.0
 11
27.7035172413793
 21
8.557172413793145
 31
0.0
  0
LINE
  5
100
  8
ABF_LABEL
 62
     0
 10
27.7035172413793
 20
8.557172413793145
 30
0.0
 11
27.85679310344825
 21
8.54841379310347
 31
0.0
  0
LINE
  5
101
  8
ABF_LABEL
 62
     0
 10
27.85679310344825
 20
8.54841379310347
 30
0.0
 11
28.26844827586204
 21
8.60972413793106
 31
0.0
  0
LINE
  5
102
  8
ABF_LABEL
 62
     0
 10
28.26844827586204
 20
8.60972413793106
 30
0.0
 11
28.62755172413791
 21
8.837448275862075
 31
0.0
  0
LINE
  5
103
  8
ABF_LABEL
 62
     0
 10
28.62755172413791
 20
8.837448275862075
 30
0.0
 11
29.26693103448276
 21
10.33955172413797
 31
0.0
  0
LINE
  5
104
  8
ABF_LABEL
 62
     0
 10
29.26693103448276
 20
10.33955172413797
 30
0.0
 11
29.55596551724136
 21
13.33937931034485
 31
0.0
  0
LINE
  5
105
  8
ABF_LABEL
 62
     0
 10
29.55596551724136
 20
13.33937931034485
 30
0.0
 11
29.62165517241377
 21
15.03855172413793
 31
0.0
  0
LINE
  5
106
  8
ABF_LABEL
 62
     0
 10
29.62165517241377
 20
15.03855172413793
 30
0.0
 11
29.67858620689655
 21
16.91289655172414
 31
0.0
  0
LINE
  5
107
  8
ABF_LABEL
 62
     0
 10
29.67858620689655
 20
16.91289655172414
 30
0.0
 11
36.12493103448275
 21
16.91289655172412
 31
0.0
  0
LINE
  5
108
  8
ABF_LABEL
 62
     0
 10
36.12493103448275
 20
16.91289655172412
 30
0.0
 11
36.12493103448275
 21
7.129517241379311
 31
0.0
  0
LINE
  5
109
  8
ABF_LABEL
 62
     0
 10
45.91706896551723
 20
10.15999999999999
 30
0.0
 11
45.63241379310345
 21
8.872482758620663
 31
0.0
  0
LINE
  5
10A
  8
ABF_LABEL
 62
     0
 10
45.63241379310345
 20
8.872482758620663
 30
0.0
 11
44.85727586206897
 21
7.935310344827581
 31
0.0
  0
LINE
  5
10B
  8
ABF_LABEL
 62
     0
 10
44.85727586206897
 20
7.935310344827581
 30
0.0
 11
43.62231034482761
 21
7.313448275862062
 31
0.0
  0
LINE
  5
10C
  8
ABF_LABEL
 62
     0
 10
43.62231034482761
 20
7.313448275862062
 30
0.0
 11
41.93189655172413
 21
7.129517241379311
 31
0.0
  0
LINE
  5
10D
  8
ABF_LABEL
 62
     0
 10
41.93189655172413
 20
7.129517241379311
 30
0.0
 11
38.50727586206897
 21
7.129517241379311
 31
0.0
  0
LINE
  5
10E
  8
ABF_LABEL
 62
     0
 10
38.50727586206897
 20
7.129517241379311
 30
0.0
 11
38.50727586206894
 21
16.91289655172412
 31
0.0
  0
LINE
  5
10F
  8
ABF_LABEL
 62
     0
 10
38.50727586206894
 20
16.91289655172412
 30
0.0
 11
40.1538965517241
 21
16.91289655172412
 31
0.0
  0
LINE
  5
110
  8
ABF_LABEL
 62
     0
 10
40.1538965517241
 20
16.91289655172412
 30
0.0
 11
40.15389655172412
 21
13.10289655172411
 31
0.0
  0
LINE
  5
111
  8
ABF_LABEL
 62
     0
 10
40.15389655172412
 20
13.10289655172411
 30
0.0
 11
41.97568965517239
 21
13.10289655172411
 31
0.0
  0
LINE
  5
112
  8
ABF_LABEL
 62
     0
 10
41.97568965517239
 20
13.10289655172411
 30
0.0
 11
43.68799999999999
 21
12.9890344827586
 31
0.0
  0
LINE
  5
113
  8
ABF_LABEL
 62
     0
 10
43.68799999999999
 20
12.9890344827586
 30
0.0
 11
44.90106896551723
 21
12.42848275862068
 31
0.0
  0
LINE
  5
114
  8
ABF_LABEL
 62
     0
 10
44.90106896551723
 20
12.42848275862068
 30
0.0
 11
45.66306896551724
 21
11.46503448275861
 31
0.0
  0
LINE
  5
115
  8
ABF_LABEL
 62
     0
 10
45.66306896551724
 20
11.46503448275861
 30
0.0
 11
45.91706896551723
 21
10.15999999999999
 31
0.0
  0
LINE
  5
116
  8
ABF_LABEL
 62
     0
 10
44.21789655172412
 20
10.13372413793103
 30
0.0
 11
44.06462068965516
 21
10.91762068965518
 31
0.0
  0
LINE
  5
117
  8
ABF_LABEL
 62
     0
 10
44.06462068965516
 20
10.91762068965518
 30
0.0
 11
43.56100000000001
 21
11.46503448275861
 31
0.0
  0
LINE
  5
118
  8
ABF_LABEL
 62
     0
 10
43.56100000000001
 20
11.46503448275861
 30
0.0
 11
42.7245517241379
 21
11.72779310344826
 31
0.0
  0
LINE
  5
119
  8
ABF_LABEL
 62
     0
 10
42.7245517241379
 20
11.72779310344826
 30
0.0
 11
41.38010344827585
 21
11.77158620689655
 31
0.0
  0
LINE
  5
11A
  8
ABF_LABEL
 62
     0
 10
41.38010344827585
 20
11.77158620689655
 30
0.0
 11
40.15389655172412
 21
11.77158620689653
 31
0.0
  0
LINE
  5
11B
  8
ABF_LABEL
 62
     0
 10
40.15389655172412
 20
11.77158620689653
 30
0.0
 11
40.15389655172412
 21
8.443310344827593
 31
0.0
  0
LINE
  5
11C
  8
ABF_LABEL
 62
     0
 10
40.15389655172412
 20
8.443310344827593
 30
0.0
 11
41.34506896551724
 21
8.443310344827593
 31
0.0
  0
LINE
  5
11D
  8
ABF_LABEL
 62
     0
 10
41.34506896551724
 20
8.443310344827593
 30
0.0
 11
42.70265517241378
 21
8.517758620689651
 31
0.0
  0
LINE
  5
11E
  8
ABF_LABEL
 62
     0
 10
42.70265517241378
 20
8.517758620689651
 30
0.0
 11
43.53472413793104
 21
8.802413793103442
 31
0.0
  0
LINE
  5
11F
  8
ABF_LABEL
 62
     0
 10
43.53472413793104
 20
8.802413793103442
 30
0.0
 11
44.05586206896552
 21
9.341068965517248
 31
0.0
  0
LINE
  5
120
  8
ABF_LABEL
 62
     0
 10
44.05586206896552
 20
9.341068965517248
 30
0.0
 11
44.21789655172412
 21
10.13372413793103
 31
0.0
  0
LINE
  5
121
  8
ABF_LABEL
 62
     0
 10
11.60898198938369
 20
-10.57317554330826
 30
0.0
 11
13.00575780248641
 21
-13.716
 31
0.0
  0
LINE
  5
122
  8
ABF_LABEL
 62
     0
 10
8.945599561691298
 20
-4.58041542625428
 30
0.0
 11
11.60898198938369
 21
-10.57317554330826
 31
0.0
  0
LINE
  5
123
  8
ABF_LABEL
 62
     0
 10
5.207446859836574
 20
-13.71600000000001
 30
0.0
 11
6.493446519136412
 21
-10.57317554330827
 31
0.0
  0
LINE
  5
124
  8
ABF_LABEL
 62
     0
 10
6.493446519136412
 20
-10.57317554330827
 30
0.0
 11
8.945599561691298
 21
-4.58041542625428
 31
0.0
  0
LINE
  5
125
  8
ABF_LABEL
 62
     0
 10
6.493446519136412
 20
-10.57317554330827
 30
0.0
 11
11.60898198938369
 21
-10.57317554330826
 31
0.0
  0
LINE
  5
126
  8
ABF_LABEL
 62
     0
 10
20.286461288929
 20
-6.83563811397553
 30
0.0
 11
19.50937814950942
 21
-5.3839256105423
 31
0.0
  0
LINE
  5
127
  8
ABF_LABEL
 62
     0
 10
20.03659463644027
 20
-9.902114881038663
 30
0.0
 11
20.74415319204325
 21
-11.59471429800987
 31
0.0
  0
LINE
  5
128
  8
ABF_LABEL
 62
     0
 10
19.50937814950942
 20
-5.3839256105423
 30
0.0
 11
17.95535781621934
 21
-4.876400266647335
 31
0.0
  0
LINE
  5
129
  8
ABF_LABEL
 62
     0
 10
14.52975780248649
 20
-4.876400266647346
 30
0.0
 11
17.95535781621934
 21
-4.876400266647335
 31
0.0
  0
LINE
  5
12A
  8
ABF_LABEL
 62
     0
 10
17.95535781621932
 20
-8.978900884151466
 30
0.0
 11
19.55097808122633
 21
-8.251021076202402
 31
0.0
  0
LINE
  5
12B
  8
ABF_LABEL
 62
     0
 10
17.95535781621932
 20
-13.716
 30
0.0
 11
19.75897834539406
 21
-13.35673622018099
 31
0.0
  0
LINE
  5
12C
  8
ABF_LABEL
 62
     0
 10
14.52975780248642
 20
-13.716
 30
0.0
 11
17.95535781621932
 21
-13.716
 31
0.0
  0
LINE
  5
12D
  8
ABF_LABEL
 62
     0
 10
14.52975780248642
 20
-8.978900884151466
 30
0.0
 11
14.52975780248642
 21
-13.716
 31
0.0
  0
LINE
  5
12E
  8
ABF_LABEL
 62
     0
 10
14.52975780248642
 20
-8.978900884151466
 30
0.0
 11
17.95535781621932
 21
-8.978900884151466
 31
0.0
  0
LINE
  5
12F
  8
ABF_LABEL
 62
     0
 10
14.52975780248649
 20
-4.876400266647346
 30
0.0
 11
14.52975780248642
 21
-8.978900884151466
 31
0.0
  0
LINE
  5
130
  8
ABF_LABEL
 62
     0
 10
17.95535781621932
 20
-8.978900884151466
 30
0.0
 11
20.03659463644027
 21
-9.902114881038663
 31
0.0
  0
LINE
  5
131
  8
ABF_LABEL
 62
     0
 10
20.74415319204325
 20
-11.59471429800987
 30
0.0
 11
19.75897834539406
 21
-13.35673622018099
 31
0.0
  0
LINE
  5
132
  8
ABF_LABEL
 62
     0
 10
19.55097808122633
 20
-8.251021076202402
 30
0.0
 11
20.286461288929
 21
-6.83563811397553
 31
0.0
  0
LINE
  5
133
  8
ABF_LABEL
 62
     0
 10
22.26815319204328
 20
-8.974543410301223
 30
0.0
 11
27.08615307474134
 21
-8.97454341030121
 31
0.0
  0
LINE
  5
134
  8
ABF_LABEL
 62
     0
 10
22.26815319204333
 20
-4.787599969863913
 30
0.0
 11
22.26815319204328
 21
-8.974543410301223
 31
0.0
  0
LINE
  5
135
  8
ABF_LABEL
 62
     0
 10
22.26815319204333
 20
-4.787599969863913
 30
0.0
 11
27.81255314016344
 21
-4.787599969863901
 31
0.0
  0
LINE
  5
136
  8
ABF_LABEL
 62
     0
 10
22.26815319204328
 20
-8.974543410301223
 30
0.0
 11
22.26815319204328
 21
-13.71600000000002
 31
0.0
  0
LINE
  5
137
  8
ABF_LABEL
 62
     0
 10
-26.94589655172418
 20
0.0
 30
0.0
 11
59.96589655172415
 21
0.0
 31
0.0
  0
POLYLINE
  5
138
  8
ABF_LABEL
 62
     0
 10
0.0
 20
0.0
 30
0.0
 66
     1
 70
     9
  0
VERTEX
  5
139
  8
ABF_LABEL
 62
     0
 10
-26.94589655172418
 20
0.0
 30
0.0
 70
    32
  0
VERTEX
  5
13A
  8
ABF_LABEL
 62
     0
 10
-52.34589655172414
 20
-25.39999999999999
 30
0.0
 70
    32
  0
VERTEX
  5
13B
  8
ABF_LABEL
 62
     0
 10
-77.74589655172416
 20
0.0
 30
0.0
 70
    32
  0
VERTEX
  5
13C
  8
ABF_LABEL
 62
     0
 10
-52.34589655172414
 20
25.4
 30
0.0
 70
    32
  0
VERTEX
  5
13D
  8
ABF_LABEL
 62
     0
 10
-26.94589655172418
 20
0.0
 30
0.0
 70
    32
  0
SEQEND
  5
13E
  8
ABF_LABEL
 62
     0
  0
POLYLINE
  5
13F
  8
ABF_LABEL
 62
     0
 10
0.0
 20
0.0
 30
0.0
 66
     1
 70
     9
  0
VERTEX
  5
140
  8
ABF_LABEL
 62
     0
 10
59.96589655172413
 20
17.78
 30
0.0
 70
    32
  0
VERTEX
  5
141
  8
ABF_LABEL
 62
     0
 10
77.74589655172413
 20
-0.0000000000000113
 30
0.0
 70
    32
  0
VERTEX
  5
142
  8
ABF_LABEL
 62
     0
 10
59.96589655172415
 20
-17.77999999999999
 30
0.0
 70
    32
  0
VERTEX
  5
143
  8
ABF_LABEL
 62
     0
 10
59.96589655172413
 20
17.78
 30
0.0
 70
    32
  0
SEQEND
  5
144
  8
ABF_LABEL
 62
     0
  0
ENDBLK
  5
6F
  8
0
  0
BLOCK
  8
0
  2
GROUP6_1
 70
     0
 10
0.0
 20
0.0
 30
0.0
  3
GROUP6_1
  1

  0
POLYLINE
  5
146
  8
PAZ_DEPTH8_0
 62
     0
 66
     1
 10
0.0
 20
0.0
 30
0.0
 70
    64
 71
     4
 72
     2
1001
ACAD_MATERIAL_MAPPER
1070
     1
1070
     1
1070
     1
1011
0.0
1021
0.0
1031
0.0
1021
0.0
1031
0.0
1011
-25.4
1021
0.0
1031
0.0
1021
0.0
1031
0.0
1011
0.0
1021
25.4
1031
0.0
1021
25.4
1031
0.0
1011
0.0
1021
0.0
1031
1.0
1021
0.0
1031
1.0
  0
VERTEX
  5
147
  8
PAZ_DEPTH8_0
 62
     0
 10
299.9999999999999
 20
4.000000000000001
 30
0.0
 70
   192
  0
VERTEX
  5
148
  8
PAZ_DEPTH8_0
 62
     0
 10
0.0
 20
0.0
 30
0.0
 70
   192
  0
VERTEX
  5
149
  8
PAZ_DEPTH8_0
 62
     0
 10
0.0
 20
4.000000000000001
 30
0.0
 70
   192
  0
VERTEX
  5
14A
  8
PAZ_DEPTH8_0
 62
     0
 10
299.9999999999999
 20
0.0
 30
0.0
 70
   192
  0
VERTEX
  5
14B
  8
PAZ_DEPTH8_0
 62
     0
 10
0.0
 20
0.0
 30
0.0
 70
   128
 71
    -1
 72
     2
 73
     3
  0
VERTEX
  5
14C
  8
PAZ_DEPTH8_0
 62
     0
 10
0.0
 20
0.0
 30
0.0
 70
   128
 71
    -2
 72
     1
 73
     4
  0
SEQEND
  5
14D
  8
PAZ_DEPTH8_0
 62
     0
  0
LINE
  5
14E
  8
PAZ_DEPTH8_0
 62
     0
 10
0.0
 20
0.0
 30
0.0
 11
299.9999999999999
 21
0.0
 31
0.0
  0
LINE
  5
14F
  8
PAZ_DEPTH8_0
 62
     0
 10
0.0
 20
4.000000000000001
 30
0.0
 11
0.0
 21
0.0
 31
0.0
  0
LINE
  5
150
  8
PAZ_DEPTH8_0
 62
     0
 10
299.9999999999999
 20
4.000000000000001
 30
0.0
 11
0.0
 21
4.000000000000001
 31
0.0
  0
LINE
  5
151
  8
PAZ_DEPTH8_0
 62
     0
 10
299.9999999999999
 20
0.0
 30
0.0
 11
299.9999999999999
 21
4.000000000000001
 31
0.0
  0
ENDBLK
  5
72
  8
0
  0
BLOCK
  8
0
  2
GROUP7_1
 70
     0
 10
0.0
 20
0.0
 30
0.0
  3
GROUP7_1
  1

  0
POLYLINE
  5
152
  8
PAZ_DEPTH8_0
 62
     0
 66
     1
 10
0.0
 20
0.0
 30
0.0
 70
    64
 71
     4
 72
     2
1001
ACAD_MATERIAL_MAPPER
1070
     1
1070
     1
1070
     1
1011
0.0
1021
0.0
1031
0.0
1021
0.0
1031
0.0
1011
-25.4
1021
0.0
1031
0.0
1021
0.0
1031
0.0
1011
0.0
1021
25.4
1031
0.0
1021
25.4
1031
0.0
1011
0.0
1021
0.0
1031
1.0
1021
0.0
1031
1.0
  0
VERTEX
  5
153
  8
PAZ_DEPTH8_0
 62
     0
 10
0.0
 20
400.0
 30
0.0
 70
   192
  0
VERTEX
  5
154
  8
PAZ_DEPTH8_0
 62
     0
 10
-3.999999999999992
 20
0.0
 30
0.0
 70
   192
  0
VERTEX
  5
155
  8
PAZ_DEPTH8_0
 62
     0
 10
-3.999999999999992
 20
400.0
 30
0.0
 70
   192
  0
VERTEX
  5
156
  8
PAZ_DEPTH8_0
 62
     0
 10
0.0
 20
0.0
 30
0.0
 70
   192
  0
VERTEX
  5
157
  8
PAZ_DEPTH8_0
 62
     0
 10
0.0
 20
0.0
 30
0.0
 70
   128
 71
    -1
 72
     2
 73
     3
  0
VERTEX
  5
158
  8
PAZ_DEPTH8_0
 62
     0
 10
0.0
 20
0.0
 30
0.0
 70
   128
 71
    -2
 72
     1
 73
     4
  0
SEQEND
  5
159
  8
PAZ_DEPTH8_0
 62
     0
  0
LINE
  5
15A
  8
PAZ_DEPTH8_0
 62
     0
 10
0.0
 20
0.0
 30
0.0
 11
0.0
 21
400.0
 31
0.0
  0
LINE
  5
15B
  8
PAZ_DEPTH8_0
 62
     0
 10
-3.999999999999992
 20
0.0
 30
0.0
 11
0.0
 21
0.0
 31
0.0
  0
LINE
  5
15C
  8
PAZ_DEPTH8_0
 62
     0
 10
-3.999999999999992
 20
400.0
 30
0.0
 11
-3.999999999999992
 21
0.0
 31
0.0
  0
LINE
  5
15D
  8
PAZ_DEPTH8_0
 62
     0
 10
0.0
 20
400.0
 30
0.0
 11
-3.999999999999992
 21
400.0
 31
0.0
  0
ENDBLK
  5
75
  8
0
  0
BLOCK
  8
0
  2
GROUP9_1
 70
     0
 10
0.0
 20
0.0
 30
0.0
  3
GROUP9_1
  1

  0
CIRCLE
  5
15E
  8
D8_0_DEPTHF
 62
     0
 10
0.0
 20
0.0
 30
0.0
 40
4.0
  0
POINT
  5
15F
  8
0
 62
     0
 10
0.0
 20
0.0
 30
0.0
  0
ENDBLK
  5
78
  8
0
  0
BLOCK
  8
0
  2
GROUP10_3
 70
     0
 10
0.0
 20
0.0
 30
0.0
  3
GROUP10_3
  1

  0
CIRCLE
  5
160
  8
D8_0_DEPTHF
 62
     0
 10
0.0
 20
0.0
 30
0.0
 40
4.0
  0
POINT
  5
161
  8
0
 62
     0
 10
0.0
 20
0.0
 30
0.0
  0
ENDBLK
  5
7B
  8
0
  0
BLOCK
  8
0
  2
GROUP11_1
 70
     0
 10
0.0
 20
0.0
 30
0.0
  3
GROUP11_1
  1

  0
CIRCLE
  5
162
  8
D8_0_DEPTHF
 62
     0
 10
0.0
 20
0.0
 30
0.0
 40
4.0
  0
POINT
  5
163
  8
0
 62
     0
 10
0.0
 20
0.0
 30
0.0
  0
ENDBLK
  5
7E
  8
0
  0
BLOCK
  8
0
  2
GROUP12_1
 70
     0
 10
0.0
 20
0.0
 30
0.0
  3
GROUP12_1
  1

  0
CIRCLE
  5
164
  8
D8_0_DEPTHF
 62
     0
 10
0.0
 20
0.0
 30
0.0
 40
4.0
  0
POINT
  5
165
  8
0
 62
     0
 10
0.0
 20
0.0
 30
0.0
  0
ENDBLK
  5
81
  8
0
  0
BLOCK
  8
0
  2
GROUP13_1
 70
     0
 10
0.0
 20
0.0
 30
0.0
  3
GROUP13_1
  1

  0
CIRCLE
  5
166
  8
D5_0_DEPTH8_0
 62
     0
 10
0.0
 20
0.0
 30
0.0
 40
2.5
  0
POINT
  5
167
  8
0
 62
     0
 10
0.0
 20
0.0
 30
0.0
  0
ENDBLK
  5
84
  8
0
  0
BLOCK
  8
0
  2
GROUP15_1
 70
     0
 10
0.0
 20
0.0
 30
0.0
  3
GROUP15_1
  1

  0
POLYLINE
  5
168
  8
ABF_CUTTINGLINES
 62
     0
 10
0.0
 20
0.0
 30
0.0
 66
     1
 70
     9
  0
VERTEX
  5
169
  8
ABF_CUTTINGLINES
 62
     0
 10
-299.9999999999999
 20
0.0000000000002182
 30
0.0
 70
    32
  0
VERTEX
  5
16A
  8
ABF_CUTTINGLINES
 62
     0
 10
0.0
 20
0.0
 30
0.0
 70
    32
  0
VERTEX
  5
16B
  8
ABF_CUTTINGLINES
 62
     0
 10
0.0000000000002909
 20
400.0
 30
0.0
 70
    32
  0
VERTEX
  5
16C
  8
ABF_CUTTINGLINES
 62
     0
 10
-299.9999999999997
 20
400.0000000000002
 30
0.0
 70
    32
  0
VERTEX
  5
16D
  8
ABF_CUTTINGLINES
 62
     0
 10
-299.9999999999999
 20
0.0000000000002182
 30
0.0
 70
    32
  0
SEQEND
  5
16E
  8
ABF_CUTTINGLINES
 62
     0
  0
ENDBLK
  5
87
  8
0
  0
BLOCK
  8
0
  2
_______2
 70
     0
 10
0.0
 20
0.0
 30
0.0
  3
_______2
  1

  0
POLYLINE
  5
170
  8
0
 62
     7
 66
     1
 10
0.0
 20
0.0
 30
0.0
 70
    64
 71
     4
 72
     2
1001
ACAD_MATERIAL_MAPPER
1070
     1
1070
     1
1070
     1
1011
0.0
1021
0.0
1031
0.0
1021
0.0
1031
0.0
1011
25.4
1021
0.0
1031
0.0
1021
0.0
1031
0.0
1011
0.0
1021
25.4
1031
0.0
1021
25.4
1031
0.0
1011
0.0
1021
0.0
1031
1.0
1021
0.0
1031
1.0
  0
VERTEX
  5
171
  8
0
 62
     7
 10
0.0
 20
0.0
 30
18.0
 70
   192
  0
VERTEX
  5
172
  8
0
 62
     7
 10
-299.9999999999997
 20
400.0000000000002
 30
18.0
 70
   192
  0
VERTEX
  5
173
  8
0
 62
     7
 10
-299.9999999999999
 20
0.0000000000002182
 30
18.0
 70
   192
  0
VERTEX
  5
174
  8
0
 62
     7
 10
0.0000000000002909
 20
400.0
 30
18.0
 70
   192
  0
VERTEX
  5
175
  8
0
 62
     7
 10
0.0
 20
0.0
 30
0.0
 70
   128
 71
    -1
 72
     2
 73
     3
  0
VERTEX
  5
176
  8
0
 62
     7
 10
0.0
 20
0.0
 30
0.0
 70
   128
 71
    -2
 72
     1
 73
     4
  0
SEQEND
  5
177
  8
0
 62
     7
  0
LINE
  5
178
  8
ABF_CUTTINGLINES
 62
     0
 10
0.0
 20
0.0
 30
18.0
 11
-299.9999999999999
 21
0.0000000000002182
 31
18.0
  0
LINE
  5
179
  8
ABF_CUTTINGLINES
 62
     0
 10
0.0000000000002909
 20
400.0
 30
18.0
 11
0.0
 21
0.0
 31
18.0
  0
LINE
  5
17A
  8
ABF_CUTTINGLINES
 62
     0
 10
-299.9999999999997
 20
400.0000000000002
 30
18.0
 11
0.0000000000002909
 21
400.0
 31
18.0
  0
LINE
  5
17B
  8
ABF_CUTTINGLINES
 62
     0
 10
-299.9999999999999
 20
0.0000000000002182
 30
18.0
 11
-299.9999999999997
 21
400.0000000000002
 31
18.0
  0
POLYLINE
  5
17C
  8
0
 62
     0
 66
     1
 10
0.0
 20
0.0
 30
0.0
 70
    64
 71
     4
 72
     2
1001
ACAD_MATERIAL_MAPPER
1070
     1
1070
     1
1070
     1
1011
0.0
1021
0.0
1031
0.0
1021
0.0
1031
0.0
1011
-25.4
1021
0.0
1031
0.0
1021
0.0
1031
0.0
1011
0.0
1021
25.4
1031
0.0
1021
25.4
1031
0.0
1011
0.0
1021
0.0
1031
1.0
1021
0.0
1031
1.0
  0
VERTEX
  5
17D
  8
0
 62
     0
 10
-299.9999999999997
 20
400.0000000000002
 30
0.0
 70
   192
  0
VERTEX
  5
17E
  8
0
 62
     0
 10
0.0
 20
0.0
 30
0.0
 70
   192
  0
VERTEX
  5
17F
  8
0
 62
     0
 10
-299.9999999999999
 20
0.0000000000002182
 30
0.0
 70
   192
  0
VERTEX
  5
180
  8
0
 62
     0
 10
0.0000000000002909
 20
400.0
 30
0.0
 70
   192
  0
VERTEX
  5
181
  8
0
 62
     0
 10
0.0
 20
0.0
 30
0.0
 70
   128
 71
    -1
 72
     2
 73
     3
  0
VERTEX
  5
182
  8
0
 62
     0
 10
0.0
 20
0.0
 30
0.0
 70
   128
 71
    -2
 72
     1
 73
     4
  0
SEQEND
  5
183
  8
0
 62
     0
  0
LINE
  5
184
  8
ABF_CUTTINGLINES
 62
     0
 10
0.0
 20
0.0
 30
0.0
 11
-299.9999999999999
 21
0.0000000000002182
 31
0.0
  0
LINE
  5
185
  8
ABF_CUTTINGLINES
 62
     0
 10
-299.9999999999999
 20
0.0000000000002182
 30
0.0
 11
-299.9999999999997
 21
400.0000000000002
 31
0.0
  0
LINE
  5
186
  8
ABF_CUTTINGLINES
 62
     0
 10
-299.9999999999997
 20
400.0000000000002
 30
0.0
 11
0.0000000000002909
 21
400.0
 31
0.0
  0
LINE
  5
187
  8
ABF_CUTTINGLINES
 62
     0
 10
0.0000000000002909
 20
400.0
 30
0.0
 11
0.0
 21
0.0
 31
0.0
  0
POLYLINE
  5
188
  8
0
 62
     0
 66
     1
 10
0.0
 20
0.0
 30
0.0
 70
    64
 71
     4
 72
     2
1001
ACAD_MATERIAL_MAPPER
1070
     1
1070
     1
1070
     1
1011
0.0
1021
0.0
1031
0.0
1021
0.0
1031
0.0
1011
25.4
1021
0.0
1031
0.0
1021
0.0
1031
0.0
1011
0.0
1021
0.0
1031
25.4
1021
0.0
1031
25.4
1011
0.0
1021
1.0
1031
0.0
1021
1.0
1031
0.0
  0
VERTEX
  5
189
  8
0
 62
     0
 10
0.0
 20
0.0
 30
18.0
 70
   192
  0
VERTEX
  5
18A
  8
0
 62
     0
 10
-299.9999999999999
 20
0.0000000000002182
 30
0.0
 70
   192
  0
VERTEX
  5
18B
  8
0
 62
     0
 10
0.0
 20
0.0
 30
0.0
 70
   192
  0
VERTEX
  5
18C
  8
0
 62
     0
 10
-299.9999999999999
 20
0.0000000000002182
 30
18.0
 70
   192
  0
VERTEX
  5
18D
  8
0
 62
     0
 10
0.0
 20
0.0
 30
0.0
 70
   128
 71
    -1
 72
     2
 73
     3
  0
VERTEX
  5
18E
  8
0
 62
     0
 10
0.0
 20
0.0
 30
0.0
 70
   128
 71
    -2
 72
     1
 73
     4
  0
SEQEND
  5
18F
  8
0
 62
     0
  0
LINE
  5
190
  8
ABF_CUTTINGLINES
 62
     0
 10
0.0
 20
0.0
 30
18.0
 11
-299.9999999999999
 21
0.0000000000002182
 31
18.0
  0
LINE
  5
191
  8
ABF_CUTTINGLINES
 62
     0
 10
-299.9999999999999
 20
0.0000000000002182
 30
18.0
 11
-299.9999999999999
 21
0.0000000000002182
 31
0.0
  0
LINE
  5
192
  8
ABF_CUTTINGLINES
 62
     0
 10
0.0
 20
0.0
 30
0.0
 11
-299.9999999999999
 21
0.0000000000002182
 31
0.0
  0
LINE
  5
193
  8
ABF_CUTTINGLINES
 62
     0
 10
0.0
 20
0.0
 30
18.0
 11
0.0
 21
0.0
 31
0.0
  0
POLYLINE
  5
194
  8
0
 62
     0
 66
     1
 10
0.0
 20
0.0
 30
0.0
 70
    64
 71
     4
 72
     2
1001
ACAD_MATERIAL_MAPPER
1070
     1
1070
     1
1070
     1
1011
0.0
1021
0.0000000000002182
1031
0.0
1021
0.0000000000002182
1031
0.0
1011
0.0
1021
-25.39999999999978
1031
0.0
1021
-25.39999999999978
1031
0.0
1011
0.0
1021
0.0000000000002182
1031
25.4
1021
0.0000000000002182
1031
25.4
1011
1.0
1021
0.0000000000002182
1031
0.0
1021
0.0000000000002182
1031
0.0
  0
VERTEX
  5
195
  8
0
 62
     0
 10
-299.9999999999997
 20
400.0000000000002
 30
18.0
 70
   192
  0
VERTEX
  5
196
  8
0
 62
     0
 10
-299.9999999999999
 20
0.0000000000002182
 30
0.0
 70
   192
  0
VERTEX
  5
197
  8
0
 62
     0
 10
-299.9999999999999
 20
0.0000000000002182
 30
18.0
 70
   192
  0
VERTEX
  5
198
  8
0
 62
     0
 10
-299.9999999999997
 20
400.0000000000002
 30
0.0
 70
   192
  0
VERTEX
  5
199
  8
0
 62
     0
 10
0.0
 20
0.0
 30
0.0
 70
   128
 71
    -1
 72
     2
 73
     3
  0
VERTEX
  5
19A
  8
0
 62
     0
 10
0.0
 20
0.0
 30
0.0
 70
   128
 71
    -2
 72
     1
 73
     4
  0
SEQEND
  5
19B
  8
0
 62
     0
  0
LINE
  5
19C
  8
ABF_CUTTINGLINES
 62
     0
 10
-299.9999999999999
 20
0.0000000000002182
 30
18.0
 11
-299.9999999999997
 21
400.0000000000002
 31
18.0
  0
LINE
  5
19D
  8
ABF_CUTTINGLINES
 62
     0
 10
-299.9999999999997
 20
400.0000000000002
 30
18.0
 11
-299.9999999999997
 21
400.0000000000002
 31
0.0
  0
LINE
  5
19E
  8
ABF_CUTTINGLINES
 62
     0
 10
-299.9999999999999
 20
0.0000000000002182
 30
0.0
 11
-299.9999999999997
 21
400.0000000000002
 31
0.0
  0
LINE
  5
19F
  8
ABF_CUTTINGLINES
 62
     0
 10
-299.9999999999999
 20
0.0000000000002182
 30
18.0
 11
-299.9999999999999
 21
0.0000000000002182
 31
0.0
  0
POLYLINE
  5
1A0
  8
0
 62
     0
 66
     1
 10
0.0
 20
0.0
 30
0.0
 70
    64
 71
     4
 72
     2
1001
ACAD_MATERIAL_MAPPER
1070
     1
1070
     1
1070
     1
1011
0.0000000000002909
1021
0.0
1031
0.0
1021
0.0
1031
0.0
1011
-25.39999999999971
1021
0.0
1031
0.0
1021
0.0
1031
0.0
1011
0.0000000000002909
1021
0.0
1031
25.4
1021
0.0
1031
25.4
1011
0.0000000000002909
1021
1.0
1031
0.0
1021
1.0
1031
0.0
  0
VERTEX
  5
1A1
  8
0
 62
     0
 10
-299.9999999999997
 20
400.0000000000002
 30
18.0
 70
   192
  0
VERTEX
  5
1A2
  8
0
 62
     0
 10
0.0000000000002909
 20
400.0
 30
0.0
 70
   192
  0
VERTEX
  5
1A3
  8
0
 62
     0
 10
-299.9999999999997
 20
400.0000000000002
 30
0.0
 70
   192
  0
VERTEX
  5
1A4
  8
0
 62
     0
 10
0.0000000000002909
 20
400.0
 30
18.0
 70
   192
  0
VERTEX
  5
1A5
  8
0
 62
     0
 10
0.0
 20
0.0
 30
0.0
 70
   128
 71
    -1
 72
     2
 73
     3
  0
VERTEX
  5
1A6
  8
0
 62
     0
 10
0.0
 20
0.0
 30
0.0
 70
   128
 71
    -2
 72
     1
 73
     4
  0
SEQEND
  5
1A7
  8
0
 62
     0
  0
LINE
  5
1A8
  8
ABF_CUTTINGLINES
 62
     0
 10
-299.9999999999997
 20
400.0000000000002
 30
18.0
 11
0.0000000000002909
 21
400.0
 31
18.0
  0
LINE
  5
1A9
  8
ABF_CUTTINGLINES
 62
     0
 10
0.0000000000002909
 20
400.0
 30
18.0
 11
0.0000000000002909
 21
400.0
 31
0.0
  0
LINE
  5
1AA
  8
ABF_CUTTINGLINES
 62
     0
 10
-299.9999999999997
 20
400.0000000000002
 30
0.0
 11
0.0000000000002909
 21
400.0
 31
0.0
  0
LINE
  5
1AB
  8
ABF_CUTTINGLINES
 62
     0
 10
-299.9999999999997
 20
400.0000000000002
 30
18.0
 11
-299.9999999999997
 21
400.0000000000002
 31
0.0
  0
POLYLINE
  5
1AC
  8
0
 62
     0
 66
     1
 10
0.0
 20
0.0
 30
0.0
 70
    64
 71
     4
 72
     2
1001
ACAD_MATERIAL_MAPPER
1070
     1
1070
     1
1070
     1
1011
0.0
1021
0.0
1031
0.0
1021
0.0
1031
0.0
1011
0.0
1021
25.4
1031
0.0
1021
25.4
1031
0.0
1011
0.0
1021
0.0
1031
25.4
1021
0.0
1031
25.4
1011
1.0
1021
0.0
1031
0.0
1021
0.0
1031
0.0
  0
VERTEX
  5
1AD
  8
0
 62
     0
 10
0.0000000000002909
 20
400.0
 30
0.0
 70
   192
  0
VERTEX
  5
1AE
  8
0
 62
     0
 10
0.0
 20
0.0
 30
18.0
 70
   192
  0
VERTEX
  5
1AF
  8
0
 62
     0
 10
0.0
 20
0.0
 30
0.0
 70
   192
  0
VERTEX
  5
1B0
  8
0
 62
     0
 10
0.0000000000002909
 20
400.0
 30
18.0
 70
   192
  0
VERTEX
  5
1B1
  8
0
 62
     0
 10
0.0
 20
0.0
 30
0.0
 70
   128
 71
    -1
 72
     2
 73
     3
  0
VERTEX
  5
1B2
  8
0
 62
     0
 10
0.0
 20
0.0
 30
0.0
 70
   128
 71
    -2
 72
     1
 73
     4
  0
SEQEND
  5
1B3
  8
0
 62
     0
  0
LINE
  5
1B4
  8
ABF_CUTTINGLINES
 62
     0
 10
0.0000000000002909
 20
400.0
 30
18.0
 11
0.0
 21
0.0
 31
18.0
  0
LINE
  5
1B5
  8
ABF_CUTTINGLINES
 62
     0
 10
0.0
 20
0.0
 30
18.0
 11
0.0
 21
0.0
 31
0.0
  0
LINE
  5
1B6
  8
ABF_CUTTINGLINES
 62
     0
 10
0.0000000000002909
 20
400.0
 30
0.0
 11
0.0
 21
0.0
 31
0.0
  0
LINE
  5
1B7
  8
ABF_CUTTINGLINES
 62
     0
 10
0.0000000000002909
 20
400.0
 30
18.0
 11
0.0000000000002909
 21
400.0
 31
0.0
  0
INSERT
  5
1B8
  8
ABF_LABEL
 62
     0
 66
     1
  2
GROUP10_1
 10
-149.9999999999998
 20
200.0000000000001
 30
18.0
 41
1.574803149606299
 42
1.574803149606299
 50
90.0
  0
ATTRIB
  5
1B9
  8
0
 10
0.0
 20
0.0
 30
0.0
 40
1.0
  1
_ABF_Label
  2
Skp_GroupInstanceName
 70
     0
  0
SEQEND
  5
1BA
  8
ABF_LABEL
 62
     0
  0
INSERT
  5
1BC
  8
PAZ_DEPTH8_0
 62
     7
 66
     1
  2
GROUP6_1
 10
-0.0000000000000116
 20
16.0
 30
-18.0
 50
0.0000000000000417
210
0.0
220
0.0
230
-1.0
  0
ATTRIB
  5
1BD
  8
0
 10
0.0
 20
0.0
 30
0.0
 40
1.0
  1
ABF_Intersect
  2
Skp_GroupInstanceName
 70
     0
  0
SEQEND
  5
1BE
  8
PAZ_DEPTH8_0
 62
     7
  0
INSERT
  5
1BF
  8
PAZ_DEPTH8_0
 62
     7
 66
     1
  2
GROUP7_1
 10
283.9999999999999
 20
0.0000000000002066
 30
-18.0
 50
0.0000000000000417
210
0.0
220
0.0
230
-1.0
  0
ATTRIB
  5
1C0
  8
0
 10
0.0
 20
0.0
 30
0.0
 40
1.0
  1
ABF_Intersect
  2
Skp_GroupInstanceName
 70
     0
  0
SEQEND
  5
1C1
  8
PAZ_DEPTH8_0
 62
     7
  0
INSERT
  5
1C2
  8
0
 62
     0
 66
     1
  2
GROUP9_1
 10
-292.1756861783589
 20
9.587050003503018
 30
18.0
 50
89.99999999999996
  0
ATTRIB
  5
1C3
  8
0
 10
0.0
 20
0.0
 30
0.0
 40
1.0
  1
ABF_Hole
  2
Skp_GroupInstanceName
 70
     0
  0
SEQEND
  5
1C4
  8
0
 62
     0
  0
INSERT
  5
1C5
  8
0
 62
     0
 66
     1
  2
GROUP10_3
 10
-240.366131568335
 20
74.63682412497741
 30
18.0
 50
89.99999999999996
  0
ATTRIB
  5
1C6
  8
0
 10
0.0
 20
0.0
 30
0.0
 40
1.0
  1
ABF_Hole
  2
Skp_GroupInstanceName
 70
     0
  0
SEQEND
  5
1C7
  8
0
 62
     0
  0
INSERT
  5
1C8
  8
0
 62
     0
 66
     1
  2
GROUP11_1
 10
-241.2296241451685
 20
233.8072891213285
 30
18.0
 50
89.99999999999996
  0
ATTRIB
  5
1C9
  8
0
 10
0.0
 20
0.0
 30
0.0
 40
1.0
  1
ABF_Hole
  2
Skp_GroupInstanceName
 70
     0
  0
SEQEND
  5
1CA
  8
0
 62
     0
  0
INSERT
  5
1CB
  8
0
 62
     0
 66
     1
  2
GROUP12_1
 10
-66.22846190686572
 20
238.4125828644416
 30
18.0
 50
89.99999999999996
  0
ATTRIB
  5
1CC
  8
0
 10
0.0
 20
0.0
 30
0.0
 40
1.0
  1
ABF_Hole
  2
Skp_GroupInstanceName
 70
     0
  0
SEQEND
  5
1CD
  8
0
 62
     0
  0
INSERT
  5
1CE
  8
0
 62
     0
 66
     1
  2
GROUP13_1
 10
-253.0306893618962
 20
373.693086568393
 30
18.0
 50
89.99999999999996
  0
ATTRIB
  5
1CF
  8
0
 10
0.0
 20
0.0
 30
0.0
 40
1.0
  1
ABF_Hole
  2
Skp_GroupInstanceName
 70
     0
  0
SEQEND
  5
1D0
  8
0
 62
     0
  0
INSERT
  5
1D1
  8
ABF_CUTTINGLINES
 62
     0
 66
     1
  2
GROUP15_1
 10
0.0
 20
0.0
 30
18.0
  0
ATTRIB
  5
1D2
  8
0
 10
0.0
 20
0.0
 30
0.0
 40
1.0
  1
_ABF_cuttingLines
  2
Skp_GroupInstanceName
 70
     0
  0
SEQEND
  5
1D3
  8
ABF_CUTTINGLINES
 62
     0
  0
ENDBLK
  5
8A
  8
0
  0
BLOCK
  8
0
  2
GROUP13_2
 70
     0
 10
0.0
 20
0.0
 30
0.0
  3
GROUP13_2
  1

  0
DIMENSION
  5
1D4
  8
0
 62
   250
  2
*D14
 10
-299.9999999999999
 20
-200.0
 30
0.0
 11
-926.8910435362211
 21
-283.0152098557814
 31
0.0
 70
    32
  1
THICKNESS_18
  3
DIMSTYLE1
 13
0.0
 23
-181.8181818181818
 33
0.0
 14
-299.9999999999999
 24
-181.8181818181818
 34
0.0
1001
ACAD
1000
DSTYLE
1002
{
1070
    73
1070
     0
1002
}
  0
ENDBLK
  5
8D
  8
0
  0
BLOCK
  8
0
  2
*D14
 70
     1
 10
0.0
 20
0.0
 30
0.0
  3
*D14
  1

  0
LINE
  5
1D9
  8
0
 62
     0
 10
0.0
 20
-194.5181818181818
 30
0.0
 11
0.0
 21
-212.7
 31
0.0
  0
LINE
  5
1DA
  8
0
 62
     0
 10
-299.9999999999999
 20
-194.5181818181818
 30
0.0
 11
-299.9999999999999
 21
-212.7
 31
0.0
  0
LINE
  5
1DB
  8
0
 62
     0
 10
-299.9999999999999
 20
-200.0
 30
0.0
 11
-1541.082087072442
 21
-200.0
 31
0.0
  0
LINE
  5
1DC
  8
0
 62
     0
 10
-12.7
 20
-200.0
 30
0.0
 11
-287.3
 21
-200.0
 31
0.0
  0
SOLID
  5
1DD
  8
0
 62
     0
 10
-12.7
 20
-202.1166666666667
 30
0.0
 11
-12.7
 21
-197.8833333333333
 31
0.0
 12
0.0
 22
-200.0
 32
0.0
 13
0.0
 23
-200.0
 33
0.0
  0
SOLID
  5
1DE
  8
0
 62
     0
 10
-287.3
 20
-197.8833333333333
 30
0.0
 11
-287.3
 21
-202.1166666666667
 31
0.0
 12
-299.9999999999999
 22
-200.0
 32
0.0
 13
-299.9999999999999
 23
-200.0
 33
0.0
  0
TEXT
  5
1DF
  8
0
 62
     0
 10
-1538.542087072442
 20
-335.5476385116387
 30
0.0
 40
131.4954409408193
  1
THICKNESS_18
  7
TAHOMA
1001
ACADANNOTATIVE
1000
AnnotativeData
1002
{
1070
     1
1070
     0
1002
}
  0
POINT
  5
1E0
  8
DEFPOINTS
 62
     0
 10
0.0
 20
-181.8181818181818
 30
0.0
  0
POINT
  5
1E1
  8
DEFPOINTS
 62
     0
 10
-299.9999999999999
 20
-181.8181818181818
 30
0.0
  0
POINT
  5
1E2
  8
DEFPOINTS
 62
     0
 10
-299.9999999999999
 20
-200.0
 30
0.0
  0
ENDBLK
  5
1D8
  8
0
  0
ENDSEC
  0
SECTION
  2
ENTITIES
  0
INSERT
  5
1E3
  8
0
 62
     0
 66
     1
  2
THICKNESS_18
 10
0.0
 20
0.0
 30
0.0
  0
ATTRIB
  5
1E4
  8
0
 10
0.0
 20
0.0
 30
0.0
 40
0.2
  1
ABF_Flatten
  2
Skp_ComponentInstanceName
 70
     0
  0
SEQEND
  5
1E5
  8
0
 62
     0
  0
INSERT
  5
1E6
  8
0
 62
     0
 66
     1
  2
GROUP13_2
 10
0.0
 20
0.0
 30
0.0
  0
ATTRIB
  5
1E7
  8
0
 10
0.0
 20
0.0
 30
0.0
 40
1.0
  1
ABF_Flatten
  2
Skp_GroupInstanceName
 70
     0
  0
SEQEND
  5
1E8
  8
0
 62
     0
  0
ENDSEC
  0
EOF
